G04 #@! TF.GenerationSoftware,KiCad,Pcbnew,5.1.4*
G04 #@! TF.CreationDate,2019-11-05T18:01:46+08:00*
G04 #@! TF.ProjectId,LaserScanningProjector,4c617365-7253-4636-916e-6e696e675072,rev?*
G04 #@! TF.SameCoordinates,Original*
G04 #@! TF.FileFunction,Soldermask,Top*
G04 #@! TF.FilePolarity,Negative*
%FSLAX46Y46*%
G04 Gerber Fmt 4.6, Leading zero omitted, Abs format (unit mm)*
G04 Created by KiCad (PCBNEW 5.1.4) date 2019-11-05 18:01:46*
%MOMM*%
%LPD*%
G04 APERTURE LIST*
%ADD10C,0.100000*%
G04 APERTURE END LIST*
D10*
G36*
X146459307Y-106901330D02*
G01*
X146787743Y-106966660D01*
X147096260Y-107094452D01*
X147355258Y-107201732D01*
X147406504Y-107222959D01*
X147571111Y-107332946D01*
X147772981Y-107467831D01*
X147963374Y-107595048D01*
X148436952Y-108068626D01*
X148765168Y-108559835D01*
X148809042Y-108625498D01*
X148812371Y-108633536D01*
X149065340Y-109244257D01*
X149196000Y-109901129D01*
X149196000Y-110570871D01*
X149065340Y-111227743D01*
X148809041Y-111846504D01*
X148436952Y-112403374D01*
X147963374Y-112876952D01*
X147406504Y-113249041D01*
X146787743Y-113505340D01*
X146459307Y-113570670D01*
X146130872Y-113636000D01*
X145461128Y-113636000D01*
X145132693Y-113570670D01*
X144804257Y-113505340D01*
X144185496Y-113249041D01*
X143628626Y-112876952D01*
X143155048Y-112403374D01*
X142782959Y-111846504D01*
X142526660Y-111227743D01*
X142396000Y-110570871D01*
X142396000Y-109901129D01*
X142526660Y-109244257D01*
X142779629Y-108633536D01*
X142782958Y-108625498D01*
X142826833Y-108559835D01*
X143155048Y-108068626D01*
X143628626Y-107595048D01*
X143819020Y-107467831D01*
X144020889Y-107332946D01*
X144185496Y-107222959D01*
X144236743Y-107201732D01*
X144495740Y-107094452D01*
X144804257Y-106966660D01*
X145132693Y-106901330D01*
X145461128Y-106836000D01*
X146130872Y-106836000D01*
X146459307Y-106901330D01*
X146459307Y-106901330D01*
G37*
G36*
X69751307Y-106901330D02*
G01*
X70079743Y-106966660D01*
X70388260Y-107094452D01*
X70647258Y-107201732D01*
X70698504Y-107222959D01*
X70863111Y-107332946D01*
X71064981Y-107467831D01*
X71255374Y-107595048D01*
X71728952Y-108068626D01*
X72057168Y-108559835D01*
X72101042Y-108625498D01*
X72104371Y-108633536D01*
X72357340Y-109244257D01*
X72488000Y-109901129D01*
X72488000Y-110570871D01*
X72357340Y-111227743D01*
X72101041Y-111846504D01*
X71728952Y-112403374D01*
X71255374Y-112876952D01*
X70698504Y-113249041D01*
X70079743Y-113505340D01*
X69751307Y-113570670D01*
X69422872Y-113636000D01*
X68753128Y-113636000D01*
X68424693Y-113570670D01*
X68096257Y-113505340D01*
X67477496Y-113249041D01*
X66920626Y-112876952D01*
X66447048Y-112403374D01*
X66074959Y-111846504D01*
X65818660Y-111227743D01*
X65688000Y-110570871D01*
X65688000Y-109901129D01*
X65818660Y-109244257D01*
X66071629Y-108633536D01*
X66074958Y-108625498D01*
X66118833Y-108559835D01*
X66447048Y-108068626D01*
X66920626Y-107595048D01*
X67111020Y-107467831D01*
X67312889Y-107332946D01*
X67477496Y-107222959D01*
X67528743Y-107201732D01*
X67787740Y-107094452D01*
X68096257Y-106966660D01*
X68424693Y-106901330D01*
X68753128Y-106836000D01*
X69422872Y-106836000D01*
X69751307Y-106901330D01*
X69751307Y-106901330D01*
G37*
G36*
X125148000Y-110272000D02*
G01*
X123148000Y-110272000D01*
X123148000Y-108572000D01*
X125148000Y-108572000D01*
X125148000Y-110272000D01*
X125148000Y-110272000D01*
G37*
G36*
X136948000Y-110272000D02*
G01*
X134948000Y-110272000D01*
X134948000Y-108572000D01*
X136948000Y-108572000D01*
X136948000Y-110272000D01*
X136948000Y-110272000D01*
G37*
G36*
X114060353Y-108335355D02*
G01*
X114227782Y-108404706D01*
X114229090Y-108405580D01*
X114378466Y-108505390D01*
X114506610Y-108633534D01*
X114506611Y-108633536D01*
X114607294Y-108784218D01*
X114676645Y-108951647D01*
X114712000Y-109129387D01*
X114712000Y-109310613D01*
X114676645Y-109488353D01*
X114607294Y-109655782D01*
X114607293Y-109655783D01*
X114506610Y-109806466D01*
X114378466Y-109934610D01*
X114302612Y-109985294D01*
X114227782Y-110035294D01*
X114060353Y-110104645D01*
X113882613Y-110140000D01*
X113701387Y-110140000D01*
X113523647Y-110104645D01*
X113356218Y-110035294D01*
X113281388Y-109985294D01*
X113205534Y-109934610D01*
X113077390Y-109806466D01*
X112976707Y-109655783D01*
X112976706Y-109655782D01*
X112907355Y-109488353D01*
X112872000Y-109310613D01*
X112872000Y-109129387D01*
X112907355Y-108951647D01*
X112976706Y-108784218D01*
X113077389Y-108633536D01*
X113077390Y-108633534D01*
X113205534Y-108505390D01*
X113354910Y-108405580D01*
X113356218Y-108404706D01*
X113523647Y-108335355D01*
X113701387Y-108300000D01*
X113882613Y-108300000D01*
X114060353Y-108335355D01*
X114060353Y-108335355D01*
G37*
G36*
X116600353Y-108335355D02*
G01*
X116767782Y-108404706D01*
X116769090Y-108405580D01*
X116918466Y-108505390D01*
X117046610Y-108633534D01*
X117046611Y-108633536D01*
X117147294Y-108784218D01*
X117216645Y-108951647D01*
X117252000Y-109129387D01*
X117252000Y-109310613D01*
X117216645Y-109488353D01*
X117147294Y-109655782D01*
X117147293Y-109655783D01*
X117046610Y-109806466D01*
X116918466Y-109934610D01*
X116842612Y-109985294D01*
X116767782Y-110035294D01*
X116600353Y-110104645D01*
X116422613Y-110140000D01*
X116241387Y-110140000D01*
X116063647Y-110104645D01*
X115896218Y-110035294D01*
X115821388Y-109985294D01*
X115745534Y-109934610D01*
X115617390Y-109806466D01*
X115516707Y-109655783D01*
X115516706Y-109655782D01*
X115447355Y-109488353D01*
X115412000Y-109310613D01*
X115412000Y-109129387D01*
X115447355Y-108951647D01*
X115516706Y-108784218D01*
X115617389Y-108633536D01*
X115617390Y-108633534D01*
X115745534Y-108505390D01*
X115894910Y-108405580D01*
X115896218Y-108404706D01*
X116063647Y-108335355D01*
X116241387Y-108300000D01*
X116422613Y-108300000D01*
X116600353Y-108335355D01*
X116600353Y-108335355D01*
G37*
G36*
X111520353Y-108335355D02*
G01*
X111687782Y-108404706D01*
X111689090Y-108405580D01*
X111838466Y-108505390D01*
X111966610Y-108633534D01*
X111966611Y-108633536D01*
X112067294Y-108784218D01*
X112136645Y-108951647D01*
X112172000Y-109129387D01*
X112172000Y-109310613D01*
X112136645Y-109488353D01*
X112067294Y-109655782D01*
X112067293Y-109655783D01*
X111966610Y-109806466D01*
X111838466Y-109934610D01*
X111762612Y-109985294D01*
X111687782Y-110035294D01*
X111520353Y-110104645D01*
X111342613Y-110140000D01*
X111161387Y-110140000D01*
X110983647Y-110104645D01*
X110816218Y-110035294D01*
X110741388Y-109985294D01*
X110665534Y-109934610D01*
X110537390Y-109806466D01*
X110436707Y-109655783D01*
X110436706Y-109655782D01*
X110367355Y-109488353D01*
X110332000Y-109310613D01*
X110332000Y-109129387D01*
X110367355Y-108951647D01*
X110436706Y-108784218D01*
X110537389Y-108633536D01*
X110537390Y-108633534D01*
X110665534Y-108505390D01*
X110814910Y-108405580D01*
X110816218Y-108404706D01*
X110983647Y-108335355D01*
X111161387Y-108300000D01*
X111342613Y-108300000D01*
X111520353Y-108335355D01*
X111520353Y-108335355D01*
G37*
G36*
X97701835Y-107019193D02*
G01*
X97899761Y-107079233D01*
X97899764Y-107079234D01*
X97989707Y-107127310D01*
X98082171Y-107176733D01*
X98103993Y-107194642D01*
X98242055Y-107307945D01*
X98373268Y-107467830D01*
X98470766Y-107650235D01*
X98470766Y-107650236D01*
X98470767Y-107650238D01*
X98530807Y-107848164D01*
X98546000Y-108002422D01*
X98546000Y-108405577D01*
X98530807Y-108559835D01*
X98478350Y-108732762D01*
X98470766Y-108757764D01*
X98386631Y-108915169D01*
X98373267Y-108940171D01*
X98339087Y-108981819D01*
X98242055Y-109100055D01*
X98082170Y-109231268D01*
X97899765Y-109328766D01*
X97899762Y-109328767D01*
X97701836Y-109388807D01*
X97496000Y-109409080D01*
X97290165Y-109388807D01*
X97092239Y-109328767D01*
X97092236Y-109328766D01*
X96909831Y-109231268D01*
X96749946Y-109100055D01*
X96618734Y-108940172D01*
X96605371Y-108915171D01*
X96521233Y-108757762D01*
X96461193Y-108559836D01*
X96446000Y-108405578D01*
X96446000Y-108002423D01*
X96461193Y-107848165D01*
X96521233Y-107650239D01*
X96521234Y-107650236D01*
X96618732Y-107467831D01*
X96618733Y-107467829D01*
X96652913Y-107426181D01*
X96749945Y-107307945D01*
X96909830Y-107176732D01*
X97092235Y-107079234D01*
X97092238Y-107079233D01*
X97290164Y-107019193D01*
X97496000Y-106998920D01*
X97701835Y-107019193D01*
X97701835Y-107019193D01*
G37*
G36*
X95868326Y-107008831D02*
G01*
X95909596Y-107021350D01*
X95947631Y-107041681D01*
X95980964Y-107069036D01*
X96008319Y-107102369D01*
X96028650Y-107140404D01*
X96041169Y-107181674D01*
X96046000Y-107230727D01*
X96046000Y-109177273D01*
X96041169Y-109226326D01*
X96028650Y-109267596D01*
X96008319Y-109305631D01*
X95980964Y-109338964D01*
X95947631Y-109366319D01*
X95909596Y-109386650D01*
X95868326Y-109399169D01*
X95819273Y-109404000D01*
X94172727Y-109404000D01*
X94123674Y-109399169D01*
X94082404Y-109386650D01*
X94044369Y-109366319D01*
X94011036Y-109338964D01*
X93983681Y-109305631D01*
X93963350Y-109267596D01*
X93950831Y-109226326D01*
X93946000Y-109177273D01*
X93946000Y-107230727D01*
X93950831Y-107181674D01*
X93963350Y-107140404D01*
X93983681Y-107102369D01*
X94011036Y-107069036D01*
X94044369Y-107041681D01*
X94082404Y-107021350D01*
X94123674Y-107008831D01*
X94172727Y-107004000D01*
X95819273Y-107004000D01*
X95868326Y-107008831D01*
X95868326Y-107008831D01*
G37*
G36*
X85001835Y-107044193D02*
G01*
X85167517Y-107094452D01*
X85199764Y-107104234D01*
X85335399Y-107176733D01*
X85382171Y-107201733D01*
X85408035Y-107222959D01*
X85542055Y-107332945D01*
X85673268Y-107492830D01*
X85770766Y-107675235D01*
X85770766Y-107675236D01*
X85770767Y-107675238D01*
X85830807Y-107873164D01*
X85830807Y-107873166D01*
X85846000Y-108027420D01*
X85846000Y-108380579D01*
X85838403Y-108457706D01*
X85830807Y-108534835D01*
X85800867Y-108633534D01*
X85770766Y-108732764D01*
X85743263Y-108784218D01*
X85673267Y-108915171D01*
X85652750Y-108940171D01*
X85542055Y-109075055D01*
X85382170Y-109206268D01*
X85199765Y-109303766D01*
X85199762Y-109303767D01*
X85001836Y-109363807D01*
X84796000Y-109384080D01*
X84590165Y-109363807D01*
X84392239Y-109303767D01*
X84392236Y-109303766D01*
X84209831Y-109206268D01*
X84049946Y-109075054D01*
X83918732Y-108915170D01*
X83821234Y-108732765D01*
X83821233Y-108732761D01*
X83761193Y-108534836D01*
X83746000Y-108380578D01*
X83746000Y-108027423D01*
X83748463Y-108002420D01*
X83761193Y-107873167D01*
X83761193Y-107873165D01*
X83821233Y-107675239D01*
X83821234Y-107675236D01*
X83918732Y-107492831D01*
X83918733Y-107492829D01*
X83952913Y-107451181D01*
X84049945Y-107332945D01*
X84209830Y-107201732D01*
X84392235Y-107104234D01*
X84424482Y-107094452D01*
X84590164Y-107044193D01*
X84796000Y-107023920D01*
X85001835Y-107044193D01*
X85001835Y-107044193D01*
G37*
G36*
X87501835Y-107044193D02*
G01*
X87667517Y-107094452D01*
X87699764Y-107104234D01*
X87835399Y-107176733D01*
X87882171Y-107201733D01*
X87908035Y-107222959D01*
X88042055Y-107332945D01*
X88173268Y-107492830D01*
X88270766Y-107675235D01*
X88270766Y-107675236D01*
X88270767Y-107675238D01*
X88330807Y-107873164D01*
X88330807Y-107873166D01*
X88346000Y-108027420D01*
X88346000Y-108380579D01*
X88338403Y-108457706D01*
X88330807Y-108534835D01*
X88300867Y-108633534D01*
X88270766Y-108732764D01*
X88243263Y-108784218D01*
X88173267Y-108915171D01*
X88152750Y-108940171D01*
X88042055Y-109075055D01*
X87882170Y-109206268D01*
X87699765Y-109303766D01*
X87699762Y-109303767D01*
X87501836Y-109363807D01*
X87296000Y-109384080D01*
X87090165Y-109363807D01*
X86892239Y-109303767D01*
X86892236Y-109303766D01*
X86709831Y-109206268D01*
X86549946Y-109075054D01*
X86418732Y-108915170D01*
X86321234Y-108732765D01*
X86321233Y-108732761D01*
X86261193Y-108534836D01*
X86246000Y-108380578D01*
X86246000Y-108027423D01*
X86248463Y-108002420D01*
X86261193Y-107873167D01*
X86261193Y-107873165D01*
X86321233Y-107675239D01*
X86321234Y-107675236D01*
X86418732Y-107492831D01*
X86418733Y-107492829D01*
X86452913Y-107451181D01*
X86549945Y-107332945D01*
X86709830Y-107201732D01*
X86892235Y-107104234D01*
X86924482Y-107094452D01*
X87090164Y-107044193D01*
X87296000Y-107023920D01*
X87501835Y-107044193D01*
X87501835Y-107044193D01*
G37*
G36*
X83168438Y-107033829D02*
G01*
X83209682Y-107046340D01*
X83247690Y-107066656D01*
X83281004Y-107093996D01*
X83308344Y-107127310D01*
X83328660Y-107165318D01*
X83341171Y-107206562D01*
X83346000Y-107255591D01*
X83346000Y-109152409D01*
X83341171Y-109201438D01*
X83328660Y-109242682D01*
X83308344Y-109280690D01*
X83281004Y-109314004D01*
X83247690Y-109341344D01*
X83209682Y-109361660D01*
X83168438Y-109374171D01*
X83119409Y-109379000D01*
X81472591Y-109379000D01*
X81423562Y-109374171D01*
X81382318Y-109361660D01*
X81344310Y-109341344D01*
X81310996Y-109314004D01*
X81283656Y-109280690D01*
X81263340Y-109242682D01*
X81250829Y-109201438D01*
X81246000Y-109152409D01*
X81246000Y-107255591D01*
X81250829Y-107206562D01*
X81263340Y-107165318D01*
X81283656Y-107127310D01*
X81310996Y-107093996D01*
X81344310Y-107066656D01*
X81382318Y-107046340D01*
X81423562Y-107033829D01*
X81472591Y-107029000D01*
X83119409Y-107029000D01*
X83168438Y-107033829D01*
X83168438Y-107033829D01*
G37*
G36*
X136948000Y-107472000D02*
G01*
X134948000Y-107472000D01*
X134948000Y-105772000D01*
X136948000Y-105772000D01*
X136948000Y-107472000D01*
X136948000Y-107472000D01*
G37*
G36*
X125148000Y-107472000D02*
G01*
X123148000Y-107472000D01*
X123148000Y-105772000D01*
X125148000Y-105772000D01*
X125148000Y-107472000D01*
X125148000Y-107472000D01*
G37*
G36*
X112445529Y-102363710D02*
G01*
X112495378Y-102378831D01*
X112541310Y-102403382D01*
X112581574Y-102436426D01*
X112614618Y-102476690D01*
X112639169Y-102522622D01*
X112654290Y-102572471D01*
X112660000Y-102630444D01*
X112660000Y-103635556D01*
X112654290Y-103693529D01*
X112639169Y-103743378D01*
X112614618Y-103789310D01*
X112581574Y-103829574D01*
X112541310Y-103862618D01*
X112495378Y-103887169D01*
X112445529Y-103902290D01*
X112387556Y-103908000D01*
X111132444Y-103908000D01*
X111074471Y-103902290D01*
X111024622Y-103887169D01*
X110978690Y-103862618D01*
X110938426Y-103829574D01*
X110905382Y-103789310D01*
X110880831Y-103743378D01*
X110865710Y-103693529D01*
X110860000Y-103635556D01*
X110860000Y-102630444D01*
X110865710Y-102572471D01*
X110880831Y-102522622D01*
X110905382Y-102476690D01*
X110938426Y-102436426D01*
X110978690Y-102403382D01*
X111024622Y-102378831D01*
X111074471Y-102363710D01*
X111132444Y-102358000D01*
X112387556Y-102358000D01*
X112445529Y-102363710D01*
X112445529Y-102363710D01*
G37*
G36*
X97713529Y-102363710D02*
G01*
X97763378Y-102378831D01*
X97809310Y-102403382D01*
X97849574Y-102436426D01*
X97882618Y-102476690D01*
X97907169Y-102522622D01*
X97922290Y-102572471D01*
X97928000Y-102630444D01*
X97928000Y-103635556D01*
X97922290Y-103693529D01*
X97907169Y-103743378D01*
X97882618Y-103789310D01*
X97849574Y-103829574D01*
X97809310Y-103862618D01*
X97763378Y-103887169D01*
X97713529Y-103902290D01*
X97655556Y-103908000D01*
X96400444Y-103908000D01*
X96342471Y-103902290D01*
X96292622Y-103887169D01*
X96246690Y-103862618D01*
X96206426Y-103829574D01*
X96173382Y-103789310D01*
X96148831Y-103743378D01*
X96133710Y-103693529D01*
X96128000Y-103635556D01*
X96128000Y-102630444D01*
X96133710Y-102572471D01*
X96148831Y-102522622D01*
X96173382Y-102476690D01*
X96206426Y-102436426D01*
X96246690Y-102403382D01*
X96292622Y-102378831D01*
X96342471Y-102363710D01*
X96400444Y-102358000D01*
X97655556Y-102358000D01*
X97713529Y-102363710D01*
X97713529Y-102363710D01*
G37*
G36*
X101777529Y-102363710D02*
G01*
X101827378Y-102378831D01*
X101873310Y-102403382D01*
X101913574Y-102436426D01*
X101946618Y-102476690D01*
X101971169Y-102522622D01*
X101986290Y-102572471D01*
X101992000Y-102630444D01*
X101992000Y-103635556D01*
X101986290Y-103693529D01*
X101971169Y-103743378D01*
X101946618Y-103789310D01*
X101913574Y-103829574D01*
X101873310Y-103862618D01*
X101827378Y-103887169D01*
X101777529Y-103902290D01*
X101719556Y-103908000D01*
X100464444Y-103908000D01*
X100406471Y-103902290D01*
X100356622Y-103887169D01*
X100310690Y-103862618D01*
X100270426Y-103829574D01*
X100237382Y-103789310D01*
X100212831Y-103743378D01*
X100197710Y-103693529D01*
X100192000Y-103635556D01*
X100192000Y-102630444D01*
X100197710Y-102572471D01*
X100212831Y-102522622D01*
X100237382Y-102476690D01*
X100270426Y-102436426D01*
X100310690Y-102403382D01*
X100356622Y-102378831D01*
X100406471Y-102363710D01*
X100464444Y-102358000D01*
X101719556Y-102358000D01*
X101777529Y-102363710D01*
X101777529Y-102363710D01*
G37*
G36*
X106857529Y-102363710D02*
G01*
X106907378Y-102378831D01*
X106953310Y-102403382D01*
X106993574Y-102436426D01*
X107026618Y-102476690D01*
X107051169Y-102522622D01*
X107066290Y-102572471D01*
X107072000Y-102630444D01*
X107072000Y-103635556D01*
X107066290Y-103693529D01*
X107051169Y-103743378D01*
X107026618Y-103789310D01*
X106993574Y-103829574D01*
X106953310Y-103862618D01*
X106907378Y-103887169D01*
X106857529Y-103902290D01*
X106799556Y-103908000D01*
X105544444Y-103908000D01*
X105486471Y-103902290D01*
X105436622Y-103887169D01*
X105390690Y-103862618D01*
X105350426Y-103829574D01*
X105317382Y-103789310D01*
X105292831Y-103743378D01*
X105277710Y-103693529D01*
X105272000Y-103635556D01*
X105272000Y-102630444D01*
X105277710Y-102572471D01*
X105292831Y-102522622D01*
X105317382Y-102476690D01*
X105350426Y-102436426D01*
X105390690Y-102403382D01*
X105436622Y-102378831D01*
X105486471Y-102363710D01*
X105544444Y-102358000D01*
X106799556Y-102358000D01*
X106857529Y-102363710D01*
X106857529Y-102363710D01*
G37*
G36*
X92633529Y-102363710D02*
G01*
X92683378Y-102378831D01*
X92729310Y-102403382D01*
X92769574Y-102436426D01*
X92802618Y-102476690D01*
X92827169Y-102522622D01*
X92842290Y-102572471D01*
X92848000Y-102630444D01*
X92848000Y-103635556D01*
X92842290Y-103693529D01*
X92827169Y-103743378D01*
X92802618Y-103789310D01*
X92769574Y-103829574D01*
X92729310Y-103862618D01*
X92683378Y-103887169D01*
X92633529Y-103902290D01*
X92575556Y-103908000D01*
X91320444Y-103908000D01*
X91262471Y-103902290D01*
X91212622Y-103887169D01*
X91166690Y-103862618D01*
X91126426Y-103829574D01*
X91093382Y-103789310D01*
X91068831Y-103743378D01*
X91053710Y-103693529D01*
X91048000Y-103635556D01*
X91048000Y-102630444D01*
X91053710Y-102572471D01*
X91068831Y-102522622D01*
X91093382Y-102476690D01*
X91126426Y-102436426D01*
X91166690Y-102403382D01*
X91212622Y-102378831D01*
X91262471Y-102363710D01*
X91320444Y-102358000D01*
X92575556Y-102358000D01*
X92633529Y-102363710D01*
X92633529Y-102363710D01*
G37*
G36*
X95173529Y-102363710D02*
G01*
X95223378Y-102378831D01*
X95269310Y-102403382D01*
X95309574Y-102436426D01*
X95342618Y-102476690D01*
X95367169Y-102522622D01*
X95382290Y-102572471D01*
X95388000Y-102630444D01*
X95388000Y-103635556D01*
X95382290Y-103693529D01*
X95367169Y-103743378D01*
X95342618Y-103789310D01*
X95309574Y-103829574D01*
X95269310Y-103862618D01*
X95223378Y-103887169D01*
X95173529Y-103902290D01*
X95115556Y-103908000D01*
X93860444Y-103908000D01*
X93802471Y-103902290D01*
X93752622Y-103887169D01*
X93706690Y-103862618D01*
X93666426Y-103829574D01*
X93633382Y-103789310D01*
X93608831Y-103743378D01*
X93593710Y-103693529D01*
X93588000Y-103635556D01*
X93588000Y-102630444D01*
X93593710Y-102572471D01*
X93608831Y-102522622D01*
X93633382Y-102476690D01*
X93666426Y-102436426D01*
X93706690Y-102403382D01*
X93752622Y-102378831D01*
X93802471Y-102363710D01*
X93860444Y-102358000D01*
X95115556Y-102358000D01*
X95173529Y-102363710D01*
X95173529Y-102363710D01*
G37*
G36*
X117525529Y-102363710D02*
G01*
X117575378Y-102378831D01*
X117621310Y-102403382D01*
X117661574Y-102436426D01*
X117694618Y-102476690D01*
X117719169Y-102522622D01*
X117734290Y-102572471D01*
X117740000Y-102630444D01*
X117740000Y-103635556D01*
X117734290Y-103693529D01*
X117719169Y-103743378D01*
X117694618Y-103789310D01*
X117661574Y-103829574D01*
X117621310Y-103862618D01*
X117575378Y-103887169D01*
X117525529Y-103902290D01*
X117467556Y-103908000D01*
X116212444Y-103908000D01*
X116154471Y-103902290D01*
X116104622Y-103887169D01*
X116058690Y-103862618D01*
X116018426Y-103829574D01*
X115985382Y-103789310D01*
X115960831Y-103743378D01*
X115945710Y-103693529D01*
X115940000Y-103635556D01*
X115940000Y-102630444D01*
X115945710Y-102572471D01*
X115960831Y-102522622D01*
X115985382Y-102476690D01*
X116018426Y-102436426D01*
X116058690Y-102403382D01*
X116104622Y-102378831D01*
X116154471Y-102363710D01*
X116212444Y-102358000D01*
X117467556Y-102358000D01*
X117525529Y-102363710D01*
X117525529Y-102363710D01*
G37*
G36*
X114985529Y-102363710D02*
G01*
X115035378Y-102378831D01*
X115081310Y-102403382D01*
X115121574Y-102436426D01*
X115154618Y-102476690D01*
X115179169Y-102522622D01*
X115194290Y-102572471D01*
X115200000Y-102630444D01*
X115200000Y-103635556D01*
X115194290Y-103693529D01*
X115179169Y-103743378D01*
X115154618Y-103789310D01*
X115121574Y-103829574D01*
X115081310Y-103862618D01*
X115035378Y-103887169D01*
X114985529Y-103902290D01*
X114927556Y-103908000D01*
X113672444Y-103908000D01*
X113614471Y-103902290D01*
X113564622Y-103887169D01*
X113518690Y-103862618D01*
X113478426Y-103829574D01*
X113445382Y-103789310D01*
X113420831Y-103743378D01*
X113405710Y-103693529D01*
X113400000Y-103635556D01*
X113400000Y-102630444D01*
X113405710Y-102572471D01*
X113420831Y-102522622D01*
X113445382Y-102476690D01*
X113478426Y-102436426D01*
X113518690Y-102403382D01*
X113564622Y-102378831D01*
X113614471Y-102363710D01*
X113672444Y-102358000D01*
X114927556Y-102358000D01*
X114985529Y-102363710D01*
X114985529Y-102363710D01*
G37*
G36*
X104317529Y-102363710D02*
G01*
X104367378Y-102378831D01*
X104413310Y-102403382D01*
X104453574Y-102436426D01*
X104486618Y-102476690D01*
X104511169Y-102522622D01*
X104526290Y-102572471D01*
X104532000Y-102630444D01*
X104532000Y-103635556D01*
X104526290Y-103693529D01*
X104511169Y-103743378D01*
X104486618Y-103789310D01*
X104453574Y-103829574D01*
X104413310Y-103862618D01*
X104367378Y-103887169D01*
X104317529Y-103902290D01*
X104259556Y-103908000D01*
X103004444Y-103908000D01*
X102946471Y-103902290D01*
X102896622Y-103887169D01*
X102850690Y-103862618D01*
X102810426Y-103829574D01*
X102777382Y-103789310D01*
X102752831Y-103743378D01*
X102737710Y-103693529D01*
X102732000Y-103635556D01*
X102732000Y-102630444D01*
X102737710Y-102572471D01*
X102752831Y-102522622D01*
X102777382Y-102476690D01*
X102810426Y-102436426D01*
X102850690Y-102403382D01*
X102896622Y-102378831D01*
X102946471Y-102363710D01*
X103004444Y-102358000D01*
X104259556Y-102358000D01*
X104317529Y-102363710D01*
X104317529Y-102363710D01*
G37*
G36*
X136948000Y-103772000D02*
G01*
X134948000Y-103772000D01*
X134948000Y-102072000D01*
X136948000Y-102072000D01*
X136948000Y-103772000D01*
X136948000Y-103772000D01*
G37*
G36*
X125148000Y-103772000D02*
G01*
X123148000Y-103772000D01*
X123148000Y-102072000D01*
X125148000Y-102072000D01*
X125148000Y-103772000D01*
X125148000Y-103772000D01*
G37*
G36*
X82838529Y-100705710D02*
G01*
X82888378Y-100720831D01*
X82934310Y-100745382D01*
X82974574Y-100778426D01*
X83007618Y-100818690D01*
X83032169Y-100864622D01*
X83047290Y-100914471D01*
X83053000Y-100972444D01*
X83053000Y-102227556D01*
X83047290Y-102285529D01*
X83032169Y-102335378D01*
X83007618Y-102381310D01*
X82974574Y-102421574D01*
X82934310Y-102454618D01*
X82888378Y-102479169D01*
X82838529Y-102494290D01*
X82780556Y-102500000D01*
X81775444Y-102500000D01*
X81717471Y-102494290D01*
X81667622Y-102479169D01*
X81621690Y-102454618D01*
X81581426Y-102421574D01*
X81548382Y-102381310D01*
X81523831Y-102335378D01*
X81508710Y-102285529D01*
X81503000Y-102227556D01*
X81503000Y-100972444D01*
X81508710Y-100914471D01*
X81523831Y-100864622D01*
X81548382Y-100818690D01*
X81581426Y-100778426D01*
X81621690Y-100745382D01*
X81667622Y-100720831D01*
X81717471Y-100705710D01*
X81775444Y-100700000D01*
X82780556Y-100700000D01*
X82838529Y-100705710D01*
X82838529Y-100705710D01*
G37*
G36*
X84888529Y-100705710D02*
G01*
X84938378Y-100720831D01*
X84984310Y-100745382D01*
X85024574Y-100778426D01*
X85057618Y-100818690D01*
X85082169Y-100864622D01*
X85097290Y-100914471D01*
X85103000Y-100972444D01*
X85103000Y-102227556D01*
X85097290Y-102285529D01*
X85082169Y-102335378D01*
X85057618Y-102381310D01*
X85024574Y-102421574D01*
X84984310Y-102454618D01*
X84938378Y-102479169D01*
X84888529Y-102494290D01*
X84830556Y-102500000D01*
X83825444Y-102500000D01*
X83767471Y-102494290D01*
X83717622Y-102479169D01*
X83671690Y-102454618D01*
X83631426Y-102421574D01*
X83598382Y-102381310D01*
X83573831Y-102335378D01*
X83558710Y-102285529D01*
X83553000Y-102227556D01*
X83553000Y-100972444D01*
X83558710Y-100914471D01*
X83573831Y-100864622D01*
X83598382Y-100818690D01*
X83631426Y-100778426D01*
X83671690Y-100745382D01*
X83717622Y-100720831D01*
X83767471Y-100705710D01*
X83825444Y-100700000D01*
X84830556Y-100700000D01*
X84888529Y-100705710D01*
X84888529Y-100705710D01*
G37*
G36*
X95173529Y-100313710D02*
G01*
X95223378Y-100328831D01*
X95269310Y-100353382D01*
X95309574Y-100386426D01*
X95342618Y-100426690D01*
X95367169Y-100472622D01*
X95382290Y-100522471D01*
X95388000Y-100580444D01*
X95388000Y-101585556D01*
X95382290Y-101643529D01*
X95367169Y-101693378D01*
X95342618Y-101739310D01*
X95309574Y-101779574D01*
X95269310Y-101812618D01*
X95223378Y-101837169D01*
X95173529Y-101852290D01*
X95115556Y-101858000D01*
X93860444Y-101858000D01*
X93802471Y-101852290D01*
X93752622Y-101837169D01*
X93706690Y-101812618D01*
X93666426Y-101779574D01*
X93633382Y-101739310D01*
X93608831Y-101693378D01*
X93593710Y-101643529D01*
X93588000Y-101585556D01*
X93588000Y-100580444D01*
X93593710Y-100522471D01*
X93608831Y-100472622D01*
X93633382Y-100426690D01*
X93666426Y-100386426D01*
X93706690Y-100353382D01*
X93752622Y-100328831D01*
X93802471Y-100313710D01*
X93860444Y-100308000D01*
X95115556Y-100308000D01*
X95173529Y-100313710D01*
X95173529Y-100313710D01*
G37*
G36*
X92633529Y-100313710D02*
G01*
X92683378Y-100328831D01*
X92729310Y-100353382D01*
X92769574Y-100386426D01*
X92802618Y-100426690D01*
X92827169Y-100472622D01*
X92842290Y-100522471D01*
X92848000Y-100580444D01*
X92848000Y-101585556D01*
X92842290Y-101643529D01*
X92827169Y-101693378D01*
X92802618Y-101739310D01*
X92769574Y-101779574D01*
X92729310Y-101812618D01*
X92683378Y-101837169D01*
X92633529Y-101852290D01*
X92575556Y-101858000D01*
X91320444Y-101858000D01*
X91262471Y-101852290D01*
X91212622Y-101837169D01*
X91166690Y-101812618D01*
X91126426Y-101779574D01*
X91093382Y-101739310D01*
X91068831Y-101693378D01*
X91053710Y-101643529D01*
X91048000Y-101585556D01*
X91048000Y-100580444D01*
X91053710Y-100522471D01*
X91068831Y-100472622D01*
X91093382Y-100426690D01*
X91126426Y-100386426D01*
X91166690Y-100353382D01*
X91212622Y-100328831D01*
X91262471Y-100313710D01*
X91320444Y-100308000D01*
X92575556Y-100308000D01*
X92633529Y-100313710D01*
X92633529Y-100313710D01*
G37*
G36*
X97713529Y-100313710D02*
G01*
X97763378Y-100328831D01*
X97809310Y-100353382D01*
X97849574Y-100386426D01*
X97882618Y-100426690D01*
X97907169Y-100472622D01*
X97922290Y-100522471D01*
X97928000Y-100580444D01*
X97928000Y-101585556D01*
X97922290Y-101643529D01*
X97907169Y-101693378D01*
X97882618Y-101739310D01*
X97849574Y-101779574D01*
X97809310Y-101812618D01*
X97763378Y-101837169D01*
X97713529Y-101852290D01*
X97655556Y-101858000D01*
X96400444Y-101858000D01*
X96342471Y-101852290D01*
X96292622Y-101837169D01*
X96246690Y-101812618D01*
X96206426Y-101779574D01*
X96173382Y-101739310D01*
X96148831Y-101693378D01*
X96133710Y-101643529D01*
X96128000Y-101585556D01*
X96128000Y-100580444D01*
X96133710Y-100522471D01*
X96148831Y-100472622D01*
X96173382Y-100426690D01*
X96206426Y-100386426D01*
X96246690Y-100353382D01*
X96292622Y-100328831D01*
X96342471Y-100313710D01*
X96400444Y-100308000D01*
X97655556Y-100308000D01*
X97713529Y-100313710D01*
X97713529Y-100313710D01*
G37*
G36*
X101777529Y-100313710D02*
G01*
X101827378Y-100328831D01*
X101873310Y-100353382D01*
X101913574Y-100386426D01*
X101946618Y-100426690D01*
X101971169Y-100472622D01*
X101986290Y-100522471D01*
X101992000Y-100580444D01*
X101992000Y-101585556D01*
X101986290Y-101643529D01*
X101971169Y-101693378D01*
X101946618Y-101739310D01*
X101913574Y-101779574D01*
X101873310Y-101812618D01*
X101827378Y-101837169D01*
X101777529Y-101852290D01*
X101719556Y-101858000D01*
X100464444Y-101858000D01*
X100406471Y-101852290D01*
X100356622Y-101837169D01*
X100310690Y-101812618D01*
X100270426Y-101779574D01*
X100237382Y-101739310D01*
X100212831Y-101693378D01*
X100197710Y-101643529D01*
X100192000Y-101585556D01*
X100192000Y-100580444D01*
X100197710Y-100522471D01*
X100212831Y-100472622D01*
X100237382Y-100426690D01*
X100270426Y-100386426D01*
X100310690Y-100353382D01*
X100356622Y-100328831D01*
X100406471Y-100313710D01*
X100464444Y-100308000D01*
X101719556Y-100308000D01*
X101777529Y-100313710D01*
X101777529Y-100313710D01*
G37*
G36*
X112445529Y-100313710D02*
G01*
X112495378Y-100328831D01*
X112541310Y-100353382D01*
X112581574Y-100386426D01*
X112614618Y-100426690D01*
X112639169Y-100472622D01*
X112654290Y-100522471D01*
X112660000Y-100580444D01*
X112660000Y-101585556D01*
X112654290Y-101643529D01*
X112639169Y-101693378D01*
X112614618Y-101739310D01*
X112581574Y-101779574D01*
X112541310Y-101812618D01*
X112495378Y-101837169D01*
X112445529Y-101852290D01*
X112387556Y-101858000D01*
X111132444Y-101858000D01*
X111074471Y-101852290D01*
X111024622Y-101837169D01*
X110978690Y-101812618D01*
X110938426Y-101779574D01*
X110905382Y-101739310D01*
X110880831Y-101693378D01*
X110865710Y-101643529D01*
X110860000Y-101585556D01*
X110860000Y-100580444D01*
X110865710Y-100522471D01*
X110880831Y-100472622D01*
X110905382Y-100426690D01*
X110938426Y-100386426D01*
X110978690Y-100353382D01*
X111024622Y-100328831D01*
X111074471Y-100313710D01*
X111132444Y-100308000D01*
X112387556Y-100308000D01*
X112445529Y-100313710D01*
X112445529Y-100313710D01*
G37*
G36*
X117525529Y-100313710D02*
G01*
X117575378Y-100328831D01*
X117621310Y-100353382D01*
X117661574Y-100386426D01*
X117694618Y-100426690D01*
X117719169Y-100472622D01*
X117734290Y-100522471D01*
X117740000Y-100580444D01*
X117740000Y-101585556D01*
X117734290Y-101643529D01*
X117719169Y-101693378D01*
X117694618Y-101739310D01*
X117661574Y-101779574D01*
X117621310Y-101812618D01*
X117575378Y-101837169D01*
X117525529Y-101852290D01*
X117467556Y-101858000D01*
X116212444Y-101858000D01*
X116154471Y-101852290D01*
X116104622Y-101837169D01*
X116058690Y-101812618D01*
X116018426Y-101779574D01*
X115985382Y-101739310D01*
X115960831Y-101693378D01*
X115945710Y-101643529D01*
X115940000Y-101585556D01*
X115940000Y-100580444D01*
X115945710Y-100522471D01*
X115960831Y-100472622D01*
X115985382Y-100426690D01*
X116018426Y-100386426D01*
X116058690Y-100353382D01*
X116104622Y-100328831D01*
X116154471Y-100313710D01*
X116212444Y-100308000D01*
X117467556Y-100308000D01*
X117525529Y-100313710D01*
X117525529Y-100313710D01*
G37*
G36*
X106857529Y-100313710D02*
G01*
X106907378Y-100328831D01*
X106953310Y-100353382D01*
X106993574Y-100386426D01*
X107026618Y-100426690D01*
X107051169Y-100472622D01*
X107066290Y-100522471D01*
X107072000Y-100580444D01*
X107072000Y-101585556D01*
X107066290Y-101643529D01*
X107051169Y-101693378D01*
X107026618Y-101739310D01*
X106993574Y-101779574D01*
X106953310Y-101812618D01*
X106907378Y-101837169D01*
X106857529Y-101852290D01*
X106799556Y-101858000D01*
X105544444Y-101858000D01*
X105486471Y-101852290D01*
X105436622Y-101837169D01*
X105390690Y-101812618D01*
X105350426Y-101779574D01*
X105317382Y-101739310D01*
X105292831Y-101693378D01*
X105277710Y-101643529D01*
X105272000Y-101585556D01*
X105272000Y-100580444D01*
X105277710Y-100522471D01*
X105292831Y-100472622D01*
X105317382Y-100426690D01*
X105350426Y-100386426D01*
X105390690Y-100353382D01*
X105436622Y-100328831D01*
X105486471Y-100313710D01*
X105544444Y-100308000D01*
X106799556Y-100308000D01*
X106857529Y-100313710D01*
X106857529Y-100313710D01*
G37*
G36*
X114985529Y-100313710D02*
G01*
X115035378Y-100328831D01*
X115081310Y-100353382D01*
X115121574Y-100386426D01*
X115154618Y-100426690D01*
X115179169Y-100472622D01*
X115194290Y-100522471D01*
X115200000Y-100580444D01*
X115200000Y-101585556D01*
X115194290Y-101643529D01*
X115179169Y-101693378D01*
X115154618Y-101739310D01*
X115121574Y-101779574D01*
X115081310Y-101812618D01*
X115035378Y-101837169D01*
X114985529Y-101852290D01*
X114927556Y-101858000D01*
X113672444Y-101858000D01*
X113614471Y-101852290D01*
X113564622Y-101837169D01*
X113518690Y-101812618D01*
X113478426Y-101779574D01*
X113445382Y-101739310D01*
X113420831Y-101693378D01*
X113405710Y-101643529D01*
X113400000Y-101585556D01*
X113400000Y-100580444D01*
X113405710Y-100522471D01*
X113420831Y-100472622D01*
X113445382Y-100426690D01*
X113478426Y-100386426D01*
X113518690Y-100353382D01*
X113564622Y-100328831D01*
X113614471Y-100313710D01*
X113672444Y-100308000D01*
X114927556Y-100308000D01*
X114985529Y-100313710D01*
X114985529Y-100313710D01*
G37*
G36*
X104317529Y-100313710D02*
G01*
X104367378Y-100328831D01*
X104413310Y-100353382D01*
X104453574Y-100386426D01*
X104486618Y-100426690D01*
X104511169Y-100472622D01*
X104526290Y-100522471D01*
X104532000Y-100580444D01*
X104532000Y-101585556D01*
X104526290Y-101643529D01*
X104511169Y-101693378D01*
X104486618Y-101739310D01*
X104453574Y-101779574D01*
X104413310Y-101812618D01*
X104367378Y-101837169D01*
X104317529Y-101852290D01*
X104259556Y-101858000D01*
X103004444Y-101858000D01*
X102946471Y-101852290D01*
X102896622Y-101837169D01*
X102850690Y-101812618D01*
X102810426Y-101779574D01*
X102777382Y-101739310D01*
X102752831Y-101693378D01*
X102737710Y-101643529D01*
X102732000Y-101585556D01*
X102732000Y-100580444D01*
X102737710Y-100522471D01*
X102752831Y-100472622D01*
X102777382Y-100426690D01*
X102810426Y-100386426D01*
X102850690Y-100353382D01*
X102896622Y-100328831D01*
X102946471Y-100313710D01*
X103004444Y-100308000D01*
X104259556Y-100308000D01*
X104317529Y-100313710D01*
X104317529Y-100313710D01*
G37*
G36*
X77203080Y-99361942D02*
G01*
X77436826Y-99432848D01*
X77652239Y-99547989D01*
X77841055Y-99702945D01*
X77996011Y-99891761D01*
X78111152Y-100107174D01*
X78182058Y-100340920D01*
X78205999Y-100584000D01*
X78182058Y-100827080D01*
X78111152Y-101060826D01*
X77996011Y-101276239D01*
X77841055Y-101465055D01*
X77652239Y-101620011D01*
X77436826Y-101735152D01*
X77203080Y-101806058D01*
X77020911Y-101824000D01*
X75379089Y-101824000D01*
X75196920Y-101806058D01*
X74963174Y-101735152D01*
X74747761Y-101620011D01*
X74558945Y-101465055D01*
X74403989Y-101276239D01*
X74288848Y-101060826D01*
X74217942Y-100827080D01*
X74194001Y-100584000D01*
X74217942Y-100340920D01*
X74288848Y-100107174D01*
X74403989Y-99891761D01*
X74558945Y-99702945D01*
X74747761Y-99547989D01*
X74963174Y-99432848D01*
X75196920Y-99361942D01*
X75379089Y-99344000D01*
X77020911Y-99344000D01*
X77203080Y-99361942D01*
X77203080Y-99361942D01*
G37*
G36*
X83668500Y-99875500D02*
G01*
X81268500Y-99875500D01*
X81268500Y-97975500D01*
X83668500Y-97975500D01*
X83668500Y-99875500D01*
X83668500Y-99875500D01*
G37*
G36*
X97713529Y-98299710D02*
G01*
X97763378Y-98314831D01*
X97809310Y-98339382D01*
X97849574Y-98372426D01*
X97882618Y-98412690D01*
X97907169Y-98458622D01*
X97922290Y-98508471D01*
X97928000Y-98566444D01*
X97928000Y-99571556D01*
X97922290Y-99629529D01*
X97907169Y-99679378D01*
X97882618Y-99725310D01*
X97849574Y-99765574D01*
X97809310Y-99798618D01*
X97763378Y-99823169D01*
X97713529Y-99838290D01*
X97655556Y-99844000D01*
X96400444Y-99844000D01*
X96342471Y-99838290D01*
X96292622Y-99823169D01*
X96246690Y-99798618D01*
X96206426Y-99765574D01*
X96173382Y-99725310D01*
X96148831Y-99679378D01*
X96133710Y-99629529D01*
X96128000Y-99571556D01*
X96128000Y-98566444D01*
X96133710Y-98508471D01*
X96148831Y-98458622D01*
X96173382Y-98412690D01*
X96206426Y-98372426D01*
X96246690Y-98339382D01*
X96292622Y-98314831D01*
X96342471Y-98299710D01*
X96400444Y-98294000D01*
X97655556Y-98294000D01*
X97713529Y-98299710D01*
X97713529Y-98299710D01*
G37*
G36*
X101777529Y-98299710D02*
G01*
X101827378Y-98314831D01*
X101873310Y-98339382D01*
X101913574Y-98372426D01*
X101946618Y-98412690D01*
X101971169Y-98458622D01*
X101986290Y-98508471D01*
X101992000Y-98566444D01*
X101992000Y-99571556D01*
X101986290Y-99629529D01*
X101971169Y-99679378D01*
X101946618Y-99725310D01*
X101913574Y-99765574D01*
X101873310Y-99798618D01*
X101827378Y-99823169D01*
X101777529Y-99838290D01*
X101719556Y-99844000D01*
X100464444Y-99844000D01*
X100406471Y-99838290D01*
X100356622Y-99823169D01*
X100310690Y-99798618D01*
X100270426Y-99765574D01*
X100237382Y-99725310D01*
X100212831Y-99679378D01*
X100197710Y-99629529D01*
X100192000Y-99571556D01*
X100192000Y-98566444D01*
X100197710Y-98508471D01*
X100212831Y-98458622D01*
X100237382Y-98412690D01*
X100270426Y-98372426D01*
X100310690Y-98339382D01*
X100356622Y-98314831D01*
X100406471Y-98299710D01*
X100464444Y-98294000D01*
X101719556Y-98294000D01*
X101777529Y-98299710D01*
X101777529Y-98299710D01*
G37*
G36*
X89968500Y-98725500D02*
G01*
X87568500Y-98725500D01*
X87568500Y-94525500D01*
X89968500Y-94525500D01*
X89968500Y-98725500D01*
X89968500Y-98725500D01*
G37*
G36*
X130784329Y-96276710D02*
G01*
X130834178Y-96291831D01*
X130880110Y-96316382D01*
X130920374Y-96349426D01*
X130953418Y-96389690D01*
X130977969Y-96435622D01*
X130993090Y-96485471D01*
X130998800Y-96543444D01*
X130998800Y-97548556D01*
X130993090Y-97606529D01*
X130977969Y-97656378D01*
X130953418Y-97702310D01*
X130920374Y-97742574D01*
X130880110Y-97775618D01*
X130834178Y-97800169D01*
X130784329Y-97815290D01*
X130726356Y-97821000D01*
X129471244Y-97821000D01*
X129413271Y-97815290D01*
X129363422Y-97800169D01*
X129317490Y-97775618D01*
X129277226Y-97742574D01*
X129244182Y-97702310D01*
X129219631Y-97656378D01*
X129204510Y-97606529D01*
X129198800Y-97548556D01*
X129198800Y-96543444D01*
X129204510Y-96485471D01*
X129219631Y-96435622D01*
X129244182Y-96389690D01*
X129277226Y-96349426D01*
X129317490Y-96316382D01*
X129363422Y-96291831D01*
X129413271Y-96276710D01*
X129471244Y-96271000D01*
X130726356Y-96271000D01*
X130784329Y-96276710D01*
X130784329Y-96276710D01*
G37*
G36*
X133273529Y-96267710D02*
G01*
X133323378Y-96282831D01*
X133369310Y-96307382D01*
X133409574Y-96340426D01*
X133442618Y-96380690D01*
X133467169Y-96426622D01*
X133482290Y-96476471D01*
X133488000Y-96534444D01*
X133488000Y-97539556D01*
X133482290Y-97597529D01*
X133467169Y-97647378D01*
X133442618Y-97693310D01*
X133409574Y-97733574D01*
X133369310Y-97766618D01*
X133323378Y-97791169D01*
X133273529Y-97806290D01*
X133215556Y-97812000D01*
X131960444Y-97812000D01*
X131902471Y-97806290D01*
X131852622Y-97791169D01*
X131806690Y-97766618D01*
X131766426Y-97733574D01*
X131733382Y-97693310D01*
X131708831Y-97647378D01*
X131693710Y-97597529D01*
X131688000Y-97539556D01*
X131688000Y-96534444D01*
X131693710Y-96476471D01*
X131708831Y-96426622D01*
X131733382Y-96380690D01*
X131766426Y-96340426D01*
X131806690Y-96307382D01*
X131852622Y-96282831D01*
X131902471Y-96267710D01*
X131960444Y-96262000D01*
X133215556Y-96262000D01*
X133273529Y-96267710D01*
X133273529Y-96267710D01*
G37*
G36*
X125653529Y-96267710D02*
G01*
X125703378Y-96282831D01*
X125749310Y-96307382D01*
X125789574Y-96340426D01*
X125822618Y-96380690D01*
X125847169Y-96426622D01*
X125862290Y-96476471D01*
X125868000Y-96534444D01*
X125868000Y-97539556D01*
X125862290Y-97597529D01*
X125847169Y-97647378D01*
X125822618Y-97693310D01*
X125789574Y-97733574D01*
X125749310Y-97766618D01*
X125703378Y-97791169D01*
X125653529Y-97806290D01*
X125595556Y-97812000D01*
X124340444Y-97812000D01*
X124282471Y-97806290D01*
X124232622Y-97791169D01*
X124186690Y-97766618D01*
X124146426Y-97733574D01*
X124113382Y-97693310D01*
X124088831Y-97647378D01*
X124073710Y-97597529D01*
X124068000Y-97539556D01*
X124068000Y-96534444D01*
X124073710Y-96476471D01*
X124088831Y-96426622D01*
X124113382Y-96380690D01*
X124146426Y-96340426D01*
X124186690Y-96307382D01*
X124232622Y-96282831D01*
X124282471Y-96267710D01*
X124340444Y-96262000D01*
X125595556Y-96262000D01*
X125653529Y-96267710D01*
X125653529Y-96267710D01*
G37*
G36*
X123113529Y-96267710D02*
G01*
X123163378Y-96282831D01*
X123209310Y-96307382D01*
X123249574Y-96340426D01*
X123282618Y-96380690D01*
X123307169Y-96426622D01*
X123322290Y-96476471D01*
X123328000Y-96534444D01*
X123328000Y-97539556D01*
X123322290Y-97597529D01*
X123307169Y-97647378D01*
X123282618Y-97693310D01*
X123249574Y-97733574D01*
X123209310Y-97766618D01*
X123163378Y-97791169D01*
X123113529Y-97806290D01*
X123055556Y-97812000D01*
X121800444Y-97812000D01*
X121742471Y-97806290D01*
X121692622Y-97791169D01*
X121646690Y-97766618D01*
X121606426Y-97733574D01*
X121573382Y-97693310D01*
X121548831Y-97647378D01*
X121533710Y-97597529D01*
X121528000Y-97539556D01*
X121528000Y-96534444D01*
X121533710Y-96476471D01*
X121548831Y-96426622D01*
X121573382Y-96380690D01*
X121606426Y-96340426D01*
X121646690Y-96307382D01*
X121692622Y-96282831D01*
X121742471Y-96267710D01*
X121800444Y-96262000D01*
X123055556Y-96262000D01*
X123113529Y-96267710D01*
X123113529Y-96267710D01*
G37*
G36*
X128193529Y-96267710D02*
G01*
X128243378Y-96282831D01*
X128289310Y-96307382D01*
X128329574Y-96340426D01*
X128362618Y-96380690D01*
X128387169Y-96426622D01*
X128402290Y-96476471D01*
X128408000Y-96534444D01*
X128408000Y-97539556D01*
X128402290Y-97597529D01*
X128387169Y-97647378D01*
X128362618Y-97693310D01*
X128329574Y-97733574D01*
X128289310Y-97766618D01*
X128243378Y-97791169D01*
X128193529Y-97806290D01*
X128135556Y-97812000D01*
X126880444Y-97812000D01*
X126822471Y-97806290D01*
X126772622Y-97791169D01*
X126726690Y-97766618D01*
X126686426Y-97733574D01*
X126653382Y-97693310D01*
X126628831Y-97647378D01*
X126613710Y-97597529D01*
X126608000Y-97539556D01*
X126608000Y-96534444D01*
X126613710Y-96476471D01*
X126628831Y-96426622D01*
X126653382Y-96380690D01*
X126686426Y-96340426D01*
X126726690Y-96307382D01*
X126772622Y-96282831D01*
X126822471Y-96267710D01*
X126880444Y-96262000D01*
X128135556Y-96262000D01*
X128193529Y-96267710D01*
X128193529Y-96267710D01*
G37*
G36*
X101777529Y-96249710D02*
G01*
X101827378Y-96264831D01*
X101873310Y-96289382D01*
X101913574Y-96322426D01*
X101946618Y-96362690D01*
X101971169Y-96408622D01*
X101986290Y-96458471D01*
X101992000Y-96516444D01*
X101992000Y-97521556D01*
X101986290Y-97579529D01*
X101971169Y-97629378D01*
X101946618Y-97675310D01*
X101913574Y-97715574D01*
X101873310Y-97748618D01*
X101827378Y-97773169D01*
X101777529Y-97788290D01*
X101719556Y-97794000D01*
X100464444Y-97794000D01*
X100406471Y-97788290D01*
X100356622Y-97773169D01*
X100310690Y-97748618D01*
X100270426Y-97715574D01*
X100237382Y-97675310D01*
X100212831Y-97629378D01*
X100197710Y-97579529D01*
X100192000Y-97521556D01*
X100192000Y-96516444D01*
X100197710Y-96458471D01*
X100212831Y-96408622D01*
X100237382Y-96362690D01*
X100270426Y-96322426D01*
X100310690Y-96289382D01*
X100356622Y-96264831D01*
X100406471Y-96249710D01*
X100464444Y-96244000D01*
X101719556Y-96244000D01*
X101777529Y-96249710D01*
X101777529Y-96249710D01*
G37*
G36*
X97713529Y-96249710D02*
G01*
X97763378Y-96264831D01*
X97809310Y-96289382D01*
X97849574Y-96322426D01*
X97882618Y-96362690D01*
X97907169Y-96408622D01*
X97922290Y-96458471D01*
X97928000Y-96516444D01*
X97928000Y-97521556D01*
X97922290Y-97579529D01*
X97907169Y-97629378D01*
X97882618Y-97675310D01*
X97849574Y-97715574D01*
X97809310Y-97748618D01*
X97763378Y-97773169D01*
X97713529Y-97788290D01*
X97655556Y-97794000D01*
X96400444Y-97794000D01*
X96342471Y-97788290D01*
X96292622Y-97773169D01*
X96246690Y-97748618D01*
X96206426Y-97715574D01*
X96173382Y-97675310D01*
X96148831Y-97629378D01*
X96133710Y-97579529D01*
X96128000Y-97521556D01*
X96128000Y-96516444D01*
X96133710Y-96458471D01*
X96148831Y-96408622D01*
X96173382Y-96362690D01*
X96206426Y-96322426D01*
X96246690Y-96289382D01*
X96292622Y-96264831D01*
X96342471Y-96249710D01*
X96400444Y-96244000D01*
X97655556Y-96244000D01*
X97713529Y-96249710D01*
X97713529Y-96249710D01*
G37*
G36*
X83668500Y-97575500D02*
G01*
X81268500Y-97575500D01*
X81268500Y-95675500D01*
X83668500Y-95675500D01*
X83668500Y-97575500D01*
X83668500Y-97575500D01*
G37*
G36*
X116791000Y-96826000D02*
G01*
X113841000Y-96826000D01*
X113841000Y-95366000D01*
X116791000Y-95366000D01*
X116791000Y-96826000D01*
X116791000Y-96826000D01*
G37*
G36*
X78036384Y-94268496D02*
G01*
X78074377Y-94280021D01*
X78109390Y-94298736D01*
X78140079Y-94323921D01*
X78165264Y-94354610D01*
X78183979Y-94389623D01*
X78195504Y-94427616D01*
X78200000Y-94473264D01*
X78200000Y-96534736D01*
X78195504Y-96580384D01*
X78183979Y-96618377D01*
X78165264Y-96653390D01*
X78140079Y-96684079D01*
X78109390Y-96709264D01*
X78074377Y-96727979D01*
X78036384Y-96739504D01*
X77990736Y-96744000D01*
X74409264Y-96744000D01*
X74363616Y-96739504D01*
X74325623Y-96727979D01*
X74290610Y-96709264D01*
X74259921Y-96684079D01*
X74234736Y-96653390D01*
X74216021Y-96618377D01*
X74204496Y-96580384D01*
X74200000Y-96534736D01*
X74200000Y-94473264D01*
X74204496Y-94427616D01*
X74216021Y-94389623D01*
X74234736Y-94354610D01*
X74259921Y-94323921D01*
X74290610Y-94298736D01*
X74325623Y-94280021D01*
X74363616Y-94268496D01*
X74409264Y-94264000D01*
X77990736Y-94264000D01*
X78036384Y-94268496D01*
X78036384Y-94268496D01*
G37*
G36*
X130784329Y-94226710D02*
G01*
X130834178Y-94241831D01*
X130880110Y-94266382D01*
X130920374Y-94299426D01*
X130953418Y-94339690D01*
X130977969Y-94385622D01*
X130993090Y-94435471D01*
X130998800Y-94493444D01*
X130998800Y-95498556D01*
X130993090Y-95556529D01*
X130977969Y-95606378D01*
X130953418Y-95652310D01*
X130920374Y-95692574D01*
X130880110Y-95725618D01*
X130834178Y-95750169D01*
X130784329Y-95765290D01*
X130726356Y-95771000D01*
X129471244Y-95771000D01*
X129413271Y-95765290D01*
X129363422Y-95750169D01*
X129317490Y-95725618D01*
X129277226Y-95692574D01*
X129244182Y-95652310D01*
X129219631Y-95606378D01*
X129204510Y-95556529D01*
X129198800Y-95498556D01*
X129198800Y-94493444D01*
X129204510Y-94435471D01*
X129219631Y-94385622D01*
X129244182Y-94339690D01*
X129277226Y-94299426D01*
X129317490Y-94266382D01*
X129363422Y-94241831D01*
X129413271Y-94226710D01*
X129471244Y-94221000D01*
X130726356Y-94221000D01*
X130784329Y-94226710D01*
X130784329Y-94226710D01*
G37*
G36*
X125653529Y-94217710D02*
G01*
X125703378Y-94232831D01*
X125749310Y-94257382D01*
X125789574Y-94290426D01*
X125822618Y-94330690D01*
X125847169Y-94376622D01*
X125862290Y-94426471D01*
X125868000Y-94484444D01*
X125868000Y-95489556D01*
X125862290Y-95547529D01*
X125847169Y-95597378D01*
X125822618Y-95643310D01*
X125789574Y-95683574D01*
X125749310Y-95716618D01*
X125703378Y-95741169D01*
X125653529Y-95756290D01*
X125595556Y-95762000D01*
X124340444Y-95762000D01*
X124282471Y-95756290D01*
X124232622Y-95741169D01*
X124186690Y-95716618D01*
X124146426Y-95683574D01*
X124113382Y-95643310D01*
X124088831Y-95597378D01*
X124073710Y-95547529D01*
X124068000Y-95489556D01*
X124068000Y-94484444D01*
X124073710Y-94426471D01*
X124088831Y-94376622D01*
X124113382Y-94330690D01*
X124146426Y-94290426D01*
X124186690Y-94257382D01*
X124232622Y-94232831D01*
X124282471Y-94217710D01*
X124340444Y-94212000D01*
X125595556Y-94212000D01*
X125653529Y-94217710D01*
X125653529Y-94217710D01*
G37*
G36*
X123113529Y-94217710D02*
G01*
X123163378Y-94232831D01*
X123209310Y-94257382D01*
X123249574Y-94290426D01*
X123282618Y-94330690D01*
X123307169Y-94376622D01*
X123322290Y-94426471D01*
X123328000Y-94484444D01*
X123328000Y-95489556D01*
X123322290Y-95547529D01*
X123307169Y-95597378D01*
X123282618Y-95643310D01*
X123249574Y-95683574D01*
X123209310Y-95716618D01*
X123163378Y-95741169D01*
X123113529Y-95756290D01*
X123055556Y-95762000D01*
X121800444Y-95762000D01*
X121742471Y-95756290D01*
X121692622Y-95741169D01*
X121646690Y-95716618D01*
X121606426Y-95683574D01*
X121573382Y-95643310D01*
X121548831Y-95597378D01*
X121533710Y-95547529D01*
X121528000Y-95489556D01*
X121528000Y-94484444D01*
X121533710Y-94426471D01*
X121548831Y-94376622D01*
X121573382Y-94330690D01*
X121606426Y-94290426D01*
X121646690Y-94257382D01*
X121692622Y-94232831D01*
X121742471Y-94217710D01*
X121800444Y-94212000D01*
X123055556Y-94212000D01*
X123113529Y-94217710D01*
X123113529Y-94217710D01*
G37*
G36*
X128193529Y-94217710D02*
G01*
X128243378Y-94232831D01*
X128289310Y-94257382D01*
X128329574Y-94290426D01*
X128362618Y-94330690D01*
X128387169Y-94376622D01*
X128402290Y-94426471D01*
X128408000Y-94484444D01*
X128408000Y-95489556D01*
X128402290Y-95547529D01*
X128387169Y-95597378D01*
X128362618Y-95643310D01*
X128329574Y-95683574D01*
X128289310Y-95716618D01*
X128243378Y-95741169D01*
X128193529Y-95756290D01*
X128135556Y-95762000D01*
X126880444Y-95762000D01*
X126822471Y-95756290D01*
X126772622Y-95741169D01*
X126726690Y-95716618D01*
X126686426Y-95683574D01*
X126653382Y-95643310D01*
X126628831Y-95597378D01*
X126613710Y-95547529D01*
X126608000Y-95489556D01*
X126608000Y-94484444D01*
X126613710Y-94426471D01*
X126628831Y-94376622D01*
X126653382Y-94330690D01*
X126686426Y-94290426D01*
X126726690Y-94257382D01*
X126772622Y-94232831D01*
X126822471Y-94217710D01*
X126880444Y-94212000D01*
X128135556Y-94212000D01*
X128193529Y-94217710D01*
X128193529Y-94217710D01*
G37*
G36*
X133273529Y-94217710D02*
G01*
X133323378Y-94232831D01*
X133369310Y-94257382D01*
X133409574Y-94290426D01*
X133442618Y-94330690D01*
X133467169Y-94376622D01*
X133482290Y-94426471D01*
X133488000Y-94484444D01*
X133488000Y-95489556D01*
X133482290Y-95547529D01*
X133467169Y-95597378D01*
X133442618Y-95643310D01*
X133409574Y-95683574D01*
X133369310Y-95716618D01*
X133323378Y-95741169D01*
X133273529Y-95756290D01*
X133215556Y-95762000D01*
X131960444Y-95762000D01*
X131902471Y-95756290D01*
X131852622Y-95741169D01*
X131806690Y-95716618D01*
X131766426Y-95683574D01*
X131733382Y-95643310D01*
X131708831Y-95597378D01*
X131693710Y-95547529D01*
X131688000Y-95489556D01*
X131688000Y-94484444D01*
X131693710Y-94426471D01*
X131708831Y-94376622D01*
X131733382Y-94330690D01*
X131766426Y-94290426D01*
X131806690Y-94257382D01*
X131852622Y-94232831D01*
X131902471Y-94217710D01*
X131960444Y-94212000D01*
X133215556Y-94212000D01*
X133273529Y-94217710D01*
X133273529Y-94217710D01*
G37*
G36*
X83668500Y-95275500D02*
G01*
X81268500Y-95275500D01*
X81268500Y-93375500D01*
X83668500Y-93375500D01*
X83668500Y-95275500D01*
X83668500Y-95275500D01*
G37*
G36*
X146846000Y-95030000D02*
G01*
X144746000Y-95030000D01*
X144746000Y-92930000D01*
X146846000Y-92930000D01*
X146846000Y-95030000D01*
X146846000Y-95030000D01*
G37*
G36*
X143384707Y-92937596D02*
G01*
X143461836Y-92945193D01*
X143659762Y-93005233D01*
X143659765Y-93005234D01*
X143842170Y-93102732D01*
X144002055Y-93233945D01*
X144133268Y-93393830D01*
X144230766Y-93576235D01*
X144230767Y-93576238D01*
X144290807Y-93774164D01*
X144311080Y-93980000D01*
X144290807Y-94185836D01*
X144246866Y-94330690D01*
X144230766Y-94383765D01*
X144133268Y-94566170D01*
X144002055Y-94726055D01*
X143842170Y-94857268D01*
X143659765Y-94954766D01*
X143659762Y-94954767D01*
X143461836Y-95014807D01*
X143384707Y-95022403D01*
X143307580Y-95030000D01*
X143204420Y-95030000D01*
X143127293Y-95022403D01*
X143050164Y-95014807D01*
X142852238Y-94954767D01*
X142852235Y-94954766D01*
X142669830Y-94857268D01*
X142509945Y-94726055D01*
X142378732Y-94566170D01*
X142281234Y-94383765D01*
X142265134Y-94330690D01*
X142221193Y-94185836D01*
X142200920Y-93980000D01*
X142221193Y-93774164D01*
X142281233Y-93576238D01*
X142281234Y-93576235D01*
X142378732Y-93393830D01*
X142509945Y-93233945D01*
X142669830Y-93102732D01*
X142852235Y-93005234D01*
X142852238Y-93005233D01*
X143050164Y-92945193D01*
X143127293Y-92937596D01*
X143204420Y-92930000D01*
X143307580Y-92930000D01*
X143384707Y-92937596D01*
X143384707Y-92937596D01*
G37*
G36*
X138304707Y-92937596D02*
G01*
X138381836Y-92945193D01*
X138579762Y-93005233D01*
X138579765Y-93005234D01*
X138762170Y-93102732D01*
X138922055Y-93233945D01*
X139053268Y-93393830D01*
X139150766Y-93576235D01*
X139150767Y-93576238D01*
X139210807Y-93774164D01*
X139231080Y-93980000D01*
X139210807Y-94185836D01*
X139166866Y-94330690D01*
X139150766Y-94383765D01*
X139053268Y-94566170D01*
X138922055Y-94726055D01*
X138762170Y-94857268D01*
X138579765Y-94954766D01*
X138579762Y-94954767D01*
X138381836Y-95014807D01*
X138304707Y-95022403D01*
X138227580Y-95030000D01*
X138124420Y-95030000D01*
X138047293Y-95022403D01*
X137970164Y-95014807D01*
X137772238Y-94954767D01*
X137772235Y-94954766D01*
X137589830Y-94857268D01*
X137429945Y-94726055D01*
X137298732Y-94566170D01*
X137201234Y-94383765D01*
X137185134Y-94330690D01*
X137141193Y-94185836D01*
X137120920Y-93980000D01*
X137141193Y-93774164D01*
X137201233Y-93576238D01*
X137201234Y-93576235D01*
X137298732Y-93393830D01*
X137429945Y-93233945D01*
X137589830Y-93102732D01*
X137772235Y-93005234D01*
X137772238Y-93005233D01*
X137970164Y-92945193D01*
X138047293Y-92937596D01*
X138124420Y-92930000D01*
X138227580Y-92930000D01*
X138304707Y-92937596D01*
X138304707Y-92937596D01*
G37*
G36*
X140844707Y-92937596D02*
G01*
X140921836Y-92945193D01*
X141119762Y-93005233D01*
X141119765Y-93005234D01*
X141302170Y-93102732D01*
X141462055Y-93233945D01*
X141593268Y-93393830D01*
X141690766Y-93576235D01*
X141690767Y-93576238D01*
X141750807Y-93774164D01*
X141771080Y-93980000D01*
X141750807Y-94185836D01*
X141706866Y-94330690D01*
X141690766Y-94383765D01*
X141593268Y-94566170D01*
X141462055Y-94726055D01*
X141302170Y-94857268D01*
X141119765Y-94954766D01*
X141119762Y-94954767D01*
X140921836Y-95014807D01*
X140844707Y-95022403D01*
X140767580Y-95030000D01*
X140664420Y-95030000D01*
X140587293Y-95022403D01*
X140510164Y-95014807D01*
X140312238Y-94954767D01*
X140312235Y-94954766D01*
X140129830Y-94857268D01*
X139969945Y-94726055D01*
X139838732Y-94566170D01*
X139741234Y-94383765D01*
X139725134Y-94330690D01*
X139681193Y-94185836D01*
X139660920Y-93980000D01*
X139681193Y-93774164D01*
X139741233Y-93576238D01*
X139741234Y-93576235D01*
X139838732Y-93393830D01*
X139969945Y-93233945D01*
X140129830Y-93102732D01*
X140312235Y-93005234D01*
X140312238Y-93005233D01*
X140510164Y-92945193D01*
X140587293Y-92937596D01*
X140664420Y-92930000D01*
X140767580Y-92930000D01*
X140844707Y-92937596D01*
X140844707Y-92937596D01*
G37*
G36*
X116791000Y-94626000D02*
G01*
X115741000Y-94626000D01*
X115741000Y-93166000D01*
X116791000Y-93166000D01*
X116791000Y-94626000D01*
X116791000Y-94626000D01*
G37*
G36*
X114891000Y-94626000D02*
G01*
X113841000Y-94626000D01*
X113841000Y-93166000D01*
X114891000Y-93166000D01*
X114891000Y-94626000D01*
X114891000Y-94626000D01*
G37*
G36*
X133273529Y-92203710D02*
G01*
X133323378Y-92218831D01*
X133369310Y-92243382D01*
X133409574Y-92276426D01*
X133442618Y-92316690D01*
X133467169Y-92362622D01*
X133482290Y-92412471D01*
X133488000Y-92470444D01*
X133488000Y-93475556D01*
X133482290Y-93533529D01*
X133467169Y-93583378D01*
X133442618Y-93629310D01*
X133409574Y-93669574D01*
X133369310Y-93702618D01*
X133323378Y-93727169D01*
X133273529Y-93742290D01*
X133215556Y-93748000D01*
X131960444Y-93748000D01*
X131902471Y-93742290D01*
X131852622Y-93727169D01*
X131806690Y-93702618D01*
X131766426Y-93669574D01*
X131733382Y-93629310D01*
X131708831Y-93583378D01*
X131693710Y-93533529D01*
X131688000Y-93475556D01*
X131688000Y-92470444D01*
X131693710Y-92412471D01*
X131708831Y-92362622D01*
X131733382Y-92316690D01*
X131766426Y-92276426D01*
X131806690Y-92243382D01*
X131852622Y-92218831D01*
X131902471Y-92203710D01*
X131960444Y-92198000D01*
X133215556Y-92198000D01*
X133273529Y-92203710D01*
X133273529Y-92203710D01*
G37*
G36*
X123113529Y-92203710D02*
G01*
X123163378Y-92218831D01*
X123209310Y-92243382D01*
X123249574Y-92276426D01*
X123282618Y-92316690D01*
X123307169Y-92362622D01*
X123322290Y-92412471D01*
X123328000Y-92470444D01*
X123328000Y-93475556D01*
X123322290Y-93533529D01*
X123307169Y-93583378D01*
X123282618Y-93629310D01*
X123249574Y-93669574D01*
X123209310Y-93702618D01*
X123163378Y-93727169D01*
X123113529Y-93742290D01*
X123055556Y-93748000D01*
X121800444Y-93748000D01*
X121742471Y-93742290D01*
X121692622Y-93727169D01*
X121646690Y-93702618D01*
X121606426Y-93669574D01*
X121573382Y-93629310D01*
X121548831Y-93583378D01*
X121533710Y-93533529D01*
X121528000Y-93475556D01*
X121528000Y-92470444D01*
X121533710Y-92412471D01*
X121548831Y-92362622D01*
X121573382Y-92316690D01*
X121606426Y-92276426D01*
X121646690Y-92243382D01*
X121692622Y-92218831D01*
X121742471Y-92203710D01*
X121800444Y-92198000D01*
X123055556Y-92198000D01*
X123113529Y-92203710D01*
X123113529Y-92203710D01*
G37*
G36*
X125653529Y-92203710D02*
G01*
X125703378Y-92218831D01*
X125749310Y-92243382D01*
X125789574Y-92276426D01*
X125822618Y-92316690D01*
X125847169Y-92362622D01*
X125862290Y-92412471D01*
X125868000Y-92470444D01*
X125868000Y-93475556D01*
X125862290Y-93533529D01*
X125847169Y-93583378D01*
X125822618Y-93629310D01*
X125789574Y-93669574D01*
X125749310Y-93702618D01*
X125703378Y-93727169D01*
X125653529Y-93742290D01*
X125595556Y-93748000D01*
X124340444Y-93748000D01*
X124282471Y-93742290D01*
X124232622Y-93727169D01*
X124186690Y-93702618D01*
X124146426Y-93669574D01*
X124113382Y-93629310D01*
X124088831Y-93583378D01*
X124073710Y-93533529D01*
X124068000Y-93475556D01*
X124068000Y-92470444D01*
X124073710Y-92412471D01*
X124088831Y-92362622D01*
X124113382Y-92316690D01*
X124146426Y-92276426D01*
X124186690Y-92243382D01*
X124232622Y-92218831D01*
X124282471Y-92203710D01*
X124340444Y-92198000D01*
X125595556Y-92198000D01*
X125653529Y-92203710D01*
X125653529Y-92203710D01*
G37*
G36*
X128193529Y-92203710D02*
G01*
X128243378Y-92218831D01*
X128289310Y-92243382D01*
X128329574Y-92276426D01*
X128362618Y-92316690D01*
X128387169Y-92362622D01*
X128402290Y-92412471D01*
X128408000Y-92470444D01*
X128408000Y-93475556D01*
X128402290Y-93533529D01*
X128387169Y-93583378D01*
X128362618Y-93629310D01*
X128329574Y-93669574D01*
X128289310Y-93702618D01*
X128243378Y-93727169D01*
X128193529Y-93742290D01*
X128135556Y-93748000D01*
X126880444Y-93748000D01*
X126822471Y-93742290D01*
X126772622Y-93727169D01*
X126726690Y-93702618D01*
X126686426Y-93669574D01*
X126653382Y-93629310D01*
X126628831Y-93583378D01*
X126613710Y-93533529D01*
X126608000Y-93475556D01*
X126608000Y-92470444D01*
X126613710Y-92412471D01*
X126628831Y-92362622D01*
X126653382Y-92316690D01*
X126686426Y-92276426D01*
X126726690Y-92243382D01*
X126772622Y-92218831D01*
X126822471Y-92203710D01*
X126880444Y-92198000D01*
X128135556Y-92198000D01*
X128193529Y-92203710D01*
X128193529Y-92203710D01*
G37*
G36*
X130733529Y-92194710D02*
G01*
X130783378Y-92209831D01*
X130829310Y-92234382D01*
X130869574Y-92267426D01*
X130902618Y-92307690D01*
X130927169Y-92353622D01*
X130942290Y-92403471D01*
X130948000Y-92461444D01*
X130948000Y-93466556D01*
X130942290Y-93524529D01*
X130927169Y-93574378D01*
X130902618Y-93620310D01*
X130869574Y-93660574D01*
X130829310Y-93693618D01*
X130783378Y-93718169D01*
X130733529Y-93733290D01*
X130675556Y-93739000D01*
X129420444Y-93739000D01*
X129362471Y-93733290D01*
X129312622Y-93718169D01*
X129266690Y-93693618D01*
X129226426Y-93660574D01*
X129193382Y-93620310D01*
X129168831Y-93574378D01*
X129153710Y-93524529D01*
X129148000Y-93466556D01*
X129148000Y-92461444D01*
X129153710Y-92403471D01*
X129168831Y-92353622D01*
X129193382Y-92307690D01*
X129226426Y-92267426D01*
X129266690Y-92234382D01*
X129312622Y-92209831D01*
X129362471Y-92194710D01*
X129420444Y-92189000D01*
X130675556Y-92189000D01*
X130733529Y-92194710D01*
X130733529Y-92194710D01*
G37*
G36*
X84897529Y-90545710D02*
G01*
X84947378Y-90560831D01*
X84993310Y-90585382D01*
X85033574Y-90618426D01*
X85066618Y-90658690D01*
X85091169Y-90704622D01*
X85106290Y-90754471D01*
X85112000Y-90812444D01*
X85112000Y-92067556D01*
X85106290Y-92125529D01*
X85091169Y-92175378D01*
X85066618Y-92221310D01*
X85033574Y-92261574D01*
X84993310Y-92294618D01*
X84947378Y-92319169D01*
X84897529Y-92334290D01*
X84839556Y-92340000D01*
X83834444Y-92340000D01*
X83776471Y-92334290D01*
X83726622Y-92319169D01*
X83680690Y-92294618D01*
X83640426Y-92261574D01*
X83607382Y-92221310D01*
X83582831Y-92175378D01*
X83567710Y-92125529D01*
X83562000Y-92067556D01*
X83562000Y-90812444D01*
X83567710Y-90754471D01*
X83582831Y-90704622D01*
X83607382Y-90658690D01*
X83640426Y-90618426D01*
X83680690Y-90585382D01*
X83726622Y-90560831D01*
X83776471Y-90545710D01*
X83834444Y-90540000D01*
X84839556Y-90540000D01*
X84897529Y-90545710D01*
X84897529Y-90545710D01*
G37*
G36*
X82847529Y-90545710D02*
G01*
X82897378Y-90560831D01*
X82943310Y-90585382D01*
X82983574Y-90618426D01*
X83016618Y-90658690D01*
X83041169Y-90704622D01*
X83056290Y-90754471D01*
X83062000Y-90812444D01*
X83062000Y-92067556D01*
X83056290Y-92125529D01*
X83041169Y-92175378D01*
X83016618Y-92221310D01*
X82983574Y-92261574D01*
X82943310Y-92294618D01*
X82897378Y-92319169D01*
X82847529Y-92334290D01*
X82789556Y-92340000D01*
X81784444Y-92340000D01*
X81726471Y-92334290D01*
X81676622Y-92319169D01*
X81630690Y-92294618D01*
X81590426Y-92261574D01*
X81557382Y-92221310D01*
X81532831Y-92175378D01*
X81517710Y-92125529D01*
X81512000Y-92067556D01*
X81512000Y-90812444D01*
X81517710Y-90754471D01*
X81532831Y-90704622D01*
X81557382Y-90658690D01*
X81590426Y-90618426D01*
X81630690Y-90585382D01*
X81676622Y-90560831D01*
X81726471Y-90545710D01*
X81784444Y-90540000D01*
X82789556Y-90540000D01*
X82847529Y-90545710D01*
X82847529Y-90545710D01*
G37*
G36*
X128193529Y-90153710D02*
G01*
X128243378Y-90168831D01*
X128289310Y-90193382D01*
X128329574Y-90226426D01*
X128362618Y-90266690D01*
X128387169Y-90312622D01*
X128402290Y-90362471D01*
X128408000Y-90420444D01*
X128408000Y-91425556D01*
X128402290Y-91483529D01*
X128387169Y-91533378D01*
X128362618Y-91579310D01*
X128329574Y-91619574D01*
X128289310Y-91652618D01*
X128243378Y-91677169D01*
X128193529Y-91692290D01*
X128135556Y-91698000D01*
X126880444Y-91698000D01*
X126822471Y-91692290D01*
X126772622Y-91677169D01*
X126726690Y-91652618D01*
X126686426Y-91619574D01*
X126653382Y-91579310D01*
X126628831Y-91533378D01*
X126613710Y-91483529D01*
X126608000Y-91425556D01*
X126608000Y-90420444D01*
X126613710Y-90362471D01*
X126628831Y-90312622D01*
X126653382Y-90266690D01*
X126686426Y-90226426D01*
X126726690Y-90193382D01*
X126772622Y-90168831D01*
X126822471Y-90153710D01*
X126880444Y-90148000D01*
X128135556Y-90148000D01*
X128193529Y-90153710D01*
X128193529Y-90153710D01*
G37*
G36*
X123113529Y-90153710D02*
G01*
X123163378Y-90168831D01*
X123209310Y-90193382D01*
X123249574Y-90226426D01*
X123282618Y-90266690D01*
X123307169Y-90312622D01*
X123322290Y-90362471D01*
X123328000Y-90420444D01*
X123328000Y-91425556D01*
X123322290Y-91483529D01*
X123307169Y-91533378D01*
X123282618Y-91579310D01*
X123249574Y-91619574D01*
X123209310Y-91652618D01*
X123163378Y-91677169D01*
X123113529Y-91692290D01*
X123055556Y-91698000D01*
X121800444Y-91698000D01*
X121742471Y-91692290D01*
X121692622Y-91677169D01*
X121646690Y-91652618D01*
X121606426Y-91619574D01*
X121573382Y-91579310D01*
X121548831Y-91533378D01*
X121533710Y-91483529D01*
X121528000Y-91425556D01*
X121528000Y-90420444D01*
X121533710Y-90362471D01*
X121548831Y-90312622D01*
X121573382Y-90266690D01*
X121606426Y-90226426D01*
X121646690Y-90193382D01*
X121692622Y-90168831D01*
X121742471Y-90153710D01*
X121800444Y-90148000D01*
X123055556Y-90148000D01*
X123113529Y-90153710D01*
X123113529Y-90153710D01*
G37*
G36*
X125653529Y-90153710D02*
G01*
X125703378Y-90168831D01*
X125749310Y-90193382D01*
X125789574Y-90226426D01*
X125822618Y-90266690D01*
X125847169Y-90312622D01*
X125862290Y-90362471D01*
X125868000Y-90420444D01*
X125868000Y-91425556D01*
X125862290Y-91483529D01*
X125847169Y-91533378D01*
X125822618Y-91579310D01*
X125789574Y-91619574D01*
X125749310Y-91652618D01*
X125703378Y-91677169D01*
X125653529Y-91692290D01*
X125595556Y-91698000D01*
X124340444Y-91698000D01*
X124282471Y-91692290D01*
X124232622Y-91677169D01*
X124186690Y-91652618D01*
X124146426Y-91619574D01*
X124113382Y-91579310D01*
X124088831Y-91533378D01*
X124073710Y-91483529D01*
X124068000Y-91425556D01*
X124068000Y-90420444D01*
X124073710Y-90362471D01*
X124088831Y-90312622D01*
X124113382Y-90266690D01*
X124146426Y-90226426D01*
X124186690Y-90193382D01*
X124232622Y-90168831D01*
X124282471Y-90153710D01*
X124340444Y-90148000D01*
X125595556Y-90148000D01*
X125653529Y-90153710D01*
X125653529Y-90153710D01*
G37*
G36*
X133273529Y-90153710D02*
G01*
X133323378Y-90168831D01*
X133369310Y-90193382D01*
X133409574Y-90226426D01*
X133442618Y-90266690D01*
X133467169Y-90312622D01*
X133482290Y-90362471D01*
X133488000Y-90420444D01*
X133488000Y-91425556D01*
X133482290Y-91483529D01*
X133467169Y-91533378D01*
X133442618Y-91579310D01*
X133409574Y-91619574D01*
X133369310Y-91652618D01*
X133323378Y-91677169D01*
X133273529Y-91692290D01*
X133215556Y-91698000D01*
X131960444Y-91698000D01*
X131902471Y-91692290D01*
X131852622Y-91677169D01*
X131806690Y-91652618D01*
X131766426Y-91619574D01*
X131733382Y-91579310D01*
X131708831Y-91533378D01*
X131693710Y-91483529D01*
X131688000Y-91425556D01*
X131688000Y-90420444D01*
X131693710Y-90362471D01*
X131708831Y-90312622D01*
X131733382Y-90266690D01*
X131766426Y-90226426D01*
X131806690Y-90193382D01*
X131852622Y-90168831D01*
X131902471Y-90153710D01*
X131960444Y-90148000D01*
X133215556Y-90148000D01*
X133273529Y-90153710D01*
X133273529Y-90153710D01*
G37*
G36*
X130733529Y-90144710D02*
G01*
X130783378Y-90159831D01*
X130829310Y-90184382D01*
X130869574Y-90217426D01*
X130902618Y-90257690D01*
X130927169Y-90303622D01*
X130942290Y-90353471D01*
X130948000Y-90411444D01*
X130948000Y-91416556D01*
X130942290Y-91474529D01*
X130927169Y-91524378D01*
X130902618Y-91570310D01*
X130869574Y-91610574D01*
X130829310Y-91643618D01*
X130783378Y-91668169D01*
X130733529Y-91683290D01*
X130675556Y-91689000D01*
X129420444Y-91689000D01*
X129362471Y-91683290D01*
X129312622Y-91668169D01*
X129266690Y-91643618D01*
X129226426Y-91610574D01*
X129193382Y-91570310D01*
X129168831Y-91524378D01*
X129153710Y-91474529D01*
X129148000Y-91416556D01*
X129148000Y-90411444D01*
X129153710Y-90353471D01*
X129168831Y-90303622D01*
X129193382Y-90257690D01*
X129226426Y-90217426D01*
X129266690Y-90184382D01*
X129312622Y-90159831D01*
X129362471Y-90144710D01*
X129420444Y-90139000D01*
X130675556Y-90139000D01*
X130733529Y-90144710D01*
X130733529Y-90144710D01*
G37*
G36*
X114936707Y-89381596D02*
G01*
X115013836Y-89389193D01*
X115211762Y-89449233D01*
X115211765Y-89449234D01*
X115394170Y-89546732D01*
X115554055Y-89677945D01*
X115685268Y-89837830D01*
X115782766Y-90020235D01*
X115782767Y-90020238D01*
X115842807Y-90218164D01*
X115863080Y-90424000D01*
X115842807Y-90629836D01*
X115787785Y-90811219D01*
X115782766Y-90827765D01*
X115685268Y-91010170D01*
X115554055Y-91170055D01*
X115394170Y-91301268D01*
X115211765Y-91398766D01*
X115211762Y-91398767D01*
X115013836Y-91458807D01*
X114936707Y-91466403D01*
X114859580Y-91474000D01*
X114756420Y-91474000D01*
X114679293Y-91466403D01*
X114602164Y-91458807D01*
X114404238Y-91398767D01*
X114404235Y-91398766D01*
X114221830Y-91301268D01*
X114061945Y-91170055D01*
X113930732Y-91010170D01*
X113833234Y-90827765D01*
X113828215Y-90811219D01*
X113773193Y-90629836D01*
X113752920Y-90424000D01*
X113773193Y-90218164D01*
X113833233Y-90020238D01*
X113833234Y-90020235D01*
X113930732Y-89837830D01*
X114061945Y-89677945D01*
X114221830Y-89546732D01*
X114404235Y-89449234D01*
X114404238Y-89449233D01*
X114602164Y-89389193D01*
X114679293Y-89381596D01*
X114756420Y-89374000D01*
X114859580Y-89374000D01*
X114936707Y-89381596D01*
X114936707Y-89381596D01*
G37*
G36*
X117476707Y-89381596D02*
G01*
X117553836Y-89389193D01*
X117751762Y-89449233D01*
X117751765Y-89449234D01*
X117934170Y-89546732D01*
X118094055Y-89677945D01*
X118225268Y-89837830D01*
X118322766Y-90020235D01*
X118322767Y-90020238D01*
X118382807Y-90218164D01*
X118403080Y-90424000D01*
X118382807Y-90629836D01*
X118327785Y-90811219D01*
X118322766Y-90827765D01*
X118225268Y-91010170D01*
X118094055Y-91170055D01*
X117934170Y-91301268D01*
X117751765Y-91398766D01*
X117751762Y-91398767D01*
X117553836Y-91458807D01*
X117476707Y-91466403D01*
X117399580Y-91474000D01*
X117296420Y-91474000D01*
X117219293Y-91466403D01*
X117142164Y-91458807D01*
X116944238Y-91398767D01*
X116944235Y-91398766D01*
X116761830Y-91301268D01*
X116601945Y-91170055D01*
X116470732Y-91010170D01*
X116373234Y-90827765D01*
X116368215Y-90811219D01*
X116313193Y-90629836D01*
X116292920Y-90424000D01*
X116313193Y-90218164D01*
X116373233Y-90020238D01*
X116373234Y-90020235D01*
X116470732Y-89837830D01*
X116601945Y-89677945D01*
X116761830Y-89546732D01*
X116944235Y-89449234D01*
X116944238Y-89449233D01*
X117142164Y-89389193D01*
X117219293Y-89381596D01*
X117296420Y-89374000D01*
X117399580Y-89374000D01*
X117476707Y-89381596D01*
X117476707Y-89381596D01*
G37*
G36*
X112396707Y-89381596D02*
G01*
X112473836Y-89389193D01*
X112671762Y-89449233D01*
X112671765Y-89449234D01*
X112854170Y-89546732D01*
X113014055Y-89677945D01*
X113145268Y-89837830D01*
X113242766Y-90020235D01*
X113242767Y-90020238D01*
X113302807Y-90218164D01*
X113323080Y-90424000D01*
X113302807Y-90629836D01*
X113247785Y-90811219D01*
X113242766Y-90827765D01*
X113145268Y-91010170D01*
X113014055Y-91170055D01*
X112854170Y-91301268D01*
X112671765Y-91398766D01*
X112671762Y-91398767D01*
X112473836Y-91458807D01*
X112396707Y-91466403D01*
X112319580Y-91474000D01*
X112216420Y-91474000D01*
X112139293Y-91466403D01*
X112062164Y-91458807D01*
X111864238Y-91398767D01*
X111864235Y-91398766D01*
X111681830Y-91301268D01*
X111521945Y-91170055D01*
X111390732Y-91010170D01*
X111293234Y-90827765D01*
X111288215Y-90811219D01*
X111233193Y-90629836D01*
X111212920Y-90424000D01*
X111233193Y-90218164D01*
X111293233Y-90020238D01*
X111293234Y-90020235D01*
X111390732Y-89837830D01*
X111521945Y-89677945D01*
X111681830Y-89546732D01*
X111864235Y-89449234D01*
X111864238Y-89449233D01*
X112062164Y-89389193D01*
X112139293Y-89381596D01*
X112216420Y-89374000D01*
X112319580Y-89374000D01*
X112396707Y-89381596D01*
X112396707Y-89381596D01*
G37*
G36*
X109856707Y-89381596D02*
G01*
X109933836Y-89389193D01*
X110131762Y-89449233D01*
X110131765Y-89449234D01*
X110314170Y-89546732D01*
X110474055Y-89677945D01*
X110605268Y-89837830D01*
X110702766Y-90020235D01*
X110702767Y-90020238D01*
X110762807Y-90218164D01*
X110783080Y-90424000D01*
X110762807Y-90629836D01*
X110707785Y-90811219D01*
X110702766Y-90827765D01*
X110605268Y-91010170D01*
X110474055Y-91170055D01*
X110314170Y-91301268D01*
X110131765Y-91398766D01*
X110131762Y-91398767D01*
X109933836Y-91458807D01*
X109856707Y-91466403D01*
X109779580Y-91474000D01*
X109676420Y-91474000D01*
X109599293Y-91466403D01*
X109522164Y-91458807D01*
X109324238Y-91398767D01*
X109324235Y-91398766D01*
X109141830Y-91301268D01*
X108981945Y-91170055D01*
X108850732Y-91010170D01*
X108753234Y-90827765D01*
X108748215Y-90811219D01*
X108693193Y-90629836D01*
X108672920Y-90424000D01*
X108693193Y-90218164D01*
X108753233Y-90020238D01*
X108753234Y-90020235D01*
X108850732Y-89837830D01*
X108981945Y-89677945D01*
X109141830Y-89546732D01*
X109324235Y-89449234D01*
X109324238Y-89449233D01*
X109522164Y-89389193D01*
X109599293Y-89381596D01*
X109676420Y-89374000D01*
X109779580Y-89374000D01*
X109856707Y-89381596D01*
X109856707Y-89381596D01*
G37*
G36*
X100618000Y-91474000D02*
G01*
X98518000Y-91474000D01*
X98518000Y-89374000D01*
X100618000Y-89374000D01*
X100618000Y-91474000D01*
X100618000Y-91474000D01*
G37*
G36*
X102236707Y-89381596D02*
G01*
X102313836Y-89389193D01*
X102511762Y-89449233D01*
X102511765Y-89449234D01*
X102694170Y-89546732D01*
X102854055Y-89677945D01*
X102985268Y-89837830D01*
X103082766Y-90020235D01*
X103082767Y-90020238D01*
X103142807Y-90218164D01*
X103163080Y-90424000D01*
X103142807Y-90629836D01*
X103087785Y-90811219D01*
X103082766Y-90827765D01*
X102985268Y-91010170D01*
X102854055Y-91170055D01*
X102694170Y-91301268D01*
X102511765Y-91398766D01*
X102511762Y-91398767D01*
X102313836Y-91458807D01*
X102236707Y-91466403D01*
X102159580Y-91474000D01*
X102056420Y-91474000D01*
X101979293Y-91466403D01*
X101902164Y-91458807D01*
X101704238Y-91398767D01*
X101704235Y-91398766D01*
X101521830Y-91301268D01*
X101361945Y-91170055D01*
X101230732Y-91010170D01*
X101133234Y-90827765D01*
X101128215Y-90811219D01*
X101073193Y-90629836D01*
X101052920Y-90424000D01*
X101073193Y-90218164D01*
X101133233Y-90020238D01*
X101133234Y-90020235D01*
X101230732Y-89837830D01*
X101361945Y-89677945D01*
X101521830Y-89546732D01*
X101704235Y-89449234D01*
X101704238Y-89449233D01*
X101902164Y-89389193D01*
X101979293Y-89381596D01*
X102056420Y-89374000D01*
X102159580Y-89374000D01*
X102236707Y-89381596D01*
X102236707Y-89381596D01*
G37*
G36*
X104776707Y-89381596D02*
G01*
X104853836Y-89389193D01*
X105051762Y-89449233D01*
X105051765Y-89449234D01*
X105234170Y-89546732D01*
X105394055Y-89677945D01*
X105525268Y-89837830D01*
X105622766Y-90020235D01*
X105622767Y-90020238D01*
X105682807Y-90218164D01*
X105703080Y-90424000D01*
X105682807Y-90629836D01*
X105627785Y-90811219D01*
X105622766Y-90827765D01*
X105525268Y-91010170D01*
X105394055Y-91170055D01*
X105234170Y-91301268D01*
X105051765Y-91398766D01*
X105051762Y-91398767D01*
X104853836Y-91458807D01*
X104776707Y-91466403D01*
X104699580Y-91474000D01*
X104596420Y-91474000D01*
X104519293Y-91466403D01*
X104442164Y-91458807D01*
X104244238Y-91398767D01*
X104244235Y-91398766D01*
X104061830Y-91301268D01*
X103901945Y-91170055D01*
X103770732Y-91010170D01*
X103673234Y-90827765D01*
X103668215Y-90811219D01*
X103613193Y-90629836D01*
X103592920Y-90424000D01*
X103613193Y-90218164D01*
X103673233Y-90020238D01*
X103673234Y-90020235D01*
X103770732Y-89837830D01*
X103901945Y-89677945D01*
X104061830Y-89546732D01*
X104244235Y-89449234D01*
X104244238Y-89449233D01*
X104442164Y-89389193D01*
X104519293Y-89381596D01*
X104596420Y-89374000D01*
X104699580Y-89374000D01*
X104776707Y-89381596D01*
X104776707Y-89381596D01*
G37*
G36*
X107316707Y-89381596D02*
G01*
X107393836Y-89389193D01*
X107591762Y-89449233D01*
X107591765Y-89449234D01*
X107774170Y-89546732D01*
X107934055Y-89677945D01*
X108065268Y-89837830D01*
X108162766Y-90020235D01*
X108162767Y-90020238D01*
X108222807Y-90218164D01*
X108243080Y-90424000D01*
X108222807Y-90629836D01*
X108167785Y-90811219D01*
X108162766Y-90827765D01*
X108065268Y-91010170D01*
X107934055Y-91170055D01*
X107774170Y-91301268D01*
X107591765Y-91398766D01*
X107591762Y-91398767D01*
X107393836Y-91458807D01*
X107316707Y-91466403D01*
X107239580Y-91474000D01*
X107136420Y-91474000D01*
X107059293Y-91466403D01*
X106982164Y-91458807D01*
X106784238Y-91398767D01*
X106784235Y-91398766D01*
X106601830Y-91301268D01*
X106441945Y-91170055D01*
X106310732Y-91010170D01*
X106213234Y-90827765D01*
X106208215Y-90811219D01*
X106153193Y-90629836D01*
X106132920Y-90424000D01*
X106153193Y-90218164D01*
X106213233Y-90020238D01*
X106213234Y-90020235D01*
X106310732Y-89837830D01*
X106441945Y-89677945D01*
X106601830Y-89546732D01*
X106784235Y-89449234D01*
X106784238Y-89449233D01*
X106982164Y-89389193D01*
X107059293Y-89381596D01*
X107136420Y-89374000D01*
X107239580Y-89374000D01*
X107316707Y-89381596D01*
X107316707Y-89381596D01*
G37*
G36*
X75698326Y-86838831D02*
G01*
X75739596Y-86851350D01*
X75777631Y-86871681D01*
X75810964Y-86899036D01*
X75838319Y-86932369D01*
X75858650Y-86970404D01*
X75871169Y-87011674D01*
X75876000Y-87060727D01*
X75876000Y-88707273D01*
X75871169Y-88756326D01*
X75858650Y-88797596D01*
X75838319Y-88835631D01*
X75810964Y-88868964D01*
X75777631Y-88896319D01*
X75739596Y-88916650D01*
X75698326Y-88929169D01*
X75649273Y-88934000D01*
X73702727Y-88934000D01*
X73653674Y-88929169D01*
X73612404Y-88916650D01*
X73574369Y-88896319D01*
X73541036Y-88868964D01*
X73513681Y-88835631D01*
X73493350Y-88797596D01*
X73480831Y-88756326D01*
X73476000Y-88707273D01*
X73476000Y-87060727D01*
X73480831Y-87011674D01*
X73493350Y-86970404D01*
X73513681Y-86932369D01*
X73541036Y-86899036D01*
X73574369Y-86871681D01*
X73612404Y-86851350D01*
X73653674Y-86838831D01*
X73702727Y-86834000D01*
X75649273Y-86834000D01*
X75698326Y-86838831D01*
X75698326Y-86838831D01*
G37*
G36*
X74954707Y-84341597D02*
G01*
X75031836Y-84349193D01*
X75229762Y-84409233D01*
X75229765Y-84409234D01*
X75412170Y-84506732D01*
X75572055Y-84637945D01*
X75703268Y-84797830D01*
X75800766Y-84980235D01*
X75800767Y-84980238D01*
X75860807Y-85178164D01*
X75881080Y-85384000D01*
X75860807Y-85589836D01*
X75800767Y-85787762D01*
X75800766Y-85787765D01*
X75703268Y-85970170D01*
X75572055Y-86130055D01*
X75412170Y-86261268D01*
X75229765Y-86358766D01*
X75229762Y-86358767D01*
X75031836Y-86418807D01*
X74954707Y-86426404D01*
X74877580Y-86434000D01*
X74474420Y-86434000D01*
X74397293Y-86426404D01*
X74320164Y-86418807D01*
X74122238Y-86358767D01*
X74122235Y-86358766D01*
X73939830Y-86261268D01*
X73779945Y-86130055D01*
X73648732Y-85970170D01*
X73551234Y-85787765D01*
X73551233Y-85787762D01*
X73491193Y-85589836D01*
X73470920Y-85384000D01*
X73491193Y-85178164D01*
X73551233Y-84980238D01*
X73551234Y-84980235D01*
X73648732Y-84797830D01*
X73779945Y-84637945D01*
X73939830Y-84506732D01*
X74122235Y-84409234D01*
X74122238Y-84409233D01*
X74320164Y-84349193D01*
X74397293Y-84341597D01*
X74474420Y-84334000D01*
X74877580Y-84334000D01*
X74954707Y-84341597D01*
X74954707Y-84341597D01*
G37*
G36*
X145512000Y-86274000D02*
G01*
X142912000Y-86274000D01*
X142912000Y-84674000D01*
X145512000Y-84674000D01*
X145512000Y-86274000D01*
X145512000Y-86274000D01*
G37*
G36*
X135112000Y-84549001D02*
G01*
X135114402Y-84573387D01*
X135121515Y-84596836D01*
X135133066Y-84618447D01*
X135148611Y-84637389D01*
X135167553Y-84652934D01*
X135189164Y-84664485D01*
X135212613Y-84671598D01*
X135236999Y-84674000D01*
X135512000Y-84674000D01*
X135512000Y-86274000D01*
X133712000Y-86274000D01*
X133712000Y-84948999D01*
X133709598Y-84924613D01*
X133702485Y-84901164D01*
X133690934Y-84879553D01*
X133675389Y-84860611D01*
X133656447Y-84845066D01*
X133634836Y-84833515D01*
X133611387Y-84826402D01*
X133587001Y-84824000D01*
X133112000Y-84824000D01*
X133112000Y-74924000D01*
X135112000Y-74924000D01*
X135112000Y-84549001D01*
X135112000Y-84549001D01*
G37*
G36*
X91058000Y-84354000D02*
G01*
X89758000Y-84354000D01*
X89758000Y-83154000D01*
X91058000Y-83154000D01*
X91058000Y-84354000D01*
X91058000Y-84354000D01*
G37*
G36*
X110667529Y-82043710D02*
G01*
X110717378Y-82058831D01*
X110763310Y-82083382D01*
X110803574Y-82116426D01*
X110836618Y-82156690D01*
X110861169Y-82202622D01*
X110876290Y-82252471D01*
X110882000Y-82310444D01*
X110882000Y-83315556D01*
X110876290Y-83373529D01*
X110861169Y-83423378D01*
X110836618Y-83469310D01*
X110803574Y-83509574D01*
X110763310Y-83542618D01*
X110717378Y-83567169D01*
X110667529Y-83582290D01*
X110609556Y-83588000D01*
X109354444Y-83588000D01*
X109296471Y-83582290D01*
X109246622Y-83567169D01*
X109200690Y-83542618D01*
X109160426Y-83509574D01*
X109127382Y-83469310D01*
X109102831Y-83423378D01*
X109087710Y-83373529D01*
X109082000Y-83315556D01*
X109082000Y-82310444D01*
X109087710Y-82252471D01*
X109102831Y-82202622D01*
X109127382Y-82156690D01*
X109160426Y-82116426D01*
X109200690Y-82083382D01*
X109246622Y-82058831D01*
X109296471Y-82043710D01*
X109354444Y-82038000D01*
X110609556Y-82038000D01*
X110667529Y-82043710D01*
X110667529Y-82043710D01*
G37*
G36*
X105841529Y-82043710D02*
G01*
X105891378Y-82058831D01*
X105937310Y-82083382D01*
X105977574Y-82116426D01*
X106010618Y-82156690D01*
X106035169Y-82202622D01*
X106050290Y-82252471D01*
X106056000Y-82310444D01*
X106056000Y-83315556D01*
X106050290Y-83373529D01*
X106035169Y-83423378D01*
X106010618Y-83469310D01*
X105977574Y-83509574D01*
X105937310Y-83542618D01*
X105891378Y-83567169D01*
X105841529Y-83582290D01*
X105783556Y-83588000D01*
X104528444Y-83588000D01*
X104470471Y-83582290D01*
X104420622Y-83567169D01*
X104374690Y-83542618D01*
X104334426Y-83509574D01*
X104301382Y-83469310D01*
X104276831Y-83423378D01*
X104261710Y-83373529D01*
X104256000Y-83315556D01*
X104256000Y-82310444D01*
X104261710Y-82252471D01*
X104276831Y-82202622D01*
X104301382Y-82156690D01*
X104334426Y-82116426D01*
X104374690Y-82083382D01*
X104420622Y-82058831D01*
X104470471Y-82043710D01*
X104528444Y-82038000D01*
X105783556Y-82038000D01*
X105841529Y-82043710D01*
X105841529Y-82043710D01*
G37*
G36*
X89058000Y-83404000D02*
G01*
X87758000Y-83404000D01*
X87758000Y-82204000D01*
X89058000Y-82204000D01*
X89058000Y-83404000D01*
X89058000Y-83404000D01*
G37*
G36*
X144787013Y-82097057D02*
G01*
X144896206Y-82142286D01*
X144994477Y-82207949D01*
X145078051Y-82291523D01*
X145143714Y-82389794D01*
X145188943Y-82498987D01*
X145212000Y-82614904D01*
X145212000Y-82733096D01*
X145188943Y-82849013D01*
X145143714Y-82958206D01*
X145078051Y-83056477D01*
X144994477Y-83140051D01*
X144896206Y-83205714D01*
X144787013Y-83250943D01*
X144671096Y-83274000D01*
X144552904Y-83274000D01*
X144436987Y-83250943D01*
X144327794Y-83205714D01*
X144229523Y-83140051D01*
X144145949Y-83056477D01*
X144080286Y-82958206D01*
X144035057Y-82849013D01*
X144012000Y-82733096D01*
X144012000Y-82614904D01*
X144035057Y-82498987D01*
X144080286Y-82389794D01*
X144145949Y-82291523D01*
X144229523Y-82207949D01*
X144327794Y-82142286D01*
X144436987Y-82097057D01*
X144552904Y-82074000D01*
X144671096Y-82074000D01*
X144787013Y-82097057D01*
X144787013Y-82097057D01*
G37*
G36*
X91058000Y-82454000D02*
G01*
X89758000Y-82454000D01*
X89758000Y-81254000D01*
X91058000Y-81254000D01*
X91058000Y-82454000D01*
X91058000Y-82454000D01*
G37*
G36*
X130617529Y-79877710D02*
G01*
X130667378Y-79892831D01*
X130713310Y-79917382D01*
X130753574Y-79950426D01*
X130786618Y-79990690D01*
X130811169Y-80036622D01*
X130826290Y-80086471D01*
X130832000Y-80144444D01*
X130832000Y-81399556D01*
X130826290Y-81457529D01*
X130811169Y-81507378D01*
X130786618Y-81553310D01*
X130753574Y-81593574D01*
X130713310Y-81626618D01*
X130667378Y-81651169D01*
X130617529Y-81666290D01*
X130559556Y-81672000D01*
X129554444Y-81672000D01*
X129496471Y-81666290D01*
X129446622Y-81651169D01*
X129400690Y-81626618D01*
X129360426Y-81593574D01*
X129327382Y-81553310D01*
X129302831Y-81507378D01*
X129287710Y-81457529D01*
X129282000Y-81399556D01*
X129282000Y-80144444D01*
X129287710Y-80086471D01*
X129302831Y-80036622D01*
X129327382Y-79990690D01*
X129360426Y-79950426D01*
X129400690Y-79917382D01*
X129446622Y-79892831D01*
X129496471Y-79877710D01*
X129554444Y-79872000D01*
X130559556Y-79872000D01*
X130617529Y-79877710D01*
X130617529Y-79877710D01*
G37*
G36*
X128567529Y-79877710D02*
G01*
X128617378Y-79892831D01*
X128663310Y-79917382D01*
X128703574Y-79950426D01*
X128736618Y-79990690D01*
X128761169Y-80036622D01*
X128776290Y-80086471D01*
X128782000Y-80144444D01*
X128782000Y-81399556D01*
X128776290Y-81457529D01*
X128761169Y-81507378D01*
X128736618Y-81553310D01*
X128703574Y-81593574D01*
X128663310Y-81626618D01*
X128617378Y-81651169D01*
X128567529Y-81666290D01*
X128509556Y-81672000D01*
X127504444Y-81672000D01*
X127446471Y-81666290D01*
X127396622Y-81651169D01*
X127350690Y-81626618D01*
X127310426Y-81593574D01*
X127277382Y-81553310D01*
X127252831Y-81507378D01*
X127237710Y-81457529D01*
X127232000Y-81399556D01*
X127232000Y-80144444D01*
X127237710Y-80086471D01*
X127252831Y-80036622D01*
X127277382Y-79990690D01*
X127310426Y-79950426D01*
X127350690Y-79917382D01*
X127396622Y-79892831D01*
X127446471Y-79877710D01*
X127504444Y-79872000D01*
X128509556Y-79872000D01*
X128567529Y-79877710D01*
X128567529Y-79877710D01*
G37*
G36*
X110667529Y-79993710D02*
G01*
X110717378Y-80008831D01*
X110763310Y-80033382D01*
X110803574Y-80066426D01*
X110836618Y-80106690D01*
X110861169Y-80152622D01*
X110876290Y-80202471D01*
X110882000Y-80260444D01*
X110882000Y-81265556D01*
X110876290Y-81323529D01*
X110861169Y-81373378D01*
X110836618Y-81419310D01*
X110803574Y-81459574D01*
X110763310Y-81492618D01*
X110717378Y-81517169D01*
X110667529Y-81532290D01*
X110609556Y-81538000D01*
X109354444Y-81538000D01*
X109296471Y-81532290D01*
X109246622Y-81517169D01*
X109200690Y-81492618D01*
X109160426Y-81459574D01*
X109127382Y-81419310D01*
X109102831Y-81373378D01*
X109087710Y-81323529D01*
X109082000Y-81265556D01*
X109082000Y-80260444D01*
X109087710Y-80202471D01*
X109102831Y-80152622D01*
X109127382Y-80106690D01*
X109160426Y-80066426D01*
X109200690Y-80033382D01*
X109246622Y-80008831D01*
X109296471Y-79993710D01*
X109354444Y-79988000D01*
X110609556Y-79988000D01*
X110667529Y-79993710D01*
X110667529Y-79993710D01*
G37*
G36*
X105841529Y-79993710D02*
G01*
X105891378Y-80008831D01*
X105937310Y-80033382D01*
X105977574Y-80066426D01*
X106010618Y-80106690D01*
X106035169Y-80152622D01*
X106050290Y-80202471D01*
X106056000Y-80260444D01*
X106056000Y-81265556D01*
X106050290Y-81323529D01*
X106035169Y-81373378D01*
X106010618Y-81419310D01*
X105977574Y-81459574D01*
X105937310Y-81492618D01*
X105891378Y-81517169D01*
X105841529Y-81532290D01*
X105783556Y-81538000D01*
X104528444Y-81538000D01*
X104470471Y-81532290D01*
X104420622Y-81517169D01*
X104374690Y-81492618D01*
X104334426Y-81459574D01*
X104301382Y-81419310D01*
X104276831Y-81373378D01*
X104261710Y-81323529D01*
X104256000Y-81265556D01*
X104256000Y-80260444D01*
X104261710Y-80202471D01*
X104276831Y-80152622D01*
X104301382Y-80106690D01*
X104334426Y-80066426D01*
X104374690Y-80033382D01*
X104420622Y-80008831D01*
X104470471Y-79993710D01*
X104528444Y-79988000D01*
X105783556Y-79988000D01*
X105841529Y-79993710D01*
X105841529Y-79993710D01*
G37*
G36*
X91058000Y-79274000D02*
G01*
X89758000Y-79274000D01*
X89758000Y-78074000D01*
X91058000Y-78074000D01*
X91058000Y-79274000D01*
X91058000Y-79274000D01*
G37*
G36*
X130617529Y-76829710D02*
G01*
X130667378Y-76844831D01*
X130713310Y-76869382D01*
X130753574Y-76902426D01*
X130786618Y-76942690D01*
X130811169Y-76988622D01*
X130826290Y-77038471D01*
X130832000Y-77096444D01*
X130832000Y-78351556D01*
X130826290Y-78409529D01*
X130811169Y-78459378D01*
X130786618Y-78505310D01*
X130753574Y-78545574D01*
X130713310Y-78578618D01*
X130667378Y-78603169D01*
X130617529Y-78618290D01*
X130559556Y-78624000D01*
X129554444Y-78624000D01*
X129496471Y-78618290D01*
X129446622Y-78603169D01*
X129400690Y-78578618D01*
X129360426Y-78545574D01*
X129327382Y-78505310D01*
X129302831Y-78459378D01*
X129287710Y-78409529D01*
X129282000Y-78351556D01*
X129282000Y-77096444D01*
X129287710Y-77038471D01*
X129302831Y-76988622D01*
X129327382Y-76942690D01*
X129360426Y-76902426D01*
X129400690Y-76869382D01*
X129446622Y-76844831D01*
X129496471Y-76829710D01*
X129554444Y-76824000D01*
X130559556Y-76824000D01*
X130617529Y-76829710D01*
X130617529Y-76829710D01*
G37*
G36*
X128567529Y-76829710D02*
G01*
X128617378Y-76844831D01*
X128663310Y-76869382D01*
X128703574Y-76902426D01*
X128736618Y-76942690D01*
X128761169Y-76988622D01*
X128776290Y-77038471D01*
X128782000Y-77096444D01*
X128782000Y-78351556D01*
X128776290Y-78409529D01*
X128761169Y-78459378D01*
X128736618Y-78505310D01*
X128703574Y-78545574D01*
X128663310Y-78578618D01*
X128617378Y-78603169D01*
X128567529Y-78618290D01*
X128509556Y-78624000D01*
X127504444Y-78624000D01*
X127446471Y-78618290D01*
X127396622Y-78603169D01*
X127350690Y-78578618D01*
X127310426Y-78545574D01*
X127277382Y-78505310D01*
X127252831Y-78459378D01*
X127237710Y-78409529D01*
X127232000Y-78351556D01*
X127232000Y-77096444D01*
X127237710Y-77038471D01*
X127252831Y-76988622D01*
X127277382Y-76942690D01*
X127310426Y-76902426D01*
X127350690Y-76869382D01*
X127396622Y-76844831D01*
X127446471Y-76829710D01*
X127504444Y-76824000D01*
X128509556Y-76824000D01*
X128567529Y-76829710D01*
X128567529Y-76829710D01*
G37*
G36*
X77203080Y-75993942D02*
G01*
X77436826Y-76064848D01*
X77652239Y-76179989D01*
X77841055Y-76334945D01*
X77996011Y-76523761D01*
X78111152Y-76739174D01*
X78182058Y-76972920D01*
X78205999Y-77216000D01*
X78182058Y-77459080D01*
X78111152Y-77692826D01*
X77996011Y-77908239D01*
X77841055Y-78097055D01*
X77652239Y-78252011D01*
X77436826Y-78367152D01*
X77203080Y-78438058D01*
X77020911Y-78456000D01*
X75379089Y-78456000D01*
X75196920Y-78438058D01*
X74963174Y-78367152D01*
X74747761Y-78252011D01*
X74558945Y-78097055D01*
X74403989Y-77908239D01*
X74288848Y-77692826D01*
X74217942Y-77459080D01*
X74194001Y-77216000D01*
X74217942Y-76972920D01*
X74288848Y-76739174D01*
X74403989Y-76523761D01*
X74558945Y-76334945D01*
X74747761Y-76179989D01*
X74963174Y-76064848D01*
X75196920Y-75993942D01*
X75379089Y-75976000D01*
X77020911Y-75976000D01*
X77203080Y-75993942D01*
X77203080Y-75993942D01*
G37*
G36*
X89058000Y-78324000D02*
G01*
X87758000Y-78324000D01*
X87758000Y-77124000D01*
X89058000Y-77124000D01*
X89058000Y-78324000D01*
X89058000Y-78324000D01*
G37*
G36*
X91058000Y-77374000D02*
G01*
X89758000Y-77374000D01*
X89758000Y-76174000D01*
X91058000Y-76174000D01*
X91058000Y-77374000D01*
X91058000Y-77374000D01*
G37*
G36*
X110221336Y-75268254D02*
G01*
X110313105Y-75286508D01*
X110485994Y-75358121D01*
X110641590Y-75462087D01*
X110773913Y-75594410D01*
X110877879Y-75750006D01*
X110949492Y-75922895D01*
X110949492Y-75922896D01*
X110986000Y-76106432D01*
X110986000Y-76293568D01*
X110977769Y-76334946D01*
X110949492Y-76477105D01*
X110877879Y-76649994D01*
X110773913Y-76805590D01*
X110641590Y-76937913D01*
X110485994Y-77041879D01*
X110313105Y-77113492D01*
X110221336Y-77131746D01*
X110129568Y-77150000D01*
X109942432Y-77150000D01*
X109850664Y-77131746D01*
X109758895Y-77113492D01*
X109586006Y-77041879D01*
X109430410Y-76937913D01*
X109298087Y-76805590D01*
X109194121Y-76649994D01*
X109122508Y-76477105D01*
X109094231Y-76334946D01*
X109086000Y-76293568D01*
X109086000Y-76106432D01*
X109122508Y-75922896D01*
X109122508Y-75922895D01*
X109194121Y-75750006D01*
X109298087Y-75594410D01*
X109430410Y-75462087D01*
X109586006Y-75358121D01*
X109758895Y-75286508D01*
X109850664Y-75268254D01*
X109942432Y-75250000D01*
X110129568Y-75250000D01*
X110221336Y-75268254D01*
X110221336Y-75268254D01*
G37*
G36*
X105341336Y-75268254D02*
G01*
X105433105Y-75286508D01*
X105605994Y-75358121D01*
X105761590Y-75462087D01*
X105893913Y-75594410D01*
X105997879Y-75750006D01*
X106069492Y-75922895D01*
X106069492Y-75922896D01*
X106106000Y-76106432D01*
X106106000Y-76293568D01*
X106097769Y-76334946D01*
X106069492Y-76477105D01*
X105997879Y-76649994D01*
X105893913Y-76805590D01*
X105761590Y-76937913D01*
X105605994Y-77041879D01*
X105433105Y-77113492D01*
X105341336Y-77131746D01*
X105249568Y-77150000D01*
X105062432Y-77150000D01*
X104970664Y-77131746D01*
X104878895Y-77113492D01*
X104706006Y-77041879D01*
X104550410Y-76937913D01*
X104418087Y-76805590D01*
X104314121Y-76649994D01*
X104242508Y-76477105D01*
X104214231Y-76334946D01*
X104206000Y-76293568D01*
X104206000Y-76106432D01*
X104242508Y-75922896D01*
X104242508Y-75922895D01*
X104314121Y-75750006D01*
X104418087Y-75594410D01*
X104550410Y-75462087D01*
X104706006Y-75358121D01*
X104878895Y-75286508D01*
X104970664Y-75268254D01*
X105062432Y-75250000D01*
X105249568Y-75250000D01*
X105341336Y-75268254D01*
X105341336Y-75268254D01*
G37*
G36*
X130617529Y-74543710D02*
G01*
X130667378Y-74558831D01*
X130713310Y-74583382D01*
X130753574Y-74616426D01*
X130786618Y-74656690D01*
X130811169Y-74702622D01*
X130826290Y-74752471D01*
X130832000Y-74810444D01*
X130832000Y-76065556D01*
X130826290Y-76123529D01*
X130811169Y-76173378D01*
X130786618Y-76219310D01*
X130753574Y-76259574D01*
X130713310Y-76292618D01*
X130667378Y-76317169D01*
X130617529Y-76332290D01*
X130559556Y-76338000D01*
X129554444Y-76338000D01*
X129496471Y-76332290D01*
X129446622Y-76317169D01*
X129400690Y-76292618D01*
X129360426Y-76259574D01*
X129327382Y-76219310D01*
X129302831Y-76173378D01*
X129287710Y-76123529D01*
X129282000Y-76065556D01*
X129282000Y-74810444D01*
X129287710Y-74752471D01*
X129302831Y-74702622D01*
X129327382Y-74656690D01*
X129360426Y-74616426D01*
X129400690Y-74583382D01*
X129446622Y-74558831D01*
X129496471Y-74543710D01*
X129554444Y-74538000D01*
X130559556Y-74538000D01*
X130617529Y-74543710D01*
X130617529Y-74543710D01*
G37*
G36*
X128567529Y-74543710D02*
G01*
X128617378Y-74558831D01*
X128663310Y-74583382D01*
X128703574Y-74616426D01*
X128736618Y-74656690D01*
X128761169Y-74702622D01*
X128776290Y-74752471D01*
X128782000Y-74810444D01*
X128782000Y-76065556D01*
X128776290Y-76123529D01*
X128761169Y-76173378D01*
X128736618Y-76219310D01*
X128703574Y-76259574D01*
X128663310Y-76292618D01*
X128617378Y-76317169D01*
X128567529Y-76332290D01*
X128509556Y-76338000D01*
X127504444Y-76338000D01*
X127446471Y-76332290D01*
X127396622Y-76317169D01*
X127350690Y-76292618D01*
X127310426Y-76259574D01*
X127277382Y-76219310D01*
X127252831Y-76173378D01*
X127237710Y-76123529D01*
X127232000Y-76065556D01*
X127232000Y-74810444D01*
X127237710Y-74752471D01*
X127252831Y-74702622D01*
X127277382Y-74656690D01*
X127310426Y-74616426D01*
X127350690Y-74583382D01*
X127396622Y-74558831D01*
X127446471Y-74543710D01*
X127504444Y-74538000D01*
X128509556Y-74538000D01*
X128567529Y-74543710D01*
X128567529Y-74543710D01*
G37*
G36*
X84398529Y-73781710D02*
G01*
X84448378Y-73796831D01*
X84494310Y-73821382D01*
X84534574Y-73854426D01*
X84567618Y-73894690D01*
X84592169Y-73940622D01*
X84607290Y-73990471D01*
X84613000Y-74048444D01*
X84613000Y-75303556D01*
X84607290Y-75361529D01*
X84592169Y-75411378D01*
X84567618Y-75457310D01*
X84534574Y-75497574D01*
X84494310Y-75530618D01*
X84448378Y-75555169D01*
X84398529Y-75570290D01*
X84340556Y-75576000D01*
X83335444Y-75576000D01*
X83277471Y-75570290D01*
X83227622Y-75555169D01*
X83181690Y-75530618D01*
X83141426Y-75497574D01*
X83108382Y-75457310D01*
X83083831Y-75411378D01*
X83068710Y-75361529D01*
X83063000Y-75303556D01*
X83063000Y-74048444D01*
X83068710Y-73990471D01*
X83083831Y-73940622D01*
X83108382Y-73894690D01*
X83141426Y-73854426D01*
X83181690Y-73821382D01*
X83227622Y-73796831D01*
X83277471Y-73781710D01*
X83335444Y-73776000D01*
X84340556Y-73776000D01*
X84398529Y-73781710D01*
X84398529Y-73781710D01*
G37*
G36*
X82348529Y-73781710D02*
G01*
X82398378Y-73796831D01*
X82444310Y-73821382D01*
X82484574Y-73854426D01*
X82517618Y-73894690D01*
X82542169Y-73940622D01*
X82557290Y-73990471D01*
X82563000Y-74048444D01*
X82563000Y-75303556D01*
X82557290Y-75361529D01*
X82542169Y-75411378D01*
X82517618Y-75457310D01*
X82484574Y-75497574D01*
X82444310Y-75530618D01*
X82398378Y-75555169D01*
X82348529Y-75570290D01*
X82290556Y-75576000D01*
X81285444Y-75576000D01*
X81227471Y-75570290D01*
X81177622Y-75555169D01*
X81131690Y-75530618D01*
X81091426Y-75497574D01*
X81058382Y-75457310D01*
X81033831Y-75411378D01*
X81018710Y-75361529D01*
X81013000Y-75303556D01*
X81013000Y-74048444D01*
X81018710Y-73990471D01*
X81033831Y-73940622D01*
X81058382Y-73894690D01*
X81091426Y-73854426D01*
X81131690Y-73821382D01*
X81177622Y-73796831D01*
X81227471Y-73781710D01*
X81285444Y-73776000D01*
X82290556Y-73776000D01*
X82348529Y-73781710D01*
X82348529Y-73781710D01*
G37*
G36*
X100761529Y-73915710D02*
G01*
X100811378Y-73930831D01*
X100857310Y-73955382D01*
X100897574Y-73988426D01*
X100930618Y-74028690D01*
X100955169Y-74074622D01*
X100970290Y-74124471D01*
X100976000Y-74182444D01*
X100976000Y-75187556D01*
X100970290Y-75245529D01*
X100955169Y-75295378D01*
X100930618Y-75341310D01*
X100897574Y-75381574D01*
X100857310Y-75414618D01*
X100811378Y-75439169D01*
X100761529Y-75454290D01*
X100703556Y-75460000D01*
X99448444Y-75460000D01*
X99390471Y-75454290D01*
X99340622Y-75439169D01*
X99294690Y-75414618D01*
X99254426Y-75381574D01*
X99221382Y-75341310D01*
X99196831Y-75295378D01*
X99181710Y-75245529D01*
X99176000Y-75187556D01*
X99176000Y-74182444D01*
X99181710Y-74124471D01*
X99196831Y-74074622D01*
X99221382Y-74028690D01*
X99254426Y-73988426D01*
X99294690Y-73955382D01*
X99340622Y-73930831D01*
X99390471Y-73915710D01*
X99448444Y-73910000D01*
X100703556Y-73910000D01*
X100761529Y-73915710D01*
X100761529Y-73915710D01*
G37*
G36*
X144787013Y-74097057D02*
G01*
X144896206Y-74142286D01*
X144994477Y-74207949D01*
X145078051Y-74291523D01*
X145143714Y-74389794D01*
X145188943Y-74498987D01*
X145212000Y-74614904D01*
X145212000Y-74733096D01*
X145188943Y-74849013D01*
X145143714Y-74958206D01*
X145078051Y-75056477D01*
X144994477Y-75140051D01*
X144896206Y-75205714D01*
X144787013Y-75250943D01*
X144671096Y-75274000D01*
X144552904Y-75274000D01*
X144436987Y-75250943D01*
X144327794Y-75205714D01*
X144229523Y-75140051D01*
X144145949Y-75056477D01*
X144080286Y-74958206D01*
X144035057Y-74849013D01*
X144012000Y-74733096D01*
X144012000Y-74614904D01*
X144035057Y-74498987D01*
X144080286Y-74389794D01*
X144145949Y-74291523D01*
X144229523Y-74207949D01*
X144327794Y-74142286D01*
X144436987Y-74097057D01*
X144552904Y-74074000D01*
X144671096Y-74074000D01*
X144787013Y-74097057D01*
X144787013Y-74097057D01*
G37*
G36*
X91058000Y-73686000D02*
G01*
X89758000Y-73686000D01*
X89758000Y-72486000D01*
X91058000Y-72486000D01*
X91058000Y-73686000D01*
X91058000Y-73686000D01*
G37*
G36*
X100761529Y-71865710D02*
G01*
X100811378Y-71880831D01*
X100857310Y-71905382D01*
X100897574Y-71938426D01*
X100930618Y-71978690D01*
X100955169Y-72024622D01*
X100970290Y-72074471D01*
X100976000Y-72132444D01*
X100976000Y-73137556D01*
X100970290Y-73195529D01*
X100955169Y-73245378D01*
X100930618Y-73291310D01*
X100897574Y-73331574D01*
X100857310Y-73364618D01*
X100811378Y-73389169D01*
X100761529Y-73404290D01*
X100703556Y-73410000D01*
X99448444Y-73410000D01*
X99390471Y-73404290D01*
X99340622Y-73389169D01*
X99294690Y-73364618D01*
X99254426Y-73331574D01*
X99221382Y-73291310D01*
X99196831Y-73245378D01*
X99181710Y-73195529D01*
X99176000Y-73137556D01*
X99176000Y-72132444D01*
X99181710Y-72074471D01*
X99196831Y-72024622D01*
X99221382Y-71978690D01*
X99254426Y-71938426D01*
X99294690Y-71905382D01*
X99340622Y-71880831D01*
X99390471Y-71865710D01*
X99448444Y-71860000D01*
X100703556Y-71860000D01*
X100761529Y-71865710D01*
X100761529Y-71865710D01*
G37*
G36*
X77203080Y-70913942D02*
G01*
X77436826Y-70984848D01*
X77652239Y-71099989D01*
X77841055Y-71254945D01*
X77996011Y-71443761D01*
X78111152Y-71659174D01*
X78182058Y-71892920D01*
X78205999Y-72136000D01*
X78182058Y-72379080D01*
X78111152Y-72612826D01*
X77996011Y-72828239D01*
X77841055Y-73017055D01*
X77652239Y-73172011D01*
X77436826Y-73287152D01*
X77203080Y-73358058D01*
X77020911Y-73376000D01*
X75379089Y-73376000D01*
X75196920Y-73358058D01*
X74963174Y-73287152D01*
X74747761Y-73172011D01*
X74558945Y-73017055D01*
X74403989Y-72828239D01*
X74288848Y-72612826D01*
X74217942Y-72379080D01*
X74194001Y-72136000D01*
X74217942Y-71892920D01*
X74288848Y-71659174D01*
X74403989Y-71443761D01*
X74558945Y-71254945D01*
X74747761Y-71099989D01*
X74963174Y-70984848D01*
X75196920Y-70913942D01*
X75379089Y-70896000D01*
X77020911Y-70896000D01*
X77203080Y-70913942D01*
X77203080Y-70913942D01*
G37*
G36*
X82339529Y-71241710D02*
G01*
X82389378Y-71256831D01*
X82435310Y-71281382D01*
X82475574Y-71314426D01*
X82508618Y-71354690D01*
X82533169Y-71400622D01*
X82548290Y-71450471D01*
X82554000Y-71508444D01*
X82554000Y-72763556D01*
X82548290Y-72821529D01*
X82533169Y-72871378D01*
X82508618Y-72917310D01*
X82475574Y-72957574D01*
X82435310Y-72990618D01*
X82389378Y-73015169D01*
X82339529Y-73030290D01*
X82281556Y-73036000D01*
X81276444Y-73036000D01*
X81218471Y-73030290D01*
X81168622Y-73015169D01*
X81122690Y-72990618D01*
X81082426Y-72957574D01*
X81049382Y-72917310D01*
X81024831Y-72871378D01*
X81009710Y-72821529D01*
X81004000Y-72763556D01*
X81004000Y-71508444D01*
X81009710Y-71450471D01*
X81024831Y-71400622D01*
X81049382Y-71354690D01*
X81082426Y-71314426D01*
X81122690Y-71281382D01*
X81168622Y-71256831D01*
X81218471Y-71241710D01*
X81276444Y-71236000D01*
X82281556Y-71236000D01*
X82339529Y-71241710D01*
X82339529Y-71241710D01*
G37*
G36*
X84389529Y-71241710D02*
G01*
X84439378Y-71256831D01*
X84485310Y-71281382D01*
X84525574Y-71314426D01*
X84558618Y-71354690D01*
X84583169Y-71400622D01*
X84598290Y-71450471D01*
X84604000Y-71508444D01*
X84604000Y-72763556D01*
X84598290Y-72821529D01*
X84583169Y-72871378D01*
X84558618Y-72917310D01*
X84525574Y-72957574D01*
X84485310Y-72990618D01*
X84439378Y-73015169D01*
X84389529Y-73030290D01*
X84331556Y-73036000D01*
X83326444Y-73036000D01*
X83268471Y-73030290D01*
X83218622Y-73015169D01*
X83172690Y-72990618D01*
X83132426Y-72957574D01*
X83099382Y-72917310D01*
X83074831Y-72871378D01*
X83059710Y-72821529D01*
X83054000Y-72763556D01*
X83054000Y-71508444D01*
X83059710Y-71450471D01*
X83074831Y-71400622D01*
X83099382Y-71354690D01*
X83132426Y-71314426D01*
X83172690Y-71281382D01*
X83218622Y-71256831D01*
X83268471Y-71241710D01*
X83326444Y-71236000D01*
X84331556Y-71236000D01*
X84389529Y-71241710D01*
X84389529Y-71241710D01*
G37*
G36*
X89058000Y-72736000D02*
G01*
X87758000Y-72736000D01*
X87758000Y-71536000D01*
X89058000Y-71536000D01*
X89058000Y-72736000D01*
X89058000Y-72736000D01*
G37*
G36*
X135512000Y-71874000D02*
G01*
X133712000Y-71874000D01*
X133712000Y-69874000D01*
X135512000Y-69874000D01*
X135512000Y-71874000D01*
X135512000Y-71874000D01*
G37*
G36*
X91058000Y-71786000D02*
G01*
X89758000Y-71786000D01*
X89758000Y-70586000D01*
X91058000Y-70586000D01*
X91058000Y-71786000D01*
X91058000Y-71786000D01*
G37*
G36*
X100761529Y-69851710D02*
G01*
X100811378Y-69866831D01*
X100857310Y-69891382D01*
X100897574Y-69924426D01*
X100930618Y-69964690D01*
X100955169Y-70010622D01*
X100970290Y-70060471D01*
X100976000Y-70118444D01*
X100976000Y-71123556D01*
X100970290Y-71181529D01*
X100955169Y-71231378D01*
X100930618Y-71277310D01*
X100897574Y-71317574D01*
X100857310Y-71350618D01*
X100811378Y-71375169D01*
X100761529Y-71390290D01*
X100703556Y-71396000D01*
X99448444Y-71396000D01*
X99390471Y-71390290D01*
X99340622Y-71375169D01*
X99294690Y-71350618D01*
X99254426Y-71317574D01*
X99221382Y-71277310D01*
X99196831Y-71231378D01*
X99181710Y-71181529D01*
X99176000Y-71123556D01*
X99176000Y-70118444D01*
X99181710Y-70060471D01*
X99196831Y-70010622D01*
X99221382Y-69964690D01*
X99254426Y-69924426D01*
X99294690Y-69891382D01*
X99340622Y-69866831D01*
X99390471Y-69851710D01*
X99448444Y-69846000D01*
X100703556Y-69846000D01*
X100761529Y-69851710D01*
X100761529Y-69851710D01*
G37*
G36*
X104675749Y-69265629D02*
G01*
X104700251Y-69265629D01*
X104706638Y-69265000D01*
X105169362Y-69265000D01*
X105175749Y-69265629D01*
X105200251Y-69265629D01*
X105206638Y-69265000D01*
X105669362Y-69265000D01*
X105675749Y-69265629D01*
X105700251Y-69265629D01*
X105706638Y-69265000D01*
X106169362Y-69265000D01*
X106175749Y-69265629D01*
X106200251Y-69265629D01*
X106206638Y-69265000D01*
X106669362Y-69265000D01*
X106675749Y-69265629D01*
X106700251Y-69265629D01*
X106706638Y-69265000D01*
X107169362Y-69265000D01*
X107175749Y-69265629D01*
X107200251Y-69265629D01*
X107206638Y-69265000D01*
X107669362Y-69265000D01*
X107675749Y-69265629D01*
X107700251Y-69265629D01*
X107706638Y-69265000D01*
X108169362Y-69265000D01*
X108175749Y-69265629D01*
X108200251Y-69265629D01*
X108206638Y-69265000D01*
X108669362Y-69265000D01*
X108675749Y-69265629D01*
X108700251Y-69265629D01*
X108706638Y-69265000D01*
X109169362Y-69265000D01*
X109175749Y-69265629D01*
X109200251Y-69265629D01*
X109206638Y-69265000D01*
X109669362Y-69265000D01*
X109675749Y-69265629D01*
X109700251Y-69265629D01*
X109706638Y-69265000D01*
X110169362Y-69265000D01*
X110197327Y-69267754D01*
X110218322Y-69274123D01*
X110237664Y-69284462D01*
X110254622Y-69298378D01*
X110268538Y-69315336D01*
X110278877Y-69334678D01*
X110285246Y-69355673D01*
X110288000Y-69383638D01*
X110288000Y-71021362D01*
X110285246Y-71049327D01*
X110278877Y-71070322D01*
X110268538Y-71089664D01*
X110254622Y-71106622D01*
X110237664Y-71120538D01*
X110218322Y-71130877D01*
X110197327Y-71137246D01*
X110169362Y-71140000D01*
X109706638Y-71140000D01*
X109700251Y-71139371D01*
X109675749Y-71139371D01*
X109669362Y-71140000D01*
X109206638Y-71140000D01*
X109200251Y-71139371D01*
X109175749Y-71139371D01*
X109169362Y-71140000D01*
X108706638Y-71140000D01*
X108700251Y-71139371D01*
X108675749Y-71139371D01*
X108669362Y-71140000D01*
X108206638Y-71140000D01*
X108200251Y-71139371D01*
X108175749Y-71139371D01*
X108169362Y-71140000D01*
X107706638Y-71140000D01*
X107700251Y-71139371D01*
X107675749Y-71139371D01*
X107669362Y-71140000D01*
X107206638Y-71140000D01*
X107200251Y-71139371D01*
X107175749Y-71139371D01*
X107169362Y-71140000D01*
X106706638Y-71140000D01*
X106700251Y-71139371D01*
X106675749Y-71139371D01*
X106669362Y-71140000D01*
X106206638Y-71140000D01*
X106200251Y-71139371D01*
X106175749Y-71139371D01*
X106169362Y-71140000D01*
X105706638Y-71140000D01*
X105700251Y-71139371D01*
X105675749Y-71139371D01*
X105669362Y-71140000D01*
X105206638Y-71140000D01*
X105200251Y-71139371D01*
X105175749Y-71139371D01*
X105169362Y-71140000D01*
X104706638Y-71140000D01*
X104700251Y-71139371D01*
X104675749Y-71139371D01*
X104669362Y-71140000D01*
X104206638Y-71140000D01*
X104178673Y-71137246D01*
X104157678Y-71130877D01*
X104138336Y-71120538D01*
X104121378Y-71106622D01*
X104107462Y-71089664D01*
X104097123Y-71070322D01*
X104090754Y-71049327D01*
X104088000Y-71021362D01*
X104088000Y-69383638D01*
X104090754Y-69355673D01*
X104097123Y-69334678D01*
X104107462Y-69315336D01*
X104121378Y-69298378D01*
X104138336Y-69284462D01*
X104157678Y-69274123D01*
X104178673Y-69267754D01*
X104206638Y-69265000D01*
X104669362Y-69265000D01*
X104675749Y-69265629D01*
X104675749Y-69265629D01*
G37*
G36*
X145512000Y-70774000D02*
G01*
X142912000Y-70774000D01*
X142912000Y-69174000D01*
X145512000Y-69174000D01*
X145512000Y-70774000D01*
X145512000Y-70774000D01*
G37*
G36*
X82339529Y-68701710D02*
G01*
X82389378Y-68716831D01*
X82435310Y-68741382D01*
X82475574Y-68774426D01*
X82508618Y-68814690D01*
X82533169Y-68860622D01*
X82548290Y-68910471D01*
X82554000Y-68968444D01*
X82554000Y-70223556D01*
X82548290Y-70281529D01*
X82533169Y-70331378D01*
X82508618Y-70377310D01*
X82475574Y-70417574D01*
X82435310Y-70450618D01*
X82389378Y-70475169D01*
X82339529Y-70490290D01*
X82281556Y-70496000D01*
X81276444Y-70496000D01*
X81218471Y-70490290D01*
X81168622Y-70475169D01*
X81122690Y-70450618D01*
X81082426Y-70417574D01*
X81049382Y-70377310D01*
X81024831Y-70331378D01*
X81009710Y-70281529D01*
X81004000Y-70223556D01*
X81004000Y-68968444D01*
X81009710Y-68910471D01*
X81024831Y-68860622D01*
X81049382Y-68814690D01*
X81082426Y-68774426D01*
X81122690Y-68741382D01*
X81168622Y-68716831D01*
X81218471Y-68701710D01*
X81276444Y-68696000D01*
X82281556Y-68696000D01*
X82339529Y-68701710D01*
X82339529Y-68701710D01*
G37*
G36*
X84389529Y-68701710D02*
G01*
X84439378Y-68716831D01*
X84485310Y-68741382D01*
X84525574Y-68774426D01*
X84558618Y-68814690D01*
X84583169Y-68860622D01*
X84598290Y-68910471D01*
X84604000Y-68968444D01*
X84604000Y-70223556D01*
X84598290Y-70281529D01*
X84583169Y-70331378D01*
X84558618Y-70377310D01*
X84525574Y-70417574D01*
X84485310Y-70450618D01*
X84439378Y-70475169D01*
X84389529Y-70490290D01*
X84331556Y-70496000D01*
X83326444Y-70496000D01*
X83268471Y-70490290D01*
X83218622Y-70475169D01*
X83172690Y-70450618D01*
X83132426Y-70417574D01*
X83099382Y-70377310D01*
X83074831Y-70331378D01*
X83059710Y-70281529D01*
X83054000Y-70223556D01*
X83054000Y-68968444D01*
X83059710Y-68910471D01*
X83074831Y-68860622D01*
X83099382Y-68814690D01*
X83132426Y-68774426D01*
X83172690Y-68741382D01*
X83218622Y-68716831D01*
X83268471Y-68701710D01*
X83326444Y-68696000D01*
X84331556Y-68696000D01*
X84389529Y-68701710D01*
X84389529Y-68701710D01*
G37*
G36*
X100761529Y-67801710D02*
G01*
X100811378Y-67816831D01*
X100857310Y-67841382D01*
X100897574Y-67874426D01*
X100930618Y-67914690D01*
X100955169Y-67960622D01*
X100970290Y-68010471D01*
X100976000Y-68068444D01*
X100976000Y-69073556D01*
X100970290Y-69131529D01*
X100955169Y-69181378D01*
X100930618Y-69227310D01*
X100897574Y-69267574D01*
X100857310Y-69300618D01*
X100811378Y-69325169D01*
X100761529Y-69340290D01*
X100703556Y-69346000D01*
X99448444Y-69346000D01*
X99390471Y-69340290D01*
X99340622Y-69325169D01*
X99294690Y-69300618D01*
X99254426Y-69267574D01*
X99221382Y-69227310D01*
X99196831Y-69181378D01*
X99181710Y-69131529D01*
X99176000Y-69073556D01*
X99176000Y-68068444D01*
X99181710Y-68010471D01*
X99196831Y-67960622D01*
X99221382Y-67914690D01*
X99254426Y-67874426D01*
X99294690Y-67841382D01*
X99340622Y-67816831D01*
X99390471Y-67801710D01*
X99448444Y-67796000D01*
X100703556Y-67796000D01*
X100761529Y-67801710D01*
X100761529Y-67801710D01*
G37*
G36*
X112197327Y-62942754D02*
G01*
X112218322Y-62949123D01*
X112237664Y-62959462D01*
X112254622Y-62973378D01*
X112268538Y-62990336D01*
X112278877Y-63009678D01*
X112285246Y-63030673D01*
X112288000Y-63058638D01*
X112288000Y-63521362D01*
X112287371Y-63527749D01*
X112287371Y-63552251D01*
X112288000Y-63558638D01*
X112288000Y-64021362D01*
X112287371Y-64027749D01*
X112287371Y-64052251D01*
X112288000Y-64058638D01*
X112288000Y-64521362D01*
X112287371Y-64527749D01*
X112287371Y-64552251D01*
X112288000Y-64558638D01*
X112288000Y-65021362D01*
X112287371Y-65027749D01*
X112287371Y-65052251D01*
X112288000Y-65058638D01*
X112288000Y-65521362D01*
X112287371Y-65527749D01*
X112287371Y-65552251D01*
X112288000Y-65558638D01*
X112288000Y-66021362D01*
X112287371Y-66027749D01*
X112287371Y-66052251D01*
X112288000Y-66058638D01*
X112288000Y-66521362D01*
X112287371Y-66527749D01*
X112287371Y-66552251D01*
X112288000Y-66558638D01*
X112288000Y-67021362D01*
X112287371Y-67027749D01*
X112287371Y-67052251D01*
X112288000Y-67058638D01*
X112288000Y-67521362D01*
X112287371Y-67527749D01*
X112287371Y-67552251D01*
X112288000Y-67558638D01*
X112288000Y-68021362D01*
X112287371Y-68027749D01*
X112287371Y-68052251D01*
X112288000Y-68058638D01*
X112288000Y-68521362D01*
X112287371Y-68527749D01*
X112287371Y-68552251D01*
X112288000Y-68558638D01*
X112288000Y-69021362D01*
X112285246Y-69049327D01*
X112278877Y-69070322D01*
X112268538Y-69089664D01*
X112254622Y-69106622D01*
X112237664Y-69120538D01*
X112218322Y-69130877D01*
X112197327Y-69137246D01*
X112169362Y-69140000D01*
X110531638Y-69140000D01*
X110503673Y-69137246D01*
X110482678Y-69130877D01*
X110463336Y-69120538D01*
X110446378Y-69106622D01*
X110432462Y-69089664D01*
X110422123Y-69070322D01*
X110415754Y-69049327D01*
X110413000Y-69021362D01*
X110413000Y-68558638D01*
X110413629Y-68552251D01*
X110413629Y-68527749D01*
X110413000Y-68521362D01*
X110413000Y-68058638D01*
X110413629Y-68052251D01*
X110413629Y-68027749D01*
X110413000Y-68021362D01*
X110413000Y-67558638D01*
X110413629Y-67552251D01*
X110413629Y-67527749D01*
X110413000Y-67521362D01*
X110413000Y-67058638D01*
X110413629Y-67052251D01*
X110413629Y-67027749D01*
X110413000Y-67021362D01*
X110413000Y-66558638D01*
X110413629Y-66552251D01*
X110413629Y-66527749D01*
X110413000Y-66521362D01*
X110413000Y-66058638D01*
X110413629Y-66052251D01*
X110413629Y-66027749D01*
X110413000Y-66021362D01*
X110413000Y-65558638D01*
X110413629Y-65552251D01*
X110413629Y-65527749D01*
X110413000Y-65521362D01*
X110413000Y-65058638D01*
X110413629Y-65052251D01*
X110413629Y-65027749D01*
X110413000Y-65021362D01*
X110413000Y-64558638D01*
X110413629Y-64552251D01*
X110413629Y-64527749D01*
X110413000Y-64521362D01*
X110413000Y-64058638D01*
X110413629Y-64052251D01*
X110413629Y-64027749D01*
X110413000Y-64021362D01*
X110413000Y-63558638D01*
X110413629Y-63552251D01*
X110413629Y-63527749D01*
X110413000Y-63521362D01*
X110413000Y-63058638D01*
X110415754Y-63030673D01*
X110422123Y-63009678D01*
X110432462Y-62990336D01*
X110446378Y-62973378D01*
X110463336Y-62959462D01*
X110482678Y-62949123D01*
X110503673Y-62942754D01*
X110531638Y-62940000D01*
X112169362Y-62940000D01*
X112197327Y-62942754D01*
X112197327Y-62942754D01*
G37*
G36*
X103872327Y-62942754D02*
G01*
X103893322Y-62949123D01*
X103912664Y-62959462D01*
X103929622Y-62973378D01*
X103943538Y-62990336D01*
X103953877Y-63009678D01*
X103960246Y-63030673D01*
X103963000Y-63058638D01*
X103963000Y-63521362D01*
X103962371Y-63527749D01*
X103962371Y-63552251D01*
X103963000Y-63558638D01*
X103963000Y-64021362D01*
X103962371Y-64027749D01*
X103962371Y-64052251D01*
X103963000Y-64058638D01*
X103963000Y-64521362D01*
X103962371Y-64527749D01*
X103962371Y-64552251D01*
X103963000Y-64558638D01*
X103963000Y-65021362D01*
X103962371Y-65027749D01*
X103962371Y-65052251D01*
X103963000Y-65058638D01*
X103963000Y-65521362D01*
X103962371Y-65527749D01*
X103962371Y-65552251D01*
X103963000Y-65558638D01*
X103963000Y-66021362D01*
X103962371Y-66027749D01*
X103962371Y-66052251D01*
X103963000Y-66058638D01*
X103963000Y-66521362D01*
X103962371Y-66527749D01*
X103962371Y-66552251D01*
X103963000Y-66558638D01*
X103963000Y-67021362D01*
X103962371Y-67027749D01*
X103962371Y-67052251D01*
X103963000Y-67058638D01*
X103963000Y-67521362D01*
X103962371Y-67527749D01*
X103962371Y-67552251D01*
X103963000Y-67558638D01*
X103963000Y-68021362D01*
X103962371Y-68027749D01*
X103962371Y-68052251D01*
X103963000Y-68058638D01*
X103963000Y-68521362D01*
X103962371Y-68527749D01*
X103962371Y-68552251D01*
X103963000Y-68558638D01*
X103963000Y-69021362D01*
X103960246Y-69049327D01*
X103953877Y-69070322D01*
X103943538Y-69089664D01*
X103929622Y-69106622D01*
X103912664Y-69120538D01*
X103893322Y-69130877D01*
X103872327Y-69137246D01*
X103844362Y-69140000D01*
X102206638Y-69140000D01*
X102178673Y-69137246D01*
X102157678Y-69130877D01*
X102138336Y-69120538D01*
X102121378Y-69106622D01*
X102107462Y-69089664D01*
X102097123Y-69070322D01*
X102090754Y-69049327D01*
X102088000Y-69021362D01*
X102088000Y-68558638D01*
X102088629Y-68552251D01*
X102088629Y-68527749D01*
X102088000Y-68521362D01*
X102088000Y-68058638D01*
X102088629Y-68052251D01*
X102088629Y-68027749D01*
X102088000Y-68021362D01*
X102088000Y-67558638D01*
X102088629Y-67552251D01*
X102088629Y-67527749D01*
X102088000Y-67521362D01*
X102088000Y-67058638D01*
X102088629Y-67052251D01*
X102088629Y-67027749D01*
X102088000Y-67021362D01*
X102088000Y-66558638D01*
X102088629Y-66552251D01*
X102088629Y-66527749D01*
X102088000Y-66521362D01*
X102088000Y-66058638D01*
X102088629Y-66052251D01*
X102088629Y-66027749D01*
X102088000Y-66021362D01*
X102088000Y-65558638D01*
X102088629Y-65552251D01*
X102088629Y-65527749D01*
X102088000Y-65521362D01*
X102088000Y-65058638D01*
X102088629Y-65052251D01*
X102088629Y-65027749D01*
X102088000Y-65021362D01*
X102088000Y-64558638D01*
X102088629Y-64552251D01*
X102088629Y-64527749D01*
X102088000Y-64521362D01*
X102088000Y-64058638D01*
X102088629Y-64052251D01*
X102088629Y-64027749D01*
X102088000Y-64021362D01*
X102088000Y-63558638D01*
X102088629Y-63552251D01*
X102088629Y-63527749D01*
X102088000Y-63521362D01*
X102088000Y-63058638D01*
X102090754Y-63030673D01*
X102097123Y-63009678D01*
X102107462Y-62990336D01*
X102121378Y-62973378D01*
X102138336Y-62959462D01*
X102157678Y-62949123D01*
X102178673Y-62942754D01*
X102206638Y-62940000D01*
X103844362Y-62940000D01*
X103872327Y-62942754D01*
X103872327Y-62942754D01*
G37*
G36*
X77203080Y-65833942D02*
G01*
X77436826Y-65904848D01*
X77652239Y-66019989D01*
X77841055Y-66174945D01*
X77996011Y-66363761D01*
X78111152Y-66579174D01*
X78182058Y-66812920D01*
X78205999Y-67056000D01*
X78182058Y-67299080D01*
X78111152Y-67532826D01*
X77996011Y-67748239D01*
X77841055Y-67937055D01*
X77652239Y-68092011D01*
X77436826Y-68207152D01*
X77203080Y-68278058D01*
X77020911Y-68296000D01*
X75379089Y-68296000D01*
X75196920Y-68278058D01*
X74963174Y-68207152D01*
X74747761Y-68092011D01*
X74558945Y-67937055D01*
X74403989Y-67748239D01*
X74288848Y-67532826D01*
X74217942Y-67299080D01*
X74194001Y-67056000D01*
X74217942Y-66812920D01*
X74288848Y-66579174D01*
X74403989Y-66363761D01*
X74558945Y-66174945D01*
X74747761Y-66019989D01*
X74963174Y-65904848D01*
X75196920Y-65833942D01*
X75379089Y-65816000D01*
X77020911Y-65816000D01*
X77203080Y-65833942D01*
X77203080Y-65833942D01*
G37*
G36*
X91058000Y-68098000D02*
G01*
X89758000Y-68098000D01*
X89758000Y-66898000D01*
X91058000Y-66898000D01*
X91058000Y-68098000D01*
X91058000Y-68098000D01*
G37*
G36*
X89058000Y-67148000D02*
G01*
X87758000Y-67148000D01*
X87758000Y-65948000D01*
X89058000Y-65948000D01*
X89058000Y-67148000D01*
X89058000Y-67148000D01*
G37*
G36*
X114985529Y-64771710D02*
G01*
X115035378Y-64786831D01*
X115081310Y-64811382D01*
X115121574Y-64844426D01*
X115154618Y-64884690D01*
X115179169Y-64930622D01*
X115194290Y-64980471D01*
X115200000Y-65038444D01*
X115200000Y-66043556D01*
X115194290Y-66101529D01*
X115179169Y-66151378D01*
X115154618Y-66197310D01*
X115121574Y-66237574D01*
X115081310Y-66270618D01*
X115035378Y-66295169D01*
X114985529Y-66310290D01*
X114927556Y-66316000D01*
X113672444Y-66316000D01*
X113614471Y-66310290D01*
X113564622Y-66295169D01*
X113518690Y-66270618D01*
X113478426Y-66237574D01*
X113445382Y-66197310D01*
X113420831Y-66151378D01*
X113405710Y-66101529D01*
X113400000Y-66043556D01*
X113400000Y-65038444D01*
X113405710Y-64980471D01*
X113420831Y-64930622D01*
X113445382Y-64884690D01*
X113478426Y-64844426D01*
X113518690Y-64811382D01*
X113564622Y-64786831D01*
X113614471Y-64771710D01*
X113672444Y-64766000D01*
X114927556Y-64766000D01*
X114985529Y-64771710D01*
X114985529Y-64771710D01*
G37*
G36*
X91058000Y-66198000D02*
G01*
X89758000Y-66198000D01*
X89758000Y-64998000D01*
X91058000Y-64998000D01*
X91058000Y-66198000D01*
X91058000Y-66198000D01*
G37*
G36*
X114985529Y-62721710D02*
G01*
X115035378Y-62736831D01*
X115081310Y-62761382D01*
X115121574Y-62794426D01*
X115154618Y-62834690D01*
X115179169Y-62880622D01*
X115194290Y-62930471D01*
X115200000Y-62988444D01*
X115200000Y-63993556D01*
X115194290Y-64051529D01*
X115179169Y-64101378D01*
X115154618Y-64147310D01*
X115121574Y-64187574D01*
X115081310Y-64220618D01*
X115035378Y-64245169D01*
X114985529Y-64260290D01*
X114927556Y-64266000D01*
X113672444Y-64266000D01*
X113614471Y-64260290D01*
X113564622Y-64245169D01*
X113518690Y-64220618D01*
X113478426Y-64187574D01*
X113445382Y-64147310D01*
X113420831Y-64101378D01*
X113405710Y-64051529D01*
X113400000Y-63993556D01*
X113400000Y-62988444D01*
X113405710Y-62930471D01*
X113420831Y-62880622D01*
X113445382Y-62834690D01*
X113478426Y-62794426D01*
X113518690Y-62761382D01*
X113564622Y-62736831D01*
X113614471Y-62721710D01*
X113672444Y-62716000D01*
X114927556Y-62716000D01*
X114985529Y-62721710D01*
X114985529Y-62721710D01*
G37*
G36*
X140336707Y-61441596D02*
G01*
X140413836Y-61449193D01*
X140611762Y-61509233D01*
X140611765Y-61509234D01*
X140794170Y-61606732D01*
X140954055Y-61737945D01*
X141085268Y-61897830D01*
X141182766Y-62080235D01*
X141182767Y-62080238D01*
X141242807Y-62278164D01*
X141263080Y-62484000D01*
X141242807Y-62689836D01*
X141208880Y-62801679D01*
X141182766Y-62887765D01*
X141085268Y-63070170D01*
X140954055Y-63230055D01*
X140794170Y-63361268D01*
X140611765Y-63458766D01*
X140611762Y-63458767D01*
X140413836Y-63518807D01*
X140336707Y-63526403D01*
X140259580Y-63534000D01*
X140156420Y-63534000D01*
X140079293Y-63526403D01*
X140002164Y-63518807D01*
X139804238Y-63458767D01*
X139804235Y-63458766D01*
X139621830Y-63361268D01*
X139461945Y-63230055D01*
X139330732Y-63070170D01*
X139233234Y-62887765D01*
X139207120Y-62801679D01*
X139173193Y-62689836D01*
X139152920Y-62484000D01*
X139173193Y-62278164D01*
X139233233Y-62080238D01*
X139233234Y-62080235D01*
X139330732Y-61897830D01*
X139461945Y-61737945D01*
X139621830Y-61606732D01*
X139804235Y-61509234D01*
X139804238Y-61509233D01*
X140002164Y-61449193D01*
X140079293Y-61441596D01*
X140156420Y-61434000D01*
X140259580Y-61434000D01*
X140336707Y-61441596D01*
X140336707Y-61441596D01*
G37*
G36*
X137796707Y-61441596D02*
G01*
X137873836Y-61449193D01*
X138071762Y-61509233D01*
X138071765Y-61509234D01*
X138254170Y-61606732D01*
X138414055Y-61737945D01*
X138545268Y-61897830D01*
X138642766Y-62080235D01*
X138642767Y-62080238D01*
X138702807Y-62278164D01*
X138723080Y-62484000D01*
X138702807Y-62689836D01*
X138668880Y-62801679D01*
X138642766Y-62887765D01*
X138545268Y-63070170D01*
X138414055Y-63230055D01*
X138254170Y-63361268D01*
X138071765Y-63458766D01*
X138071762Y-63458767D01*
X137873836Y-63518807D01*
X137796707Y-63526403D01*
X137719580Y-63534000D01*
X137616420Y-63534000D01*
X137539293Y-63526403D01*
X137462164Y-63518807D01*
X137264238Y-63458767D01*
X137264235Y-63458766D01*
X137081830Y-63361268D01*
X136921945Y-63230055D01*
X136790732Y-63070170D01*
X136693234Y-62887765D01*
X136667120Y-62801679D01*
X136633193Y-62689836D01*
X136612920Y-62484000D01*
X136633193Y-62278164D01*
X136693233Y-62080238D01*
X136693234Y-62080235D01*
X136790732Y-61897830D01*
X136921945Y-61737945D01*
X137081830Y-61606732D01*
X137264235Y-61509234D01*
X137264238Y-61509233D01*
X137462164Y-61449193D01*
X137539293Y-61441596D01*
X137616420Y-61434000D01*
X137719580Y-61434000D01*
X137796707Y-61441596D01*
X137796707Y-61441596D01*
G37*
G36*
X142876707Y-61441596D02*
G01*
X142953836Y-61449193D01*
X143151762Y-61509233D01*
X143151765Y-61509234D01*
X143334170Y-61606732D01*
X143494055Y-61737945D01*
X143625268Y-61897830D01*
X143722766Y-62080235D01*
X143722767Y-62080238D01*
X143782807Y-62278164D01*
X143803080Y-62484000D01*
X143782807Y-62689836D01*
X143748880Y-62801679D01*
X143722766Y-62887765D01*
X143625268Y-63070170D01*
X143494055Y-63230055D01*
X143334170Y-63361268D01*
X143151765Y-63458766D01*
X143151762Y-63458767D01*
X142953836Y-63518807D01*
X142876707Y-63526403D01*
X142799580Y-63534000D01*
X142696420Y-63534000D01*
X142619293Y-63526403D01*
X142542164Y-63518807D01*
X142344238Y-63458767D01*
X142344235Y-63458766D01*
X142161830Y-63361268D01*
X142001945Y-63230055D01*
X141870732Y-63070170D01*
X141773234Y-62887765D01*
X141747120Y-62801679D01*
X141713193Y-62689836D01*
X141692920Y-62484000D01*
X141713193Y-62278164D01*
X141773233Y-62080238D01*
X141773234Y-62080235D01*
X141870732Y-61897830D01*
X142001945Y-61737945D01*
X142161830Y-61606732D01*
X142344235Y-61509234D01*
X142344238Y-61509233D01*
X142542164Y-61449193D01*
X142619293Y-61441596D01*
X142696420Y-61434000D01*
X142799580Y-61434000D01*
X142876707Y-61441596D01*
X142876707Y-61441596D01*
G37*
G36*
X146338000Y-63534000D02*
G01*
X144238000Y-63534000D01*
X144238000Y-61434000D01*
X146338000Y-61434000D01*
X146338000Y-63534000D01*
X146338000Y-63534000D01*
G37*
G36*
X78036384Y-60740496D02*
G01*
X78074377Y-60752021D01*
X78109390Y-60770736D01*
X78140079Y-60795921D01*
X78165264Y-60826610D01*
X78183979Y-60861623D01*
X78195504Y-60899616D01*
X78200000Y-60945264D01*
X78200000Y-63006736D01*
X78195504Y-63052384D01*
X78183979Y-63090377D01*
X78165264Y-63125390D01*
X78140079Y-63156079D01*
X78109390Y-63181264D01*
X78074377Y-63199979D01*
X78036384Y-63211504D01*
X77990736Y-63216000D01*
X74409264Y-63216000D01*
X74363616Y-63211504D01*
X74325623Y-63199979D01*
X74290610Y-63181264D01*
X74259921Y-63156079D01*
X74234736Y-63125390D01*
X74216021Y-63090377D01*
X74204496Y-63052384D01*
X74200000Y-63006736D01*
X74200000Y-60945264D01*
X74204496Y-60899616D01*
X74216021Y-60861623D01*
X74234736Y-60826610D01*
X74259921Y-60795921D01*
X74290610Y-60770736D01*
X74325623Y-60752021D01*
X74363616Y-60740496D01*
X74409264Y-60736000D01*
X77990736Y-60736000D01*
X78036384Y-60740496D01*
X78036384Y-60740496D01*
G37*
G36*
X104675749Y-60940629D02*
G01*
X104700251Y-60940629D01*
X104706638Y-60940000D01*
X105169362Y-60940000D01*
X105175749Y-60940629D01*
X105200251Y-60940629D01*
X105206638Y-60940000D01*
X105669362Y-60940000D01*
X105675749Y-60940629D01*
X105700251Y-60940629D01*
X105706638Y-60940000D01*
X106169362Y-60940000D01*
X106175749Y-60940629D01*
X106200251Y-60940629D01*
X106206638Y-60940000D01*
X106669362Y-60940000D01*
X106675749Y-60940629D01*
X106700251Y-60940629D01*
X106706638Y-60940000D01*
X107169362Y-60940000D01*
X107175749Y-60940629D01*
X107200251Y-60940629D01*
X107206638Y-60940000D01*
X107669362Y-60940000D01*
X107675749Y-60940629D01*
X107700251Y-60940629D01*
X107706638Y-60940000D01*
X108169362Y-60940000D01*
X108175749Y-60940629D01*
X108200251Y-60940629D01*
X108206638Y-60940000D01*
X108669362Y-60940000D01*
X108675749Y-60940629D01*
X108700251Y-60940629D01*
X108706638Y-60940000D01*
X109169362Y-60940000D01*
X109175749Y-60940629D01*
X109200251Y-60940629D01*
X109206638Y-60940000D01*
X109669362Y-60940000D01*
X109675749Y-60940629D01*
X109700251Y-60940629D01*
X109706638Y-60940000D01*
X110169362Y-60940000D01*
X110197327Y-60942754D01*
X110218322Y-60949123D01*
X110237664Y-60959462D01*
X110254622Y-60973378D01*
X110268538Y-60990336D01*
X110278877Y-61009678D01*
X110285246Y-61030673D01*
X110288000Y-61058638D01*
X110288000Y-62696362D01*
X110285246Y-62724327D01*
X110278877Y-62745322D01*
X110268538Y-62764664D01*
X110254622Y-62781622D01*
X110237664Y-62795538D01*
X110218322Y-62805877D01*
X110197327Y-62812246D01*
X110169362Y-62815000D01*
X109706638Y-62815000D01*
X109700251Y-62814371D01*
X109675749Y-62814371D01*
X109669362Y-62815000D01*
X109206638Y-62815000D01*
X109200251Y-62814371D01*
X109175749Y-62814371D01*
X109169362Y-62815000D01*
X108706638Y-62815000D01*
X108700251Y-62814371D01*
X108675749Y-62814371D01*
X108669362Y-62815000D01*
X108206638Y-62815000D01*
X108200251Y-62814371D01*
X108175749Y-62814371D01*
X108169362Y-62815000D01*
X107706638Y-62815000D01*
X107700251Y-62814371D01*
X107675749Y-62814371D01*
X107669362Y-62815000D01*
X107206638Y-62815000D01*
X107200251Y-62814371D01*
X107175749Y-62814371D01*
X107169362Y-62815000D01*
X106706638Y-62815000D01*
X106700251Y-62814371D01*
X106675749Y-62814371D01*
X106669362Y-62815000D01*
X106206638Y-62815000D01*
X106200251Y-62814371D01*
X106175749Y-62814371D01*
X106169362Y-62815000D01*
X105706638Y-62815000D01*
X105700251Y-62814371D01*
X105675749Y-62814371D01*
X105669362Y-62815000D01*
X105206638Y-62815000D01*
X105200251Y-62814371D01*
X105175749Y-62814371D01*
X105169362Y-62815000D01*
X104706638Y-62815000D01*
X104700251Y-62814371D01*
X104675749Y-62814371D01*
X104669362Y-62815000D01*
X104206638Y-62815000D01*
X104178673Y-62812246D01*
X104157678Y-62805877D01*
X104138336Y-62795538D01*
X104121378Y-62781622D01*
X104107462Y-62764664D01*
X104097123Y-62745322D01*
X104090754Y-62724327D01*
X104088000Y-62696362D01*
X104088000Y-61058638D01*
X104090754Y-61030673D01*
X104097123Y-61009678D01*
X104107462Y-60990336D01*
X104121378Y-60973378D01*
X104138336Y-60959462D01*
X104157678Y-60949123D01*
X104178673Y-60942754D01*
X104206638Y-60940000D01*
X104669362Y-60940000D01*
X104675749Y-60940629D01*
X104675749Y-60940629D01*
G37*
G36*
X100761529Y-58421710D02*
G01*
X100811378Y-58436831D01*
X100857310Y-58461382D01*
X100897574Y-58494426D01*
X100930618Y-58534690D01*
X100955169Y-58580622D01*
X100970290Y-58630471D01*
X100976000Y-58688444D01*
X100976000Y-59693556D01*
X100970290Y-59751529D01*
X100955169Y-59801378D01*
X100930618Y-59847310D01*
X100897574Y-59887574D01*
X100857310Y-59920618D01*
X100811378Y-59945169D01*
X100761529Y-59960290D01*
X100703556Y-59966000D01*
X99448444Y-59966000D01*
X99390471Y-59960290D01*
X99340622Y-59945169D01*
X99294690Y-59920618D01*
X99254426Y-59887574D01*
X99221382Y-59847310D01*
X99196831Y-59801378D01*
X99181710Y-59751529D01*
X99176000Y-59693556D01*
X99176000Y-58688444D01*
X99181710Y-58630471D01*
X99196831Y-58580622D01*
X99221382Y-58534690D01*
X99254426Y-58494426D01*
X99294690Y-58461382D01*
X99340622Y-58436831D01*
X99390471Y-58421710D01*
X99448444Y-58416000D01*
X100703556Y-58416000D01*
X100761529Y-58421710D01*
X100761529Y-58421710D01*
G37*
G36*
X141258000Y-57946000D02*
G01*
X139158000Y-57946000D01*
X139158000Y-55846000D01*
X141258000Y-55846000D01*
X141258000Y-57946000D01*
X141258000Y-57946000D01*
G37*
G36*
X137796707Y-55853597D02*
G01*
X137873836Y-55861193D01*
X138071762Y-55921233D01*
X138071765Y-55921234D01*
X138254170Y-56018732D01*
X138414055Y-56149945D01*
X138545268Y-56309830D01*
X138642766Y-56492235D01*
X138642767Y-56492238D01*
X138702807Y-56690164D01*
X138723080Y-56896000D01*
X138702807Y-57101836D01*
X138642767Y-57299762D01*
X138642766Y-57299765D01*
X138545268Y-57482170D01*
X138414055Y-57642055D01*
X138254170Y-57773268D01*
X138071765Y-57870766D01*
X138071762Y-57870767D01*
X137873836Y-57930807D01*
X137796707Y-57938404D01*
X137719580Y-57946000D01*
X137616420Y-57946000D01*
X137539293Y-57938404D01*
X137462164Y-57930807D01*
X137264238Y-57870767D01*
X137264235Y-57870766D01*
X137081830Y-57773268D01*
X136921945Y-57642055D01*
X136790732Y-57482170D01*
X136693234Y-57299765D01*
X136693233Y-57299762D01*
X136633193Y-57101836D01*
X136612920Y-56896000D01*
X136633193Y-56690164D01*
X136693233Y-56492238D01*
X136693234Y-56492235D01*
X136790732Y-56309830D01*
X136921945Y-56149945D01*
X137081830Y-56018732D01*
X137264235Y-55921234D01*
X137264238Y-55921233D01*
X137462164Y-55861193D01*
X137539293Y-55853597D01*
X137616420Y-55846000D01*
X137719580Y-55846000D01*
X137796707Y-55853597D01*
X137796707Y-55853597D01*
G37*
G36*
X100761529Y-56371710D02*
G01*
X100811378Y-56386831D01*
X100857310Y-56411382D01*
X100897574Y-56444426D01*
X100930618Y-56484690D01*
X100955169Y-56530622D01*
X100970290Y-56580471D01*
X100976000Y-56638444D01*
X100976000Y-57643556D01*
X100970290Y-57701529D01*
X100955169Y-57751378D01*
X100930618Y-57797310D01*
X100897574Y-57837574D01*
X100857310Y-57870618D01*
X100811378Y-57895169D01*
X100761529Y-57910290D01*
X100703556Y-57916000D01*
X99448444Y-57916000D01*
X99390471Y-57910290D01*
X99340622Y-57895169D01*
X99294690Y-57870618D01*
X99254426Y-57837574D01*
X99221382Y-57797310D01*
X99196831Y-57751378D01*
X99181710Y-57701529D01*
X99176000Y-57643556D01*
X99176000Y-56638444D01*
X99181710Y-56580471D01*
X99196831Y-56530622D01*
X99221382Y-56484690D01*
X99254426Y-56444426D01*
X99294690Y-56411382D01*
X99340622Y-56386831D01*
X99390471Y-56371710D01*
X99448444Y-56366000D01*
X100703556Y-56366000D01*
X100761529Y-56371710D01*
X100761529Y-56371710D01*
G37*
G36*
X140336707Y-53313596D02*
G01*
X140413836Y-53321193D01*
X140611762Y-53381233D01*
X140611765Y-53381234D01*
X140794170Y-53478732D01*
X140954055Y-53609945D01*
X141085268Y-53769830D01*
X141182766Y-53952235D01*
X141182767Y-53952238D01*
X141242807Y-54150164D01*
X141263080Y-54356000D01*
X141242807Y-54561836D01*
X141182767Y-54759762D01*
X141182766Y-54759765D01*
X141085268Y-54942170D01*
X140954055Y-55102055D01*
X140794170Y-55233268D01*
X140611765Y-55330766D01*
X140611762Y-55330767D01*
X140413836Y-55390807D01*
X140340804Y-55398000D01*
X140259580Y-55406000D01*
X140156420Y-55406000D01*
X140075196Y-55398000D01*
X140002164Y-55390807D01*
X139804238Y-55330767D01*
X139804235Y-55330766D01*
X139621830Y-55233268D01*
X139461945Y-55102055D01*
X139330732Y-54942170D01*
X139233234Y-54759765D01*
X139233233Y-54759762D01*
X139173193Y-54561836D01*
X139152920Y-54356000D01*
X139173193Y-54150164D01*
X139233233Y-53952238D01*
X139233234Y-53952235D01*
X139330732Y-53769830D01*
X139461945Y-53609945D01*
X139621830Y-53478732D01*
X139804235Y-53381234D01*
X139804238Y-53381233D01*
X140002164Y-53321193D01*
X140079293Y-53313596D01*
X140156420Y-53306000D01*
X140259580Y-53306000D01*
X140336707Y-53313596D01*
X140336707Y-53313596D01*
G37*
G36*
X137796707Y-53313596D02*
G01*
X137873836Y-53321193D01*
X138071762Y-53381233D01*
X138071765Y-53381234D01*
X138254170Y-53478732D01*
X138414055Y-53609945D01*
X138545268Y-53769830D01*
X138642766Y-53952235D01*
X138642767Y-53952238D01*
X138702807Y-54150164D01*
X138723080Y-54356000D01*
X138702807Y-54561836D01*
X138642767Y-54759762D01*
X138642766Y-54759765D01*
X138545268Y-54942170D01*
X138414055Y-55102055D01*
X138254170Y-55233268D01*
X138071765Y-55330766D01*
X138071762Y-55330767D01*
X137873836Y-55390807D01*
X137800804Y-55398000D01*
X137719580Y-55406000D01*
X137616420Y-55406000D01*
X137535196Y-55398000D01*
X137462164Y-55390807D01*
X137264238Y-55330767D01*
X137264235Y-55330766D01*
X137081830Y-55233268D01*
X136921945Y-55102055D01*
X136790732Y-54942170D01*
X136693234Y-54759765D01*
X136693233Y-54759762D01*
X136633193Y-54561836D01*
X136612920Y-54356000D01*
X136633193Y-54150164D01*
X136693233Y-53952238D01*
X136693234Y-53952235D01*
X136790732Y-53769830D01*
X136921945Y-53609945D01*
X137081830Y-53478732D01*
X137264235Y-53381234D01*
X137264238Y-53381233D01*
X137462164Y-53321193D01*
X137539293Y-53313596D01*
X137616420Y-53306000D01*
X137719580Y-53306000D01*
X137796707Y-53313596D01*
X137796707Y-53313596D01*
G37*
G36*
X91058000Y-55398000D02*
G01*
X89758000Y-55398000D01*
X89758000Y-54198000D01*
X91058000Y-54198000D01*
X91058000Y-55398000D01*
X91058000Y-55398000D01*
G37*
G36*
X89058000Y-54448000D02*
G01*
X87758000Y-54448000D01*
X87758000Y-53248000D01*
X89058000Y-53248000D01*
X89058000Y-54448000D01*
X89058000Y-54448000D01*
G37*
G36*
X77203080Y-51609942D02*
G01*
X77436826Y-51680848D01*
X77652239Y-51795989D01*
X77841055Y-51950945D01*
X77996011Y-52139761D01*
X78111152Y-52355174D01*
X78182058Y-52588920D01*
X78205999Y-52832000D01*
X78182058Y-53075080D01*
X78111152Y-53308826D01*
X77996011Y-53524239D01*
X77841055Y-53713055D01*
X77652239Y-53868011D01*
X77436826Y-53983152D01*
X77203080Y-54054058D01*
X77020911Y-54072000D01*
X75379089Y-54072000D01*
X75196920Y-54054058D01*
X74963174Y-53983152D01*
X74747761Y-53868011D01*
X74558945Y-53713055D01*
X74403989Y-53524239D01*
X74288848Y-53308826D01*
X74217942Y-53075080D01*
X74194001Y-52832000D01*
X74217942Y-52588920D01*
X74288848Y-52355174D01*
X74403989Y-52139761D01*
X74558945Y-51950945D01*
X74747761Y-51795989D01*
X74963174Y-51680848D01*
X75196920Y-51609942D01*
X75379089Y-51592000D01*
X77020911Y-51592000D01*
X77203080Y-51609942D01*
X77203080Y-51609942D01*
G37*
G36*
X91058000Y-53498000D02*
G01*
X89758000Y-53498000D01*
X89758000Y-52298000D01*
X91058000Y-52298000D01*
X91058000Y-53498000D01*
X91058000Y-53498000D01*
G37*
G36*
X139622390Y-48421783D02*
G01*
X139772118Y-48451565D01*
X139888960Y-48499963D01*
X140054199Y-48568407D01*
X140054200Y-48568408D01*
X140308068Y-48738036D01*
X140523964Y-48953932D01*
X140549400Y-48992000D01*
X140693593Y-49207801D01*
X140732611Y-49302000D01*
X140788689Y-49437382D01*
X140810435Y-49489883D01*
X140870000Y-49789337D01*
X140870000Y-50094663D01*
X140810435Y-50394117D01*
X140693593Y-50676199D01*
X140693592Y-50676200D01*
X140523964Y-50930068D01*
X140308068Y-51145964D01*
X140138439Y-51259306D01*
X140054199Y-51315593D01*
X139888960Y-51384037D01*
X139772118Y-51432435D01*
X139622390Y-51462218D01*
X139472663Y-51492000D01*
X139167337Y-51492000D01*
X139017610Y-51462218D01*
X138867882Y-51432435D01*
X138751040Y-51384037D01*
X138585801Y-51315593D01*
X138501561Y-51259306D01*
X138331932Y-51145964D01*
X138116036Y-50930068D01*
X137946408Y-50676200D01*
X137946407Y-50676199D01*
X137829565Y-50394117D01*
X137770000Y-50094663D01*
X137770000Y-49789337D01*
X137829565Y-49489883D01*
X137851312Y-49437382D01*
X137907389Y-49302000D01*
X137946407Y-49207801D01*
X138090600Y-48992000D01*
X138116036Y-48953932D01*
X138331932Y-48738036D01*
X138585800Y-48568408D01*
X138585801Y-48568407D01*
X138751040Y-48499963D01*
X138867882Y-48451565D01*
X139017610Y-48421782D01*
X139167337Y-48392000D01*
X139472663Y-48392000D01*
X139622390Y-48421783D01*
X139622390Y-48421783D01*
G37*
G36*
X82339529Y-49397710D02*
G01*
X82389378Y-49412831D01*
X82435310Y-49437382D01*
X82475574Y-49470426D01*
X82508618Y-49510690D01*
X82533169Y-49556622D01*
X82548290Y-49606471D01*
X82554000Y-49664444D01*
X82554000Y-50919556D01*
X82548290Y-50977529D01*
X82533169Y-51027378D01*
X82508618Y-51073310D01*
X82475574Y-51113574D01*
X82435310Y-51146618D01*
X82389378Y-51171169D01*
X82339529Y-51186290D01*
X82281556Y-51192000D01*
X81276444Y-51192000D01*
X81218471Y-51186290D01*
X81168622Y-51171169D01*
X81122690Y-51146618D01*
X81082426Y-51113574D01*
X81049382Y-51073310D01*
X81024831Y-51027378D01*
X81009710Y-50977529D01*
X81004000Y-50919556D01*
X81004000Y-49664444D01*
X81009710Y-49606471D01*
X81024831Y-49556622D01*
X81049382Y-49510690D01*
X81082426Y-49470426D01*
X81122690Y-49437382D01*
X81168622Y-49412831D01*
X81218471Y-49397710D01*
X81276444Y-49392000D01*
X82281556Y-49392000D01*
X82339529Y-49397710D01*
X82339529Y-49397710D01*
G37*
G36*
X84389529Y-49397710D02*
G01*
X84439378Y-49412831D01*
X84485310Y-49437382D01*
X84525574Y-49470426D01*
X84558618Y-49510690D01*
X84583169Y-49556622D01*
X84598290Y-49606471D01*
X84604000Y-49664444D01*
X84604000Y-50919556D01*
X84598290Y-50977529D01*
X84583169Y-51027378D01*
X84558618Y-51073310D01*
X84525574Y-51113574D01*
X84485310Y-51146618D01*
X84439378Y-51171169D01*
X84389529Y-51186290D01*
X84331556Y-51192000D01*
X83326444Y-51192000D01*
X83268471Y-51186290D01*
X83218622Y-51171169D01*
X83172690Y-51146618D01*
X83132426Y-51113574D01*
X83099382Y-51073310D01*
X83074831Y-51027378D01*
X83059710Y-50977529D01*
X83054000Y-50919556D01*
X83054000Y-49664444D01*
X83059710Y-49606471D01*
X83074831Y-49556622D01*
X83099382Y-49510690D01*
X83132426Y-49470426D01*
X83172690Y-49437382D01*
X83218622Y-49412831D01*
X83268471Y-49397710D01*
X83326444Y-49392000D01*
X84331556Y-49392000D01*
X84389529Y-49397710D01*
X84389529Y-49397710D01*
G37*
G36*
X91058000Y-49302000D02*
G01*
X89758000Y-49302000D01*
X89758000Y-48102000D01*
X91058000Y-48102000D01*
X91058000Y-49302000D01*
X91058000Y-49302000D01*
G37*
G36*
X77203080Y-46529942D02*
G01*
X77436826Y-46600848D01*
X77652239Y-46715989D01*
X77841055Y-46870945D01*
X77996011Y-47059761D01*
X78111152Y-47275174D01*
X78182058Y-47508920D01*
X78205999Y-47752000D01*
X78182058Y-47995080D01*
X78111152Y-48228826D01*
X77996011Y-48444239D01*
X77841055Y-48633055D01*
X77652239Y-48788011D01*
X77436826Y-48903152D01*
X77203080Y-48974058D01*
X77020911Y-48992000D01*
X75379089Y-48992000D01*
X75196920Y-48974058D01*
X74963174Y-48903152D01*
X74747761Y-48788011D01*
X74558945Y-48633055D01*
X74403989Y-48444239D01*
X74288848Y-48228826D01*
X74217942Y-47995080D01*
X74194001Y-47752000D01*
X74217942Y-47508920D01*
X74288848Y-47275174D01*
X74403989Y-47059761D01*
X74558945Y-46870945D01*
X74747761Y-46715989D01*
X74963174Y-46600848D01*
X75196920Y-46529942D01*
X75379089Y-46512000D01*
X77020911Y-46512000D01*
X77203080Y-46529942D01*
X77203080Y-46529942D01*
G37*
G36*
X84389529Y-46857710D02*
G01*
X84439378Y-46872831D01*
X84485310Y-46897382D01*
X84525574Y-46930426D01*
X84558618Y-46970690D01*
X84583169Y-47016622D01*
X84598290Y-47066471D01*
X84604000Y-47124444D01*
X84604000Y-48379556D01*
X84598290Y-48437529D01*
X84583169Y-48487378D01*
X84558618Y-48533310D01*
X84525574Y-48573574D01*
X84485310Y-48606618D01*
X84439378Y-48631169D01*
X84389529Y-48646290D01*
X84331556Y-48652000D01*
X83326444Y-48652000D01*
X83268471Y-48646290D01*
X83218622Y-48631169D01*
X83172690Y-48606618D01*
X83132426Y-48573574D01*
X83099382Y-48533310D01*
X83074831Y-48487378D01*
X83059710Y-48437529D01*
X83054000Y-48379556D01*
X83054000Y-47124444D01*
X83059710Y-47066471D01*
X83074831Y-47016622D01*
X83099382Y-46970690D01*
X83132426Y-46930426D01*
X83172690Y-46897382D01*
X83218622Y-46872831D01*
X83268471Y-46857710D01*
X83326444Y-46852000D01*
X84331556Y-46852000D01*
X84389529Y-46857710D01*
X84389529Y-46857710D01*
G37*
G36*
X82339529Y-46857710D02*
G01*
X82389378Y-46872831D01*
X82435310Y-46897382D01*
X82475574Y-46930426D01*
X82508618Y-46970690D01*
X82533169Y-47016622D01*
X82548290Y-47066471D01*
X82554000Y-47124444D01*
X82554000Y-48379556D01*
X82548290Y-48437529D01*
X82533169Y-48487378D01*
X82508618Y-48533310D01*
X82475574Y-48573574D01*
X82435310Y-48606618D01*
X82389378Y-48631169D01*
X82339529Y-48646290D01*
X82281556Y-48652000D01*
X81276444Y-48652000D01*
X81218471Y-48646290D01*
X81168622Y-48631169D01*
X81122690Y-48606618D01*
X81082426Y-48573574D01*
X81049382Y-48533310D01*
X81024831Y-48487378D01*
X81009710Y-48437529D01*
X81004000Y-48379556D01*
X81004000Y-47124444D01*
X81009710Y-47066471D01*
X81024831Y-47016622D01*
X81049382Y-46970690D01*
X81082426Y-46930426D01*
X81122690Y-46897382D01*
X81168622Y-46872831D01*
X81218471Y-46857710D01*
X81276444Y-46852000D01*
X82281556Y-46852000D01*
X82339529Y-46857710D01*
X82339529Y-46857710D01*
G37*
G36*
X89058000Y-48352000D02*
G01*
X87758000Y-48352000D01*
X87758000Y-47152000D01*
X89058000Y-47152000D01*
X89058000Y-48352000D01*
X89058000Y-48352000D01*
G37*
G36*
X91058000Y-47402000D02*
G01*
X89758000Y-47402000D01*
X89758000Y-46202000D01*
X91058000Y-46202000D01*
X91058000Y-47402000D01*
X91058000Y-47402000D01*
G37*
G36*
X134807287Y-44270446D02*
G01*
X134900022Y-44288892D01*
X135074731Y-44361259D01*
X135231964Y-44466319D01*
X135365681Y-44600036D01*
X135470742Y-44757270D01*
X135504516Y-44838809D01*
X135516067Y-44860419D01*
X135531612Y-44879361D01*
X135550554Y-44894907D01*
X135572165Y-44906458D01*
X135595614Y-44913571D01*
X135620000Y-44915973D01*
X135644386Y-44913571D01*
X135667835Y-44906458D01*
X135689445Y-44894907D01*
X135708387Y-44879362D01*
X135723933Y-44860420D01*
X135735484Y-44838809D01*
X135769258Y-44757270D01*
X135874319Y-44600036D01*
X136008036Y-44466319D01*
X136165269Y-44361259D01*
X136339978Y-44288892D01*
X136432713Y-44270446D01*
X136525447Y-44252000D01*
X136714553Y-44252000D01*
X136807287Y-44270446D01*
X136900022Y-44288892D01*
X137074731Y-44361259D01*
X137231964Y-44466319D01*
X137365681Y-44600036D01*
X137470741Y-44757269D01*
X137543108Y-44931978D01*
X137580000Y-45117448D01*
X137580000Y-45306552D01*
X137543108Y-45492022D01*
X137470741Y-45666731D01*
X137365681Y-45823964D01*
X137231964Y-45957681D01*
X137074731Y-46062741D01*
X136900022Y-46135108D01*
X136807287Y-46153554D01*
X136714553Y-46172000D01*
X136525447Y-46172000D01*
X136432713Y-46153554D01*
X136339978Y-46135108D01*
X136165269Y-46062741D01*
X136008036Y-45957681D01*
X135874319Y-45823964D01*
X135769259Y-45666731D01*
X135769258Y-45666730D01*
X135735484Y-45585191D01*
X135723933Y-45563581D01*
X135708388Y-45544639D01*
X135689446Y-45529093D01*
X135667835Y-45517542D01*
X135644386Y-45510429D01*
X135620000Y-45508027D01*
X135595614Y-45510429D01*
X135572165Y-45517542D01*
X135550555Y-45529093D01*
X135531613Y-45544638D01*
X135516067Y-45563580D01*
X135504516Y-45585191D01*
X135470742Y-45666730D01*
X135470741Y-45666731D01*
X135365681Y-45823964D01*
X135231964Y-45957681D01*
X135074731Y-46062741D01*
X134900022Y-46135108D01*
X134807287Y-46153554D01*
X134714553Y-46172000D01*
X134525447Y-46172000D01*
X134432713Y-46153554D01*
X134339978Y-46135108D01*
X134165269Y-46062741D01*
X134008036Y-45957681D01*
X133874319Y-45823964D01*
X133769259Y-45666731D01*
X133696892Y-45492022D01*
X133660000Y-45306552D01*
X133660000Y-45117448D01*
X133696892Y-44931978D01*
X133769259Y-44757269D01*
X133874319Y-44600036D01*
X134008036Y-44466319D01*
X134165269Y-44361259D01*
X134339978Y-44288892D01*
X134432713Y-44270446D01*
X134525447Y-44252000D01*
X134714553Y-44252000D01*
X134807287Y-44270446D01*
X134807287Y-44270446D01*
G37*
G36*
X127551529Y-44317710D02*
G01*
X127601378Y-44332831D01*
X127647310Y-44357382D01*
X127687574Y-44390426D01*
X127720618Y-44430690D01*
X127745169Y-44476622D01*
X127760290Y-44526471D01*
X127766000Y-44584444D01*
X127766000Y-45839556D01*
X127760290Y-45897529D01*
X127745169Y-45947378D01*
X127720618Y-45993310D01*
X127687574Y-46033574D01*
X127647310Y-46066618D01*
X127601378Y-46091169D01*
X127551529Y-46106290D01*
X127493556Y-46112000D01*
X126488444Y-46112000D01*
X126430471Y-46106290D01*
X126380622Y-46091169D01*
X126334690Y-46066618D01*
X126294426Y-46033574D01*
X126261382Y-45993310D01*
X126236831Y-45947378D01*
X126221710Y-45897529D01*
X126216000Y-45839556D01*
X126216000Y-44584444D01*
X126221710Y-44526471D01*
X126236831Y-44476622D01*
X126261382Y-44430690D01*
X126294426Y-44390426D01*
X126334690Y-44357382D01*
X126380622Y-44332831D01*
X126430471Y-44317710D01*
X126488444Y-44312000D01*
X127493556Y-44312000D01*
X127551529Y-44317710D01*
X127551529Y-44317710D01*
G37*
G36*
X129601529Y-44317710D02*
G01*
X129651378Y-44332831D01*
X129697310Y-44357382D01*
X129737574Y-44390426D01*
X129770618Y-44430690D01*
X129795169Y-44476622D01*
X129810290Y-44526471D01*
X129816000Y-44584444D01*
X129816000Y-45839556D01*
X129810290Y-45897529D01*
X129795169Y-45947378D01*
X129770618Y-45993310D01*
X129737574Y-46033574D01*
X129697310Y-46066618D01*
X129651378Y-46091169D01*
X129601529Y-46106290D01*
X129543556Y-46112000D01*
X128538444Y-46112000D01*
X128480471Y-46106290D01*
X128430622Y-46091169D01*
X128384690Y-46066618D01*
X128344426Y-46033574D01*
X128311382Y-45993310D01*
X128286831Y-45947378D01*
X128271710Y-45897529D01*
X128266000Y-45839556D01*
X128266000Y-44584444D01*
X128271710Y-44526471D01*
X128286831Y-44476622D01*
X128311382Y-44430690D01*
X128344426Y-44390426D01*
X128384690Y-44357382D01*
X128430622Y-44332831D01*
X128480471Y-44317710D01*
X128538444Y-44312000D01*
X129543556Y-44312000D01*
X129601529Y-44317710D01*
X129601529Y-44317710D01*
G37*
G36*
X82339529Y-44317710D02*
G01*
X82389378Y-44332831D01*
X82435310Y-44357382D01*
X82475574Y-44390426D01*
X82508618Y-44430690D01*
X82533169Y-44476622D01*
X82548290Y-44526471D01*
X82554000Y-44584444D01*
X82554000Y-45839556D01*
X82548290Y-45897529D01*
X82533169Y-45947378D01*
X82508618Y-45993310D01*
X82475574Y-46033574D01*
X82435310Y-46066618D01*
X82389378Y-46091169D01*
X82339529Y-46106290D01*
X82281556Y-46112000D01*
X81276444Y-46112000D01*
X81218471Y-46106290D01*
X81168622Y-46091169D01*
X81122690Y-46066618D01*
X81082426Y-46033574D01*
X81049382Y-45993310D01*
X81024831Y-45947378D01*
X81009710Y-45897529D01*
X81004000Y-45839556D01*
X81004000Y-44584444D01*
X81009710Y-44526471D01*
X81024831Y-44476622D01*
X81049382Y-44430690D01*
X81082426Y-44390426D01*
X81122690Y-44357382D01*
X81168622Y-44332831D01*
X81218471Y-44317710D01*
X81276444Y-44312000D01*
X82281556Y-44312000D01*
X82339529Y-44317710D01*
X82339529Y-44317710D01*
G37*
G36*
X84389529Y-44317710D02*
G01*
X84439378Y-44332831D01*
X84485310Y-44357382D01*
X84525574Y-44390426D01*
X84558618Y-44430690D01*
X84583169Y-44476622D01*
X84598290Y-44526471D01*
X84604000Y-44584444D01*
X84604000Y-45839556D01*
X84598290Y-45897529D01*
X84583169Y-45947378D01*
X84558618Y-45993310D01*
X84525574Y-46033574D01*
X84485310Y-46066618D01*
X84439378Y-46091169D01*
X84389529Y-46106290D01*
X84331556Y-46112000D01*
X83326444Y-46112000D01*
X83268471Y-46106290D01*
X83218622Y-46091169D01*
X83172690Y-46066618D01*
X83132426Y-46033574D01*
X83099382Y-45993310D01*
X83074831Y-45947378D01*
X83059710Y-45897529D01*
X83054000Y-45839556D01*
X83054000Y-44584444D01*
X83059710Y-44526471D01*
X83074831Y-44476622D01*
X83099382Y-44430690D01*
X83132426Y-44390426D01*
X83172690Y-44357382D01*
X83218622Y-44332831D01*
X83268471Y-44317710D01*
X83326444Y-44312000D01*
X84331556Y-44312000D01*
X84389529Y-44317710D01*
X84389529Y-44317710D01*
G37*
G36*
X77203080Y-41449942D02*
G01*
X77436826Y-41520848D01*
X77652239Y-41635989D01*
X77841055Y-41790945D01*
X77996011Y-41979761D01*
X78111152Y-42195174D01*
X78182058Y-42428920D01*
X78205999Y-42672000D01*
X78182058Y-42915080D01*
X78111152Y-43148826D01*
X77996011Y-43364239D01*
X77841055Y-43553055D01*
X77652239Y-43708011D01*
X77436826Y-43823152D01*
X77436823Y-43823153D01*
X77393312Y-43836352D01*
X77203080Y-43894058D01*
X77020911Y-43912000D01*
X75379089Y-43912000D01*
X75196920Y-43894058D01*
X75006688Y-43836352D01*
X74963177Y-43823153D01*
X74963174Y-43823152D01*
X74747761Y-43708011D01*
X74558945Y-43553055D01*
X74403989Y-43364239D01*
X74288848Y-43148826D01*
X74217942Y-42915080D01*
X74194001Y-42672000D01*
X74217942Y-42428920D01*
X74288848Y-42195174D01*
X74403989Y-41979761D01*
X74558945Y-41790945D01*
X74747761Y-41635989D01*
X74963174Y-41520848D01*
X75196920Y-41449942D01*
X75379089Y-41432000D01*
X77020911Y-41432000D01*
X77203080Y-41449942D01*
X77203080Y-41449942D01*
G37*
G36*
X129601529Y-42031710D02*
G01*
X129651378Y-42046831D01*
X129697310Y-42071382D01*
X129737574Y-42104426D01*
X129770618Y-42144690D01*
X129795169Y-42190622D01*
X129810290Y-42240471D01*
X129816000Y-42298444D01*
X129816000Y-43553556D01*
X129810290Y-43611529D01*
X129795169Y-43661378D01*
X129770618Y-43707310D01*
X129737574Y-43747574D01*
X129697310Y-43780618D01*
X129651378Y-43805169D01*
X129601529Y-43820290D01*
X129543556Y-43826000D01*
X128538444Y-43826000D01*
X128480471Y-43820290D01*
X128430622Y-43805169D01*
X128384690Y-43780618D01*
X128344426Y-43747574D01*
X128311382Y-43707310D01*
X128286831Y-43661378D01*
X128271710Y-43611529D01*
X128266000Y-43553556D01*
X128266000Y-42298444D01*
X128271710Y-42240471D01*
X128286831Y-42190622D01*
X128311382Y-42144690D01*
X128344426Y-42104426D01*
X128384690Y-42071382D01*
X128430622Y-42046831D01*
X128480471Y-42031710D01*
X128538444Y-42026000D01*
X129543556Y-42026000D01*
X129601529Y-42031710D01*
X129601529Y-42031710D01*
G37*
G36*
X127551529Y-42031710D02*
G01*
X127601378Y-42046831D01*
X127647310Y-42071382D01*
X127687574Y-42104426D01*
X127720618Y-42144690D01*
X127745169Y-42190622D01*
X127760290Y-42240471D01*
X127766000Y-42298444D01*
X127766000Y-43553556D01*
X127760290Y-43611529D01*
X127745169Y-43661378D01*
X127720618Y-43707310D01*
X127687574Y-43747574D01*
X127647310Y-43780618D01*
X127601378Y-43805169D01*
X127551529Y-43820290D01*
X127493556Y-43826000D01*
X126488444Y-43826000D01*
X126430471Y-43820290D01*
X126380622Y-43805169D01*
X126334690Y-43780618D01*
X126294426Y-43747574D01*
X126261382Y-43707310D01*
X126236831Y-43661378D01*
X126221710Y-43611529D01*
X126216000Y-43553556D01*
X126216000Y-42298444D01*
X126221710Y-42240471D01*
X126236831Y-42190622D01*
X126261382Y-42144690D01*
X126294426Y-42104426D01*
X126334690Y-42071382D01*
X126380622Y-42046831D01*
X126430471Y-42031710D01*
X126488444Y-42026000D01*
X127493556Y-42026000D01*
X127551529Y-42031710D01*
X127551529Y-42031710D01*
G37*
G36*
X134807287Y-41730446D02*
G01*
X134900022Y-41748892D01*
X135074731Y-41821259D01*
X135231964Y-41926319D01*
X135365681Y-42060036D01*
X135470742Y-42217270D01*
X135504516Y-42298809D01*
X135516067Y-42320419D01*
X135531612Y-42339361D01*
X135550554Y-42354907D01*
X135572165Y-42366458D01*
X135595614Y-42373571D01*
X135620000Y-42375973D01*
X135644386Y-42373571D01*
X135667835Y-42366458D01*
X135689445Y-42354907D01*
X135708387Y-42339362D01*
X135723933Y-42320420D01*
X135735484Y-42298809D01*
X135769258Y-42217270D01*
X135874319Y-42060036D01*
X136008036Y-41926319D01*
X136165269Y-41821259D01*
X136339978Y-41748892D01*
X136432713Y-41730446D01*
X136525447Y-41712000D01*
X136714553Y-41712000D01*
X136807287Y-41730446D01*
X136900022Y-41748892D01*
X137074731Y-41821259D01*
X137231964Y-41926319D01*
X137365681Y-42060036D01*
X137470741Y-42217269D01*
X137543108Y-42391978D01*
X137580000Y-42577448D01*
X137580000Y-42766552D01*
X137543108Y-42952022D01*
X137470741Y-43126731D01*
X137365681Y-43283964D01*
X137231964Y-43417681D01*
X137074731Y-43522741D01*
X136900022Y-43595108D01*
X136817467Y-43611529D01*
X136714553Y-43632000D01*
X136525447Y-43632000D01*
X136422533Y-43611529D01*
X136339978Y-43595108D01*
X136165269Y-43522741D01*
X136008036Y-43417681D01*
X135874319Y-43283964D01*
X135769259Y-43126731D01*
X135769258Y-43126730D01*
X135735484Y-43045191D01*
X135723933Y-43023581D01*
X135708388Y-43004639D01*
X135689446Y-42989093D01*
X135667835Y-42977542D01*
X135644386Y-42970429D01*
X135620000Y-42968027D01*
X135595614Y-42970429D01*
X135572165Y-42977542D01*
X135550555Y-42989093D01*
X135531613Y-43004638D01*
X135516067Y-43023580D01*
X135504516Y-43045191D01*
X135470742Y-43126730D01*
X135470741Y-43126731D01*
X135365681Y-43283964D01*
X135231964Y-43417681D01*
X135074731Y-43522741D01*
X134900022Y-43595108D01*
X134817467Y-43611529D01*
X134714553Y-43632000D01*
X134525447Y-43632000D01*
X134422533Y-43611529D01*
X134339978Y-43595108D01*
X134165269Y-43522741D01*
X134008036Y-43417681D01*
X133874319Y-43283964D01*
X133769259Y-43126731D01*
X133696892Y-42952022D01*
X133660000Y-42766552D01*
X133660000Y-42577448D01*
X133696892Y-42391978D01*
X133769259Y-42217269D01*
X133874319Y-42060036D01*
X134008036Y-41926319D01*
X134165269Y-41821259D01*
X134339978Y-41748892D01*
X134432713Y-41730446D01*
X134525447Y-41712000D01*
X134714553Y-41712000D01*
X134807287Y-41730446D01*
X134807287Y-41730446D01*
G37*
G36*
X91058000Y-42698000D02*
G01*
X89758000Y-42698000D01*
X89758000Y-41498000D01*
X91058000Y-41498000D01*
X91058000Y-42698000D01*
X91058000Y-42698000D01*
G37*
G36*
X89058000Y-41748000D02*
G01*
X87758000Y-41748000D01*
X87758000Y-40548000D01*
X89058000Y-40548000D01*
X89058000Y-41748000D01*
X89058000Y-41748000D01*
G37*
G36*
X114936707Y-39089597D02*
G01*
X115013836Y-39097193D01*
X115211762Y-39157233D01*
X115211765Y-39157234D01*
X115394170Y-39254732D01*
X115554055Y-39385945D01*
X115685268Y-39545830D01*
X115782766Y-39728235D01*
X115782767Y-39728238D01*
X115842807Y-39926164D01*
X115863080Y-40132000D01*
X115842807Y-40337836D01*
X115782767Y-40535762D01*
X115782766Y-40535765D01*
X115685268Y-40718170D01*
X115554055Y-40878055D01*
X115394170Y-41009268D01*
X115211765Y-41106766D01*
X115211762Y-41106767D01*
X115013836Y-41166807D01*
X114936707Y-41174404D01*
X114859580Y-41182000D01*
X114756420Y-41182000D01*
X114679293Y-41174404D01*
X114602164Y-41166807D01*
X114404238Y-41106767D01*
X114404235Y-41106766D01*
X114221830Y-41009268D01*
X114061945Y-40878055D01*
X113930732Y-40718170D01*
X113833234Y-40535765D01*
X113833233Y-40535762D01*
X113773193Y-40337836D01*
X113752920Y-40132000D01*
X113773193Y-39926164D01*
X113833233Y-39728238D01*
X113833234Y-39728235D01*
X113930732Y-39545830D01*
X114061945Y-39385945D01*
X114221830Y-39254732D01*
X114404235Y-39157234D01*
X114404238Y-39157233D01*
X114602164Y-39097193D01*
X114679293Y-39089597D01*
X114756420Y-39082000D01*
X114859580Y-39082000D01*
X114936707Y-39089597D01*
X114936707Y-39089597D01*
G37*
G36*
X100618000Y-41182000D02*
G01*
X98518000Y-41182000D01*
X98518000Y-39082000D01*
X100618000Y-39082000D01*
X100618000Y-41182000D01*
X100618000Y-41182000D01*
G37*
G36*
X102236707Y-39089597D02*
G01*
X102313836Y-39097193D01*
X102511762Y-39157233D01*
X102511765Y-39157234D01*
X102694170Y-39254732D01*
X102854055Y-39385945D01*
X102985268Y-39545830D01*
X103082766Y-39728235D01*
X103082767Y-39728238D01*
X103142807Y-39926164D01*
X103163080Y-40132000D01*
X103142807Y-40337836D01*
X103082767Y-40535762D01*
X103082766Y-40535765D01*
X102985268Y-40718170D01*
X102854055Y-40878055D01*
X102694170Y-41009268D01*
X102511765Y-41106766D01*
X102511762Y-41106767D01*
X102313836Y-41166807D01*
X102236707Y-41174404D01*
X102159580Y-41182000D01*
X102056420Y-41182000D01*
X101979293Y-41174404D01*
X101902164Y-41166807D01*
X101704238Y-41106767D01*
X101704235Y-41106766D01*
X101521830Y-41009268D01*
X101361945Y-40878055D01*
X101230732Y-40718170D01*
X101133234Y-40535765D01*
X101133233Y-40535762D01*
X101073193Y-40337836D01*
X101052920Y-40132000D01*
X101073193Y-39926164D01*
X101133233Y-39728238D01*
X101133234Y-39728235D01*
X101230732Y-39545830D01*
X101361945Y-39385945D01*
X101521830Y-39254732D01*
X101704235Y-39157234D01*
X101704238Y-39157233D01*
X101902164Y-39097193D01*
X101979293Y-39089597D01*
X102056420Y-39082000D01*
X102159580Y-39082000D01*
X102236707Y-39089597D01*
X102236707Y-39089597D01*
G37*
G36*
X104776707Y-39089597D02*
G01*
X104853836Y-39097193D01*
X105051762Y-39157233D01*
X105051765Y-39157234D01*
X105234170Y-39254732D01*
X105394055Y-39385945D01*
X105525268Y-39545830D01*
X105622766Y-39728235D01*
X105622767Y-39728238D01*
X105682807Y-39926164D01*
X105703080Y-40132000D01*
X105682807Y-40337836D01*
X105622767Y-40535762D01*
X105622766Y-40535765D01*
X105525268Y-40718170D01*
X105394055Y-40878055D01*
X105234170Y-41009268D01*
X105051765Y-41106766D01*
X105051762Y-41106767D01*
X104853836Y-41166807D01*
X104776707Y-41174404D01*
X104699580Y-41182000D01*
X104596420Y-41182000D01*
X104519293Y-41174404D01*
X104442164Y-41166807D01*
X104244238Y-41106767D01*
X104244235Y-41106766D01*
X104061830Y-41009268D01*
X103901945Y-40878055D01*
X103770732Y-40718170D01*
X103673234Y-40535765D01*
X103673233Y-40535762D01*
X103613193Y-40337836D01*
X103592920Y-40132000D01*
X103613193Y-39926164D01*
X103673233Y-39728238D01*
X103673234Y-39728235D01*
X103770732Y-39545830D01*
X103901945Y-39385945D01*
X104061830Y-39254732D01*
X104244235Y-39157234D01*
X104244238Y-39157233D01*
X104442164Y-39097193D01*
X104519293Y-39089597D01*
X104596420Y-39082000D01*
X104699580Y-39082000D01*
X104776707Y-39089597D01*
X104776707Y-39089597D01*
G37*
G36*
X107316707Y-39089597D02*
G01*
X107393836Y-39097193D01*
X107591762Y-39157233D01*
X107591765Y-39157234D01*
X107774170Y-39254732D01*
X107934055Y-39385945D01*
X108065268Y-39545830D01*
X108162766Y-39728235D01*
X108162767Y-39728238D01*
X108222807Y-39926164D01*
X108243080Y-40132000D01*
X108222807Y-40337836D01*
X108162767Y-40535762D01*
X108162766Y-40535765D01*
X108065268Y-40718170D01*
X107934055Y-40878055D01*
X107774170Y-41009268D01*
X107591765Y-41106766D01*
X107591762Y-41106767D01*
X107393836Y-41166807D01*
X107316707Y-41174404D01*
X107239580Y-41182000D01*
X107136420Y-41182000D01*
X107059293Y-41174404D01*
X106982164Y-41166807D01*
X106784238Y-41106767D01*
X106784235Y-41106766D01*
X106601830Y-41009268D01*
X106441945Y-40878055D01*
X106310732Y-40718170D01*
X106213234Y-40535765D01*
X106213233Y-40535762D01*
X106153193Y-40337836D01*
X106132920Y-40132000D01*
X106153193Y-39926164D01*
X106213233Y-39728238D01*
X106213234Y-39728235D01*
X106310732Y-39545830D01*
X106441945Y-39385945D01*
X106601830Y-39254732D01*
X106784235Y-39157234D01*
X106784238Y-39157233D01*
X106982164Y-39097193D01*
X107059293Y-39089597D01*
X107136420Y-39082000D01*
X107239580Y-39082000D01*
X107316707Y-39089597D01*
X107316707Y-39089597D01*
G37*
G36*
X109856707Y-39089597D02*
G01*
X109933836Y-39097193D01*
X110131762Y-39157233D01*
X110131765Y-39157234D01*
X110314170Y-39254732D01*
X110474055Y-39385945D01*
X110605268Y-39545830D01*
X110702766Y-39728235D01*
X110702767Y-39728238D01*
X110762807Y-39926164D01*
X110783080Y-40132000D01*
X110762807Y-40337836D01*
X110702767Y-40535762D01*
X110702766Y-40535765D01*
X110605268Y-40718170D01*
X110474055Y-40878055D01*
X110314170Y-41009268D01*
X110131765Y-41106766D01*
X110131762Y-41106767D01*
X109933836Y-41166807D01*
X109856707Y-41174404D01*
X109779580Y-41182000D01*
X109676420Y-41182000D01*
X109599293Y-41174404D01*
X109522164Y-41166807D01*
X109324238Y-41106767D01*
X109324235Y-41106766D01*
X109141830Y-41009268D01*
X108981945Y-40878055D01*
X108850732Y-40718170D01*
X108753234Y-40535765D01*
X108753233Y-40535762D01*
X108693193Y-40337836D01*
X108672920Y-40132000D01*
X108693193Y-39926164D01*
X108753233Y-39728238D01*
X108753234Y-39728235D01*
X108850732Y-39545830D01*
X108981945Y-39385945D01*
X109141830Y-39254732D01*
X109324235Y-39157234D01*
X109324238Y-39157233D01*
X109522164Y-39097193D01*
X109599293Y-39089597D01*
X109676420Y-39082000D01*
X109779580Y-39082000D01*
X109856707Y-39089597D01*
X109856707Y-39089597D01*
G37*
G36*
X117476707Y-39089597D02*
G01*
X117553836Y-39097193D01*
X117751762Y-39157233D01*
X117751765Y-39157234D01*
X117934170Y-39254732D01*
X118094055Y-39385945D01*
X118225268Y-39545830D01*
X118322766Y-39728235D01*
X118322767Y-39728238D01*
X118382807Y-39926164D01*
X118403080Y-40132000D01*
X118382807Y-40337836D01*
X118322767Y-40535762D01*
X118322766Y-40535765D01*
X118225268Y-40718170D01*
X118094055Y-40878055D01*
X117934170Y-41009268D01*
X117751765Y-41106766D01*
X117751762Y-41106767D01*
X117553836Y-41166807D01*
X117476707Y-41174404D01*
X117399580Y-41182000D01*
X117296420Y-41182000D01*
X117219293Y-41174404D01*
X117142164Y-41166807D01*
X116944238Y-41106767D01*
X116944235Y-41106766D01*
X116761830Y-41009268D01*
X116601945Y-40878055D01*
X116470732Y-40718170D01*
X116373234Y-40535765D01*
X116373233Y-40535762D01*
X116313193Y-40337836D01*
X116292920Y-40132000D01*
X116313193Y-39926164D01*
X116373233Y-39728238D01*
X116373234Y-39728235D01*
X116470732Y-39545830D01*
X116601945Y-39385945D01*
X116761830Y-39254732D01*
X116944235Y-39157234D01*
X116944238Y-39157233D01*
X117142164Y-39097193D01*
X117219293Y-39089597D01*
X117296420Y-39082000D01*
X117399580Y-39082000D01*
X117476707Y-39089597D01*
X117476707Y-39089597D01*
G37*
G36*
X112396707Y-39089597D02*
G01*
X112473836Y-39097193D01*
X112671762Y-39157233D01*
X112671765Y-39157234D01*
X112854170Y-39254732D01*
X113014055Y-39385945D01*
X113145268Y-39545830D01*
X113242766Y-39728235D01*
X113242767Y-39728238D01*
X113302807Y-39926164D01*
X113323080Y-40132000D01*
X113302807Y-40337836D01*
X113242767Y-40535762D01*
X113242766Y-40535765D01*
X113145268Y-40718170D01*
X113014055Y-40878055D01*
X112854170Y-41009268D01*
X112671765Y-41106766D01*
X112671762Y-41106767D01*
X112473836Y-41166807D01*
X112396707Y-41174404D01*
X112319580Y-41182000D01*
X112216420Y-41182000D01*
X112139293Y-41174404D01*
X112062164Y-41166807D01*
X111864238Y-41106767D01*
X111864235Y-41106766D01*
X111681830Y-41009268D01*
X111521945Y-40878055D01*
X111390732Y-40718170D01*
X111293234Y-40535765D01*
X111293233Y-40535762D01*
X111233193Y-40337836D01*
X111212920Y-40132000D01*
X111233193Y-39926164D01*
X111293233Y-39728238D01*
X111293234Y-39728235D01*
X111390732Y-39545830D01*
X111521945Y-39385945D01*
X111681830Y-39254732D01*
X111864235Y-39157234D01*
X111864238Y-39157233D01*
X112062164Y-39097193D01*
X112139293Y-39089597D01*
X112216420Y-39082000D01*
X112319580Y-39082000D01*
X112396707Y-39089597D01*
X112396707Y-39089597D01*
G37*
G36*
X91058000Y-40798000D02*
G01*
X89758000Y-40798000D01*
X89758000Y-39598000D01*
X91058000Y-39598000D01*
X91058000Y-40798000D01*
X91058000Y-40798000D01*
G37*
G36*
X139622390Y-36421783D02*
G01*
X139772118Y-36451565D01*
X139888960Y-36499963D01*
X140054199Y-36568407D01*
X140138439Y-36624694D01*
X140308068Y-36738036D01*
X140523964Y-36953932D01*
X140527350Y-36959000D01*
X140693593Y-37207801D01*
X140752391Y-37349753D01*
X140810435Y-37489882D01*
X140840217Y-37639610D01*
X140870000Y-37789337D01*
X140870000Y-38094663D01*
X140810435Y-38394117D01*
X140693593Y-38676199D01*
X140693592Y-38676200D01*
X140523964Y-38930068D01*
X140308068Y-39145964D01*
X140145284Y-39254732D01*
X140054199Y-39315593D01*
X139888960Y-39384037D01*
X139772118Y-39432435D01*
X139622390Y-39462217D01*
X139472663Y-39492000D01*
X139167337Y-39492000D01*
X139017610Y-39462218D01*
X138867882Y-39432435D01*
X138751040Y-39384037D01*
X138585801Y-39315593D01*
X138494716Y-39254732D01*
X138331932Y-39145964D01*
X138116036Y-38930068D01*
X137946408Y-38676200D01*
X137946407Y-38676199D01*
X137829565Y-38394117D01*
X137770000Y-38094663D01*
X137770000Y-37789337D01*
X137799782Y-37639610D01*
X137829565Y-37489882D01*
X137887609Y-37349753D01*
X137946407Y-37207801D01*
X138112650Y-36959000D01*
X138116036Y-36953932D01*
X138331932Y-36738036D01*
X138501561Y-36624694D01*
X138585801Y-36568407D01*
X138751040Y-36499963D01*
X138867882Y-36451565D01*
X139017610Y-36421783D01*
X139167337Y-36392000D01*
X139472663Y-36392000D01*
X139622390Y-36421783D01*
X139622390Y-36421783D01*
G37*
G36*
X129601529Y-37205710D02*
G01*
X129651378Y-37220831D01*
X129697310Y-37245382D01*
X129737574Y-37278426D01*
X129770618Y-37318690D01*
X129795169Y-37364622D01*
X129810290Y-37414471D01*
X129816000Y-37472444D01*
X129816000Y-38727556D01*
X129810290Y-38785529D01*
X129795169Y-38835378D01*
X129770618Y-38881310D01*
X129737574Y-38921574D01*
X129697310Y-38954618D01*
X129651378Y-38979169D01*
X129601529Y-38994290D01*
X129543556Y-39000000D01*
X128538444Y-39000000D01*
X128480471Y-38994290D01*
X128430622Y-38979169D01*
X128384690Y-38954618D01*
X128344426Y-38921574D01*
X128311382Y-38881310D01*
X128286831Y-38835378D01*
X128271710Y-38785529D01*
X128266000Y-38727556D01*
X128266000Y-37472444D01*
X128271710Y-37414471D01*
X128286831Y-37364622D01*
X128311382Y-37318690D01*
X128344426Y-37278426D01*
X128384690Y-37245382D01*
X128430622Y-37220831D01*
X128480471Y-37205710D01*
X128538444Y-37200000D01*
X129543556Y-37200000D01*
X129601529Y-37205710D01*
X129601529Y-37205710D01*
G37*
G36*
X127551529Y-37205710D02*
G01*
X127601378Y-37220831D01*
X127647310Y-37245382D01*
X127687574Y-37278426D01*
X127720618Y-37318690D01*
X127745169Y-37364622D01*
X127760290Y-37414471D01*
X127766000Y-37472444D01*
X127766000Y-38727556D01*
X127760290Y-38785529D01*
X127745169Y-38835378D01*
X127720618Y-38881310D01*
X127687574Y-38921574D01*
X127647310Y-38954618D01*
X127601378Y-38979169D01*
X127551529Y-38994290D01*
X127493556Y-39000000D01*
X126488444Y-39000000D01*
X126430471Y-38994290D01*
X126380622Y-38979169D01*
X126334690Y-38954618D01*
X126294426Y-38921574D01*
X126261382Y-38881310D01*
X126236831Y-38835378D01*
X126221710Y-38785529D01*
X126216000Y-38727556D01*
X126216000Y-37472444D01*
X126221710Y-37414471D01*
X126236831Y-37364622D01*
X126261382Y-37318690D01*
X126294426Y-37278426D01*
X126334690Y-37245382D01*
X126380622Y-37220831D01*
X126430471Y-37205710D01*
X126488444Y-37200000D01*
X127493556Y-37200000D01*
X127551529Y-37205710D01*
X127551529Y-37205710D01*
G37*
G36*
X78036384Y-36356496D02*
G01*
X78074377Y-36368021D01*
X78109390Y-36386736D01*
X78140079Y-36411921D01*
X78165264Y-36442610D01*
X78183979Y-36477623D01*
X78195504Y-36515616D01*
X78200000Y-36561264D01*
X78200000Y-38622736D01*
X78195504Y-38668384D01*
X78183979Y-38706377D01*
X78165264Y-38741390D01*
X78140079Y-38772079D01*
X78109390Y-38797264D01*
X78074377Y-38815979D01*
X78036384Y-38827504D01*
X77990736Y-38832000D01*
X74409264Y-38832000D01*
X74363616Y-38827504D01*
X74325623Y-38815979D01*
X74290610Y-38797264D01*
X74259921Y-38772079D01*
X74234736Y-38741390D01*
X74216021Y-38706377D01*
X74204496Y-38668384D01*
X74200000Y-38622736D01*
X74200000Y-36561264D01*
X74204496Y-36515616D01*
X74216021Y-36477623D01*
X74234736Y-36442610D01*
X74259921Y-36411921D01*
X74290610Y-36386736D01*
X74325623Y-36368021D01*
X74363616Y-36356496D01*
X74409264Y-36352000D01*
X77990736Y-36352000D01*
X78036384Y-36356496D01*
X78036384Y-36356496D01*
G37*
G36*
X91492000Y-36959000D02*
G01*
X89792000Y-36959000D01*
X89792000Y-35009000D01*
X91492000Y-35009000D01*
X91492000Y-36959000D01*
X91492000Y-36959000D01*
G37*
G36*
X99692000Y-36959000D02*
G01*
X97992000Y-36959000D01*
X97992000Y-35009000D01*
X99692000Y-35009000D01*
X99692000Y-36959000D01*
X99692000Y-36959000D01*
G37*
G36*
X104192000Y-36959000D02*
G01*
X102492000Y-36959000D01*
X102492000Y-35009000D01*
X104192000Y-35009000D01*
X104192000Y-36959000D01*
X104192000Y-36959000D01*
G37*
G36*
X86992000Y-36959000D02*
G01*
X85292000Y-36959000D01*
X85292000Y-35009000D01*
X86992000Y-35009000D01*
X86992000Y-36959000D01*
X86992000Y-36959000D01*
G37*
G36*
X83997529Y-35307710D02*
G01*
X84047378Y-35322831D01*
X84093310Y-35347382D01*
X84133574Y-35380426D01*
X84166618Y-35420690D01*
X84191169Y-35466622D01*
X84206290Y-35516471D01*
X84212000Y-35574444D01*
X84212000Y-36579556D01*
X84206290Y-36637529D01*
X84191169Y-36687378D01*
X84166618Y-36733310D01*
X84133574Y-36773574D01*
X84093310Y-36806618D01*
X84047378Y-36831169D01*
X83997529Y-36846290D01*
X83939556Y-36852000D01*
X82684444Y-36852000D01*
X82626471Y-36846290D01*
X82576622Y-36831169D01*
X82530690Y-36806618D01*
X82490426Y-36773574D01*
X82457382Y-36733310D01*
X82432831Y-36687378D01*
X82417710Y-36637529D01*
X82412000Y-36579556D01*
X82412000Y-35574444D01*
X82417710Y-35516471D01*
X82432831Y-35466622D01*
X82457382Y-35420690D01*
X82490426Y-35380426D01*
X82530690Y-35347382D01*
X82576622Y-35322831D01*
X82626471Y-35307710D01*
X82684444Y-35302000D01*
X83939556Y-35302000D01*
X83997529Y-35307710D01*
X83997529Y-35307710D01*
G37*
G36*
X96697529Y-35307710D02*
G01*
X96747378Y-35322831D01*
X96793310Y-35347382D01*
X96833574Y-35380426D01*
X96866618Y-35420690D01*
X96891169Y-35466622D01*
X96906290Y-35516471D01*
X96912000Y-35574444D01*
X96912000Y-36579556D01*
X96906290Y-36637529D01*
X96891169Y-36687378D01*
X96866618Y-36733310D01*
X96833574Y-36773574D01*
X96793310Y-36806618D01*
X96747378Y-36831169D01*
X96697529Y-36846290D01*
X96639556Y-36852000D01*
X95384444Y-36852000D01*
X95326471Y-36846290D01*
X95276622Y-36831169D01*
X95230690Y-36806618D01*
X95190426Y-36773574D01*
X95157382Y-36733310D01*
X95132831Y-36687378D01*
X95117710Y-36637529D01*
X95112000Y-36579556D01*
X95112000Y-35574444D01*
X95117710Y-35516471D01*
X95132831Y-35466622D01*
X95157382Y-35420690D01*
X95190426Y-35380426D01*
X95230690Y-35347382D01*
X95276622Y-35322831D01*
X95326471Y-35307710D01*
X95384444Y-35302000D01*
X96639556Y-35302000D01*
X96697529Y-35307710D01*
X96697529Y-35307710D01*
G37*
G36*
X83997529Y-33257710D02*
G01*
X84047378Y-33272831D01*
X84093310Y-33297382D01*
X84133574Y-33330426D01*
X84166618Y-33370690D01*
X84191169Y-33416622D01*
X84206290Y-33466471D01*
X84212000Y-33524444D01*
X84212000Y-34529556D01*
X84206290Y-34587529D01*
X84191169Y-34637378D01*
X84166618Y-34683310D01*
X84133574Y-34723574D01*
X84093310Y-34756618D01*
X84047378Y-34781169D01*
X83997529Y-34796290D01*
X83939556Y-34802000D01*
X82684444Y-34802000D01*
X82626471Y-34796290D01*
X82576622Y-34781169D01*
X82530690Y-34756618D01*
X82490426Y-34723574D01*
X82457382Y-34683310D01*
X82432831Y-34637378D01*
X82417710Y-34587529D01*
X82412000Y-34529556D01*
X82412000Y-33524444D01*
X82417710Y-33466471D01*
X82432831Y-33416622D01*
X82457382Y-33370690D01*
X82490426Y-33330426D01*
X82530690Y-33297382D01*
X82576622Y-33272831D01*
X82626471Y-33257710D01*
X82684444Y-33252000D01*
X83939556Y-33252000D01*
X83997529Y-33257710D01*
X83997529Y-33257710D01*
G37*
G36*
X96697529Y-33257710D02*
G01*
X96747378Y-33272831D01*
X96793310Y-33297382D01*
X96833574Y-33330426D01*
X96866618Y-33370690D01*
X96891169Y-33416622D01*
X96906290Y-33466471D01*
X96912000Y-33524444D01*
X96912000Y-34529556D01*
X96906290Y-34587529D01*
X96891169Y-34637378D01*
X96866618Y-34683310D01*
X96833574Y-34723574D01*
X96793310Y-34756618D01*
X96747378Y-34781169D01*
X96697529Y-34796290D01*
X96639556Y-34802000D01*
X95384444Y-34802000D01*
X95326471Y-34796290D01*
X95276622Y-34781169D01*
X95230690Y-34756618D01*
X95190426Y-34723574D01*
X95157382Y-34683310D01*
X95132831Y-34637378D01*
X95117710Y-34587529D01*
X95112000Y-34529556D01*
X95112000Y-33524444D01*
X95117710Y-33466471D01*
X95132831Y-33416622D01*
X95157382Y-33370690D01*
X95190426Y-33330426D01*
X95230690Y-33297382D01*
X95276622Y-33272831D01*
X95326471Y-33257710D01*
X95384444Y-33252000D01*
X96639556Y-33252000D01*
X96697529Y-33257710D01*
X96697529Y-33257710D01*
G37*
G36*
X129554353Y-32135355D02*
G01*
X129721782Y-32204706D01*
X129721783Y-32204707D01*
X129872466Y-32305390D01*
X130000610Y-32433534D01*
X130049030Y-32506000D01*
X130101294Y-32584218D01*
X130170645Y-32751647D01*
X130206000Y-32929387D01*
X130206000Y-33110613D01*
X130170645Y-33288353D01*
X130101294Y-33455782D01*
X130094152Y-33466471D01*
X130000610Y-33606466D01*
X129872466Y-33734610D01*
X129796612Y-33785294D01*
X129721782Y-33835294D01*
X129554353Y-33904645D01*
X129376613Y-33940000D01*
X129195387Y-33940000D01*
X129017647Y-33904645D01*
X128850218Y-33835294D01*
X128775388Y-33785294D01*
X128699534Y-33734610D01*
X128571390Y-33606466D01*
X128477848Y-33466471D01*
X128470706Y-33455782D01*
X128401355Y-33288353D01*
X128366000Y-33110613D01*
X128366000Y-32929387D01*
X128401355Y-32751647D01*
X128470706Y-32584218D01*
X128522970Y-32506000D01*
X128571390Y-32433534D01*
X128699534Y-32305390D01*
X128850217Y-32204707D01*
X128850218Y-32204706D01*
X129017647Y-32135355D01*
X129195387Y-32100000D01*
X129376613Y-32100000D01*
X129554353Y-32135355D01*
X129554353Y-32135355D01*
G37*
G36*
X138454707Y-30413596D02*
G01*
X138531836Y-30421193D01*
X138729762Y-30481233D01*
X138729765Y-30481234D01*
X138912170Y-30578732D01*
X139072055Y-30709945D01*
X139203268Y-30869830D01*
X139300766Y-31052235D01*
X139300767Y-31052238D01*
X139360807Y-31250164D01*
X139381080Y-31456000D01*
X139360807Y-31661836D01*
X139300767Y-31859762D01*
X139300766Y-31859765D01*
X139203268Y-32042170D01*
X139072055Y-32202055D01*
X138912170Y-32333268D01*
X138729765Y-32430766D01*
X138729762Y-32430767D01*
X138531836Y-32490807D01*
X138454707Y-32498403D01*
X138377580Y-32506000D01*
X137974420Y-32506000D01*
X137897293Y-32498403D01*
X137820164Y-32490807D01*
X137622238Y-32430767D01*
X137622235Y-32430766D01*
X137439830Y-32333268D01*
X137279945Y-32202055D01*
X137148732Y-32042170D01*
X137051234Y-31859765D01*
X137051233Y-31859762D01*
X136991193Y-31661836D01*
X136970920Y-31456000D01*
X136991193Y-31250164D01*
X137051233Y-31052238D01*
X137051234Y-31052235D01*
X137148732Y-30869830D01*
X137279945Y-30709945D01*
X137439830Y-30578732D01*
X137622235Y-30481234D01*
X137622238Y-30481233D01*
X137820164Y-30421193D01*
X137897293Y-30413596D01*
X137974420Y-30406000D01*
X138377580Y-30406000D01*
X138454707Y-30413596D01*
X138454707Y-30413596D01*
G37*
G36*
X146459307Y-25621330D02*
G01*
X146787743Y-25686660D01*
X147406504Y-25942959D01*
X147963374Y-26315048D01*
X148436952Y-26788626D01*
X148792421Y-27320622D01*
X148809042Y-27345498D01*
X148812371Y-27353536D01*
X149065340Y-27964257D01*
X149196000Y-28621129D01*
X149196000Y-29290871D01*
X149065340Y-29947743D01*
X148809041Y-30566504D01*
X148686750Y-30749525D01*
X148436953Y-31123373D01*
X147963373Y-31596953D01*
X147686828Y-31781734D01*
X147406504Y-31969041D01*
X146787743Y-32225340D01*
X146459307Y-32290670D01*
X146130872Y-32356000D01*
X145461128Y-32356000D01*
X145132693Y-32290670D01*
X144804257Y-32225340D01*
X144185496Y-31969041D01*
X143905172Y-31781734D01*
X143628627Y-31596953D01*
X143155047Y-31123373D01*
X142905250Y-30749525D01*
X142782959Y-30566504D01*
X142526660Y-29947743D01*
X142396000Y-29290871D01*
X142396000Y-28621129D01*
X142526660Y-27964257D01*
X142779629Y-27353536D01*
X142782958Y-27345498D01*
X142799580Y-27320622D01*
X143155048Y-26788626D01*
X143628626Y-26315048D01*
X144185496Y-25942959D01*
X144804257Y-25686660D01*
X145132693Y-25621330D01*
X145461128Y-25556000D01*
X146130872Y-25556000D01*
X146459307Y-25621330D01*
X146459307Y-25621330D01*
G37*
G36*
X70259307Y-25621330D02*
G01*
X70587743Y-25686660D01*
X71206504Y-25942959D01*
X71763374Y-26315048D01*
X72236952Y-26788626D01*
X72592421Y-27320622D01*
X72609042Y-27345498D01*
X72612371Y-27353536D01*
X72865340Y-27964257D01*
X72996000Y-28621129D01*
X72996000Y-29290871D01*
X72865340Y-29947743D01*
X72609041Y-30566504D01*
X72486750Y-30749525D01*
X72236953Y-31123373D01*
X71763373Y-31596953D01*
X71486828Y-31781734D01*
X71206504Y-31969041D01*
X70587743Y-32225340D01*
X70259307Y-32290670D01*
X69930872Y-32356000D01*
X69261128Y-32356000D01*
X68932693Y-32290670D01*
X68604257Y-32225340D01*
X67985496Y-31969041D01*
X67705172Y-31781734D01*
X67428627Y-31596953D01*
X66955047Y-31123373D01*
X66705250Y-30749525D01*
X66582959Y-30566504D01*
X66326660Y-29947743D01*
X66196000Y-29290871D01*
X66196000Y-28621129D01*
X66326660Y-27964257D01*
X66579629Y-27353536D01*
X66582958Y-27345498D01*
X66599580Y-27320622D01*
X66955048Y-26788626D01*
X67428626Y-26315048D01*
X67985496Y-25942959D01*
X68604257Y-25686660D01*
X68932693Y-25621330D01*
X69261128Y-25556000D01*
X69930872Y-25556000D01*
X70259307Y-25621330D01*
X70259307Y-25621330D01*
G37*
G36*
X129554353Y-29595355D02*
G01*
X129721782Y-29664706D01*
X129721783Y-29664707D01*
X129872466Y-29765390D01*
X130000610Y-29893534D01*
X130036831Y-29947743D01*
X130101294Y-30044218D01*
X130170645Y-30211647D01*
X130206000Y-30389387D01*
X130206000Y-30570613D01*
X130170645Y-30748353D01*
X130101294Y-30915782D01*
X130101293Y-30915783D01*
X130000610Y-31066466D01*
X129872466Y-31194610D01*
X129796612Y-31245294D01*
X129721782Y-31295294D01*
X129554353Y-31364645D01*
X129376613Y-31400000D01*
X129195387Y-31400000D01*
X129017647Y-31364645D01*
X128850218Y-31295294D01*
X128775388Y-31245294D01*
X128699534Y-31194610D01*
X128571390Y-31066466D01*
X128470707Y-30915783D01*
X128470706Y-30915782D01*
X128401355Y-30748353D01*
X128366000Y-30570613D01*
X128366000Y-30389387D01*
X128401355Y-30211647D01*
X128470706Y-30044218D01*
X128535169Y-29947743D01*
X128571390Y-29893534D01*
X128699534Y-29765390D01*
X128850217Y-29664707D01*
X128850218Y-29664706D01*
X129017647Y-29595355D01*
X129195387Y-29560000D01*
X129376613Y-29560000D01*
X129554353Y-29595355D01*
X129554353Y-29595355D01*
G37*
G36*
X83997529Y-29211710D02*
G01*
X84047378Y-29226831D01*
X84093310Y-29251382D01*
X84133574Y-29284426D01*
X84166618Y-29324690D01*
X84191169Y-29370622D01*
X84206290Y-29420471D01*
X84212000Y-29478444D01*
X84212000Y-30483556D01*
X84206290Y-30541529D01*
X84191169Y-30591378D01*
X84166618Y-30637310D01*
X84133574Y-30677574D01*
X84093310Y-30710618D01*
X84047378Y-30735169D01*
X83997529Y-30750290D01*
X83939556Y-30756000D01*
X82684444Y-30756000D01*
X82626471Y-30750290D01*
X82576622Y-30735169D01*
X82530690Y-30710618D01*
X82490426Y-30677574D01*
X82457382Y-30637310D01*
X82432831Y-30591378D01*
X82417710Y-30541529D01*
X82412000Y-30483556D01*
X82412000Y-29478444D01*
X82417710Y-29420471D01*
X82432831Y-29370622D01*
X82457382Y-29324690D01*
X82490426Y-29284426D01*
X82530690Y-29251382D01*
X82576622Y-29226831D01*
X82626471Y-29211710D01*
X82684444Y-29206000D01*
X83939556Y-29206000D01*
X83997529Y-29211710D01*
X83997529Y-29211710D01*
G37*
G36*
X96697529Y-29211710D02*
G01*
X96747378Y-29226831D01*
X96793310Y-29251382D01*
X96833574Y-29284426D01*
X96866618Y-29324690D01*
X96891169Y-29370622D01*
X96906290Y-29420471D01*
X96912000Y-29478444D01*
X96912000Y-30483556D01*
X96906290Y-30541529D01*
X96891169Y-30591378D01*
X96866618Y-30637310D01*
X96833574Y-30677574D01*
X96793310Y-30710618D01*
X96747378Y-30735169D01*
X96697529Y-30750290D01*
X96639556Y-30756000D01*
X95384444Y-30756000D01*
X95326471Y-30750290D01*
X95276622Y-30735169D01*
X95230690Y-30710618D01*
X95190426Y-30677574D01*
X95157382Y-30637310D01*
X95132831Y-30591378D01*
X95117710Y-30541529D01*
X95112000Y-30483556D01*
X95112000Y-29478444D01*
X95117710Y-29420471D01*
X95132831Y-29370622D01*
X95157382Y-29324690D01*
X95190426Y-29284426D01*
X95230690Y-29251382D01*
X95276622Y-29226831D01*
X95326471Y-29211710D01*
X95384444Y-29206000D01*
X96639556Y-29206000D01*
X96697529Y-29211710D01*
X96697529Y-29211710D01*
G37*
G36*
X139198326Y-27910831D02*
G01*
X139239596Y-27923350D01*
X139277631Y-27943681D01*
X139310964Y-27971036D01*
X139338319Y-28004369D01*
X139358650Y-28042404D01*
X139371169Y-28083674D01*
X139376000Y-28132727D01*
X139376000Y-29779273D01*
X139371169Y-29828326D01*
X139358650Y-29869596D01*
X139338319Y-29907631D01*
X139310964Y-29940964D01*
X139277631Y-29968319D01*
X139239596Y-29988650D01*
X139198326Y-30001169D01*
X139149273Y-30006000D01*
X137202727Y-30006000D01*
X137153674Y-30001169D01*
X137112404Y-29988650D01*
X137074369Y-29968319D01*
X137041036Y-29940964D01*
X137013681Y-29907631D01*
X136993350Y-29869596D01*
X136980831Y-29828326D01*
X136976000Y-29779273D01*
X136976000Y-28132727D01*
X136980831Y-28083674D01*
X136993350Y-28042404D01*
X137013681Y-28004369D01*
X137041036Y-27971036D01*
X137074369Y-27943681D01*
X137112404Y-27923350D01*
X137153674Y-27910831D01*
X137202727Y-27906000D01*
X139149273Y-27906000D01*
X139198326Y-27910831D01*
X139198326Y-27910831D01*
G37*
G36*
X104192000Y-28999000D02*
G01*
X102492000Y-28999000D01*
X102492000Y-27049000D01*
X104192000Y-27049000D01*
X104192000Y-28999000D01*
X104192000Y-28999000D01*
G37*
G36*
X99692000Y-28999000D02*
G01*
X97992000Y-28999000D01*
X97992000Y-27049000D01*
X99692000Y-27049000D01*
X99692000Y-28999000D01*
X99692000Y-28999000D01*
G37*
G36*
X86992000Y-28999000D02*
G01*
X85292000Y-28999000D01*
X85292000Y-27049000D01*
X86992000Y-27049000D01*
X86992000Y-28999000D01*
X86992000Y-28999000D01*
G37*
G36*
X91492000Y-28999000D02*
G01*
X89792000Y-28999000D01*
X89792000Y-27049000D01*
X91492000Y-27049000D01*
X91492000Y-28999000D01*
X91492000Y-28999000D01*
G37*
G36*
X129554353Y-27055355D02*
G01*
X129721782Y-27124706D01*
X129777162Y-27161710D01*
X129872466Y-27225390D01*
X130000610Y-27353534D01*
X130000611Y-27353536D01*
X130101294Y-27504218D01*
X130170645Y-27671647D01*
X130206000Y-27849387D01*
X130206000Y-28030613D01*
X130170645Y-28208353D01*
X130101294Y-28375782D01*
X130101293Y-28375783D01*
X130000610Y-28526466D01*
X129872466Y-28654610D01*
X129863474Y-28660618D01*
X129721782Y-28755294D01*
X129554353Y-28824645D01*
X129376613Y-28860000D01*
X129195387Y-28860000D01*
X129017647Y-28824645D01*
X128850218Y-28755294D01*
X128708526Y-28660618D01*
X128699534Y-28654610D01*
X128571390Y-28526466D01*
X128470707Y-28375783D01*
X128470706Y-28375782D01*
X128401355Y-28208353D01*
X128366000Y-28030613D01*
X128366000Y-27849387D01*
X128401355Y-27671647D01*
X128470706Y-27504218D01*
X128571389Y-27353536D01*
X128571390Y-27353534D01*
X128699534Y-27225390D01*
X128794838Y-27161710D01*
X128850218Y-27124706D01*
X129017647Y-27055355D01*
X129195387Y-27020000D01*
X129376613Y-27020000D01*
X129554353Y-27055355D01*
X129554353Y-27055355D01*
G37*
G36*
X83997529Y-27161710D02*
G01*
X84047378Y-27176831D01*
X84093310Y-27201382D01*
X84133574Y-27234426D01*
X84166618Y-27274690D01*
X84191169Y-27320622D01*
X84206290Y-27370471D01*
X84212000Y-27428444D01*
X84212000Y-28433556D01*
X84206290Y-28491529D01*
X84191169Y-28541378D01*
X84166618Y-28587310D01*
X84133574Y-28627574D01*
X84093310Y-28660618D01*
X84047378Y-28685169D01*
X83997529Y-28700290D01*
X83939556Y-28706000D01*
X82684444Y-28706000D01*
X82626471Y-28700290D01*
X82576622Y-28685169D01*
X82530690Y-28660618D01*
X82490426Y-28627574D01*
X82457382Y-28587310D01*
X82432831Y-28541378D01*
X82417710Y-28491529D01*
X82412000Y-28433556D01*
X82412000Y-27428444D01*
X82417710Y-27370471D01*
X82432831Y-27320622D01*
X82457382Y-27274690D01*
X82490426Y-27234426D01*
X82530690Y-27201382D01*
X82576622Y-27176831D01*
X82626471Y-27161710D01*
X82684444Y-27156000D01*
X83939556Y-27156000D01*
X83997529Y-27161710D01*
X83997529Y-27161710D01*
G37*
G36*
X96697529Y-27161710D02*
G01*
X96747378Y-27176831D01*
X96793310Y-27201382D01*
X96833574Y-27234426D01*
X96866618Y-27274690D01*
X96891169Y-27320622D01*
X96906290Y-27370471D01*
X96912000Y-27428444D01*
X96912000Y-28433556D01*
X96906290Y-28491529D01*
X96891169Y-28541378D01*
X96866618Y-28587310D01*
X96833574Y-28627574D01*
X96793310Y-28660618D01*
X96747378Y-28685169D01*
X96697529Y-28700290D01*
X96639556Y-28706000D01*
X95384444Y-28706000D01*
X95326471Y-28700290D01*
X95276622Y-28685169D01*
X95230690Y-28660618D01*
X95190426Y-28627574D01*
X95157382Y-28587310D01*
X95132831Y-28541378D01*
X95117710Y-28491529D01*
X95112000Y-28433556D01*
X95112000Y-27428444D01*
X95117710Y-27370471D01*
X95132831Y-27320622D01*
X95157382Y-27274690D01*
X95190426Y-27234426D01*
X95230690Y-27201382D01*
X95276622Y-27176831D01*
X95326471Y-27161710D01*
X95384444Y-27156000D01*
X96639556Y-27156000D01*
X96697529Y-27161710D01*
X96697529Y-27161710D01*
G37*
M02*
