G04 #@! TF.GenerationSoftware,KiCad,Pcbnew,5.1.4*
G04 #@! TF.CreationDate,2019-10-27T19:08:13+08:00*
G04 #@! TF.ProjectId,LaserScanningProjector,4c617365-7253-4636-916e-6e696e675072,rev?*
G04 #@! TF.SameCoordinates,Original*
G04 #@! TF.FileFunction,Legend,Bot*
G04 #@! TF.FilePolarity,Positive*
%FSLAX46Y46*%
G04 Gerber Fmt 4.6, Leading zero omitted, Abs format (unit mm)*
G04 Created by KiCad (PCBNEW 5.1.4) date 2019-10-27 19:08:13*
%MOMM*%
%LPD*%
G04 APERTURE LIST*
%ADD10C,0.080000*%
%ADD11C,0.150000*%
G04 APERTURE END LIST*
D10*
X96042027Y-83883577D02*
X96301570Y-83624065D01*
X95782376Y-83624065D02*
X96042027Y-83883577D01*
X95878347Y-83624555D02*
X95782376Y-83624065D01*
X98215959Y-82786181D02*
X98166019Y-82816627D01*
X98166019Y-82816627D02*
X98118149Y-82849060D01*
X98118149Y-82849060D02*
X98066010Y-82888394D01*
X98066010Y-82888394D02*
X98021194Y-82925945D01*
X98021194Y-82925945D02*
X97979290Y-82964599D01*
X97979290Y-82964599D02*
X97939377Y-83005055D01*
X97939377Y-83005055D02*
X97901498Y-83047228D01*
X97901498Y-83047228D02*
X97865514Y-83091281D01*
X97865514Y-83091281D02*
X97831243Y-83137529D01*
X97831243Y-83137529D02*
X97798247Y-83186861D01*
X97798247Y-83186861D02*
X97767641Y-83237856D01*
X97767641Y-83237856D02*
X97739291Y-83290839D01*
X97739291Y-83290839D02*
X97712590Y-83347441D01*
X97712590Y-83347441D02*
X97688600Y-83405997D01*
X97688600Y-83405997D02*
X97667660Y-83465838D01*
X97667660Y-83465838D02*
X97649132Y-83529545D01*
X97649132Y-83529545D02*
X97633953Y-83595005D01*
X97633953Y-83595005D02*
X97622074Y-83663659D01*
X97622074Y-83663659D02*
X97613721Y-83738272D01*
X97613721Y-83738272D02*
X97609948Y-83816331D01*
X97609948Y-83816331D02*
X97609791Y-83835976D01*
X99428294Y-82786181D02*
X99376108Y-82757730D01*
X99376108Y-82757730D02*
X99321214Y-82731244D01*
X99321214Y-82731244D02*
X99264785Y-82707444D01*
X99264785Y-82707444D02*
X99205733Y-82686028D01*
X99205733Y-82686028D02*
X99141423Y-82666542D01*
X99141423Y-82666542D02*
X99076361Y-82650704D01*
X99076361Y-82650704D02*
X99008726Y-82638202D01*
X99008726Y-82638202D02*
X98936049Y-82629131D01*
X98936049Y-82629131D02*
X98860750Y-82624388D01*
X98860750Y-82624388D02*
X98774302Y-82624715D01*
X98774302Y-82624715D02*
X98699031Y-82630030D01*
X98699031Y-82630030D02*
X98627165Y-82639533D01*
X98627165Y-82639533D02*
X98559450Y-82652543D01*
X98559450Y-82652543D02*
X98494775Y-82668767D01*
X98494775Y-82668767D02*
X98433216Y-82687807D01*
X98433216Y-82687807D02*
X98372502Y-82710197D01*
X98372502Y-82710197D02*
X98316188Y-82734361D01*
X98316188Y-82734361D02*
X98261977Y-82760917D01*
X98261977Y-82760917D02*
X98215959Y-82786181D01*
X96001930Y-86122454D02*
X95943974Y-86137681D01*
X96115431Y-86093151D02*
X96048890Y-86110487D01*
X96048890Y-86110487D02*
X96001930Y-86122454D01*
X95584515Y-83393088D02*
X95659386Y-83398544D01*
X95659386Y-83398544D02*
X95723562Y-83415026D01*
X95723562Y-83415026D02*
X95776998Y-83442640D01*
X95776998Y-83442640D02*
X95819030Y-83480728D01*
X95819030Y-83480728D02*
X95850471Y-83529454D01*
X95850471Y-83529454D02*
X95871684Y-83589783D01*
X95871684Y-83589783D02*
X95878347Y-83624555D01*
X95283999Y-83816917D02*
X95286945Y-83739847D01*
X95286945Y-83739847D02*
X95296037Y-83668605D01*
X95296037Y-83668605D02*
X95311871Y-83603138D01*
X95311871Y-83603138D02*
X95334506Y-83545588D01*
X95334506Y-83545588D02*
X95364732Y-83495622D01*
X95364732Y-83495622D02*
X95403663Y-83453811D01*
X95403663Y-83453811D02*
X95452034Y-83421737D01*
X95452034Y-83421737D02*
X95511793Y-83400698D01*
X95511793Y-83400698D02*
X95584515Y-83393088D01*
X95590979Y-84253896D02*
X95519693Y-84244741D01*
X95519693Y-84244741D02*
X95462338Y-84221562D01*
X95462338Y-84221562D02*
X95415429Y-84188281D01*
X95415429Y-84188281D02*
X95376626Y-84146567D01*
X95376626Y-84146567D02*
X95345191Y-84097871D01*
X95345191Y-84097871D02*
X95320126Y-84041985D01*
X95320126Y-84041985D02*
X95301704Y-83980328D01*
X95301704Y-83980328D02*
X95289643Y-83912240D01*
X95289643Y-83912240D02*
X95284213Y-83836098D01*
X95284213Y-83836098D02*
X95283999Y-83816917D01*
X95878347Y-84015907D02*
X95867636Y-84085452D01*
X95867636Y-84085452D02*
X95844380Y-84142226D01*
X95844380Y-84142226D02*
X95808892Y-84186939D01*
X95808892Y-84186939D02*
X95761626Y-84219898D01*
X95761626Y-84219898D02*
X95701570Y-84241910D01*
X95701570Y-84241910D02*
X95629674Y-84252645D01*
X95629674Y-84252645D02*
X95590979Y-84253896D01*
X95614751Y-82735980D02*
X95614751Y-82735980D01*
X98640399Y-83147047D02*
X98640399Y-83147047D01*
X97894531Y-82879975D02*
X97935852Y-82840284D01*
X97935852Y-82840284D02*
X97980496Y-82800806D01*
X97980496Y-82800806D02*
X98025037Y-82764691D01*
X98025037Y-82764691D02*
X98071433Y-82730314D01*
X98071433Y-82730314D02*
X98119323Y-82698064D01*
X98119323Y-82698064D02*
X98170014Y-82667265D01*
X98170014Y-82667265D02*
X98222313Y-82638849D01*
X98222313Y-82638849D02*
X98276697Y-82612682D01*
X98276697Y-82612682D02*
X98334597Y-82588360D01*
X98334597Y-82588360D02*
X98395231Y-82566536D01*
X98395231Y-82566536D02*
X98458218Y-82547559D01*
X98458218Y-82547559D02*
X98522641Y-82531783D01*
X98522641Y-82531783D02*
X98591008Y-82518800D01*
X98591008Y-82518800D02*
X98664506Y-82508869D01*
X98664506Y-82508869D02*
X98738925Y-82502787D01*
X98738925Y-82502787D02*
X98817701Y-82500418D01*
X98817701Y-82500418D02*
X98825222Y-82500402D01*
X97514476Y-83809247D02*
X97516429Y-83731193D01*
X97516429Y-83731193D02*
X97522302Y-83654899D01*
X97522302Y-83654899D02*
X97531535Y-83583871D01*
X97531535Y-83583871D02*
X97544216Y-83514924D01*
X97544216Y-83514924D02*
X97560142Y-83448505D01*
X97560142Y-83448505D02*
X97578701Y-83385953D01*
X97578701Y-83385953D02*
X97599716Y-83326648D01*
X97599716Y-83326648D02*
X97623203Y-83269792D01*
X97623203Y-83269792D02*
X97649544Y-83214218D01*
X97649544Y-83214218D02*
X97677646Y-83161845D01*
X97677646Y-83161845D02*
X97707870Y-83111497D01*
X97707870Y-83111497D02*
X97740089Y-83063118D01*
X97740089Y-83063118D02*
X97774483Y-83016249D01*
X97774483Y-83016249D02*
X97811317Y-82970473D01*
X97811317Y-82970473D02*
X97850242Y-82926170D01*
X97850242Y-82926170D02*
X97889349Y-82885170D01*
X97889349Y-82885170D02*
X97894531Y-82879975D01*
X97888067Y-84728769D02*
X97848655Y-84688168D01*
X97848655Y-84688168D02*
X97809977Y-84644799D01*
X97809977Y-84644799D02*
X97773985Y-84600673D01*
X97773985Y-84600673D02*
X97739622Y-84554421D01*
X97739622Y-84554421D02*
X97706914Y-84505759D01*
X97706914Y-84505759D02*
X97676531Y-84455437D01*
X97676531Y-84455437D02*
X97647449Y-84401267D01*
X97647449Y-84401267D02*
X97621047Y-84345268D01*
X97621047Y-84345268D02*
X97596879Y-84286046D01*
X97596879Y-84286046D02*
X97575222Y-84223461D01*
X97575222Y-84223461D02*
X97556985Y-84159766D01*
X97556985Y-84159766D02*
X97541798Y-84093528D01*
X97541798Y-84093528D02*
X97529732Y-84024174D01*
X97529732Y-84024174D02*
X97521011Y-83951598D01*
X97521011Y-83951598D02*
X97515888Y-83876216D01*
X97515888Y-83876216D02*
X97514476Y-83809247D01*
X98825222Y-85118202D02*
X98746791Y-85116111D01*
X98746791Y-85116111D02*
X98670924Y-85109956D01*
X98670924Y-85109956D02*
X98600045Y-85100309D01*
X98600045Y-85100309D02*
X98530898Y-85087053D01*
X98530898Y-85087053D02*
X98465737Y-85070877D01*
X98465737Y-85070877D02*
X98403583Y-85051917D01*
X98403583Y-85051917D02*
X98344227Y-85030404D01*
X98344227Y-85030404D02*
X98287345Y-85006486D01*
X98287345Y-85006486D02*
X98233084Y-84980480D01*
X98233084Y-84980480D02*
X98180049Y-84951875D01*
X98180049Y-84951875D02*
X98129726Y-84921661D01*
X98129726Y-84921661D02*
X98081388Y-84889651D01*
X98081388Y-84889651D02*
X98034357Y-84855540D01*
X98034357Y-84855540D02*
X97988610Y-84819390D01*
X97988610Y-84819390D02*
X97944916Y-84781967D01*
X97944916Y-84781967D02*
X97902627Y-84742899D01*
X97902627Y-84742899D02*
X97888067Y-84728769D01*
X98821933Y-84879284D02*
X98900271Y-84876691D01*
X98900271Y-84876691D02*
X98973777Y-84869311D01*
X98973777Y-84869311D02*
X99042670Y-84857706D01*
X99042670Y-84857706D02*
X99108705Y-84841995D01*
X99108705Y-84841995D02*
X99170078Y-84823060D01*
X99170078Y-84823060D02*
X99228491Y-84800871D01*
X99228491Y-84800871D02*
X99284049Y-84775703D01*
X99284049Y-84775703D02*
X99336863Y-84747839D01*
X99336863Y-84747839D02*
X99386857Y-84717653D01*
X99386857Y-84717653D02*
X99434992Y-84684838D01*
X99434992Y-84684838D02*
X99481145Y-84649649D01*
X99481145Y-84649649D02*
X99525219Y-84612388D01*
X99525219Y-84612388D02*
X99567131Y-84573393D01*
X99567131Y-84573393D02*
X99578811Y-84561877D01*
X98058428Y-84558645D02*
X98099747Y-84597766D01*
X98099747Y-84597766D02*
X98142972Y-84635165D01*
X98142972Y-84635165D02*
X98188503Y-84670909D01*
X98188503Y-84670909D02*
X98235738Y-84704289D01*
X98235738Y-84704289D02*
X98285784Y-84735805D01*
X98285784Y-84735805D02*
X98338757Y-84765131D01*
X98338757Y-84765131D02*
X98394131Y-84791639D01*
X98394131Y-84791639D02*
X98452461Y-84815282D01*
X98452461Y-84815282D02*
X98512795Y-84835419D01*
X98512795Y-84835419D02*
X98576467Y-84852218D01*
X98576467Y-84852218D02*
X98644217Y-84865408D01*
X98644217Y-84865408D02*
X98716436Y-84874504D01*
X98716436Y-84874504D02*
X98793748Y-84878949D01*
X98793748Y-84878949D02*
X98821933Y-84879284D01*
X97750353Y-83809248D02*
X97752756Y-83887858D01*
X97752756Y-83887858D02*
X97759761Y-83962416D01*
X97759761Y-83962416D02*
X97770978Y-84032671D01*
X97770978Y-84032671D02*
X97786024Y-84098807D01*
X97786024Y-84098807D02*
X97804915Y-84162147D01*
X97804915Y-84162147D02*
X97826606Y-84220564D01*
X97826606Y-84220564D02*
X97851571Y-84276460D01*
X97851571Y-84276460D02*
X97879481Y-84329562D01*
X97879481Y-84329562D02*
X97910135Y-84379972D01*
X97910135Y-84379972D02*
X97944529Y-84429395D01*
X97944529Y-84429395D02*
X97980516Y-84475045D01*
X97980516Y-84475045D02*
X98018580Y-84518117D01*
X98018580Y-84518117D02*
X98058428Y-84558645D01*
X98065003Y-83050099D02*
X98025166Y-83091357D01*
X98025166Y-83091357D02*
X97984566Y-83137975D01*
X97984566Y-83137975D02*
X97948918Y-83183695D01*
X97948918Y-83183695D02*
X97915765Y-83231380D01*
X97915765Y-83231380D02*
X97884633Y-83282138D01*
X97884633Y-83282138D02*
X97856566Y-83334674D01*
X97856566Y-83334674D02*
X97830658Y-83391324D01*
X97830658Y-83391324D02*
X97807838Y-83451077D01*
X97807838Y-83451077D02*
X97788157Y-83514936D01*
X97788157Y-83514936D02*
X97772788Y-83579585D01*
X97772788Y-83579585D02*
X97761035Y-83648653D01*
X97761035Y-83648653D02*
X97753410Y-83722153D01*
X97753410Y-83722153D02*
X97750388Y-83799411D01*
X97750388Y-83799411D02*
X97750353Y-83809248D01*
X98821935Y-82735924D02*
X98744203Y-82738375D01*
X98744203Y-82738375D02*
X98670637Y-82745466D01*
X98670637Y-82745466D02*
X98600662Y-82756882D01*
X98600662Y-82756882D02*
X98535314Y-82771998D01*
X98535314Y-82771998D02*
X98473614Y-82790550D01*
X98473614Y-82790550D02*
X98415040Y-82812332D01*
X98415040Y-82812332D02*
X98359463Y-82837060D01*
X98359463Y-82837060D02*
X98305370Y-82865252D01*
X98305370Y-82865252D02*
X98254123Y-82896027D01*
X98254123Y-82896027D02*
X98205609Y-82929119D01*
X98205609Y-82929119D02*
X98159312Y-82964596D01*
X98159312Y-82964596D02*
X98116023Y-83001510D01*
X98116023Y-83001510D02*
X98074148Y-83040959D01*
X98074148Y-83040959D02*
X98065003Y-83050099D01*
X99745997Y-84732111D02*
X99704993Y-84771573D01*
X99704993Y-84771573D02*
X99662002Y-84809923D01*
X99662002Y-84809923D02*
X99617847Y-84846262D01*
X99617847Y-84846262D02*
X99572214Y-84880770D01*
X99572214Y-84880770D02*
X99524120Y-84913964D01*
X99524120Y-84913964D02*
X99473800Y-84945419D01*
X99473800Y-84945419D02*
X99422259Y-84974360D01*
X99422259Y-84974360D02*
X99367935Y-85001482D01*
X99367935Y-85001482D02*
X99310726Y-85026509D01*
X99310726Y-85026509D02*
X99252364Y-85048519D01*
X99252364Y-85048519D02*
X99190975Y-85068059D01*
X99190975Y-85068059D02*
X99126444Y-85084835D01*
X99126444Y-85084835D02*
X99059884Y-85098335D01*
X99059884Y-85098335D02*
X98987507Y-85108890D01*
X98987507Y-85108890D02*
X98912858Y-85115538D01*
X98912858Y-85115538D02*
X98834595Y-85118171D01*
X98834595Y-85118171D02*
X98825222Y-85118202D01*
X100132625Y-83809248D02*
X100130520Y-83887552D01*
X100130520Y-83887552D02*
X100124436Y-83962221D01*
X100124436Y-83962221D02*
X100114698Y-84033371D01*
X100114698Y-84033371D02*
X100101405Y-84102092D01*
X100101405Y-84102092D02*
X100085243Y-84166553D01*
X100085243Y-84166553D02*
X100066033Y-84228783D01*
X100066033Y-84228783D02*
X100044467Y-84287478D01*
X100044467Y-84287478D02*
X100020083Y-84344551D01*
X100020083Y-84344551D02*
X99993178Y-84399596D01*
X99993178Y-84399596D02*
X99964641Y-84451383D01*
X99964641Y-84451383D02*
X99933717Y-84501718D01*
X99933717Y-84501718D02*
X99901061Y-84549804D01*
X99901061Y-84549804D02*
X99866863Y-84595719D01*
X99866863Y-84595719D02*
X99830643Y-84640322D01*
X99830643Y-84640322D02*
X99792465Y-84683637D01*
X99792465Y-84683637D02*
X99752762Y-84725308D01*
X99752762Y-84725308D02*
X99745997Y-84732111D01*
X99745997Y-82879976D02*
X99784986Y-82920995D01*
X99784986Y-82920995D02*
X99823931Y-82965180D01*
X99823931Y-82965180D02*
X99860564Y-83010228D01*
X99860564Y-83010228D02*
X99894884Y-83056140D01*
X99894884Y-83056140D02*
X99928058Y-83104705D01*
X99928058Y-83104705D02*
X99958866Y-83154415D01*
X99958866Y-83154415D02*
X99987683Y-83206049D01*
X99987683Y-83206049D02*
X100014618Y-83260216D01*
X100014618Y-83260216D02*
X100040087Y-83318601D01*
X100040087Y-83318601D02*
X100062862Y-83379297D01*
X100062862Y-83379297D02*
X100082221Y-83440479D01*
X100082221Y-83440479D02*
X100098777Y-83504279D01*
X100098777Y-83504279D02*
X100112651Y-83572743D01*
X100112651Y-83572743D02*
X100122977Y-83643313D01*
X100122977Y-83643313D02*
X100129717Y-83717310D01*
X100129717Y-83717310D02*
X100132563Y-83795905D01*
X100132563Y-83795905D02*
X100132625Y-83809248D01*
X98825222Y-82500402D02*
X98905280Y-82502502D01*
X98905280Y-82502502D02*
X98979943Y-82508431D01*
X98979943Y-82508431D02*
X99052182Y-82518071D01*
X99052182Y-82518071D02*
X99121076Y-82531094D01*
X99121076Y-82531094D02*
X99185558Y-82546907D01*
X99185558Y-82546907D02*
X99247442Y-82565612D01*
X99247442Y-82565612D02*
X99306580Y-82586938D01*
X99306580Y-82586938D02*
X99364060Y-82611124D01*
X99364060Y-82611124D02*
X99418283Y-82637287D01*
X99418283Y-82637287D02*
X99471391Y-82666282D01*
X99471391Y-82666282D02*
X99521620Y-82696996D01*
X99521620Y-82696996D02*
X99570700Y-82730314D01*
X99570700Y-82730314D02*
X99617051Y-82765002D01*
X99617051Y-82765002D02*
X99662333Y-82802128D01*
X99662333Y-82802128D02*
X99705032Y-82840285D01*
X99705032Y-82840285D02*
X99745997Y-82879976D01*
X98471243Y-83485213D02*
X98471242Y-83485213D01*
X102077546Y-84328000D02*
X102079555Y-84408424D01*
X102079555Y-84408424D02*
X102085262Y-84484142D01*
X102085262Y-84484142D02*
X102094134Y-84555806D01*
X102094134Y-84555806D02*
X102106487Y-84627594D01*
X102106487Y-84627594D02*
X102121265Y-84694733D01*
X102121265Y-84694733D02*
X102138105Y-84757897D01*
X102138105Y-84757897D02*
X102157716Y-84820525D01*
X102157716Y-84820525D02*
X102179259Y-84880327D01*
X102179259Y-84880327D02*
X102202943Y-84938419D01*
X102202943Y-84938419D02*
X102228392Y-84994251D01*
X102228392Y-84994251D02*
X102255290Y-85047576D01*
X102255290Y-85047576D02*
X102285926Y-85102705D01*
X102285926Y-85102705D02*
X102316545Y-85152996D01*
X102316545Y-85152996D02*
X102350492Y-85204147D01*
X102350492Y-85204147D02*
X102385005Y-85251987D01*
X102385005Y-85251987D02*
X102420373Y-85297310D01*
X102420373Y-85297310D02*
X102457562Y-85341473D01*
X102457562Y-85341473D02*
X102497545Y-85385458D01*
X102497545Y-85385458D02*
X102538557Y-85427263D01*
X102538557Y-85427263D02*
X102579847Y-85466324D01*
X102579847Y-85466324D02*
X102623216Y-85504415D01*
X102623216Y-85504415D02*
X102668001Y-85540883D01*
X102668001Y-85540883D02*
X102715798Y-85576870D01*
X102715798Y-85576870D02*
X102764051Y-85610378D01*
X102764051Y-85610378D02*
X102813370Y-85641916D01*
X102813370Y-85641916D02*
X102864451Y-85671893D01*
X102864451Y-85671893D02*
X102918318Y-85700732D01*
X102918318Y-85700732D02*
X102972376Y-85726981D01*
X102972376Y-85726981D02*
X103030297Y-85752280D01*
X103030297Y-85752280D02*
X103088321Y-85774839D01*
X103088321Y-85774839D02*
X103148019Y-85795274D01*
X103148019Y-85795274D02*
X103211656Y-85814084D01*
X103211656Y-85814084D02*
X103276115Y-85830127D01*
X103276115Y-85830127D02*
X103342800Y-85843649D01*
X103342800Y-85843649D02*
X103416201Y-85855015D01*
X103416201Y-85855015D02*
X103488874Y-85862730D01*
X103488874Y-85862730D02*
X103564985Y-85867121D01*
X103564985Y-85867121D02*
X103615843Y-85867984D01*
X95939807Y-86358856D02*
X95959198Y-86309669D01*
X95954487Y-86405467D02*
X95939807Y-86358856D01*
X95990970Y-86434278D02*
X95954487Y-86405467D01*
X96037971Y-86448410D02*
X95990970Y-86434278D01*
X104095045Y-84876106D02*
X104171657Y-84872057D01*
X104171657Y-84872057D02*
X104240602Y-84860489D01*
X104240602Y-84860489D02*
X104302496Y-84842186D01*
X104302496Y-84842186D02*
X104360008Y-84816782D01*
X104360008Y-84816782D02*
X104410701Y-84785899D01*
X104410701Y-84785899D02*
X104455300Y-84750299D01*
X104455300Y-84750299D02*
X104476195Y-84730250D01*
X103632277Y-84602029D02*
X103663043Y-84651720D01*
X103663043Y-84651720D02*
X103698047Y-84698181D01*
X103698047Y-84698181D02*
X103736860Y-84740014D01*
X103736860Y-84740014D02*
X103780776Y-84777739D01*
X103780776Y-84777739D02*
X103829159Y-84809952D01*
X103829159Y-84809952D02*
X103882768Y-84836485D01*
X103882768Y-84836485D02*
X103944633Y-84857461D01*
X103944633Y-84857461D02*
X104011665Y-84870726D01*
X104011665Y-84870726D02*
X104086486Y-84876050D01*
X104086486Y-84876050D02*
X104095045Y-84876106D01*
X104629467Y-83303972D02*
X104629467Y-83303972D01*
X104068206Y-84640423D02*
X103997151Y-84630997D01*
X103997151Y-84630997D02*
X103941941Y-84606054D01*
X103941941Y-84606054D02*
X103898796Y-84569024D01*
X103898796Y-84569024D02*
X103864738Y-84521088D01*
X103864738Y-84521088D02*
X103847994Y-84487167D01*
X95608617Y-85004988D02*
X95688200Y-85002434D01*
X95688200Y-85002434D02*
X95761962Y-84995349D01*
X95761962Y-84995349D02*
X95832290Y-84984251D01*
X95832290Y-84984251D02*
X95898729Y-84969740D01*
X95898729Y-84969740D02*
X95962420Y-84952008D01*
X95962420Y-84952008D02*
X96023987Y-84931133D01*
X96023987Y-84931133D02*
X96081291Y-84908230D01*
X96081291Y-84908230D02*
X96137294Y-84882394D01*
X96137294Y-84882394D02*
X96190117Y-84854681D01*
X96190117Y-84854681D02*
X96240965Y-84824685D01*
X96240965Y-84824685D02*
X96289426Y-84792805D01*
X96289426Y-84792805D02*
X96336208Y-84758673D01*
X96336208Y-84758673D02*
X96380553Y-84722951D01*
X96380553Y-84722951D02*
X96426071Y-84682442D01*
X96426071Y-84682442D02*
X96466975Y-84642269D01*
X96466975Y-84642269D02*
X96507106Y-84598840D01*
X96507106Y-84598840D02*
X96543957Y-84554862D01*
X96543957Y-84554862D02*
X96579750Y-84507674D01*
X96579750Y-84507674D02*
X96613339Y-84458507D01*
X96613339Y-84458507D02*
X96643938Y-84408601D01*
X96643938Y-84408601D02*
X96672849Y-84355712D01*
X96672849Y-84355712D02*
X96701636Y-84295654D01*
X96701636Y-84295654D02*
X96725490Y-84238063D01*
X96725490Y-84238063D02*
X96746877Y-84177476D01*
X96746877Y-84177476D02*
X96765403Y-84114104D01*
X96765403Y-84114104D02*
X96780516Y-84049104D01*
X96780516Y-84049104D02*
X96792832Y-83977216D01*
X96792832Y-83977216D02*
X96800760Y-83904406D01*
X96800760Y-83904406D02*
X96804309Y-83827463D01*
X96804309Y-83827463D02*
X96804435Y-83811058D01*
X94414551Y-83809304D02*
X94417103Y-83888885D01*
X94417103Y-83888885D02*
X94424166Y-83962411D01*
X94424166Y-83962411D02*
X94435170Y-84032280D01*
X94435170Y-84032280D02*
X94449537Y-84098281D01*
X94449537Y-84098281D02*
X94467216Y-84161995D01*
X94467216Y-84161995D02*
X94487562Y-84222301D01*
X94487562Y-84222301D02*
X94510625Y-84280287D01*
X94510625Y-84280287D02*
X94536380Y-84336331D01*
X94536380Y-84336331D02*
X94564898Y-84390775D01*
X94564898Y-84390775D02*
X94594896Y-84441619D01*
X94594896Y-84441619D02*
X94626780Y-84490075D01*
X94626780Y-84490075D02*
X94660914Y-84536854D01*
X94660914Y-84536854D02*
X94696641Y-84581195D01*
X94696641Y-84581195D02*
X94734858Y-84624252D01*
X94734858Y-84624252D02*
X94774763Y-84665108D01*
X94774763Y-84665108D02*
X94816731Y-84704174D01*
X94816731Y-84704174D02*
X94860191Y-84740932D01*
X94860191Y-84740932D02*
X94905752Y-84775889D01*
X94905752Y-84775889D02*
X94953005Y-84808667D01*
X94953005Y-84808667D02*
X95002258Y-84839421D01*
X95002258Y-84839421D02*
X95053877Y-84868235D01*
X95053877Y-84868235D02*
X95107851Y-84894913D01*
X95107851Y-84894913D02*
X95164590Y-84919421D01*
X95164590Y-84919421D02*
X95224537Y-84941625D01*
X95224537Y-84941625D02*
X95285723Y-84960603D01*
X95285723Y-84960603D02*
X95350078Y-84976749D01*
X95350078Y-84976749D02*
X95418307Y-84989772D01*
X95418307Y-84989772D02*
X95489264Y-84999011D01*
X95489264Y-84999011D02*
X95565295Y-85004181D01*
X95565295Y-85004181D02*
X95608617Y-85004988D01*
X92681680Y-82232729D02*
X92617117Y-82248640D01*
X92617117Y-82248640D02*
X92573155Y-82284941D01*
X92573155Y-82284941D02*
X92546663Y-82338538D01*
X92546663Y-82338538D02*
X92542651Y-82371797D01*
X92681680Y-82118143D02*
X92681680Y-82118143D01*
X92428055Y-86802185D02*
X92428055Y-82371797D01*
X92428055Y-82371797D02*
X92438012Y-82301316D01*
X92438012Y-82301316D02*
X92461989Y-82245150D01*
X92461989Y-82245150D02*
X92496859Y-82198267D01*
X92496859Y-82198267D02*
X92540129Y-82161421D01*
X92540129Y-82161421D02*
X92593470Y-82133963D01*
X92593470Y-82133963D02*
X92659382Y-82119111D01*
X92659382Y-82119111D02*
X92681680Y-82118143D01*
X96161441Y-86235289D02*
X96223678Y-86216736D01*
X96223678Y-86216736D02*
X96243061Y-86209655D01*
X96080916Y-86256267D02*
X96144923Y-86239899D01*
X96144923Y-86239899D02*
X96161441Y-86235289D01*
X96009923Y-86278231D02*
X96070834Y-86258753D01*
X96070834Y-86258753D02*
X96080916Y-86256267D01*
X95959198Y-86309669D02*
X96008577Y-86278774D01*
X96008577Y-86278774D02*
X96009923Y-86278231D01*
X98897642Y-85814964D02*
X98713257Y-85814964D01*
X94414551Y-83807555D02*
X94414551Y-83809308D01*
X95610369Y-82613621D02*
X95530765Y-82616166D01*
X95530765Y-82616166D02*
X95456991Y-82623251D01*
X95456991Y-82623251D02*
X95386884Y-82634307D01*
X95386884Y-82634307D02*
X95319757Y-82648974D01*
X95319757Y-82648974D02*
X95256949Y-82666461D01*
X95256949Y-82666461D02*
X95196648Y-82686838D01*
X95196648Y-82686838D02*
X95135957Y-82711099D01*
X95135957Y-82711099D02*
X95080398Y-82736816D01*
X95080398Y-82736816D02*
X95027607Y-82764592D01*
X95027607Y-82764592D02*
X94977174Y-82794405D01*
X94977174Y-82794405D02*
X94927999Y-82826836D01*
X94927999Y-82826836D02*
X94881623Y-82860763D01*
X94881623Y-82860763D02*
X94836805Y-82896972D01*
X94836805Y-82896972D02*
X94794134Y-82934956D01*
X94794134Y-82934956D02*
X94753170Y-82975071D01*
X94753170Y-82975071D02*
X94714458Y-83016760D01*
X94714458Y-83016760D02*
X94677461Y-83060610D01*
X94677461Y-83060610D02*
X94642307Y-83106586D01*
X94642307Y-83106586D02*
X94609612Y-83153899D01*
X94609612Y-83153899D02*
X94578259Y-83204380D01*
X94578259Y-83204380D02*
X94549596Y-83256089D01*
X94549596Y-83256089D02*
X94523172Y-83309945D01*
X94523172Y-83309945D02*
X94498908Y-83366551D01*
X94498908Y-83366551D02*
X94477299Y-83425266D01*
X94477299Y-83425266D02*
X94458349Y-83486708D01*
X94458349Y-83486708D02*
X94442269Y-83551326D01*
X94442269Y-83551326D02*
X94429524Y-83618665D01*
X94429524Y-83618665D02*
X94420326Y-83690109D01*
X94420326Y-83690109D02*
X94415277Y-83766158D01*
X94415277Y-83766158D02*
X94414551Y-83807555D01*
X96804435Y-83809306D02*
X96801873Y-83729713D01*
X96801873Y-83729713D02*
X96794811Y-83656183D01*
X96794811Y-83656183D02*
X96783717Y-83585849D01*
X96783717Y-83585849D02*
X96769043Y-83518735D01*
X96769043Y-83518735D02*
X96750669Y-83453084D01*
X96750669Y-83453084D02*
X96730138Y-83392860D01*
X96730138Y-83392860D02*
X96706902Y-83334962D01*
X96706902Y-83334962D02*
X96681478Y-83280022D01*
X96681478Y-83280022D02*
X96653837Y-83227419D01*
X96653837Y-83227419D02*
X96624056Y-83176972D01*
X96624056Y-83176972D02*
X96591913Y-83128149D01*
X96591913Y-83128149D02*
X96557211Y-83080674D01*
X96557211Y-83080674D02*
X96521431Y-83036377D01*
X96521431Y-83036377D02*
X96483775Y-82994019D01*
X96483775Y-82994019D02*
X96444015Y-82953339D01*
X96444015Y-82953339D02*
X96402539Y-82914728D01*
X96402539Y-82914728D02*
X96358392Y-82877393D01*
X96358392Y-82877393D02*
X96309910Y-82840345D01*
X96309910Y-82840345D02*
X96261035Y-82806741D01*
X96261035Y-82806741D02*
X96210452Y-82775540D01*
X96210452Y-82775540D02*
X96156634Y-82745993D01*
X96156634Y-82745993D02*
X96102419Y-82719735D01*
X96102419Y-82719735D02*
X96045449Y-82695669D01*
X96045449Y-82695669D02*
X95983975Y-82673501D01*
X95983975Y-82673501D02*
X95922329Y-82655010D01*
X95922329Y-82655010D02*
X95857744Y-82639462D01*
X95857744Y-82639462D02*
X95789994Y-82627178D01*
X95789994Y-82627178D02*
X95718378Y-82618523D01*
X95718378Y-82618523D02*
X95642165Y-82614060D01*
X95642165Y-82614060D02*
X95610369Y-82613621D01*
X96804435Y-83811058D02*
X96804435Y-83809306D01*
X102077546Y-84326136D02*
X102077546Y-84328000D01*
X98915087Y-82988474D02*
X98856539Y-82966937D01*
X98856539Y-82966937D02*
X98778945Y-82969442D01*
X98778945Y-82969442D02*
X98731962Y-82988474D01*
X98979918Y-85912297D02*
X98963593Y-85976216D01*
X98963593Y-85976216D02*
X98962608Y-86000207D01*
X102365519Y-83074366D02*
X102325817Y-83115222D01*
X102325817Y-83115222D02*
X102285880Y-83158874D01*
X102285880Y-83158874D02*
X102248146Y-83202789D01*
X102248146Y-83202789D02*
X102211714Y-83248012D01*
X102211714Y-83248012D02*
X102176054Y-83295393D01*
X102176054Y-83295393D02*
X102142829Y-83342780D01*
X102142829Y-83342780D02*
X102111228Y-83391255D01*
X102111228Y-83391255D02*
X102079127Y-83444577D01*
X102079127Y-83444577D02*
X102050399Y-83496517D01*
X102050399Y-83496517D02*
X102022903Y-83550819D01*
X102022903Y-83550819D02*
X101996683Y-83607866D01*
X101996683Y-83607866D02*
X101972907Y-83665282D01*
X101972907Y-83665282D02*
X101950960Y-83724606D01*
X101950960Y-83724606D02*
X101931239Y-83784930D01*
X101931239Y-83784930D02*
X101913488Y-83847221D01*
X101913488Y-83847221D02*
X101897592Y-83912517D01*
X101897592Y-83912517D02*
X101883776Y-83980917D01*
X101883776Y-83980917D02*
X101872545Y-84050476D01*
X101872545Y-84050476D02*
X101863799Y-84122235D01*
X101863799Y-84122235D02*
X101857519Y-84198356D01*
X101857519Y-84198356D02*
X101854148Y-84275422D01*
X101854148Y-84275422D02*
X101853501Y-84327999D01*
X102077546Y-84328000D02*
X102077546Y-84328000D01*
X103618968Y-82562352D02*
X103539610Y-82563839D01*
X103539610Y-82563839D02*
X103461594Y-82568309D01*
X103461594Y-82568309D02*
X103388014Y-82575397D01*
X103388014Y-82575397D02*
X103317018Y-82585018D01*
X103317018Y-82585018D02*
X103248540Y-82597019D01*
X103248540Y-82597019D02*
X103181855Y-82611405D01*
X103181855Y-82611405D02*
X103116931Y-82628102D01*
X103116931Y-82628102D02*
X103050572Y-82648057D01*
X103050572Y-82648057D02*
X102990990Y-82668592D01*
X102990990Y-82668592D02*
X102931176Y-82691836D01*
X102931176Y-82691836D02*
X102872989Y-82717098D01*
X102872989Y-82717098D02*
X102818767Y-82743126D01*
X102818767Y-82743126D02*
X102764287Y-82771813D01*
X102764287Y-82771813D02*
X102711325Y-82802271D01*
X102711325Y-82802271D02*
X102660970Y-82833702D01*
X102660970Y-82833702D02*
X102613138Y-82865913D01*
X102613138Y-82865913D02*
X102562863Y-82902371D01*
X102562863Y-82902371D02*
X102516704Y-82938320D01*
X102516704Y-82938320D02*
X102472923Y-82974728D01*
X102472923Y-82974728D02*
X102429896Y-83012821D01*
X102429896Y-83012821D02*
X102388125Y-83052105D01*
X102388125Y-83052105D02*
X102365519Y-83074366D01*
X104859264Y-83074366D02*
X104818255Y-83034175D01*
X104818255Y-83034175D02*
X104773188Y-82992645D01*
X104773188Y-82992645D02*
X104729377Y-82954781D01*
X104729377Y-82954781D02*
X104685060Y-82918866D01*
X104685060Y-82918866D02*
X104638904Y-82883883D01*
X104638904Y-82883883D02*
X104591958Y-82850710D01*
X104591958Y-82850710D02*
X104543090Y-82818628D01*
X104543090Y-82818628D02*
X104491687Y-82787446D01*
X104491687Y-82787446D02*
X104439395Y-82758287D01*
X104439395Y-82758287D02*
X104385032Y-82730575D01*
X104385032Y-82730575D02*
X104325544Y-82703136D01*
X104325544Y-82703136D02*
X104268949Y-82679687D01*
X104268949Y-82679687D02*
X104210177Y-82657942D01*
X104210177Y-82657942D02*
X104148217Y-82637749D01*
X104148217Y-82637749D02*
X104085204Y-82619951D01*
X104085204Y-82619951D02*
X104019835Y-82604258D01*
X104019835Y-82604258D02*
X103949390Y-82590350D01*
X103949390Y-82590350D02*
X103880078Y-82579556D01*
X103880078Y-82579556D02*
X103807558Y-82571180D01*
X103807558Y-82571180D02*
X103730677Y-82565395D01*
X103730677Y-82565395D02*
X103650876Y-82562592D01*
X103650876Y-82562592D02*
X103618968Y-82562352D01*
X105380101Y-84327999D02*
X105378398Y-84245918D01*
X105378398Y-84245918D02*
X105373299Y-84165107D01*
X105373299Y-84165107D02*
X105365658Y-84092313D01*
X105365658Y-84092313D02*
X105355400Y-84021912D01*
X105355400Y-84021912D02*
X105342673Y-83953842D01*
X105342673Y-83953842D02*
X105327797Y-83888693D01*
X105327797Y-83888693D02*
X105310067Y-83823198D01*
X105310067Y-83823198D02*
X105290386Y-83760551D01*
X105290386Y-83760551D02*
X105268977Y-83700669D01*
X105268977Y-83700669D02*
X105245537Y-83642249D01*
X105245537Y-83642249D02*
X105220700Y-83586469D01*
X105220700Y-83586469D02*
X105194370Y-83532664D01*
X105194370Y-83532664D02*
X105165703Y-83479020D01*
X105165703Y-83479020D02*
X105135675Y-83427296D01*
X105135675Y-83427296D02*
X105104420Y-83377444D01*
X105104420Y-83377444D02*
X105072068Y-83329416D01*
X105072068Y-83329416D02*
X105038334Y-83282608D01*
X105038334Y-83282608D02*
X105002846Y-83236454D01*
X105002846Y-83236454D02*
X104966515Y-83192029D01*
X104966515Y-83192029D02*
X104928392Y-83148094D01*
X104928392Y-83148094D02*
X104888840Y-83105046D01*
X104888840Y-83105046D02*
X104859264Y-83074366D01*
X98988354Y-86094361D02*
X99028263Y-86134814D01*
X99028263Y-86134814D02*
X99064386Y-86156089D01*
X98731962Y-83305620D02*
X98790685Y-83327181D01*
X98790685Y-83327181D02*
X98868548Y-83324529D01*
X98868548Y-83324529D02*
X98915087Y-83305620D01*
X98640399Y-83147047D02*
X98653241Y-83214417D01*
X98653241Y-83214417D02*
X98683917Y-83265547D01*
X98683917Y-83265547D02*
X98727037Y-83302672D01*
X98727037Y-83302672D02*
X98731962Y-83305620D01*
X99091228Y-83400699D02*
X99148779Y-83423278D01*
X99148779Y-83423278D02*
X99175407Y-83476961D01*
X99175407Y-83476961D02*
X99175807Y-83485213D01*
X98471242Y-83485213D02*
X98493998Y-83427528D01*
X98493998Y-83427528D02*
X98547577Y-83401093D01*
X98547577Y-83401093D02*
X98555821Y-83400699D01*
X96301570Y-83624065D02*
X96198256Y-83624555D01*
X98962608Y-86000207D02*
X98974552Y-86068459D01*
X98974552Y-86068459D02*
X98988354Y-86094361D01*
X98960854Y-86225760D02*
X98935316Y-86280289D01*
X98935316Y-86280289D02*
X98926672Y-86345712D01*
X99389447Y-85942914D02*
X99389447Y-86117310D01*
X99235409Y-85942914D02*
X99389447Y-85942914D01*
X95780296Y-86340339D02*
X95790582Y-86410242D01*
X95790582Y-86410242D02*
X95800235Y-86435643D01*
X96214248Y-85969529D02*
X96224659Y-86009349D01*
X96187626Y-85943348D02*
X96214248Y-85969529D01*
X95805709Y-86037615D02*
X95965225Y-86037615D01*
X99007964Y-86511181D02*
X99060387Y-86539281D01*
X99060387Y-86539281D02*
X99092980Y-86549904D01*
X98948694Y-86443646D02*
X98982939Y-86490140D01*
X98982939Y-86490140D02*
X99007964Y-86511181D01*
X96183357Y-86070091D02*
X96124048Y-86090811D01*
X96124048Y-86090811D02*
X96115431Y-86093151D01*
X96224659Y-86009349D02*
X96216335Y-86044951D01*
X99092980Y-86549904D02*
X99163377Y-86561535D01*
X99163377Y-86561535D02*
X99191143Y-86562501D01*
X105372429Y-85447441D02*
X105860233Y-85447441D01*
X105860233Y-82371797D02*
X105844447Y-82307508D01*
X105844447Y-82307508D02*
X105808074Y-82263334D01*
X105808074Y-82263334D02*
X105753462Y-82236526D01*
X105753462Y-82236526D02*
X105721096Y-82232729D01*
X105860233Y-85447441D02*
X105860233Y-82371797D01*
X105860233Y-82371797D02*
X105860233Y-82371797D01*
X92542651Y-85447441D02*
X101862429Y-85447441D01*
X103617429Y-86484341D02*
X103696200Y-86482816D01*
X103696200Y-86482816D02*
X103772575Y-86478410D01*
X103772575Y-86478410D02*
X103849771Y-86470987D01*
X103849771Y-86470987D02*
X103922370Y-86461243D01*
X103922370Y-86461243D02*
X103992029Y-86449324D01*
X103992029Y-86449324D02*
X104059293Y-86435378D01*
X104059293Y-86435378D02*
X104124690Y-86419471D01*
X104124690Y-86419471D02*
X104189737Y-86401290D01*
X104189737Y-86401290D02*
X104253874Y-86380992D01*
X104253874Y-86380992D02*
X104315100Y-86359351D01*
X104315100Y-86359351D02*
X104373470Y-86336586D01*
X104373470Y-86336586D02*
X104430937Y-86312066D01*
X104430937Y-86312066D02*
X104487469Y-86285823D01*
X104487469Y-86285823D02*
X104540738Y-86259086D01*
X104540738Y-86259086D02*
X104592864Y-86230953D01*
X104592864Y-86230953D02*
X104644051Y-86201340D01*
X104644051Y-86201340D02*
X104694921Y-86169855D01*
X104694921Y-86169855D02*
X104747529Y-86135023D01*
X104747529Y-86135023D02*
X104796887Y-86100114D01*
X104796887Y-86100114D02*
X104842899Y-86065503D01*
X104842899Y-86065503D02*
X104889462Y-86028310D01*
X104889462Y-86028310D02*
X104933333Y-85991128D01*
X104933333Y-85991128D02*
X104975734Y-85953075D01*
X104975734Y-85953075D02*
X105017771Y-85913129D01*
X105017771Y-85913129D02*
X105058285Y-85872365D01*
X105058285Y-85872365D02*
X105099008Y-85828941D01*
X105099008Y-85828941D02*
X105136769Y-85786271D01*
X105136769Y-85786271D02*
X105173974Y-85741736D01*
X105173974Y-85741736D02*
X105210526Y-85695307D01*
X105210526Y-85695307D02*
X105247523Y-85645283D01*
X105247523Y-85645283D02*
X105280406Y-85597935D01*
X105280406Y-85597935D02*
X105313055Y-85547870D01*
X105313055Y-85547870D02*
X105344236Y-85496788D01*
X105344236Y-85496788D02*
X105372429Y-85447441D01*
X101862429Y-85447441D02*
X101891679Y-85498536D01*
X101891679Y-85498536D02*
X101922236Y-85548466D01*
X101922236Y-85548466D02*
X101954485Y-85597854D01*
X101954485Y-85597854D02*
X101988580Y-85646852D01*
X101988580Y-85646852D02*
X102022833Y-85693144D01*
X102022833Y-85693144D02*
X102058530Y-85738606D01*
X102058530Y-85738606D02*
X102095162Y-85782619D01*
X102095162Y-85782619D02*
X102132840Y-85825367D01*
X102132840Y-85825367D02*
X102172410Y-85867768D01*
X102172410Y-85867768D02*
X102213906Y-85909729D01*
X102213906Y-85909729D02*
X102255484Y-85949419D01*
X102255484Y-85949419D02*
X102302823Y-85991970D01*
X102302823Y-85991970D02*
X102347129Y-86029447D01*
X102347129Y-86029447D02*
X102392113Y-86065337D01*
X102392113Y-86065337D02*
X102438131Y-86099951D01*
X102438131Y-86099951D02*
X102485162Y-86133263D01*
X102485162Y-86133263D02*
X102534906Y-86166362D01*
X102534906Y-86166362D02*
X102584352Y-86197208D01*
X102584352Y-86197208D02*
X102635640Y-86227148D01*
X102635640Y-86227148D02*
X102689709Y-86256562D01*
X102689709Y-86256562D02*
X102743833Y-86283897D01*
X102743833Y-86283897D02*
X102798403Y-86309413D01*
X102798403Y-86309413D02*
X102856015Y-86334217D01*
X102856015Y-86334217D02*
X102914053Y-86357072D01*
X102914053Y-86357072D02*
X102975184Y-86378910D01*
X102975184Y-86378910D02*
X103038723Y-86399263D01*
X103038723Y-86399263D02*
X103104180Y-86417809D01*
X103104180Y-86417809D02*
X103172074Y-86434521D01*
X103172074Y-86434521D02*
X103238229Y-86448397D01*
X103238229Y-86448397D02*
X103312055Y-86461144D01*
X103312055Y-86461144D02*
X103383019Y-86470728D01*
X103383019Y-86470728D02*
X103456369Y-86477937D01*
X103456369Y-86477937D02*
X103532658Y-86482570D01*
X103532658Y-86482570D02*
X103611897Y-86484332D01*
X103611897Y-86484332D02*
X103617429Y-86484341D01*
X105721096Y-82232729D02*
X92681680Y-82232729D01*
X92542651Y-82371797D02*
X92542651Y-85447441D01*
X99131548Y-85985744D02*
X99156746Y-85959617D01*
X99122124Y-86028577D02*
X99131548Y-85985744D01*
X96056376Y-85929768D02*
X96112141Y-85924507D01*
X95965225Y-86037615D02*
X95979248Y-85982130D01*
X105721096Y-82232729D02*
X105721096Y-82232729D01*
X95830249Y-85927083D02*
X95809904Y-85987273D01*
X95809904Y-85987273D02*
X95805709Y-86037615D01*
X105917478Y-86859477D02*
X92485353Y-86859477D01*
X92485353Y-86859477D02*
X92434892Y-86829322D01*
X92434892Y-86829322D02*
X92428055Y-86802185D01*
X105974721Y-82371795D02*
X105974721Y-86802185D01*
X105974721Y-86802185D02*
X105944909Y-86852469D01*
X105944909Y-86852469D02*
X105917478Y-86859477D01*
X100034462Y-83835976D02*
X100031978Y-83758331D01*
X100031978Y-83758331D02*
X100024924Y-83684077D01*
X100024924Y-83684077D02*
X100013912Y-83613598D01*
X100013912Y-83613598D02*
X99999556Y-83547081D01*
X99999556Y-83547081D02*
X99982055Y-83483345D01*
X99982055Y-83483345D02*
X99961009Y-83420407D01*
X99961009Y-83420407D02*
X99938114Y-83362376D01*
X99938114Y-83362376D02*
X99912839Y-83306786D01*
X99912839Y-83306786D02*
X99885560Y-83253922D01*
X99885560Y-83253922D02*
X99856050Y-83202995D01*
X99856050Y-83202995D02*
X99822888Y-83151769D01*
X99822888Y-83151769D02*
X99789014Y-83104683D01*
X99789014Y-83104683D02*
X99753076Y-83059446D01*
X99753076Y-83059446D02*
X99714947Y-83015894D01*
X99714947Y-83015894D02*
X99674902Y-82974331D01*
X99674902Y-82974331D02*
X99633251Y-82935018D01*
X99633251Y-82935018D02*
X99589867Y-82897788D01*
X99589867Y-82897788D02*
X99544580Y-82862503D01*
X99544580Y-82862503D02*
X99497437Y-82829245D01*
X99497437Y-82829245D02*
X99448478Y-82798093D01*
X99448478Y-82798093D02*
X99428294Y-82786181D01*
X99428294Y-84885772D02*
X99478226Y-84855318D01*
X99478226Y-84855318D02*
X99527115Y-84822156D01*
X99527115Y-84822156D02*
X99582126Y-84780434D01*
X99582126Y-84780434D02*
X99627702Y-84741888D01*
X99627702Y-84741888D02*
X99669169Y-84703248D01*
X99669169Y-84703248D02*
X99708876Y-84662612D01*
X99708876Y-84662612D02*
X99747235Y-84619443D01*
X99747235Y-84619443D02*
X99783055Y-84575076D01*
X99783055Y-84575076D02*
X99817139Y-84528507D01*
X99817139Y-84528507D02*
X99849595Y-84479375D01*
X99849595Y-84479375D02*
X99879617Y-84428749D01*
X99879617Y-84428749D02*
X99907700Y-84375620D01*
X99907700Y-84375620D02*
X99934115Y-84318877D01*
X99934115Y-84318877D02*
X99958027Y-84259616D01*
X99958027Y-84259616D02*
X99978730Y-84199349D01*
X99978730Y-84199349D02*
X99996585Y-84136714D01*
X99996585Y-84136714D02*
X100011391Y-84071463D01*
X100011391Y-84071463D02*
X100022956Y-84002725D01*
X100022956Y-84002725D02*
X100030822Y-83929915D01*
X100030822Y-83929915D02*
X100034348Y-83852451D01*
X100034348Y-83852451D02*
X100034462Y-83835976D01*
X98215959Y-84885772D02*
X98268138Y-84914217D01*
X98268138Y-84914217D02*
X98323033Y-84940703D01*
X98323033Y-84940703D02*
X98379750Y-84964615D01*
X98379750Y-84964615D02*
X98440277Y-84986505D01*
X98440277Y-84986505D02*
X98501926Y-85005158D01*
X98501926Y-85005158D02*
X98566374Y-85020916D01*
X98566374Y-85020916D02*
X98635060Y-85033669D01*
X98635060Y-85033669D02*
X98707583Y-85042757D01*
X98707583Y-85042757D02*
X98783497Y-85047560D01*
X98783497Y-85047560D02*
X98864427Y-85047436D01*
X98864427Y-85047436D02*
X98940938Y-85042344D01*
X98940938Y-85042344D02*
X99013435Y-85032997D01*
X99013435Y-85032997D02*
X99082385Y-85019932D01*
X99082385Y-85019932D02*
X99147087Y-85003841D01*
X99147087Y-85003841D02*
X99208676Y-84984932D01*
X99208676Y-84984932D02*
X99268844Y-84962900D01*
X99268844Y-84962900D02*
X99328058Y-84937583D01*
X99328058Y-84937583D02*
X99382268Y-84911028D01*
X99382268Y-84911028D02*
X99428294Y-84885772D01*
X97609791Y-83835976D02*
X97612330Y-83914555D01*
X97612330Y-83914555D02*
X97619362Y-83988178D01*
X97619362Y-83988178D02*
X97630618Y-84059874D01*
X97630618Y-84059874D02*
X97645244Y-84127114D01*
X97645244Y-84127114D02*
X97662866Y-84190811D01*
X97662866Y-84190811D02*
X97683234Y-84251537D01*
X97683234Y-84251537D02*
X97706131Y-84309567D01*
X97706131Y-84309567D02*
X97731138Y-84364606D01*
X97731138Y-84364606D02*
X97758685Y-84418021D01*
X97758685Y-84418021D02*
X97788194Y-84468948D01*
X97788194Y-84468948D02*
X97819803Y-84517892D01*
X97819803Y-84517892D02*
X97853751Y-84565299D01*
X97853751Y-84565299D02*
X97889595Y-84610604D01*
X97889595Y-84610604D02*
X97927630Y-84654230D01*
X97927630Y-84654230D02*
X97967917Y-84696198D01*
X97967917Y-84696198D02*
X98009151Y-84735263D01*
X98009151Y-84735263D02*
X98052211Y-84772379D01*
X98052211Y-84772379D02*
X98097406Y-84807763D01*
X98097406Y-84807763D02*
X98144723Y-84841299D01*
X98144723Y-84841299D02*
X98194684Y-84873200D01*
X98194684Y-84873200D02*
X98215959Y-84885772D01*
X96208117Y-84015907D02*
X95878347Y-84015907D01*
X98821935Y-82735924D02*
X98821935Y-82735924D01*
X98825222Y-82500402D02*
X98825222Y-82500402D01*
X99575580Y-83050099D02*
X99534829Y-83010470D01*
X99534829Y-83010470D02*
X99492118Y-82972849D01*
X99492118Y-82972849D02*
X99446718Y-82936895D01*
X99446718Y-82936895D02*
X99398843Y-82903112D01*
X99398843Y-82903112D02*
X99349260Y-82872233D01*
X99349260Y-82872233D02*
X99297229Y-82843963D01*
X99297229Y-82843963D02*
X99242667Y-82818503D01*
X99242667Y-82818503D02*
X99184726Y-82795789D01*
X99184726Y-82795789D02*
X99123641Y-82776277D01*
X99123641Y-82776277D02*
X99059290Y-82760257D01*
X99059290Y-82760257D02*
X98989701Y-82747755D01*
X98989701Y-82747755D02*
X98916905Y-82739613D01*
X98916905Y-82739613D02*
X98838417Y-82736030D01*
X98838417Y-82736030D02*
X98821935Y-82735924D01*
X99896692Y-83809248D02*
X99894040Y-83731113D01*
X99894040Y-83731113D02*
X99886515Y-83657856D01*
X99886515Y-83657856D02*
X99874529Y-83588272D01*
X99874529Y-83588272D02*
X99858528Y-83522417D01*
X99858528Y-83522417D02*
X99838739Y-83459572D01*
X99838739Y-83459572D02*
X99816098Y-83401120D01*
X99816098Y-83401120D02*
X99790853Y-83346218D01*
X99790853Y-83346218D02*
X99762887Y-83293752D01*
X99762887Y-83293752D02*
X99732151Y-83243200D01*
X99732151Y-83243200D02*
X99699225Y-83195109D01*
X99699225Y-83195109D02*
X99663563Y-83148387D01*
X99663563Y-83148387D02*
X99626673Y-83104644D01*
X99626673Y-83104644D02*
X99587843Y-83062633D01*
X99587843Y-83062633D02*
X99575580Y-83050099D01*
X99578811Y-84561877D02*
X99618186Y-84520790D01*
X99618186Y-84520790D02*
X99656042Y-84477442D01*
X99656042Y-84477442D02*
X99691381Y-84432737D01*
X99691381Y-84432737D02*
X99724942Y-84385462D01*
X99724942Y-84385462D02*
X99756130Y-84336033D01*
X99756130Y-84336033D02*
X99785023Y-84283842D01*
X99785023Y-84283842D02*
X99811319Y-84228773D01*
X99811319Y-84228773D02*
X99834432Y-84171464D01*
X99834432Y-84171464D02*
X99854415Y-84111081D01*
X99854415Y-84111081D02*
X99871030Y-84047111D01*
X99871030Y-84047111D02*
X99883956Y-83978797D01*
X99883956Y-83978797D02*
X99892542Y-83907172D01*
X99892542Y-83907172D02*
X99896491Y-83830850D01*
X99896491Y-83830850D02*
X99896692Y-83809248D01*
X96151691Y-85928669D02*
X96187626Y-85943348D01*
X96112141Y-85924507D02*
X96151691Y-85928669D01*
X99150389Y-86096440D02*
X99122936Y-86043785D01*
X99122936Y-86043785D02*
X99122124Y-86028577D01*
X99222807Y-86117309D02*
X99157974Y-86101472D01*
X99157974Y-86101472D02*
X99150389Y-86096440D01*
X96368397Y-83050103D02*
X96327658Y-83010475D01*
X96327658Y-83010475D02*
X96284956Y-82972854D01*
X96284956Y-82972854D02*
X96239566Y-82936901D01*
X96239566Y-82936901D02*
X96192038Y-82903346D01*
X96192038Y-82903346D02*
X96142474Y-82872451D01*
X96142474Y-82872451D02*
X96090103Y-82843985D01*
X96090103Y-82843985D02*
X96035544Y-82818531D01*
X96035544Y-82818531D02*
X95977605Y-82795822D01*
X95977605Y-82795822D02*
X95916519Y-82776316D01*
X95916519Y-82776316D02*
X95851764Y-82760217D01*
X95851764Y-82760217D02*
X95782769Y-82747835D01*
X95782769Y-82747835D02*
X95710171Y-82739699D01*
X95710171Y-82739699D02*
X95631240Y-82736086D01*
X95631240Y-82736086D02*
X95614751Y-82735980D01*
X96689509Y-83809305D02*
X96686857Y-83731168D01*
X96686857Y-83731168D02*
X96679332Y-83657908D01*
X96679332Y-83657908D02*
X96667346Y-83588321D01*
X96667346Y-83588321D02*
X96651345Y-83522460D01*
X96651345Y-83522460D02*
X96632088Y-83461126D01*
X96632088Y-83461126D02*
X96609543Y-83402634D01*
X96609543Y-83402634D02*
X96583759Y-83346424D01*
X96583759Y-83346424D02*
X96555704Y-83293771D01*
X96555704Y-83293771D02*
X96524968Y-83243216D01*
X96524968Y-83243216D02*
X96492042Y-83195119D01*
X96492042Y-83195119D02*
X96456380Y-83148395D01*
X96456380Y-83148395D02*
X96419490Y-83104650D01*
X96419490Y-83104650D02*
X96380660Y-83062637D01*
X96380660Y-83062637D02*
X96368397Y-83050103D01*
X96371683Y-84561989D02*
X96412053Y-84519770D01*
X96412053Y-84519770D02*
X96449686Y-84476543D01*
X96449686Y-84476543D02*
X96485202Y-84431472D01*
X96485202Y-84431472D02*
X96519236Y-84383303D01*
X96519236Y-84383303D02*
X96550583Y-84333290D01*
X96550583Y-84333290D02*
X96580569Y-84278526D01*
X96580569Y-84278526D02*
X96606319Y-84223789D01*
X96606319Y-84223789D02*
X96629079Y-84166454D01*
X96629079Y-84166454D02*
X96649125Y-84104608D01*
X96649125Y-84104608D02*
X96665315Y-84040482D01*
X96665315Y-84040482D02*
X96677743Y-83972410D01*
X96677743Y-83972410D02*
X96685938Y-83900216D01*
X96685938Y-83900216D02*
X96689425Y-83823300D01*
X96689425Y-83823300D02*
X96689509Y-83809305D01*
X95614750Y-84879342D02*
X95693088Y-84876748D01*
X95693088Y-84876748D02*
X95766595Y-84869365D01*
X95766595Y-84869365D02*
X95835489Y-84857757D01*
X95835489Y-84857757D02*
X95901526Y-84842043D01*
X95901526Y-84842043D02*
X95962900Y-84823105D01*
X95962900Y-84823105D02*
X96021315Y-84800915D01*
X96021315Y-84800915D02*
X96076876Y-84775747D01*
X96076876Y-84775747D02*
X96131104Y-84747086D01*
X96131104Y-84747086D02*
X96181417Y-84716599D01*
X96181417Y-84716599D02*
X96230186Y-84683198D01*
X96230186Y-84683198D02*
X96275634Y-84648402D01*
X96275634Y-84648402D02*
X96319519Y-84611195D01*
X96319519Y-84611195D02*
X96361094Y-84572435D01*
X96361094Y-84572435D02*
X96371683Y-84561989D01*
X94851246Y-84558703D02*
X94892565Y-84597824D01*
X94892565Y-84597824D02*
X94935790Y-84635223D01*
X94935790Y-84635223D02*
X94981320Y-84670967D01*
X94981320Y-84670967D02*
X95028555Y-84704347D01*
X95028555Y-84704347D02*
X95078601Y-84735863D01*
X95078601Y-84735863D02*
X95131574Y-84765189D01*
X95131574Y-84765189D02*
X95186947Y-84791697D01*
X95186947Y-84791697D02*
X95245277Y-84815340D01*
X95245277Y-84815340D02*
X95305611Y-84835477D01*
X95305611Y-84835477D02*
X95369283Y-84852276D01*
X95369283Y-84852276D02*
X95437033Y-84865466D01*
X95437033Y-84865466D02*
X95509252Y-84874562D01*
X95509252Y-84874562D02*
X95586564Y-84879007D01*
X95586564Y-84879007D02*
X95614750Y-84879342D01*
X99192901Y-85946582D02*
X99235409Y-85942914D01*
X99156746Y-85959617D02*
X99192901Y-85946582D01*
X96091219Y-86579148D02*
X96165646Y-86573409D01*
X96165646Y-86573409D02*
X96211185Y-86563921D01*
X95310181Y-85814964D02*
X95030482Y-86562500D01*
X96236496Y-86377694D02*
X96236496Y-86377694D01*
X99554217Y-86562501D02*
X99554217Y-85814965D01*
X99191143Y-86562501D02*
X99554217Y-86562501D01*
X96538759Y-82879923D02*
X96577748Y-82920958D01*
X96577748Y-82920958D02*
X96615342Y-82963563D01*
X96615342Y-82963563D02*
X96652058Y-83008593D01*
X96652058Y-83008593D02*
X96686461Y-83054483D01*
X96686461Y-83054483D02*
X96719652Y-83102921D01*
X96719652Y-83102921D02*
X96750363Y-83152281D01*
X96750363Y-83152281D02*
X96779171Y-83203659D01*
X96779171Y-83203659D02*
X96806024Y-83257339D01*
X96806024Y-83257339D02*
X96831460Y-83315213D01*
X96831460Y-83315213D02*
X96853688Y-83373757D01*
X96853688Y-83373757D02*
X96873545Y-83435543D01*
X96873545Y-83435543D02*
X96890358Y-83499245D01*
X96890358Y-83499245D02*
X96904241Y-83566138D01*
X96904241Y-83566138D02*
X96914857Y-83636081D01*
X96914857Y-83636081D02*
X96921954Y-83709430D01*
X96921954Y-83709430D02*
X96925224Y-83787349D01*
X96925224Y-83787349D02*
X96925389Y-83809304D01*
X95618039Y-82500404D02*
X95698117Y-82502504D01*
X95698117Y-82502504D02*
X95772285Y-82508381D01*
X95772285Y-82508381D02*
X95843053Y-82517760D01*
X95843053Y-82517760D02*
X95911750Y-82530633D01*
X95911750Y-82530633D02*
X95976986Y-82546532D01*
X95976986Y-82546532D02*
X96039125Y-82565242D01*
X96039125Y-82565242D02*
X96099415Y-82586954D01*
X96099415Y-82586954D02*
X96156884Y-82611139D01*
X96156884Y-82611139D02*
X96211096Y-82637300D01*
X96211096Y-82637300D02*
X96264193Y-82666293D01*
X96264193Y-82666293D02*
X96314411Y-82697002D01*
X96314411Y-82697002D02*
X96363682Y-82730456D01*
X96363682Y-82730456D02*
X96409825Y-82764991D01*
X96409825Y-82764991D02*
X96455100Y-82802105D01*
X96455100Y-82802105D02*
X96497796Y-82840248D01*
X96497796Y-82840248D02*
X96538759Y-82879923D01*
X98623200Y-86271440D02*
X98897642Y-85814964D01*
X98623200Y-86562501D02*
X98623200Y-86271440D01*
X98458426Y-86562501D02*
X98623200Y-86562501D01*
X95761559Y-86562500D02*
X95478791Y-85814964D01*
X95596127Y-86562500D02*
X95761559Y-86562500D01*
X95537513Y-86395991D02*
X95596127Y-86562500D01*
X95257814Y-86395991D02*
X95537513Y-86395991D01*
X96384505Y-86433289D02*
X96404851Y-86373093D01*
X96404851Y-86373093D02*
X96409593Y-86313830D01*
X99167047Y-86429841D02*
X99128154Y-86414175D01*
X99213170Y-86434552D02*
X99167047Y-86429841D01*
X99209990Y-86229483D02*
X99389445Y-86229483D01*
X99389447Y-86117310D02*
X99222807Y-86117309D01*
X99123987Y-86254076D02*
X99181957Y-86231376D01*
X99181957Y-86231376D02*
X99209990Y-86229483D01*
X99091449Y-86336180D02*
X99107398Y-86271768D01*
X99107398Y-86271768D02*
X99123987Y-86254076D01*
X94307295Y-83809304D02*
X94309441Y-83727597D01*
X94309441Y-83727597D02*
X94315396Y-83652422D01*
X94315396Y-83652422D02*
X94324762Y-83581456D01*
X94324762Y-83581456D02*
X94337473Y-83513057D01*
X94337473Y-83513057D02*
X94353377Y-83447155D01*
X94353377Y-83447155D02*
X94372173Y-83384159D01*
X94372173Y-83384159D02*
X94393201Y-83325112D01*
X94393201Y-83325112D02*
X94417176Y-83267385D01*
X94417176Y-83267385D02*
X94446220Y-83206826D01*
X94446220Y-83206826D02*
X94474457Y-83155034D01*
X94474457Y-83155034D02*
X94505303Y-83104410D01*
X94505303Y-83104410D02*
X94537890Y-83056176D01*
X94537890Y-83056176D02*
X94574822Y-83006668D01*
X94574822Y-83006668D02*
X94610837Y-82962659D01*
X94610837Y-82962659D02*
X94648774Y-82920047D01*
X94648774Y-82920047D02*
X94687459Y-82879923D01*
X94680777Y-84728825D02*
X94641223Y-84688031D01*
X94641223Y-84688031D02*
X94602913Y-84645031D01*
X94602913Y-84645031D02*
X94566476Y-84600317D01*
X94566476Y-84600317D02*
X94531304Y-84552847D01*
X94531304Y-84552847D02*
X94498694Y-84504139D01*
X94498694Y-84504139D02*
X94468528Y-84453983D01*
X94468528Y-84453983D02*
X94440292Y-84401285D01*
X94440292Y-84401285D02*
X94413893Y-84345285D01*
X94413893Y-84345285D02*
X94389725Y-84286063D01*
X94389725Y-84286063D02*
X94368065Y-84223480D01*
X94368065Y-84223480D02*
X94349824Y-84159787D01*
X94349824Y-84159787D02*
X94334632Y-84093554D01*
X94334632Y-84093554D02*
X94322560Y-84024206D01*
X94322560Y-84024206D02*
X94313787Y-83951124D01*
X94313787Y-83951124D02*
X94308563Y-83872842D01*
X94308563Y-83872842D02*
X94307295Y-83809304D01*
X95618039Y-85118259D02*
X95539610Y-85116166D01*
X95539610Y-85116166D02*
X95463746Y-85110010D01*
X95463746Y-85110010D02*
X95392872Y-85100361D01*
X95392872Y-85100361D02*
X95323731Y-85087101D01*
X95323731Y-85087101D02*
X95258576Y-85070921D01*
X95258576Y-85070921D02*
X95196428Y-85051959D01*
X95196428Y-85051959D02*
X95137073Y-85030443D01*
X95137073Y-85030443D02*
X95080190Y-85006521D01*
X95080190Y-85006521D02*
X95024150Y-84979607D01*
X95024150Y-84979607D02*
X94971796Y-84951287D01*
X94971796Y-84951287D02*
X94921696Y-84921152D01*
X94921696Y-84921152D02*
X94873361Y-84889103D01*
X94873361Y-84889103D02*
X94825401Y-84854248D01*
X94825401Y-84854248D02*
X94779565Y-84817928D01*
X94779565Y-84817928D02*
X94736078Y-84780598D01*
X94736078Y-84780598D02*
X94694375Y-84742020D01*
X94694375Y-84742020D02*
X94680777Y-84728825D01*
X96538759Y-84732112D02*
X96497770Y-84771582D01*
X96497770Y-84771582D02*
X96454793Y-84809940D01*
X96454793Y-84809940D02*
X96410653Y-84846286D01*
X96410653Y-84846286D02*
X96365032Y-84880801D01*
X96365032Y-84880801D02*
X96316947Y-84914000D01*
X96316947Y-84914000D02*
X96266635Y-84945458D01*
X96266635Y-84945458D02*
X96215102Y-84974405D01*
X96215102Y-84974405D02*
X96160782Y-85001530D01*
X96160782Y-85001530D02*
X96103578Y-85026560D01*
X96103578Y-85026560D02*
X96045218Y-85048572D01*
X96045218Y-85048572D02*
X95983829Y-85068113D01*
X95983829Y-85068113D02*
X95919296Y-85084891D01*
X95919296Y-85084891D02*
X95852732Y-85098391D01*
X95852732Y-85098391D02*
X95782343Y-85108711D01*
X95782343Y-85108711D02*
X95707472Y-85115484D01*
X95707472Y-85115484D02*
X95630013Y-85118209D01*
X95630013Y-85118209D02*
X95618039Y-85118259D01*
X96925389Y-83809304D02*
X96923284Y-83887618D01*
X96923284Y-83887618D02*
X96917200Y-83962294D01*
X96917200Y-83962294D02*
X96907462Y-84033449D01*
X96907462Y-84033449D02*
X96894169Y-84102171D01*
X96894169Y-84102171D02*
X96878007Y-84166631D01*
X96878007Y-84166631D02*
X96858797Y-84228859D01*
X96858797Y-84228859D02*
X96837231Y-84287549D01*
X96837231Y-84287549D02*
X96812847Y-84344616D01*
X96812847Y-84344616D02*
X96785942Y-84399655D01*
X96785942Y-84399655D02*
X96757156Y-84451861D01*
X96757156Y-84451861D02*
X96726480Y-84501762D01*
X96726480Y-84501762D02*
X96693824Y-84549842D01*
X96693824Y-84549842D02*
X96659626Y-84595748D01*
X96659626Y-84595748D02*
X96623406Y-84640341D01*
X96623406Y-84640341D02*
X96585935Y-84682877D01*
X96585935Y-84682877D02*
X96546645Y-84724176D01*
X96546645Y-84724176D02*
X96538759Y-84732112D01*
X95956683Y-86561347D02*
X96023122Y-86575175D01*
X96023122Y-86575175D02*
X96091219Y-86579148D01*
X98926672Y-86345712D02*
X98936958Y-86415926D01*
X98936958Y-86415926D02*
X98948694Y-86443646D01*
X99064386Y-86156089D02*
X99008285Y-86180538D01*
X99008285Y-86180538D02*
X98965974Y-86218718D01*
X98965974Y-86218718D02*
X98960854Y-86225760D01*
X103618968Y-86093648D02*
X103700520Y-86091945D01*
X103700520Y-86091945D02*
X103780781Y-86086846D01*
X103780781Y-86086846D02*
X103854386Y-86079037D01*
X103854386Y-86079037D02*
X103924889Y-86068614D01*
X103924889Y-86068614D02*
X103993999Y-86055467D01*
X103993999Y-86055467D02*
X104063977Y-86039065D01*
X104063977Y-86039065D02*
X104127488Y-86021360D01*
X104127488Y-86021360D02*
X104188805Y-86001596D01*
X104188805Y-86001596D02*
X104247992Y-85979925D01*
X104247992Y-85979925D02*
X104306910Y-85955702D01*
X104306910Y-85955702D02*
X104361965Y-85930568D01*
X104361965Y-85930568D02*
X104416507Y-85903175D01*
X104416507Y-85903175D02*
X104469091Y-85874320D01*
X104469091Y-85874320D02*
X104519477Y-85844310D01*
X104519477Y-85844310D02*
X104569129Y-85812377D01*
X104569129Y-85812377D02*
X104618045Y-85778517D01*
X104618045Y-85778517D02*
X104664598Y-85743987D01*
X104664598Y-85743987D02*
X104712073Y-85706345D01*
X104712073Y-85706345D02*
X104756177Y-85669080D01*
X104756177Y-85669080D02*
X104798589Y-85631061D01*
X104798589Y-85631061D02*
X104841914Y-85589913D01*
X104841914Y-85589913D02*
X104859264Y-85572761D01*
X102356700Y-85568378D02*
X102397655Y-85607629D01*
X102397655Y-85607629D02*
X102440249Y-85646304D01*
X102440249Y-85646304D02*
X102483436Y-85683376D01*
X102483436Y-85683376D02*
X102529970Y-85721006D01*
X102529970Y-85721006D02*
X102575496Y-85755595D01*
X102575496Y-85755595D02*
X102622781Y-85789281D01*
X102622781Y-85789281D02*
X102671580Y-85821750D01*
X102671580Y-85821750D02*
X102721637Y-85852737D01*
X102721637Y-85852737D02*
X102773277Y-85882339D01*
X102773277Y-85882339D02*
X102826231Y-85910304D01*
X102826231Y-85910304D02*
X102881133Y-85936846D01*
X102881133Y-85936846D02*
X102937421Y-85961571D01*
X102937421Y-85961571D02*
X102995113Y-85984408D01*
X102995113Y-85984408D02*
X103055510Y-86005709D01*
X103055510Y-86005709D02*
X103117401Y-86024890D01*
X103117401Y-86024890D02*
X103180817Y-86041874D01*
X103180817Y-86041874D02*
X103247104Y-86056861D01*
X103247104Y-86056861D02*
X103319029Y-86070060D01*
X103319029Y-86070060D02*
X103389995Y-86080091D01*
X103389995Y-86080091D02*
X103462672Y-86087418D01*
X103462672Y-86087418D02*
X103541642Y-86092143D01*
X103541642Y-86092143D02*
X103618968Y-86093648D01*
X101853501Y-84327999D02*
X101854950Y-84406964D01*
X101854950Y-84406964D02*
X101859197Y-84483132D01*
X101859197Y-84483132D02*
X101866169Y-84557262D01*
X101866169Y-84557262D02*
X101875626Y-84628379D01*
X101875626Y-84628379D02*
X101887580Y-84697570D01*
X101887580Y-84697570D02*
X101901873Y-84764544D01*
X101901873Y-84764544D02*
X101918310Y-84829035D01*
X101918310Y-84829035D02*
X101937045Y-84892051D01*
X101937045Y-84892051D02*
X101957932Y-84953307D01*
X101957932Y-84953307D02*
X101980530Y-85011928D01*
X101980530Y-85011928D02*
X102005606Y-85070074D01*
X102005606Y-85070074D02*
X102031479Y-85124216D01*
X102031479Y-85124216D02*
X102060326Y-85179096D01*
X102060326Y-85179096D02*
X102090665Y-85231807D01*
X102090665Y-85231807D02*
X102121638Y-85281313D01*
X102121638Y-85281313D02*
X102154136Y-85329363D01*
X102154136Y-85329363D02*
X102188489Y-85376515D01*
X102188489Y-85376515D02*
X102224384Y-85422379D01*
X102224384Y-85422379D02*
X102261000Y-85466087D01*
X102261000Y-85466087D02*
X102299109Y-85508714D01*
X102299109Y-85508714D02*
X102339646Y-85551255D01*
X102339646Y-85551255D02*
X102356700Y-85568378D01*
X96084972Y-86452078D02*
X96037971Y-86448410D01*
X96147748Y-86444192D02*
X96084972Y-86452078D01*
X96200445Y-86420147D02*
X96147748Y-86444192D01*
X96236490Y-86377697D02*
X96200445Y-86420147D01*
X103617705Y-82788014D02*
X103537258Y-82790025D01*
X103537258Y-82790025D02*
X103462430Y-82795643D01*
X103462430Y-82795643D02*
X103389240Y-82804696D01*
X103389240Y-82804696D02*
X103319801Y-82816615D01*
X103319801Y-82816615D02*
X103252619Y-82831318D01*
X103252619Y-82831318D02*
X103188841Y-82848250D01*
X103188841Y-82848250D02*
X103127301Y-82867438D01*
X103127301Y-82867438D02*
X103067994Y-82888681D01*
X103067994Y-82888681D02*
X103010374Y-82912026D01*
X103010374Y-82912026D02*
X102953412Y-82937850D01*
X102953412Y-82937850D02*
X102897712Y-82965891D01*
X102897712Y-82965891D02*
X102844839Y-82995219D01*
X102844839Y-82995219D02*
X102794734Y-83025608D01*
X102794734Y-83025608D02*
X102746378Y-83057496D01*
X102746378Y-83057496D02*
X102699546Y-83090958D01*
X102699546Y-83090958D02*
X102653592Y-83126467D01*
X102653592Y-83126467D02*
X102609909Y-83162890D01*
X102609909Y-83162890D02*
X102565083Y-83203236D01*
X102565083Y-83203236D02*
X102521670Y-83245496D01*
X102521670Y-83245496D02*
X102482278Y-83286865D01*
X102482278Y-83286865D02*
X102444055Y-83330113D01*
X102444055Y-83330113D02*
X102407989Y-83374101D01*
X102407989Y-83374101D02*
X102373197Y-83419891D01*
X102373197Y-83419891D02*
X102337674Y-83470601D01*
X102337674Y-83470601D02*
X102305989Y-83519811D01*
X102305989Y-83519811D02*
X102275576Y-83571293D01*
X102275576Y-83571293D02*
X102247264Y-83623772D01*
X102247264Y-83623772D02*
X102220457Y-83678510D01*
X102220457Y-83678510D02*
X102195778Y-83734437D01*
X102195778Y-83734437D02*
X102172668Y-83793159D01*
X102172668Y-83793159D02*
X102151833Y-83853305D01*
X102151833Y-83853305D02*
X102133207Y-83915411D01*
X102133207Y-83915411D02*
X102116754Y-83980336D01*
X102116754Y-83980336D02*
X102102921Y-84047209D01*
X102102921Y-84047209D02*
X102091767Y-84116907D01*
X102091767Y-84116907D02*
X102083611Y-84189436D01*
X102083611Y-84189436D02*
X102078779Y-84264791D01*
X102078779Y-84264791D02*
X102077546Y-84326136D01*
X94543279Y-83809304D02*
X94545679Y-83887914D01*
X94545679Y-83887914D02*
X94552678Y-83962470D01*
X94552678Y-83962470D02*
X94563885Y-84032722D01*
X94563885Y-84032722D02*
X94578920Y-84098855D01*
X94578920Y-84098855D02*
X94597295Y-84160677D01*
X94597295Y-84160677D02*
X94618880Y-84219135D01*
X94618880Y-84219135D02*
X94643569Y-84274719D01*
X94643569Y-84274719D02*
X94672329Y-84329596D01*
X94672329Y-84329596D02*
X94702973Y-84380007D01*
X94702973Y-84380007D02*
X94736405Y-84428145D01*
X94736405Y-84428145D02*
X94772237Y-84473766D01*
X94772237Y-84473766D02*
X94809997Y-84516660D01*
X94809997Y-84516660D02*
X94850342Y-84557828D01*
X94850342Y-84557828D02*
X94851246Y-84558703D01*
X94857708Y-83050102D02*
X94818198Y-83091058D01*
X94818198Y-83091058D02*
X94780275Y-83134459D01*
X94780275Y-83134459D02*
X94742467Y-83182728D01*
X94742467Y-83182728D02*
X94709499Y-83230047D01*
X94709499Y-83230047D02*
X94678908Y-83279719D01*
X94678908Y-83279719D02*
X94650882Y-83331827D01*
X94650882Y-83331827D02*
X94625310Y-83387198D01*
X94625310Y-83387198D02*
X94602667Y-83445599D01*
X94602667Y-83445599D02*
X94583232Y-83507154D01*
X94583232Y-83507154D02*
X94567297Y-83571990D01*
X94567297Y-83571990D02*
X94555154Y-83640236D01*
X94555154Y-83640236D02*
X94547073Y-83712449D01*
X94547073Y-83712449D02*
X94543428Y-83789665D01*
X94543428Y-83789665D02*
X94543279Y-83809304D01*
X95614751Y-82735980D02*
X95537018Y-82738429D01*
X95537018Y-82738429D02*
X95463452Y-82745516D01*
X95463452Y-82745516D02*
X95393476Y-82756928D01*
X95393476Y-82756928D02*
X95328125Y-82772038D01*
X95328125Y-82772038D02*
X95266423Y-82790584D01*
X95266423Y-82790584D02*
X95207843Y-82812362D01*
X95207843Y-82812362D02*
X95151898Y-82837258D01*
X95151898Y-82837258D02*
X95098158Y-82865270D01*
X95098158Y-82865270D02*
X95046471Y-82896312D01*
X95046471Y-82896312D02*
X94997954Y-82929427D01*
X94997954Y-82929427D02*
X94952059Y-82964600D01*
X94952059Y-82964600D02*
X94908754Y-83001514D01*
X94908754Y-83001514D02*
X94867163Y-83040660D01*
X94867163Y-83040660D02*
X94857708Y-83050102D01*
X94414551Y-83809308D02*
X94414551Y-83809308D01*
X94687459Y-82879923D02*
X94728778Y-82840248D01*
X94728778Y-82840248D02*
X94774978Y-82799466D01*
X94774978Y-82799466D02*
X94820350Y-82762829D01*
X94820350Y-82762829D02*
X94867615Y-82728011D01*
X94867615Y-82728011D02*
X94915572Y-82695936D01*
X94915572Y-82695936D02*
X94969760Y-82663367D01*
X94969760Y-82663367D02*
X95022206Y-82635304D01*
X95022206Y-82635304D02*
X95076740Y-82609494D01*
X95076740Y-82609494D02*
X95134337Y-82585719D01*
X95134337Y-82585719D02*
X95194182Y-82564555D01*
X95194182Y-82564555D02*
X95256820Y-82546016D01*
X95256820Y-82546016D02*
X95324801Y-82529801D01*
X95324801Y-82529801D02*
X95394377Y-82517132D01*
X95394377Y-82517132D02*
X95465545Y-82508011D01*
X95465545Y-82508011D02*
X95542513Y-82502226D01*
X95542513Y-82502226D02*
X95618039Y-82500404D01*
X95630199Y-84527757D02*
X95707044Y-84523343D01*
X95707044Y-84523343D02*
X95775746Y-84511503D01*
X95775746Y-84511503D02*
X95838109Y-84493539D01*
X95838109Y-84493539D02*
X95896885Y-84469327D01*
X95896885Y-84469327D02*
X95949514Y-84440476D01*
X95949514Y-84440476D02*
X95998403Y-84406139D01*
X95998403Y-84406139D02*
X96041627Y-84367976D01*
X96041627Y-84367976D02*
X96080451Y-84325284D01*
X96080451Y-84325284D02*
X96114331Y-84278805D01*
X96114331Y-84278805D02*
X96152433Y-84210166D01*
X96152433Y-84210166D02*
X96175684Y-84153111D01*
X96175684Y-84153111D02*
X96194037Y-84090944D01*
X96194037Y-84090944D02*
X96207218Y-84022340D01*
X96207218Y-84022340D02*
X96208117Y-84015907D01*
X94951054Y-83826725D02*
X94954570Y-83903809D01*
X94954570Y-83903809D02*
X94964570Y-83976053D01*
X94964570Y-83976053D02*
X94979748Y-84041543D01*
X94979748Y-84041543D02*
X94999485Y-84101959D01*
X94999485Y-84101959D02*
X95023399Y-84158056D01*
X95023399Y-84158056D02*
X95052568Y-84212472D01*
X95052568Y-84212472D02*
X95084779Y-84261403D01*
X95084779Y-84261403D02*
X95120183Y-84306003D01*
X95120183Y-84306003D02*
X95160133Y-84347951D01*
X95160133Y-84347951D02*
X95202819Y-84385296D01*
X95202819Y-84385296D02*
X95249271Y-84418998D01*
X95249271Y-84418998D02*
X95299534Y-84448814D01*
X95299534Y-84448814D02*
X95356000Y-84475423D01*
X95356000Y-84475423D02*
X95415423Y-84496711D01*
X95415423Y-84496711D02*
X95481093Y-84513271D01*
X95481093Y-84513271D02*
X95551299Y-84523821D01*
X95551299Y-84523821D02*
X95628404Y-84527753D01*
X95628404Y-84527753D02*
X95630199Y-84527757D01*
X95623626Y-83119171D02*
X95545447Y-83122837D01*
X95545447Y-83122837D02*
X95475273Y-83132882D01*
X95475273Y-83132882D02*
X95409978Y-83148732D01*
X95409978Y-83148732D02*
X95350476Y-83169456D01*
X95350476Y-83169456D02*
X95294664Y-83195243D01*
X95294664Y-83195243D02*
X95244138Y-83224891D01*
X95244138Y-83224891D02*
X95196106Y-83259827D01*
X95196106Y-83259827D02*
X95153301Y-83297876D01*
X95153301Y-83297876D02*
X95114324Y-83339800D01*
X95114324Y-83339800D02*
X95079272Y-83385392D01*
X95079272Y-83385392D02*
X95048176Y-83434556D01*
X95048176Y-83434556D02*
X95019594Y-83490537D01*
X95019594Y-83490537D02*
X94996479Y-83548089D01*
X94996479Y-83548089D02*
X94977777Y-83609438D01*
X94977777Y-83609438D02*
X94963455Y-83676380D01*
X94963455Y-83676380D02*
X94954344Y-83748139D01*
X94954344Y-83748139D02*
X94951054Y-83826725D01*
X96198256Y-83624555D02*
X96184767Y-83557924D01*
X96184767Y-83557924D02*
X96166325Y-83495918D01*
X96166325Y-83495918D02*
X96143284Y-83438747D01*
X96143284Y-83438747D02*
X96115751Y-83386031D01*
X96115751Y-83386031D02*
X96083526Y-83337274D01*
X96083526Y-83337274D02*
X96047352Y-83293443D01*
X96047352Y-83293443D02*
X96006646Y-83253774D01*
X96006646Y-83253774D02*
X95961479Y-83218568D01*
X95961479Y-83218568D02*
X95910406Y-83187316D01*
X95910406Y-83187316D02*
X95854706Y-83161438D01*
X95854706Y-83161438D02*
X95794317Y-83141285D01*
X95794317Y-83141285D02*
X95727183Y-83126996D01*
X95727183Y-83126996D02*
X95651316Y-83119707D01*
X95651316Y-83119707D02*
X95623626Y-83119171D01*
X95618039Y-82500404D02*
X95618039Y-82500404D01*
X103615843Y-85867984D02*
X103694432Y-85866056D01*
X103694432Y-85866056D02*
X103769576Y-85860489D01*
X103769576Y-85860489D02*
X103841285Y-85851719D01*
X103841285Y-85851719D02*
X103910763Y-85839930D01*
X103910763Y-85839930D02*
X103977987Y-85825353D01*
X103977987Y-85825353D02*
X104041523Y-85808619D01*
X104041523Y-85808619D02*
X104103394Y-85789462D01*
X104103394Y-85789462D02*
X104163305Y-85768121D01*
X104163305Y-85768121D02*
X104220428Y-85745093D01*
X104220428Y-85745093D02*
X104275864Y-85720123D01*
X104275864Y-85720123D02*
X104334234Y-85690886D01*
X104334234Y-85690886D02*
X104385885Y-85662342D01*
X104385885Y-85662342D02*
X104436303Y-85631902D01*
X104436303Y-85631902D02*
X104484726Y-85600103D01*
X104484726Y-85600103D02*
X104531622Y-85566726D01*
X104531622Y-85566726D02*
X104577646Y-85531304D01*
X104577646Y-85531304D02*
X104622494Y-85494021D01*
X104622494Y-85494021D02*
X104665037Y-85455880D01*
X104665037Y-85455880D02*
X104708580Y-85413754D01*
X104708580Y-85413754D02*
X104748485Y-85372077D01*
X104748485Y-85372077D02*
X104787008Y-85328711D01*
X104787008Y-85328711D02*
X104823720Y-85284133D01*
X104823720Y-85284133D02*
X104858599Y-85238415D01*
X104858599Y-85238415D02*
X104895513Y-85185855D01*
X104895513Y-85185855D02*
X104929650Y-85132707D01*
X104929650Y-85132707D02*
X104959933Y-85081139D01*
X104959933Y-85081139D02*
X104988512Y-85027799D01*
X104988512Y-85027799D02*
X105015273Y-84972700D01*
X105015273Y-84972700D02*
X105039656Y-84916946D01*
X105039656Y-84916946D02*
X105062484Y-84858411D01*
X105062484Y-84858411D02*
X105083321Y-84797618D01*
X105083321Y-84797618D02*
X105102131Y-84733989D01*
X105102131Y-84733989D02*
X105118239Y-84669247D01*
X105118239Y-84669247D02*
X105132007Y-84601090D01*
X105132007Y-84601090D02*
X105143050Y-84529474D01*
X105143050Y-84529474D02*
X105151178Y-84451626D01*
X105151178Y-84451626D02*
X105155316Y-84375150D01*
X105155316Y-84375150D02*
X105156000Y-84329865D01*
X96313841Y-86516160D02*
X96355609Y-86476878D01*
X96355609Y-86476878D02*
X96384505Y-86433289D01*
X104859264Y-85572761D02*
X104900135Y-85530726D01*
X104900135Y-85530726D02*
X104938988Y-85488437D01*
X104938988Y-85488437D02*
X104976426Y-85445244D01*
X104976426Y-85445244D02*
X105013591Y-85399646D01*
X105013591Y-85399646D02*
X105048556Y-85353898D01*
X105048556Y-85353898D02*
X105082154Y-85306909D01*
X105082154Y-85306909D02*
X105115771Y-85256392D01*
X105115771Y-85256392D02*
X105146697Y-85206240D01*
X105146697Y-85206240D02*
X105175860Y-85155049D01*
X105175860Y-85155049D02*
X105205144Y-85098953D01*
X105205144Y-85098953D02*
X105231757Y-85042879D01*
X105231757Y-85042879D02*
X105256425Y-84985338D01*
X105256425Y-84985338D02*
X105279074Y-84926301D01*
X105279074Y-84926301D02*
X105299633Y-84865742D01*
X105299633Y-84865742D02*
X105318208Y-84802997D01*
X105318208Y-84802997D02*
X105334499Y-84738653D01*
X105334499Y-84738653D02*
X105349181Y-84668731D01*
X105349181Y-84668731D02*
X105360871Y-84598702D01*
X105360871Y-84598702D02*
X105369942Y-84526239D01*
X105369942Y-84526239D02*
X105376207Y-84451619D01*
X105376207Y-84451619D02*
X105379561Y-84374271D01*
X105379561Y-84374271D02*
X105380101Y-84327999D01*
X95870242Y-86172735D02*
X95827290Y-86210423D01*
X95827290Y-86210423D02*
X95806918Y-86237148D01*
X95943974Y-86137681D02*
X95887294Y-86162249D01*
X95887294Y-86162249D02*
X95870242Y-86172735D01*
X92681680Y-82118143D02*
X105721096Y-82118143D01*
X105721096Y-82118143D02*
X105791666Y-82128131D01*
X105791666Y-82128131D02*
X105847732Y-82152088D01*
X105847732Y-82152088D02*
X105895164Y-82187488D01*
X105895164Y-82187488D02*
X105931930Y-82230954D01*
X105931930Y-82230954D02*
X105959171Y-82284315D01*
X105959171Y-82284315D02*
X105973798Y-82350099D01*
X105973798Y-82350099D02*
X105974721Y-82371795D01*
X102617116Y-84036663D02*
X102855184Y-84156175D01*
X102833165Y-84487167D02*
X102612625Y-84602029D01*
X95806918Y-86237148D02*
X95784275Y-86295092D01*
X95784275Y-86295092D02*
X95780296Y-86340339D01*
X99006649Y-83147047D02*
X98993388Y-83078636D01*
X98993388Y-83078636D02*
X98963245Y-83028680D01*
X98963245Y-83028680D02*
X98920251Y-82991569D01*
X98920251Y-82991569D02*
X98915087Y-82988474D01*
X96216335Y-86044951D02*
X96183357Y-86070091D01*
X98915087Y-83305620D02*
X98959698Y-83269470D01*
X98959698Y-83269470D02*
X98991303Y-83220412D01*
X98991303Y-83220412D02*
X99006461Y-83155256D01*
X99006461Y-83155256D02*
X99006649Y-83147047D01*
X96104909Y-85796560D02*
X96027829Y-85802562D01*
X96027829Y-85802562D02*
X95992394Y-85809705D01*
X96205264Y-85810143D02*
X96135866Y-85797853D01*
X96135866Y-85797853D02*
X96104909Y-85796560D01*
X96295211Y-85852045D02*
X96242575Y-85822876D01*
X96242575Y-85822876D02*
X96205264Y-85810143D01*
X96359631Y-85922756D02*
X96324696Y-85877048D01*
X96324696Y-85877048D02*
X96295211Y-85852045D01*
X103074628Y-84876106D02*
X103151345Y-84872034D01*
X103151345Y-84872034D02*
X103220165Y-84860442D01*
X103220165Y-84860442D02*
X103282322Y-84841979D01*
X103282322Y-84841979D02*
X103340564Y-84816053D01*
X103340564Y-84816053D02*
X103390360Y-84785507D01*
X103390360Y-84785507D02*
X103434938Y-84749769D01*
X103434938Y-84749769D02*
X103455231Y-84730250D01*
X102612625Y-84602029D02*
X102643177Y-84651479D01*
X102643177Y-84651479D02*
X102678291Y-84698181D01*
X102678291Y-84698181D02*
X102717241Y-84740203D01*
X102717241Y-84740203D02*
X102761053Y-84777861D01*
X102761053Y-84777861D02*
X102810108Y-84810477D01*
X102810108Y-84810477D02*
X102863822Y-84836942D01*
X102863822Y-84836942D02*
X102925270Y-84857670D01*
X102925270Y-84857670D02*
X102992518Y-84870874D01*
X102992518Y-84870874D02*
X103068027Y-84876072D01*
X103068027Y-84876072D02*
X103074628Y-84876106D01*
X103636605Y-84036663D02*
X103870068Y-84156175D01*
X103049320Y-84640423D02*
X102978162Y-84630922D01*
X102978162Y-84630922D02*
X102923292Y-84605698D01*
X102923292Y-84605698D02*
X102880615Y-84567794D01*
X102880615Y-84567794D02*
X102848192Y-84519664D01*
X102848192Y-84519664D02*
X102833165Y-84487167D01*
X99028671Y-85855279D02*
X98988958Y-85896144D01*
X98988958Y-85896144D02*
X98979918Y-85912297D01*
X103613761Y-82880087D02*
X103692416Y-82881940D01*
X103692416Y-82881940D02*
X103767200Y-82887290D01*
X103767200Y-82887290D02*
X103839217Y-82895953D01*
X103839217Y-82895953D02*
X103907869Y-82907625D01*
X103907869Y-82907625D02*
X103974195Y-82922262D01*
X103974195Y-82922262D02*
X104037088Y-82939388D01*
X104037088Y-82939388D02*
X104098706Y-82959422D01*
X104098706Y-82959422D02*
X104156811Y-82981456D01*
X104156811Y-82981456D02*
X104213003Y-83005846D01*
X104213003Y-83005846D02*
X104267568Y-83032614D01*
X104267568Y-83032614D02*
X104319368Y-83061017D01*
X104319368Y-83061017D02*
X104369184Y-83091256D01*
X104369184Y-83091256D02*
X104418544Y-83124227D01*
X104418544Y-83124227D02*
X104464984Y-83158158D01*
X104464984Y-83158158D02*
X104509922Y-83193852D01*
X104509922Y-83193852D02*
X104552966Y-83230850D01*
X104552966Y-83230850D02*
X104594898Y-83269713D01*
X104594898Y-83269713D02*
X104629467Y-83303972D01*
X102591537Y-83301778D02*
X102632300Y-83262387D01*
X102632300Y-83262387D02*
X102675169Y-83223814D01*
X102675169Y-83223814D02*
X102719346Y-83186940D01*
X102719346Y-83186940D02*
X102765304Y-83151495D01*
X102765304Y-83151495D02*
X102812185Y-83118227D01*
X102812185Y-83118227D02*
X102861842Y-83085978D01*
X102861842Y-83085978D02*
X102912260Y-83056207D01*
X102912260Y-83056207D02*
X102965113Y-83028027D01*
X102965113Y-83028027D02*
X103021223Y-83001307D01*
X103021223Y-83001307D02*
X103078964Y-82977049D01*
X103078964Y-82977049D02*
X103137850Y-82955494D01*
X103137850Y-82955494D02*
X103199977Y-82936044D01*
X103199977Y-82936044D02*
X103267066Y-82918612D01*
X103267066Y-82918612D02*
X103333626Y-82904773D01*
X103333626Y-82904773D02*
X103404816Y-82893554D01*
X103404816Y-82893554D02*
X103477155Y-82885731D01*
X103477155Y-82885731D02*
X103554667Y-82881120D01*
X103554667Y-82881120D02*
X103613761Y-82880087D01*
X102169685Y-84328436D02*
X102171516Y-84249487D01*
X102171516Y-84249487D02*
X102176801Y-84174401D01*
X102176801Y-84174401D02*
X102185300Y-84102481D01*
X102185300Y-84102481D02*
X102196782Y-84033627D01*
X102196782Y-84033627D02*
X102211019Y-83967741D01*
X102211019Y-83967741D02*
X102228096Y-83903679D01*
X102228096Y-83903679D02*
X102247940Y-83841407D01*
X102247940Y-83841407D02*
X102269677Y-83782910D01*
X102269677Y-83782910D02*
X102293567Y-83726676D01*
X102293567Y-83726676D02*
X102319650Y-83672280D01*
X102319650Y-83672280D02*
X102347617Y-83620032D01*
X102347617Y-83620032D02*
X102377394Y-83569752D01*
X102377394Y-83569752D02*
X102410097Y-83519559D01*
X102410097Y-83519559D02*
X102443525Y-83472633D01*
X102443525Y-83472633D02*
X102479303Y-83426432D01*
X102479303Y-83426432D02*
X102515784Y-83382901D01*
X102515784Y-83382901D02*
X102554884Y-83339621D01*
X102554884Y-83339621D02*
X102591537Y-83301778D01*
X102584852Y-85339592D02*
X102544914Y-85299451D01*
X102544914Y-85299451D02*
X102505538Y-85256653D01*
X102505538Y-85256653D02*
X102468687Y-85213188D01*
X102468687Y-85213188D02*
X102432927Y-85167247D01*
X102432927Y-85167247D02*
X102399292Y-85119947D01*
X102399292Y-85119947D02*
X102367605Y-85070928D01*
X102367605Y-85070928D02*
X102337366Y-85019102D01*
X102337366Y-85019102D02*
X102309336Y-84965428D01*
X102309336Y-84965428D02*
X102283340Y-84909253D01*
X102283340Y-84909253D02*
X102259216Y-84849610D01*
X102259216Y-84849610D02*
X102238048Y-84788787D01*
X102238048Y-84788787D02*
X102219166Y-84724437D01*
X102219166Y-84724437D02*
X102203332Y-84658564D01*
X102203332Y-84658564D02*
X102190448Y-84590619D01*
X102190448Y-84590619D02*
X102180528Y-84520000D01*
X102180528Y-84520000D02*
X102173602Y-84444907D01*
X102173602Y-84444907D02*
X102170127Y-84368087D01*
X102170127Y-84368087D02*
X102169685Y-84328436D01*
X98555821Y-83400699D02*
X99091228Y-83400699D01*
X103287499Y-84326189D02*
X103283407Y-84403117D01*
X103283407Y-84403117D02*
X103270747Y-84470733D01*
X103270747Y-84470733D02*
X103248459Y-84529100D01*
X103248459Y-84529100D02*
X103215610Y-84576598D01*
X103215610Y-84576598D02*
X103170705Y-84612178D01*
X103170705Y-84612178D02*
X103111932Y-84634129D01*
X103111932Y-84634129D02*
X103049320Y-84640423D01*
X103049320Y-84012015D02*
X103121239Y-84020517D01*
X103121239Y-84020517D02*
X103178392Y-84044838D01*
X103178392Y-84044838D02*
X103221491Y-84082490D01*
X103221491Y-84082490D02*
X103252493Y-84131498D01*
X103252493Y-84131498D02*
X103273181Y-84191044D01*
X103273181Y-84191044D02*
X103284606Y-84260809D01*
X103284606Y-84260809D02*
X103287499Y-84326189D01*
X102855184Y-84156175D02*
X102884323Y-84103997D01*
X102884323Y-84103997D02*
X102921764Y-84060431D01*
X102921764Y-84060431D02*
X102970751Y-84028086D01*
X102970751Y-84028086D02*
X103035753Y-84012427D01*
X103035753Y-84012427D02*
X103049320Y-84012015D01*
X103847994Y-84487167D02*
X103632277Y-84602029D01*
X99175807Y-83485213D02*
X99175807Y-84020615D01*
X95800235Y-86435643D02*
X95831420Y-86484508D01*
X95831420Y-86484508D02*
X95859395Y-86511559D01*
X98471243Y-84020615D02*
X98471243Y-83485213D01*
X98620679Y-84020615D02*
X98471243Y-84020615D01*
X98620679Y-84654662D02*
X98620679Y-84020615D01*
X99026480Y-84654662D02*
X98620679Y-84654662D01*
X99026480Y-84020615D02*
X99026480Y-84654662D01*
X98731962Y-82988474D02*
X98687467Y-83024479D01*
X98687467Y-83024479D02*
X98655738Y-83073675D01*
X98655738Y-83073675D02*
X98640572Y-83139022D01*
X98640572Y-83139022D02*
X98640399Y-83147047D01*
X96250077Y-86313830D02*
X96236496Y-86377694D01*
X96211185Y-86563921D02*
X96270067Y-86542384D01*
X96270067Y-86542384D02*
X96313841Y-86516160D01*
X97609791Y-83835976D02*
X97609791Y-83835976D01*
X95394977Y-85999219D02*
X95397063Y-85999219D01*
X95300758Y-86273301D02*
X95394977Y-85999219D01*
X103083393Y-83779835D02*
X103006959Y-83783631D01*
X103006959Y-83783631D02*
X102937087Y-83794782D01*
X102937087Y-83794782D02*
X102873768Y-83812835D01*
X102873768Y-83812835D02*
X102817385Y-83836992D01*
X102817385Y-83836992D02*
X102766598Y-83867151D01*
X102766598Y-83867151D02*
X102721358Y-83902805D01*
X102721358Y-83902805D02*
X102681373Y-83943541D01*
X102681373Y-83943541D02*
X102646043Y-83989414D01*
X102646043Y-83989414D02*
X102617116Y-84036663D01*
X103452930Y-83927939D02*
X103410853Y-83889472D01*
X103410853Y-83889472D02*
X103362743Y-83854911D01*
X103362743Y-83854911D02*
X103310085Y-83826385D01*
X103310085Y-83826385D02*
X103252288Y-83804169D01*
X103252288Y-83804169D02*
X103186257Y-83788317D01*
X103186257Y-83788317D02*
X103112639Y-83780476D01*
X103112639Y-83780476D02*
X103083393Y-83779835D01*
X103598149Y-84328000D02*
X103594555Y-84251331D01*
X103594555Y-84251331D02*
X103584092Y-84181305D01*
X103584092Y-84181305D02*
X103567348Y-84117987D01*
X103567348Y-84117987D02*
X103544470Y-84060043D01*
X103544470Y-84060043D02*
X103516240Y-84008145D01*
X103516240Y-84008145D02*
X103482191Y-83960645D01*
X103482191Y-83960645D02*
X103452930Y-83927939D01*
X103455231Y-84730250D02*
X103492394Y-84687261D01*
X103492394Y-84687261D02*
X103524882Y-84638399D01*
X103524882Y-84638399D02*
X103551669Y-84584371D01*
X103551669Y-84584371D02*
X103572567Y-84525039D01*
X103572567Y-84525039D02*
X103587524Y-84459483D01*
X103587524Y-84459483D02*
X103596131Y-84387272D01*
X103596131Y-84387272D02*
X103598149Y-84328000D01*
X95896750Y-85852155D02*
X95854647Y-85890831D01*
X95854647Y-85890831D02*
X95830249Y-85927083D01*
X95992394Y-85809705D02*
X95932974Y-85830850D01*
X95932974Y-85830850D02*
X95896750Y-85852155D01*
X99389445Y-86434551D02*
X99213170Y-86434552D01*
X99389445Y-86229483D02*
X99389445Y-86434551D01*
X96384171Y-86022771D02*
X96373459Y-85953319D01*
X96373459Y-85953319D02*
X96359631Y-85922756D01*
X96364889Y-86110188D02*
X96382921Y-86047828D01*
X96382921Y-86047828D02*
X96384171Y-86022771D01*
X96314164Y-86170383D02*
X96354275Y-86127760D01*
X96354275Y-86127760D02*
X96364889Y-86110188D01*
X96243061Y-86209655D02*
X96296625Y-86182721D01*
X96296625Y-86182721D02*
X96314164Y-86170383D01*
X104301615Y-84326189D02*
X104297646Y-84402784D01*
X104297646Y-84402784D02*
X104285268Y-84470508D01*
X104285268Y-84470508D02*
X104263417Y-84529008D01*
X104263417Y-84529008D02*
X104231060Y-84576737D01*
X104231060Y-84576737D02*
X104186545Y-84612545D01*
X104186545Y-84612545D02*
X104128060Y-84634462D01*
X104128060Y-84634462D02*
X104068206Y-84640423D01*
X104068206Y-84012015D02*
X104139653Y-84020772D01*
X104139653Y-84020772D02*
X104195947Y-84045637D01*
X104195947Y-84045637D02*
X104238440Y-84084317D01*
X104238440Y-84084317D02*
X104268710Y-84134546D01*
X104268710Y-84134546D02*
X104288685Y-84195706D01*
X104288685Y-84195706D02*
X104299228Y-84265886D01*
X104299228Y-84265886D02*
X104301615Y-84326189D01*
X103870068Y-84156175D02*
X103899341Y-84103997D01*
X103899341Y-84103997D02*
X103936669Y-84061004D01*
X103936669Y-84061004D02*
X103984902Y-84029186D01*
X103984902Y-84029186D02*
X104048718Y-84012826D01*
X104048718Y-84012826D02*
X104068206Y-84012015D01*
X102365519Y-83074366D02*
X102365519Y-83074366D01*
X98458426Y-86275602D02*
X98458426Y-86562501D01*
X98180917Y-85814964D02*
X98458426Y-86275602D01*
X98364207Y-85814964D02*
X98180917Y-85814964D01*
X98538184Y-86110189D02*
X98364207Y-85814964D01*
X98713257Y-85814964D02*
X98538184Y-86110189D01*
X99101422Y-86384325D02*
X99091449Y-86336180D01*
X99128154Y-86414175D02*
X99101422Y-86384325D01*
X99175807Y-84020615D02*
X99026480Y-84020615D01*
X95494569Y-86273301D02*
X95300758Y-86273301D01*
X95397063Y-85999219D02*
X95494569Y-86273301D01*
X99104266Y-85824387D02*
X99043874Y-85846029D01*
X99043874Y-85846029D02*
X99028671Y-85855279D01*
X99201772Y-85814964D02*
X99126517Y-85820332D01*
X99126517Y-85820332D02*
X99104266Y-85824387D01*
X95478791Y-85814964D02*
X95310181Y-85814964D01*
X95859395Y-86511559D02*
X95908534Y-86542586D01*
X95908534Y-86542586D02*
X95956683Y-86561347D01*
X96011019Y-85947514D02*
X96056376Y-85929768D01*
X96409593Y-86313830D02*
X96250077Y-86313830D01*
X95201282Y-86562500D02*
X95257814Y-86395991D01*
X95030482Y-86562500D02*
X95201282Y-86562500D01*
X99201772Y-85814965D02*
X99201772Y-85814964D01*
X99554217Y-85814965D02*
X99201772Y-85814965D01*
X103613761Y-85772297D02*
X103534710Y-85770330D01*
X103534710Y-85770330D02*
X103459856Y-85764718D01*
X103459856Y-85764718D02*
X103387953Y-85755707D01*
X103387953Y-85755707D02*
X103317833Y-85743318D01*
X103317833Y-85743318D02*
X103251590Y-85728173D01*
X103251590Y-85728173D02*
X103188822Y-85710574D01*
X103188822Y-85710574D02*
X103128644Y-85690583D01*
X103128644Y-85690583D02*
X103069719Y-85667895D01*
X103069719Y-85667895D02*
X103013271Y-85643122D01*
X103013271Y-85643122D02*
X102958250Y-85615969D01*
X102958250Y-85615969D02*
X102906549Y-85587611D01*
X102906549Y-85587611D02*
X102855691Y-85556888D01*
X102855691Y-85556888D02*
X102803362Y-85522203D01*
X102803362Y-85522203D02*
X102756507Y-85488361D01*
X102756507Y-85488361D02*
X102711538Y-85453278D01*
X102711538Y-85453278D02*
X102667743Y-85416540D01*
X102667743Y-85416540D02*
X102623574Y-85376785D01*
X102623574Y-85376785D02*
X102584852Y-85339592D01*
X104633905Y-85343924D02*
X104592953Y-85383538D01*
X104592953Y-85383538D02*
X104550836Y-85421611D01*
X104550836Y-85421611D02*
X104505767Y-85459513D01*
X104505767Y-85459513D02*
X104459423Y-85495585D01*
X104459423Y-85495585D02*
X104412695Y-85529133D01*
X104412695Y-85529133D02*
X104363740Y-85561393D01*
X104363740Y-85561393D02*
X104313439Y-85591631D01*
X104313439Y-85591631D02*
X104257901Y-85621773D01*
X104257901Y-85621773D02*
X104203897Y-85647982D01*
X104203897Y-85647982D02*
X104147688Y-85672195D01*
X104147688Y-85672195D02*
X104088820Y-85694365D01*
X104088820Y-85694365D02*
X104027341Y-85714230D01*
X104027341Y-85714230D02*
X103963954Y-85731370D01*
X103963954Y-85731370D02*
X103896199Y-85746145D01*
X103896199Y-85746145D02*
X103826637Y-85757700D01*
X103826637Y-85757700D02*
X103753423Y-85766123D01*
X103753423Y-85766123D02*
X103677425Y-85771037D01*
X103677425Y-85771037D02*
X103613761Y-85772297D01*
X105062276Y-84328436D02*
X105060320Y-84406994D01*
X105060320Y-84406994D02*
X105054661Y-84482173D01*
X105054661Y-84482173D02*
X105045435Y-84555026D01*
X105045435Y-84555026D02*
X105033146Y-84623872D01*
X105033146Y-84623872D02*
X105018049Y-84689380D01*
X105018049Y-84689380D02*
X104999810Y-84753724D01*
X104999810Y-84753724D02*
X104979354Y-84814376D01*
X104979354Y-84814376D02*
X104956631Y-84872468D01*
X104956631Y-84872468D02*
X104931852Y-84928072D01*
X104931852Y-84928072D02*
X104904718Y-84982231D01*
X104904718Y-84982231D02*
X104875782Y-85034142D01*
X104875782Y-85034142D02*
X104845156Y-85083991D01*
X104845156Y-85083991D02*
X104811802Y-85133546D01*
X104811802Y-85133546D02*
X104777430Y-85180429D01*
X104777430Y-85180429D02*
X104741121Y-85226159D01*
X104741121Y-85226159D02*
X104703595Y-85270008D01*
X104703595Y-85270008D02*
X104664700Y-85312343D01*
X104664700Y-85312343D02*
X104633905Y-85343924D01*
X104629467Y-83303972D02*
X104669900Y-83346151D01*
X104669900Y-83346151D02*
X104709115Y-83389900D01*
X104709115Y-83389900D02*
X104745992Y-83434026D01*
X104745992Y-83434026D02*
X104781012Y-83479088D01*
X104781012Y-83479088D02*
X104814535Y-83525672D01*
X104814535Y-83525672D02*
X104846825Y-83574399D01*
X104846825Y-83574399D02*
X104877554Y-83625103D01*
X104877554Y-83625103D02*
X104906805Y-83678325D01*
X104906805Y-83678325D02*
X104934918Y-83735387D01*
X104934918Y-83735387D02*
X104959302Y-83791159D01*
X104959302Y-83791159D02*
X104981828Y-83849871D01*
X104981828Y-83849871D02*
X105001736Y-83910069D01*
X105001736Y-83910069D02*
X105019217Y-83972826D01*
X105019217Y-83972826D02*
X105034161Y-84038763D01*
X105034161Y-84038763D02*
X105046175Y-84107436D01*
X105046175Y-84107436D02*
X105055192Y-84180598D01*
X105055192Y-84180598D02*
X105060649Y-84257004D01*
X105060649Y-84257004D02*
X105062276Y-84328436D01*
X104103811Y-83779835D02*
X104026947Y-83783661D01*
X104026947Y-83783661D02*
X103953959Y-83795518D01*
X103953959Y-83795518D02*
X103891543Y-83813649D01*
X103891543Y-83813649D02*
X103835711Y-83837821D01*
X103835711Y-83837821D02*
X103785607Y-83867738D01*
X103785607Y-83867738D02*
X103740160Y-83903675D01*
X103740160Y-83903675D02*
X103700525Y-83944142D01*
X103700525Y-83944142D02*
X103664385Y-83991230D01*
X103664385Y-83991230D02*
X103636605Y-84036663D01*
X104471814Y-83927939D02*
X104429617Y-83889845D01*
X104429617Y-83889845D02*
X104382688Y-83856153D01*
X104382688Y-83856153D02*
X104330471Y-83827527D01*
X104330471Y-83827527D02*
X104272735Y-83804877D01*
X104272735Y-83804877D02*
X104207492Y-83788737D01*
X104207492Y-83788737D02*
X104134868Y-83780585D01*
X104134868Y-83780585D02*
X104103811Y-83779835D01*
X104619442Y-84328000D02*
X104615790Y-84251331D01*
X104615790Y-84251331D02*
X104605092Y-84180983D01*
X104605092Y-84180983D02*
X104587679Y-84116592D01*
X104587679Y-84116592D02*
X104564099Y-84058386D01*
X104564099Y-84058386D02*
X104535322Y-84006787D01*
X104535322Y-84006787D02*
X104501409Y-83960450D01*
X104501409Y-83960450D02*
X104471814Y-83927939D01*
X104476195Y-84730250D02*
X104513434Y-84687341D01*
X104513434Y-84687341D02*
X104545677Y-84639092D01*
X104545677Y-84639092D02*
X104572443Y-84585501D01*
X104572443Y-84585501D02*
X104594324Y-84523398D01*
X104594324Y-84523398D02*
X104609122Y-84457714D01*
X104609122Y-84457714D02*
X104617508Y-84386084D01*
X104617508Y-84386084D02*
X104619442Y-84328000D01*
X95979248Y-85982130D02*
X96011019Y-85947514D01*
X105156000Y-84329865D02*
X105156000Y-84328000D01*
X105156000Y-84328000D02*
X105154072Y-84249406D01*
X105154072Y-84249406D02*
X105148505Y-84174260D01*
X105148505Y-84174260D02*
X105139647Y-84101953D01*
X105139647Y-84101953D02*
X105127885Y-84032779D01*
X105127885Y-84032779D02*
X105113642Y-83967011D01*
X105113642Y-83967011D02*
X105096710Y-83902605D01*
X105096710Y-83902605D02*
X105077285Y-83839891D01*
X105077285Y-83839891D02*
X105056230Y-83780821D01*
X105056230Y-83780821D02*
X105032057Y-83721007D01*
X105032057Y-83721007D02*
X105007119Y-83665890D01*
X105007119Y-83665890D02*
X104980372Y-83612466D01*
X104980372Y-83612466D02*
X104951641Y-83560250D01*
X104951641Y-83560250D02*
X104921127Y-83509535D01*
X104921127Y-83509535D02*
X104889395Y-83461071D01*
X104889395Y-83461071D02*
X104856083Y-83414127D01*
X104856083Y-83414127D02*
X104820725Y-83368054D01*
X104820725Y-83368054D02*
X104784443Y-83324252D01*
X104784443Y-83324252D02*
X104743850Y-83278873D01*
X104743850Y-83278873D02*
X104703764Y-83237375D01*
X104703764Y-83237375D02*
X104661732Y-83197003D01*
X104661732Y-83197003D02*
X104617324Y-83157482D01*
X104617324Y-83157482D02*
X104572764Y-83120751D01*
X104572764Y-83120751D02*
X104526826Y-83085684D01*
X104526826Y-83085684D02*
X104479795Y-83052486D01*
X104479795Y-83052486D02*
X104430998Y-83020716D01*
X104430998Y-83020716D02*
X104380696Y-82990620D01*
X104380696Y-82990620D02*
X104327628Y-82961599D01*
X104327628Y-82961599D02*
X104273320Y-82934628D01*
X104273320Y-82934628D02*
X104215670Y-82908845D01*
X104215670Y-82908845D02*
X104158444Y-82886002D01*
X104158444Y-82886002D02*
X104098436Y-82864857D01*
X104098436Y-82864857D02*
X104036179Y-82845827D01*
X104036179Y-82845827D02*
X103971093Y-82828978D01*
X103971093Y-82828978D02*
X103904924Y-82814928D01*
X103904924Y-82814928D02*
X103835045Y-82803361D01*
X103835045Y-82803361D02*
X103762319Y-82794799D01*
X103762319Y-82794799D02*
X103686444Y-82789558D01*
X103686444Y-82789558D02*
X103617705Y-82788014D01*
D11*
X136652000Y-50292000D02*
X133604000Y-50292000D01*
X134620000Y-48514000D02*
X133604000Y-48514000D01*
X124886404Y-78367380D02*
X124886404Y-77367380D01*
X124886404Y-77843571D02*
X124314976Y-77843571D01*
X124314976Y-78367380D02*
X124314976Y-77367380D01*
X123934023Y-77367380D02*
X123695928Y-78367380D01*
X123505452Y-77653095D01*
X123314976Y-78367380D01*
X123076880Y-77367380D01*
X121934023Y-78367380D02*
X121934023Y-77367380D01*
X121695928Y-77367380D01*
X121553071Y-77415000D01*
X121457833Y-77510238D01*
X121410214Y-77605476D01*
X121362595Y-77795952D01*
X121362595Y-77938809D01*
X121410214Y-78129285D01*
X121457833Y-78224523D01*
X121553071Y-78319761D01*
X121695928Y-78367380D01*
X121934023Y-78367380D01*
X120553071Y-78319761D02*
X120648309Y-78367380D01*
X120838785Y-78367380D01*
X120934023Y-78319761D01*
X120981642Y-78224523D01*
X120981642Y-77843571D01*
X120934023Y-77748333D01*
X120838785Y-77700714D01*
X120648309Y-77700714D01*
X120553071Y-77748333D01*
X120505452Y-77843571D01*
X120505452Y-77938809D01*
X120981642Y-78034047D01*
X120124500Y-78319761D02*
X120029261Y-78367380D01*
X119838785Y-78367380D01*
X119743547Y-78319761D01*
X119695928Y-78224523D01*
X119695928Y-78176904D01*
X119743547Y-78081666D01*
X119838785Y-78034047D01*
X119981642Y-78034047D01*
X120076880Y-77986428D01*
X120124500Y-77891190D01*
X120124500Y-77843571D01*
X120076880Y-77748333D01*
X119981642Y-77700714D01*
X119838785Y-77700714D01*
X119743547Y-77748333D01*
X119267357Y-78367380D02*
X119267357Y-77700714D01*
X119267357Y-77367380D02*
X119314976Y-77415000D01*
X119267357Y-77462619D01*
X119219738Y-77415000D01*
X119267357Y-77367380D01*
X119267357Y-77462619D01*
X118362595Y-77700714D02*
X118362595Y-78510238D01*
X118410214Y-78605476D01*
X118457833Y-78653095D01*
X118553071Y-78700714D01*
X118695928Y-78700714D01*
X118791166Y-78653095D01*
X118362595Y-78319761D02*
X118457833Y-78367380D01*
X118648309Y-78367380D01*
X118743547Y-78319761D01*
X118791166Y-78272142D01*
X118838785Y-78176904D01*
X118838785Y-77891190D01*
X118791166Y-77795952D01*
X118743547Y-77748333D01*
X118648309Y-77700714D01*
X118457833Y-77700714D01*
X118362595Y-77748333D01*
X117886404Y-77700714D02*
X117886404Y-78367380D01*
X117886404Y-77795952D02*
X117838785Y-77748333D01*
X117743547Y-77700714D01*
X117600690Y-77700714D01*
X117505452Y-77748333D01*
X117457833Y-77843571D01*
X117457833Y-78367380D01*
X116981642Y-78272142D02*
X116934023Y-78319761D01*
X116981642Y-78367380D01*
X117029261Y-78319761D01*
X116981642Y-78272142D01*
X116981642Y-78367380D01*
X116981642Y-77748333D02*
X116934023Y-77795952D01*
X116981642Y-77843571D01*
X117029261Y-77795952D01*
X116981642Y-77748333D01*
X116981642Y-77843571D01*
X115838785Y-77367380D02*
X115600690Y-78367380D01*
X115410214Y-77653095D01*
X115219738Y-78367380D01*
X114981642Y-77367380D01*
X114172119Y-78367380D02*
X114172119Y-77843571D01*
X114219738Y-77748333D01*
X114314976Y-77700714D01*
X114505452Y-77700714D01*
X114600690Y-77748333D01*
X114172119Y-78319761D02*
X114267357Y-78367380D01*
X114505452Y-78367380D01*
X114600690Y-78319761D01*
X114648309Y-78224523D01*
X114648309Y-78129285D01*
X114600690Y-78034047D01*
X114505452Y-77986428D01*
X114267357Y-77986428D01*
X114172119Y-77938809D01*
X113695928Y-78367380D02*
X113695928Y-77700714D01*
X113695928Y-77367380D02*
X113743547Y-77415000D01*
X113695928Y-77462619D01*
X113648309Y-77415000D01*
X113695928Y-77367380D01*
X113695928Y-77462619D01*
X112457833Y-78367380D02*
X112457833Y-77367380D01*
X112076880Y-77367380D01*
X111981642Y-77415000D01*
X111934023Y-77462619D01*
X111886404Y-77557857D01*
X111886404Y-77700714D01*
X111934023Y-77795952D01*
X111981642Y-77843571D01*
X112076880Y-77891190D01*
X112457833Y-77891190D01*
X111029261Y-78367380D02*
X111029261Y-77843571D01*
X111076880Y-77748333D01*
X111172119Y-77700714D01*
X111362595Y-77700714D01*
X111457833Y-77748333D01*
X111029261Y-78319761D02*
X111124500Y-78367380D01*
X111362595Y-78367380D01*
X111457833Y-78319761D01*
X111505452Y-78224523D01*
X111505452Y-78129285D01*
X111457833Y-78034047D01*
X111362595Y-77986428D01*
X111124500Y-77986428D01*
X111029261Y-77938809D01*
X110124500Y-77700714D02*
X110124500Y-78367380D01*
X110553071Y-77700714D02*
X110553071Y-78224523D01*
X110505452Y-78319761D01*
X110410214Y-78367380D01*
X110267357Y-78367380D01*
X110172119Y-78319761D01*
X110124500Y-78272142D01*
X109505452Y-78367380D02*
X109600690Y-78319761D01*
X109648309Y-78224523D01*
X109648309Y-77367380D01*
X108981642Y-78367380D02*
X109076880Y-78319761D01*
X109124500Y-78272142D01*
X109172119Y-78176904D01*
X109172119Y-77891190D01*
X109124500Y-77795952D01*
X109076880Y-77748333D01*
X108981642Y-77700714D01*
X108838785Y-77700714D01*
X108743547Y-77748333D01*
X108695928Y-77795952D01*
X108648309Y-77891190D01*
X108648309Y-78176904D01*
X108695928Y-78272142D01*
X108743547Y-78319761D01*
X108838785Y-78367380D01*
X108981642Y-78367380D01*
X107600690Y-77367380D02*
X107267357Y-78367380D01*
X106934023Y-77367380D01*
X106172119Y-78367380D02*
X106172119Y-77843571D01*
X106219738Y-77748333D01*
X106314976Y-77700714D01*
X106505452Y-77700714D01*
X106600690Y-77748333D01*
X106172119Y-78319761D02*
X106267357Y-78367380D01*
X106505452Y-78367380D01*
X106600690Y-78319761D01*
X106648309Y-78224523D01*
X106648309Y-78129285D01*
X106600690Y-78034047D01*
X106505452Y-77986428D01*
X106267357Y-77986428D01*
X106172119Y-77938809D01*
X105553071Y-78367380D02*
X105648309Y-78319761D01*
X105695928Y-78224523D01*
X105695928Y-77367380D01*
X104791166Y-78319761D02*
X104886404Y-78367380D01*
X105076880Y-78367380D01*
X105172119Y-78319761D01*
X105219738Y-78224523D01*
X105219738Y-77843571D01*
X105172119Y-77748333D01*
X105076880Y-77700714D01*
X104886404Y-77700714D01*
X104791166Y-77748333D01*
X104743547Y-77843571D01*
X104743547Y-77938809D01*
X105219738Y-78034047D01*
X104314976Y-78367380D02*
X104314976Y-77700714D01*
X104314976Y-77891190D02*
X104267357Y-77795952D01*
X104219738Y-77748333D01*
X104124500Y-77700714D01*
X104029261Y-77700714D01*
X103695928Y-78367380D02*
X103695928Y-77700714D01*
X103695928Y-77367380D02*
X103743547Y-77415000D01*
X103695928Y-77462619D01*
X103648309Y-77415000D01*
X103695928Y-77367380D01*
X103695928Y-77462619D01*
X103076880Y-78367380D02*
X103172119Y-78319761D01*
X103219738Y-78272142D01*
X103267357Y-78176904D01*
X103267357Y-77891190D01*
X103219738Y-77795952D01*
X103172119Y-77748333D01*
X103076880Y-77700714D01*
X102934023Y-77700714D01*
X102838785Y-77748333D01*
X102791166Y-77795952D01*
X102743547Y-77891190D01*
X102743547Y-78176904D01*
X102791166Y-78272142D01*
X102838785Y-78319761D01*
X102934023Y-78367380D01*
X103076880Y-78367380D01*
X101648309Y-77367380D02*
X101410214Y-78367380D01*
X101219738Y-77653095D01*
X101029261Y-78367380D01*
X100791166Y-77367380D01*
X99981642Y-78367380D02*
X99981642Y-77843571D01*
X100029261Y-77748333D01*
X100124500Y-77700714D01*
X100314976Y-77700714D01*
X100410214Y-77748333D01*
X99981642Y-78319761D02*
X100076880Y-78367380D01*
X100314976Y-78367380D01*
X100410214Y-78319761D01*
X100457833Y-78224523D01*
X100457833Y-78129285D01*
X100410214Y-78034047D01*
X100314976Y-77986428D01*
X100076880Y-77986428D01*
X99981642Y-77938809D01*
X99505452Y-77700714D02*
X99505452Y-78367380D01*
X99505452Y-77795952D02*
X99457833Y-77748333D01*
X99362595Y-77700714D01*
X99219738Y-77700714D01*
X99124500Y-77748333D01*
X99076880Y-77843571D01*
X99076880Y-78367380D01*
X98172119Y-77700714D02*
X98172119Y-78510238D01*
X98219738Y-78605476D01*
X98267357Y-78653095D01*
X98362595Y-78700714D01*
X98505452Y-78700714D01*
X98600690Y-78653095D01*
X98172119Y-78319761D02*
X98267357Y-78367380D01*
X98457833Y-78367380D01*
X98553071Y-78319761D01*
X98600690Y-78272142D01*
X98648309Y-78176904D01*
X98648309Y-77891190D01*
X98600690Y-77795952D01*
X98553071Y-77748333D01*
X98457833Y-77700714D01*
X98267357Y-77700714D01*
X98172119Y-77748333D01*
X96648309Y-78748333D02*
X96695928Y-78700714D01*
X96791166Y-78557857D01*
X96838785Y-78462619D01*
X96886404Y-78319761D01*
X96934023Y-78081666D01*
X96934023Y-77891190D01*
X96886404Y-77653095D01*
X96838785Y-77510238D01*
X96791166Y-77415000D01*
X96695928Y-77272142D01*
X96648309Y-77224523D01*
X95600690Y-77700714D02*
X95410214Y-78367380D01*
X95219738Y-77891190D01*
X95029261Y-78367380D01*
X94838785Y-77700714D01*
X94029261Y-78367380D02*
X94029261Y-77843571D01*
X94076880Y-77748333D01*
X94172119Y-77700714D01*
X94362595Y-77700714D01*
X94457833Y-77748333D01*
X94029261Y-78319761D02*
X94124500Y-78367380D01*
X94362595Y-78367380D01*
X94457833Y-78319761D01*
X94505452Y-78224523D01*
X94505452Y-78129285D01*
X94457833Y-78034047D01*
X94362595Y-77986428D01*
X94124500Y-77986428D01*
X94029261Y-77938809D01*
X93553071Y-78367380D02*
X93553071Y-77700714D01*
X93553071Y-77367380D02*
X93600690Y-77415000D01*
X93553071Y-77462619D01*
X93505452Y-77415000D01*
X93553071Y-77367380D01*
X93553071Y-77462619D01*
X92648309Y-78319761D02*
X92743547Y-78367380D01*
X92934023Y-78367380D01*
X93029261Y-78319761D01*
X93076880Y-78272142D01*
X93124500Y-78176904D01*
X93124500Y-77891190D01*
X93076880Y-77795952D01*
X93029261Y-77748333D01*
X92934023Y-77700714D01*
X92743547Y-77700714D01*
X92648309Y-77748333D01*
X92076880Y-78367380D02*
X92172119Y-78319761D01*
X92219738Y-78272142D01*
X92267357Y-78176904D01*
X92267357Y-77891190D01*
X92219738Y-77795952D01*
X92172119Y-77748333D01*
X92076880Y-77700714D01*
X91934023Y-77700714D01*
X91838785Y-77748333D01*
X91791166Y-77795952D01*
X91743547Y-77891190D01*
X91743547Y-78176904D01*
X91791166Y-78272142D01*
X91838785Y-78319761D01*
X91934023Y-78367380D01*
X92076880Y-78367380D01*
X91172119Y-78367380D02*
X91267357Y-78319761D01*
X91314976Y-78272142D01*
X91362595Y-78176904D01*
X91362595Y-77891190D01*
X91314976Y-77795952D01*
X91267357Y-77748333D01*
X91172119Y-77700714D01*
X91029261Y-77700714D01*
X90934023Y-77748333D01*
X90886404Y-77795952D01*
X90838785Y-77891190D01*
X90838785Y-78176904D01*
X90886404Y-78272142D01*
X90934023Y-78319761D01*
X91029261Y-78367380D01*
X91172119Y-78367380D01*
X90267357Y-78367380D02*
X90362595Y-78319761D01*
X90410214Y-78224523D01*
X90410214Y-77367380D01*
X89934023Y-77462619D02*
X89886404Y-77415000D01*
X89791166Y-77367380D01*
X89553071Y-77367380D01*
X89457833Y-77415000D01*
X89410214Y-77462619D01*
X89362595Y-77557857D01*
X89362595Y-77653095D01*
X89410214Y-77795952D01*
X89981642Y-78367380D01*
X89362595Y-78367380D01*
X88743547Y-77367380D02*
X88648309Y-77367380D01*
X88553071Y-77415000D01*
X88505452Y-77462619D01*
X88457833Y-77557857D01*
X88410214Y-77748333D01*
X88410214Y-77986428D01*
X88457833Y-78176904D01*
X88505452Y-78272142D01*
X88553071Y-78319761D01*
X88648309Y-78367380D01*
X88743547Y-78367380D01*
X88838785Y-78319761D01*
X88886404Y-78272142D01*
X88934023Y-78176904D01*
X88981642Y-77986428D01*
X88981642Y-77748333D01*
X88934023Y-77557857D01*
X88886404Y-77462619D01*
X88838785Y-77415000D01*
X88743547Y-77367380D01*
X87314976Y-78748333D02*
X87267357Y-78700714D01*
X87172119Y-78557857D01*
X87124500Y-78462619D01*
X87076880Y-78319761D01*
X87029261Y-78081666D01*
X87029261Y-77891190D01*
X87076880Y-77653095D01*
X87124500Y-77510238D01*
X87172119Y-77415000D01*
X87267357Y-77272142D01*
X87314976Y-77224523D01*
X124886404Y-80017380D02*
X124886404Y-79017380D01*
X124457833Y-80017380D02*
X124457833Y-79493571D01*
X124505452Y-79398333D01*
X124600690Y-79350714D01*
X124743547Y-79350714D01*
X124838785Y-79398333D01*
X124886404Y-79445952D01*
X124124500Y-79350714D02*
X123743547Y-79350714D01*
X123981642Y-79017380D02*
X123981642Y-79874523D01*
X123934023Y-79969761D01*
X123838785Y-80017380D01*
X123743547Y-80017380D01*
X123553071Y-79350714D02*
X123172119Y-79350714D01*
X123410214Y-79017380D02*
X123410214Y-79874523D01*
X123362595Y-79969761D01*
X123267357Y-80017380D01*
X123172119Y-80017380D01*
X122838785Y-79350714D02*
X122838785Y-80350714D01*
X122838785Y-79398333D02*
X122743547Y-79350714D01*
X122553071Y-79350714D01*
X122457833Y-79398333D01*
X122410214Y-79445952D01*
X122362595Y-79541190D01*
X122362595Y-79826904D01*
X122410214Y-79922142D01*
X122457833Y-79969761D01*
X122553071Y-80017380D01*
X122743547Y-80017380D01*
X122838785Y-79969761D01*
X121981642Y-79969761D02*
X121886404Y-80017380D01*
X121695928Y-80017380D01*
X121600690Y-79969761D01*
X121553071Y-79874523D01*
X121553071Y-79826904D01*
X121600690Y-79731666D01*
X121695928Y-79684047D01*
X121838785Y-79684047D01*
X121934023Y-79636428D01*
X121981642Y-79541190D01*
X121981642Y-79493571D01*
X121934023Y-79398333D01*
X121838785Y-79350714D01*
X121695928Y-79350714D01*
X121600690Y-79398333D01*
X121124500Y-79922142D02*
X121076880Y-79969761D01*
X121124500Y-80017380D01*
X121172119Y-79969761D01*
X121124500Y-79922142D01*
X121124500Y-80017380D01*
X121124500Y-79398333D02*
X121076880Y-79445952D01*
X121124500Y-79493571D01*
X121172119Y-79445952D01*
X121124500Y-79398333D01*
X121124500Y-79493571D01*
X119934023Y-78969761D02*
X120791166Y-80255476D01*
X118886404Y-78969761D02*
X119743547Y-80255476D01*
X118124500Y-79350714D02*
X118124500Y-80160238D01*
X118172119Y-80255476D01*
X118219738Y-80303095D01*
X118314976Y-80350714D01*
X118457833Y-80350714D01*
X118553071Y-80303095D01*
X118124500Y-79969761D02*
X118219738Y-80017380D01*
X118410214Y-80017380D01*
X118505452Y-79969761D01*
X118553071Y-79922142D01*
X118600690Y-79826904D01*
X118600690Y-79541190D01*
X118553071Y-79445952D01*
X118505452Y-79398333D01*
X118410214Y-79350714D01*
X118219738Y-79350714D01*
X118124500Y-79398333D01*
X117648309Y-80017380D02*
X117648309Y-79350714D01*
X117648309Y-79017380D02*
X117695928Y-79065000D01*
X117648309Y-79112619D01*
X117600690Y-79065000D01*
X117648309Y-79017380D01*
X117648309Y-79112619D01*
X117314976Y-79350714D02*
X116934023Y-79350714D01*
X117172119Y-79017380D02*
X117172119Y-79874523D01*
X117124500Y-79969761D01*
X117029261Y-80017380D01*
X116934023Y-80017380D01*
X116600690Y-80017380D02*
X116600690Y-79017380D01*
X116172119Y-80017380D02*
X116172119Y-79493571D01*
X116219738Y-79398333D01*
X116314976Y-79350714D01*
X116457833Y-79350714D01*
X116553071Y-79398333D01*
X116600690Y-79445952D01*
X115267357Y-79350714D02*
X115267357Y-80017380D01*
X115695928Y-79350714D02*
X115695928Y-79874523D01*
X115648309Y-79969761D01*
X115553071Y-80017380D01*
X115410214Y-80017380D01*
X115314976Y-79969761D01*
X115267357Y-79922142D01*
X114791166Y-80017380D02*
X114791166Y-79017380D01*
X114791166Y-79398333D02*
X114695928Y-79350714D01*
X114505452Y-79350714D01*
X114410214Y-79398333D01*
X114362595Y-79445952D01*
X114314976Y-79541190D01*
X114314976Y-79826904D01*
X114362595Y-79922142D01*
X114410214Y-79969761D01*
X114505452Y-80017380D01*
X114695928Y-80017380D01*
X114791166Y-79969761D01*
X113886404Y-79922142D02*
X113838785Y-79969761D01*
X113886404Y-80017380D01*
X113934023Y-79969761D01*
X113886404Y-79922142D01*
X113886404Y-80017380D01*
X112981642Y-79969761D02*
X113076880Y-80017380D01*
X113267357Y-80017380D01*
X113362595Y-79969761D01*
X113410214Y-79922142D01*
X113457833Y-79826904D01*
X113457833Y-79541190D01*
X113410214Y-79445952D01*
X113362595Y-79398333D01*
X113267357Y-79350714D01*
X113076880Y-79350714D01*
X112981642Y-79398333D01*
X112410214Y-80017380D02*
X112505452Y-79969761D01*
X112553071Y-79922142D01*
X112600690Y-79826904D01*
X112600690Y-79541190D01*
X112553071Y-79445952D01*
X112505452Y-79398333D01*
X112410214Y-79350714D01*
X112267357Y-79350714D01*
X112172119Y-79398333D01*
X112124500Y-79445952D01*
X112076880Y-79541190D01*
X112076880Y-79826904D01*
X112124500Y-79922142D01*
X112172119Y-79969761D01*
X112267357Y-80017380D01*
X112410214Y-80017380D01*
X111648309Y-80017380D02*
X111648309Y-79350714D01*
X111648309Y-79445952D02*
X111600690Y-79398333D01*
X111505452Y-79350714D01*
X111362595Y-79350714D01*
X111267357Y-79398333D01*
X111219738Y-79493571D01*
X111219738Y-80017380D01*
X111219738Y-79493571D02*
X111172119Y-79398333D01*
X111076880Y-79350714D01*
X110934023Y-79350714D01*
X110838785Y-79398333D01*
X110791166Y-79493571D01*
X110791166Y-80017380D01*
X109600690Y-78969761D02*
X110457833Y-80255476D01*
X109362595Y-79350714D02*
X109172119Y-80017380D01*
X108981642Y-79541190D01*
X108791166Y-80017380D01*
X108600690Y-79350714D01*
X107791166Y-80017380D02*
X107791166Y-79493571D01*
X107838785Y-79398333D01*
X107934023Y-79350714D01*
X108124500Y-79350714D01*
X108219738Y-79398333D01*
X107791166Y-79969761D02*
X107886404Y-80017380D01*
X108124500Y-80017380D01*
X108219738Y-79969761D01*
X108267357Y-79874523D01*
X108267357Y-79779285D01*
X108219738Y-79684047D01*
X108124500Y-79636428D01*
X107886404Y-79636428D01*
X107791166Y-79588809D01*
X107314976Y-80017380D02*
X107314976Y-79350714D01*
X107314976Y-79017380D02*
X107362595Y-79065000D01*
X107314976Y-79112619D01*
X107267357Y-79065000D01*
X107314976Y-79017380D01*
X107314976Y-79112619D01*
X106410214Y-79969761D02*
X106505452Y-80017380D01*
X106695928Y-80017380D01*
X106791166Y-79969761D01*
X106838785Y-79922142D01*
X106886404Y-79826904D01*
X106886404Y-79541190D01*
X106838785Y-79445952D01*
X106791166Y-79398333D01*
X106695928Y-79350714D01*
X106505452Y-79350714D01*
X106410214Y-79398333D01*
X105838785Y-80017380D02*
X105934023Y-79969761D01*
X105981642Y-79922142D01*
X106029261Y-79826904D01*
X106029261Y-79541190D01*
X105981642Y-79445952D01*
X105934023Y-79398333D01*
X105838785Y-79350714D01*
X105695928Y-79350714D01*
X105600690Y-79398333D01*
X105553071Y-79445952D01*
X105505452Y-79541190D01*
X105505452Y-79826904D01*
X105553071Y-79922142D01*
X105600690Y-79969761D01*
X105695928Y-80017380D01*
X105838785Y-80017380D01*
X104934023Y-80017380D02*
X105029261Y-79969761D01*
X105076880Y-79922142D01*
X105124500Y-79826904D01*
X105124500Y-79541190D01*
X105076880Y-79445952D01*
X105029261Y-79398333D01*
X104934023Y-79350714D01*
X104791166Y-79350714D01*
X104695928Y-79398333D01*
X104648309Y-79445952D01*
X104600690Y-79541190D01*
X104600690Y-79826904D01*
X104648309Y-79922142D01*
X104695928Y-79969761D01*
X104791166Y-80017380D01*
X104934023Y-80017380D01*
X104029261Y-80017380D02*
X104124500Y-79969761D01*
X104172119Y-79874523D01*
X104172119Y-79017380D01*
X103695928Y-79112619D02*
X103648309Y-79065000D01*
X103553071Y-79017380D01*
X103314976Y-79017380D01*
X103219738Y-79065000D01*
X103172119Y-79112619D01*
X103124500Y-79207857D01*
X103124500Y-79303095D01*
X103172119Y-79445952D01*
X103743547Y-80017380D01*
X103124500Y-80017380D01*
X102505452Y-79017380D02*
X102410214Y-79017380D01*
X102314976Y-79065000D01*
X102267357Y-79112619D01*
X102219738Y-79207857D01*
X102172119Y-79398333D01*
X102172119Y-79636428D01*
X102219738Y-79826904D01*
X102267357Y-79922142D01*
X102314976Y-79969761D01*
X102410214Y-80017380D01*
X102505452Y-80017380D01*
X102600690Y-79969761D01*
X102648309Y-79922142D01*
X102695928Y-79826904D01*
X102743547Y-79636428D01*
X102743547Y-79398333D01*
X102695928Y-79207857D01*
X102648309Y-79112619D01*
X102600690Y-79065000D01*
X102505452Y-79017380D01*
X101029261Y-78969761D02*
X101886404Y-80255476D01*
X100219738Y-80017380D02*
X100695928Y-80017380D01*
X100695928Y-79017380D01*
X99457833Y-80017380D02*
X99457833Y-79493571D01*
X99505452Y-79398333D01*
X99600690Y-79350714D01*
X99791166Y-79350714D01*
X99886404Y-79398333D01*
X99457833Y-79969761D02*
X99553071Y-80017380D01*
X99791166Y-80017380D01*
X99886404Y-79969761D01*
X99934023Y-79874523D01*
X99934023Y-79779285D01*
X99886404Y-79684047D01*
X99791166Y-79636428D01*
X99553071Y-79636428D01*
X99457833Y-79588809D01*
X99029261Y-79969761D02*
X98934023Y-80017380D01*
X98743547Y-80017380D01*
X98648309Y-79969761D01*
X98600690Y-79874523D01*
X98600690Y-79826904D01*
X98648309Y-79731666D01*
X98743547Y-79684047D01*
X98886404Y-79684047D01*
X98981642Y-79636428D01*
X99029261Y-79541190D01*
X99029261Y-79493571D01*
X98981642Y-79398333D01*
X98886404Y-79350714D01*
X98743547Y-79350714D01*
X98648309Y-79398333D01*
X97791166Y-79969761D02*
X97886404Y-80017380D01*
X98076880Y-80017380D01*
X98172119Y-79969761D01*
X98219738Y-79874523D01*
X98219738Y-79493571D01*
X98172119Y-79398333D01*
X98076880Y-79350714D01*
X97886404Y-79350714D01*
X97791166Y-79398333D01*
X97743547Y-79493571D01*
X97743547Y-79588809D01*
X98219738Y-79684047D01*
X97314976Y-80017380D02*
X97314976Y-79350714D01*
X97314976Y-79541190D02*
X97267357Y-79445952D01*
X97219738Y-79398333D01*
X97124500Y-79350714D01*
X97029261Y-79350714D01*
X96743547Y-79969761D02*
X96600690Y-80017380D01*
X96362595Y-80017380D01*
X96267357Y-79969761D01*
X96219738Y-79922142D01*
X96172119Y-79826904D01*
X96172119Y-79731666D01*
X96219738Y-79636428D01*
X96267357Y-79588809D01*
X96362595Y-79541190D01*
X96553071Y-79493571D01*
X96648309Y-79445952D01*
X96695928Y-79398333D01*
X96743547Y-79303095D01*
X96743547Y-79207857D01*
X96695928Y-79112619D01*
X96648309Y-79065000D01*
X96553071Y-79017380D01*
X96314976Y-79017380D01*
X96172119Y-79065000D01*
X95314976Y-79969761D02*
X95410214Y-80017380D01*
X95600690Y-80017380D01*
X95695928Y-79969761D01*
X95743547Y-79922142D01*
X95791166Y-79826904D01*
X95791166Y-79541190D01*
X95743547Y-79445952D01*
X95695928Y-79398333D01*
X95600690Y-79350714D01*
X95410214Y-79350714D01*
X95314976Y-79398333D01*
X94457833Y-80017380D02*
X94457833Y-79493571D01*
X94505452Y-79398333D01*
X94600690Y-79350714D01*
X94791166Y-79350714D01*
X94886404Y-79398333D01*
X94457833Y-79969761D02*
X94553071Y-80017380D01*
X94791166Y-80017380D01*
X94886404Y-79969761D01*
X94934023Y-79874523D01*
X94934023Y-79779285D01*
X94886404Y-79684047D01*
X94791166Y-79636428D01*
X94553071Y-79636428D01*
X94457833Y-79588809D01*
X93981642Y-79350714D02*
X93981642Y-80017380D01*
X93981642Y-79445952D02*
X93934023Y-79398333D01*
X93838785Y-79350714D01*
X93695928Y-79350714D01*
X93600690Y-79398333D01*
X93553071Y-79493571D01*
X93553071Y-80017380D01*
X93076880Y-79350714D02*
X93076880Y-80017380D01*
X93076880Y-79445952D02*
X93029261Y-79398333D01*
X92934023Y-79350714D01*
X92791166Y-79350714D01*
X92695928Y-79398333D01*
X92648309Y-79493571D01*
X92648309Y-80017380D01*
X92172119Y-80017380D02*
X92172119Y-79350714D01*
X92172119Y-79017380D02*
X92219738Y-79065000D01*
X92172119Y-79112619D01*
X92124500Y-79065000D01*
X92172119Y-79017380D01*
X92172119Y-79112619D01*
X91695928Y-79350714D02*
X91695928Y-80017380D01*
X91695928Y-79445952D02*
X91648309Y-79398333D01*
X91553071Y-79350714D01*
X91410214Y-79350714D01*
X91314976Y-79398333D01*
X91267357Y-79493571D01*
X91267357Y-80017380D01*
X90362595Y-79350714D02*
X90362595Y-80160238D01*
X90410214Y-80255476D01*
X90457833Y-80303095D01*
X90553071Y-80350714D01*
X90695928Y-80350714D01*
X90791166Y-80303095D01*
X90362595Y-79969761D02*
X90457833Y-80017380D01*
X90648309Y-80017380D01*
X90743547Y-79969761D01*
X90791166Y-79922142D01*
X90838785Y-79826904D01*
X90838785Y-79541190D01*
X90791166Y-79445952D01*
X90743547Y-79398333D01*
X90648309Y-79350714D01*
X90457833Y-79350714D01*
X90362595Y-79398333D01*
X89886404Y-80017380D02*
X89886404Y-79017380D01*
X89505452Y-79017380D01*
X89410214Y-79065000D01*
X89362595Y-79112619D01*
X89314976Y-79207857D01*
X89314976Y-79350714D01*
X89362595Y-79445952D01*
X89410214Y-79493571D01*
X89505452Y-79541190D01*
X89886404Y-79541190D01*
X88886404Y-80017380D02*
X88886404Y-79350714D01*
X88886404Y-79541190D02*
X88838785Y-79445952D01*
X88791166Y-79398333D01*
X88695928Y-79350714D01*
X88600690Y-79350714D01*
X88124500Y-80017380D02*
X88219738Y-79969761D01*
X88267357Y-79922142D01*
X88314976Y-79826904D01*
X88314976Y-79541190D01*
X88267357Y-79445952D01*
X88219738Y-79398333D01*
X88124500Y-79350714D01*
X87981642Y-79350714D01*
X87886404Y-79398333D01*
X87838785Y-79445952D01*
X87791166Y-79541190D01*
X87791166Y-79826904D01*
X87838785Y-79922142D01*
X87886404Y-79969761D01*
X87981642Y-80017380D01*
X88124500Y-80017380D01*
X87362595Y-79350714D02*
X87362595Y-80207857D01*
X87410214Y-80303095D01*
X87505452Y-80350714D01*
X87553071Y-80350714D01*
X87362595Y-79017380D02*
X87410214Y-79065000D01*
X87362595Y-79112619D01*
X87314976Y-79065000D01*
X87362595Y-79017380D01*
X87362595Y-79112619D01*
X86505452Y-79969761D02*
X86600690Y-80017380D01*
X86791166Y-80017380D01*
X86886404Y-79969761D01*
X86934023Y-79874523D01*
X86934023Y-79493571D01*
X86886404Y-79398333D01*
X86791166Y-79350714D01*
X86600690Y-79350714D01*
X86505452Y-79398333D01*
X86457833Y-79493571D01*
X86457833Y-79588809D01*
X86934023Y-79684047D01*
X85600690Y-79969761D02*
X85695928Y-80017380D01*
X85886404Y-80017380D01*
X85981642Y-79969761D01*
X86029261Y-79922142D01*
X86076880Y-79826904D01*
X86076880Y-79541190D01*
X86029261Y-79445952D01*
X85981642Y-79398333D01*
X85886404Y-79350714D01*
X85695928Y-79350714D01*
X85600690Y-79398333D01*
X85314976Y-79350714D02*
X84934023Y-79350714D01*
X85172119Y-79017380D02*
X85172119Y-79874523D01*
X85124500Y-79969761D01*
X85029261Y-80017380D01*
X84934023Y-80017380D01*
X84457833Y-80017380D02*
X84553071Y-79969761D01*
X84600690Y-79922142D01*
X84648309Y-79826904D01*
X84648309Y-79541190D01*
X84600690Y-79445952D01*
X84553071Y-79398333D01*
X84457833Y-79350714D01*
X84314976Y-79350714D01*
X84219738Y-79398333D01*
X84172119Y-79445952D01*
X84124500Y-79541190D01*
X84124500Y-79826904D01*
X84172119Y-79922142D01*
X84219738Y-79969761D01*
X84314976Y-80017380D01*
X84457833Y-80017380D01*
X83695928Y-80017380D02*
X83695928Y-79350714D01*
X83695928Y-79541190D02*
X83648309Y-79445952D01*
X83600690Y-79398333D01*
X83505452Y-79350714D01*
X83410214Y-79350714D01*
X117800380Y-34425142D02*
X116800380Y-34425142D01*
X116800380Y-34806095D01*
X116848000Y-34901333D01*
X116895619Y-34948952D01*
X116990857Y-34996571D01*
X117133714Y-34996571D01*
X117228952Y-34948952D01*
X117276571Y-34901333D01*
X117324190Y-34806095D01*
X117324190Y-34425142D01*
X117514666Y-35377523D02*
X117514666Y-35853714D01*
X117800380Y-35282285D02*
X116800380Y-35615619D01*
X117800380Y-35948952D01*
X117800380Y-36806095D02*
X117800380Y-36234666D01*
X117800380Y-36520380D02*
X116800380Y-36520380D01*
X116943238Y-36425142D01*
X117038476Y-36329904D01*
X117086095Y-36234666D01*
X117800380Y-37758476D02*
X117800380Y-37187047D01*
X117800380Y-37472761D02*
X116800380Y-37472761D01*
X116943238Y-37377523D01*
X117038476Y-37282285D01*
X117086095Y-37187047D01*
X115260380Y-35409333D02*
X114260380Y-35409333D01*
X114260380Y-35790285D01*
X114308000Y-35885523D01*
X114355619Y-35933142D01*
X114450857Y-35980761D01*
X114593714Y-35980761D01*
X114688952Y-35933142D01*
X114736571Y-35885523D01*
X114784190Y-35790285D01*
X114784190Y-35409333D01*
X114974666Y-36361714D02*
X114974666Y-36837904D01*
X115260380Y-36266476D02*
X114260380Y-36599809D01*
X115260380Y-36933142D01*
X114593714Y-37695047D02*
X115260380Y-37695047D01*
X114212761Y-37456952D02*
X114927047Y-37218857D01*
X114927047Y-37837904D01*
X112720380Y-34353714D02*
X111720380Y-34353714D01*
X111720380Y-34734666D01*
X111768000Y-34829904D01*
X111815619Y-34877523D01*
X111910857Y-34925142D01*
X112053714Y-34925142D01*
X112148952Y-34877523D01*
X112196571Y-34829904D01*
X112244190Y-34734666D01*
X112244190Y-34353714D01*
X112196571Y-35687047D02*
X112244190Y-35829904D01*
X112291809Y-35877523D01*
X112387047Y-35925142D01*
X112529904Y-35925142D01*
X112625142Y-35877523D01*
X112672761Y-35829904D01*
X112720380Y-35734666D01*
X112720380Y-35353714D01*
X111720380Y-35353714D01*
X111720380Y-35687047D01*
X111768000Y-35782285D01*
X111815619Y-35829904D01*
X111910857Y-35877523D01*
X112006095Y-35877523D01*
X112101333Y-35829904D01*
X112148952Y-35782285D01*
X112196571Y-35687047D01*
X112196571Y-35353714D01*
X112720380Y-36877523D02*
X112720380Y-36306095D01*
X112720380Y-36591809D02*
X111720380Y-36591809D01*
X111863238Y-36496571D01*
X111958476Y-36401333D01*
X112006095Y-36306095D01*
X111720380Y-37496571D02*
X111720380Y-37591809D01*
X111768000Y-37687047D01*
X111815619Y-37734666D01*
X111910857Y-37782285D01*
X112101333Y-37829904D01*
X112339428Y-37829904D01*
X112529904Y-37782285D01*
X112625142Y-37734666D01*
X112672761Y-37687047D01*
X112720380Y-37591809D01*
X112720380Y-37496571D01*
X112672761Y-37401333D01*
X112625142Y-37353714D01*
X112529904Y-37306095D01*
X112339428Y-37258476D01*
X112101333Y-37258476D01*
X111910857Y-37306095D01*
X111815619Y-37353714D01*
X111768000Y-37401333D01*
X111720380Y-37496571D01*
X110180380Y-35337904D02*
X109180380Y-35337904D01*
X109180380Y-35718857D01*
X109228000Y-35814095D01*
X109275619Y-35861714D01*
X109370857Y-35909333D01*
X109513714Y-35909333D01*
X109608952Y-35861714D01*
X109656571Y-35814095D01*
X109704190Y-35718857D01*
X109704190Y-35337904D01*
X109656571Y-36671238D02*
X109704190Y-36814095D01*
X109751809Y-36861714D01*
X109847047Y-36909333D01*
X109989904Y-36909333D01*
X110085142Y-36861714D01*
X110132761Y-36814095D01*
X110180380Y-36718857D01*
X110180380Y-36337904D01*
X109180380Y-36337904D01*
X109180380Y-36671238D01*
X109228000Y-36766476D01*
X109275619Y-36814095D01*
X109370857Y-36861714D01*
X109466095Y-36861714D01*
X109561333Y-36814095D01*
X109608952Y-36766476D01*
X109656571Y-36671238D01*
X109656571Y-36337904D01*
X109275619Y-37290285D02*
X109228000Y-37337904D01*
X109180380Y-37433142D01*
X109180380Y-37671238D01*
X109228000Y-37766476D01*
X109275619Y-37814095D01*
X109370857Y-37861714D01*
X109466095Y-37861714D01*
X109608952Y-37814095D01*
X110180380Y-37242666D01*
X110180380Y-37861714D01*
X107640380Y-35409333D02*
X106640380Y-35409333D01*
X106640380Y-35790285D01*
X106688000Y-35885523D01*
X106735619Y-35933142D01*
X106830857Y-35980761D01*
X106973714Y-35980761D01*
X107068952Y-35933142D01*
X107116571Y-35885523D01*
X107164190Y-35790285D01*
X107164190Y-35409333D01*
X107354666Y-36361714D02*
X107354666Y-36837904D01*
X107640380Y-36266476D02*
X106640380Y-36599809D01*
X107640380Y-36933142D01*
X106640380Y-37171238D02*
X106640380Y-37837904D01*
X107640380Y-37409333D01*
X105100380Y-35409333D02*
X104100380Y-35409333D01*
X104100380Y-35790285D01*
X104148000Y-35885523D01*
X104195619Y-35933142D01*
X104290857Y-35980761D01*
X104433714Y-35980761D01*
X104528952Y-35933142D01*
X104576571Y-35885523D01*
X104624190Y-35790285D01*
X104624190Y-35409333D01*
X104814666Y-36361714D02*
X104814666Y-36837904D01*
X105100380Y-36266476D02*
X104100380Y-36599809D01*
X105100380Y-36933142D01*
X104100380Y-37742666D02*
X104100380Y-37266476D01*
X104576571Y-37218857D01*
X104528952Y-37266476D01*
X104481333Y-37361714D01*
X104481333Y-37599809D01*
X104528952Y-37695047D01*
X104576571Y-37742666D01*
X104671809Y-37790285D01*
X104909904Y-37790285D01*
X105005142Y-37742666D01*
X105052761Y-37695047D01*
X105100380Y-37599809D01*
X105100380Y-37361714D01*
X105052761Y-37266476D01*
X105005142Y-37218857D01*
X116433000Y-42275238D02*
X116433000Y-43275238D01*
X117276571Y-42846666D02*
X117324190Y-42989523D01*
X117371809Y-43037142D01*
X117467047Y-43084761D01*
X117609904Y-43084761D01*
X117705142Y-43037142D01*
X117752761Y-42989523D01*
X117800380Y-42894285D01*
X117800380Y-42513333D01*
X116800380Y-42513333D01*
X116800380Y-42846666D01*
X116848000Y-42941904D01*
X116895619Y-42989523D01*
X116990857Y-43037142D01*
X117086095Y-43037142D01*
X117181333Y-42989523D01*
X117228952Y-42941904D01*
X117276571Y-42846666D01*
X117276571Y-42513333D01*
X116433000Y-43275238D02*
X116433000Y-44084761D01*
X117800380Y-43989523D02*
X117800380Y-43513333D01*
X116800380Y-43513333D01*
X115165142Y-43013333D02*
X115212761Y-42965714D01*
X115260380Y-42822857D01*
X115260380Y-42727619D01*
X115212761Y-42584761D01*
X115117523Y-42489523D01*
X115022285Y-42441904D01*
X114831809Y-42394285D01*
X114688952Y-42394285D01*
X114498476Y-42441904D01*
X114403238Y-42489523D01*
X114308000Y-42584761D01*
X114260380Y-42727619D01*
X114260380Y-42822857D01*
X114308000Y-42965714D01*
X114355619Y-43013333D01*
X115212761Y-43394285D02*
X115260380Y-43537142D01*
X115260380Y-43775238D01*
X115212761Y-43870476D01*
X115165142Y-43918095D01*
X115069904Y-43965714D01*
X114974666Y-43965714D01*
X114879428Y-43918095D01*
X114831809Y-43870476D01*
X114784190Y-43775238D01*
X114736571Y-43584761D01*
X114688952Y-43489523D01*
X114641333Y-43441904D01*
X114546095Y-43394285D01*
X114450857Y-43394285D01*
X114355619Y-43441904D01*
X114308000Y-43489523D01*
X114260380Y-43584761D01*
X114260380Y-43822857D01*
X114308000Y-43965714D01*
X112720380Y-42418095D02*
X111720380Y-42418095D01*
X111720380Y-42656190D01*
X111768000Y-42799047D01*
X111863238Y-42894285D01*
X111958476Y-42941904D01*
X112148952Y-42989523D01*
X112291809Y-42989523D01*
X112482285Y-42941904D01*
X112577523Y-42894285D01*
X112672761Y-42799047D01*
X112720380Y-42656190D01*
X112720380Y-42418095D01*
X112625142Y-43989523D02*
X112672761Y-43941904D01*
X112720380Y-43799047D01*
X112720380Y-43703809D01*
X112672761Y-43560952D01*
X112577523Y-43465714D01*
X112482285Y-43418095D01*
X112291809Y-43370476D01*
X112148952Y-43370476D01*
X111958476Y-43418095D01*
X111863238Y-43465714D01*
X111768000Y-43560952D01*
X111720380Y-43703809D01*
X111720380Y-43799047D01*
X111768000Y-43941904D01*
X111815619Y-43989523D01*
X110180380Y-43068952D02*
X109704190Y-42735619D01*
X110180380Y-42497523D02*
X109180380Y-42497523D01*
X109180380Y-42878476D01*
X109228000Y-42973714D01*
X109275619Y-43021333D01*
X109370857Y-43068952D01*
X109513714Y-43068952D01*
X109608952Y-43021333D01*
X109656571Y-42973714D01*
X109704190Y-42878476D01*
X109704190Y-42497523D01*
X109656571Y-43497523D02*
X109656571Y-43830857D01*
X110180380Y-43973714D02*
X110180380Y-43497523D01*
X109180380Y-43497523D01*
X109180380Y-43973714D01*
X110132761Y-44354666D02*
X110180380Y-44497523D01*
X110180380Y-44735619D01*
X110132761Y-44830857D01*
X110085142Y-44878476D01*
X109989904Y-44926095D01*
X109894666Y-44926095D01*
X109799428Y-44878476D01*
X109751809Y-44830857D01*
X109704190Y-44735619D01*
X109656571Y-44545142D01*
X109608952Y-44449904D01*
X109561333Y-44402285D01*
X109466095Y-44354666D01*
X109370857Y-44354666D01*
X109275619Y-44402285D01*
X109228000Y-44449904D01*
X109180380Y-44545142D01*
X109180380Y-44783238D01*
X109228000Y-44926095D01*
X107592761Y-42426380D02*
X107640380Y-42569238D01*
X107640380Y-42807333D01*
X107592761Y-42902571D01*
X107545142Y-42950190D01*
X107449904Y-42997809D01*
X107354666Y-42997809D01*
X107259428Y-42950190D01*
X107211809Y-42902571D01*
X107164190Y-42807333D01*
X107116571Y-42616857D01*
X107068952Y-42521619D01*
X107021333Y-42474000D01*
X106926095Y-42426380D01*
X106830857Y-42426380D01*
X106735619Y-42474000D01*
X106688000Y-42521619D01*
X106640380Y-42616857D01*
X106640380Y-42854952D01*
X106688000Y-42997809D01*
X107640380Y-43426380D02*
X106640380Y-43426380D01*
X106640380Y-43664476D01*
X106688000Y-43807333D01*
X106783238Y-43902571D01*
X106878476Y-43950190D01*
X107068952Y-43997809D01*
X107211809Y-43997809D01*
X107402285Y-43950190D01*
X107497523Y-43902571D01*
X107592761Y-43807333D01*
X107640380Y-43664476D01*
X107640380Y-43426380D01*
X107354666Y-44378761D02*
X107354666Y-44854952D01*
X107640380Y-44283523D02*
X106640380Y-44616857D01*
X107640380Y-44950190D01*
X106592761Y-45997809D02*
X107878476Y-45140666D01*
X107640380Y-46331142D02*
X106640380Y-46331142D01*
X107354666Y-46664476D01*
X106640380Y-46997809D01*
X107640380Y-46997809D01*
X106640380Y-47664476D02*
X106640380Y-47854952D01*
X106688000Y-47950190D01*
X106783238Y-48045428D01*
X106973714Y-48093047D01*
X107307047Y-48093047D01*
X107497523Y-48045428D01*
X107592761Y-47950190D01*
X107640380Y-47854952D01*
X107640380Y-47664476D01*
X107592761Y-47569238D01*
X107497523Y-47474000D01*
X107307047Y-47426380D01*
X106973714Y-47426380D01*
X106783238Y-47474000D01*
X106688000Y-47569238D01*
X106640380Y-47664476D01*
X107592761Y-48474000D02*
X107640380Y-48616857D01*
X107640380Y-48854952D01*
X107592761Y-48950190D01*
X107545142Y-48997809D01*
X107449904Y-49045428D01*
X107354666Y-49045428D01*
X107259428Y-48997809D01*
X107211809Y-48950190D01*
X107164190Y-48854952D01*
X107116571Y-48664476D01*
X107068952Y-48569238D01*
X107021333Y-48521619D01*
X106926095Y-48474000D01*
X106830857Y-48474000D01*
X106735619Y-48521619D01*
X106688000Y-48569238D01*
X106640380Y-48664476D01*
X106640380Y-48902571D01*
X106688000Y-49045428D01*
X107640380Y-49474000D02*
X106640380Y-49474000D01*
X105052761Y-42529523D02*
X105100380Y-42672380D01*
X105100380Y-42910476D01*
X105052761Y-43005714D01*
X105005142Y-43053333D01*
X104909904Y-43100952D01*
X104814666Y-43100952D01*
X104719428Y-43053333D01*
X104671809Y-43005714D01*
X104624190Y-42910476D01*
X104576571Y-42720000D01*
X104528952Y-42624761D01*
X104481333Y-42577142D01*
X104386095Y-42529523D01*
X104290857Y-42529523D01*
X104195619Y-42577142D01*
X104148000Y-42624761D01*
X104100380Y-42720000D01*
X104100380Y-42958095D01*
X104148000Y-43100952D01*
X105005142Y-44100952D02*
X105052761Y-44053333D01*
X105100380Y-43910476D01*
X105100380Y-43815238D01*
X105052761Y-43672380D01*
X104957523Y-43577142D01*
X104862285Y-43529523D01*
X104671809Y-43481904D01*
X104528952Y-43481904D01*
X104338476Y-43529523D01*
X104243238Y-43577142D01*
X104148000Y-43672380D01*
X104100380Y-43815238D01*
X104100380Y-43910476D01*
X104148000Y-44053333D01*
X104195619Y-44100952D01*
X105100380Y-45005714D02*
X105100380Y-44529523D01*
X104100380Y-44529523D01*
X104052761Y-46053333D02*
X105338476Y-45196190D01*
X105052761Y-46339047D02*
X105100380Y-46481904D01*
X105100380Y-46720000D01*
X105052761Y-46815238D01*
X105005142Y-46862857D01*
X104909904Y-46910476D01*
X104814666Y-46910476D01*
X104719428Y-46862857D01*
X104671809Y-46815238D01*
X104624190Y-46720000D01*
X104576571Y-46529523D01*
X104528952Y-46434285D01*
X104481333Y-46386666D01*
X104386095Y-46339047D01*
X104290857Y-46339047D01*
X104195619Y-46386666D01*
X104148000Y-46434285D01*
X104100380Y-46529523D01*
X104100380Y-46767619D01*
X104148000Y-46910476D01*
X105005142Y-47910476D02*
X105052761Y-47862857D01*
X105100380Y-47720000D01*
X105100380Y-47624761D01*
X105052761Y-47481904D01*
X104957523Y-47386666D01*
X104862285Y-47339047D01*
X104671809Y-47291428D01*
X104528952Y-47291428D01*
X104338476Y-47339047D01*
X104243238Y-47386666D01*
X104148000Y-47481904D01*
X104100380Y-47624761D01*
X104100380Y-47720000D01*
X104148000Y-47862857D01*
X104195619Y-47910476D01*
X105100380Y-48339047D02*
X104100380Y-48339047D01*
X105100380Y-48910476D02*
X104528952Y-48481904D01*
X104100380Y-48910476D02*
X104671809Y-48339047D01*
X101560380Y-42449904D02*
X101560380Y-43068952D01*
X101941333Y-42735619D01*
X101941333Y-42878476D01*
X101988952Y-42973714D01*
X102036571Y-43021333D01*
X102131809Y-43068952D01*
X102369904Y-43068952D01*
X102465142Y-43021333D01*
X102512761Y-42973714D01*
X102560380Y-42878476D01*
X102560380Y-42592761D01*
X102512761Y-42497523D01*
X102465142Y-42449904D01*
X101560380Y-43354666D02*
X102560380Y-43688000D01*
X101560380Y-44021333D01*
X101560380Y-44259428D02*
X101560380Y-44878476D01*
X101941333Y-44545142D01*
X101941333Y-44688000D01*
X101988952Y-44783238D01*
X102036571Y-44830857D01*
X102131809Y-44878476D01*
X102369904Y-44878476D01*
X102465142Y-44830857D01*
X102512761Y-44783238D01*
X102560380Y-44688000D01*
X102560380Y-44402285D01*
X102512761Y-44307047D01*
X102465142Y-44259428D01*
X99068000Y-42926095D02*
X99020380Y-42830857D01*
X99020380Y-42688000D01*
X99068000Y-42545142D01*
X99163238Y-42449904D01*
X99258476Y-42402285D01*
X99448952Y-42354666D01*
X99591809Y-42354666D01*
X99782285Y-42402285D01*
X99877523Y-42449904D01*
X99972761Y-42545142D01*
X100020380Y-42688000D01*
X100020380Y-42783238D01*
X99972761Y-42926095D01*
X99925142Y-42973714D01*
X99591809Y-42973714D01*
X99591809Y-42783238D01*
X100020380Y-43402285D02*
X99020380Y-43402285D01*
X100020380Y-43973714D01*
X99020380Y-43973714D01*
X100020380Y-44449904D02*
X99020380Y-44449904D01*
X99020380Y-44688000D01*
X99068000Y-44830857D01*
X99163238Y-44926095D01*
X99258476Y-44973714D01*
X99448952Y-45021333D01*
X99591809Y-45021333D01*
X99782285Y-44973714D01*
X99877523Y-44926095D01*
X99972761Y-44830857D01*
X100020380Y-44688000D01*
X100020380Y-44449904D01*
X136652000Y-50292000D02*
X136652000Y-46736000D01*
X134620000Y-48514000D02*
X134620000Y-46736000D01*
X133214857Y-49157380D02*
X133214857Y-48157380D01*
X132833904Y-48157380D01*
X132738666Y-48205000D01*
X132691047Y-48252619D01*
X132643428Y-48347857D01*
X132643428Y-48490714D01*
X132691047Y-48585952D01*
X132738666Y-48633571D01*
X132833904Y-48681190D01*
X133214857Y-48681190D01*
X132262476Y-48871666D02*
X131786285Y-48871666D01*
X132357714Y-49157380D02*
X132024380Y-48157380D01*
X131691047Y-49157380D01*
X130833904Y-49157380D02*
X131405333Y-49157380D01*
X131119619Y-49157380D02*
X131119619Y-48157380D01*
X131214857Y-48300238D01*
X131310095Y-48395476D01*
X131405333Y-48443095D01*
X129881523Y-49157380D02*
X130452952Y-49157380D01*
X130167238Y-49157380D02*
X130167238Y-48157380D01*
X130262476Y-48300238D01*
X130357714Y-48395476D01*
X130452952Y-48443095D01*
X133214857Y-50807380D02*
X133214857Y-49807380D01*
X132833904Y-49807380D01*
X132738666Y-49855000D01*
X132691047Y-49902619D01*
X132643428Y-49997857D01*
X132643428Y-50140714D01*
X132691047Y-50235952D01*
X132738666Y-50283571D01*
X132833904Y-50331190D01*
X133214857Y-50331190D01*
X132262476Y-50521666D02*
X131786285Y-50521666D01*
X132357714Y-50807380D02*
X132024380Y-49807380D01*
X131691047Y-50807380D01*
X130833904Y-50807380D02*
X131405333Y-50807380D01*
X131119619Y-50807380D02*
X131119619Y-49807380D01*
X131214857Y-49950238D01*
X131310095Y-50045476D01*
X131405333Y-50093095D01*
X130452952Y-49902619D02*
X130405333Y-49855000D01*
X130310095Y-49807380D01*
X130072000Y-49807380D01*
X129976761Y-49855000D01*
X129929142Y-49902619D01*
X129881523Y-49997857D01*
X129881523Y-50093095D01*
X129929142Y-50235952D01*
X130500571Y-50807380D01*
X129881523Y-50807380D01*
M02*
