M48
INCH,TZ
T1C0.0157
T2C0.0197
T3C0.0315
T4C0.0319
T5C0.0374
T6C0.0394
T7C0.0551
T8C0.0906
T9C0.1260
%
G90
G05
T1
X35600Y-15300
X35600Y-18000
X35600Y-20300
X35600Y-25300
X35600Y-27600
X35600Y-29700
X36000Y-32100
X36000Y-33300
X36800Y-41000
X37000Y-31800
X38300Y-23100
X38573Y-25973
X38600Y-22200
X39200Y-21900
X39200Y-29900
X39400Y-26600
X39900Y-26400
X40500Y-23700
X40600Y-21100
X40700Y-28200
X40900Y-21600
X41298Y-21598
X41300Y-26100
X41300Y-26900
X41305Y-26502
X41500Y-29200
X41600Y-21200
X41800Y-42200
X41900Y-26400
X41980Y-25830
X42000Y-43200
X42200Y-25504
X42243Y-21124
X42296Y-32604
X42300Y-22400
X42371Y-21600
X42387Y-28419
X42628Y-25476
X42700Y-22400
X42700Y-33700
X42702Y-25090
X42800Y-40000
X42918Y-22072
X43000Y-44400
X43200Y-33500
X43252Y-26848
X43300Y-25100
X43600Y-27900
X43600Y-33300
X43900Y-27600
X44442Y-21742
X44500Y-27100
X44502Y-27498
X44600Y-26700
X44673Y-24227
X44720Y-21464
X45198Y-28202
X45396Y-28804
X45500Y-23600
X45600Y-26200
X45600Y-26700
X46100Y-29900
X46200Y-28100
X46300Y-29000
X46398Y-29602
X47300Y-33700
X47300Y-34200
X47300Y-34700
X48200Y-35200
X49200Y-35200
X49800Y-30500
X49800Y-31000
X49800Y-31600
X50200Y-35200
X51200Y-35200
X51600Y-31535
X51700Y-30600
X52000Y-31535
X52200Y-35200
X52220Y-31880
X52500Y-33700
X52700Y-22100
X53000Y-21700
X53000Y-27300
X53200Y-34600
X53200Y-35100
X54300Y-34800
X55002Y-35098
X56000Y-33700
X57000Y-26900
T2
X33800Y-35600
X33800Y-40200
X34000Y-11800
X34000Y-13400
X37000Y-13400
X37200Y-11000
X37200Y-24200
X39000Y-39000
X39798Y-23702
X40800Y-41400
X45439Y-39000
X45600Y-41000
X46095Y-25705
X47000Y-24800
X49500Y-14600
X56300Y-16900
X56300Y-19300
T3
X33200Y-37200
X41400Y-30000
X43321Y-30000
X43800Y-43000
X44800Y-43000
X45800Y-43000
X50900Y-11000
X50900Y-12000
X50900Y-13000
T4
X53000Y-16800
X53000Y-17800
X53787Y-16800
X53787Y-17800
T5
X32400Y-42600
X33384Y-42600
X34369Y-42600
T6
X54200Y-24600
X55200Y-24600
X56200Y-24600
X57200Y-24600
X29400Y-33616
X29400Y-34600
X54400Y-37000
X55400Y-37000
X56400Y-37000
X57400Y-37000
X54200Y-21400
X54200Y-22400
X55200Y-21400
X55200Y-22400
X54400Y-11400
X54400Y-12384
X39200Y-15800
X39200Y-35600
X40200Y-15800
X40200Y-35600
X41200Y-15800
X41200Y-35600
X42200Y-15800
X42200Y-35600
X43200Y-15800
X43200Y-35600
X44200Y-15800
X44200Y-35600
X45200Y-15800
X45200Y-35600
X46200Y-15800
X46200Y-35600
X37400Y-42600
X38384Y-42600
T7
X30000Y-37600
X30000Y-39600
X30000Y-24400
X30000Y-26400
X30000Y-28400
X30000Y-30400
X30000Y-14800
X30000Y-16800
X30000Y-18800
X30000Y-20800
T8
X54850Y-14938
X54850Y-19662
T9
X27200Y-43400
X27400Y-11400
X57400Y-43400
X57400Y-11400
T0
M30
